<?xml version="1.0" standalone="no"?>
<!DOCTYPE svg PUBLIC "-//W3C//DTD SVG 20010904//EN"
 "http://www.w3.org/TR/2001/REC-SVG-20010904/DTD/svg10.dtd">
<svg version="1.0" xmlns="http://www.w3.org/2000/svg"
 width="500.000000pt" height="500.000000pt" viewBox="0 0 500.000000 500.000000"
 preserveAspectRatio="xMidYMid meet">
<metadata>
Created by potrace 1.11, written by Peter Selinger 2001-2013
</metadata>
<g transform="translate(0.000000,500.000000) scale(0.100000,-0.100000)"
fill="#000000" stroke="none">
<path d="M1254 4979 c-55 -26 -81 -56 -103 -115 -66 -177 73 -473 294 -629 79
-55 124 -75 188 -82 50 -6 147 -46 147 -61 0 -4 -9 -41 -20 -81 -11 -41 -17
-78 -13 -82 5 -5 26 -11 49 -14 l40 -7 13 58 c30 134 108 260 179 290 38 16
121 20 187 9 108 -18 225 -73 330 -155 159 -125 250 -162 377 -155 88 5 91 5
153 23 75 21 100 25 190 29 76 4 99 1 150 -18 85 -31 129 -78 145 -153 16 -77
7 -126 -34 -190 -48 -75 -116 -129 -116 -92 0 25 -52 111 -93 154 -95 98 -181
131 -332 127 -93 -3 -130 -5 -305 -21 -117 -11 -131 -18 -223 -110 l-68 -68
-55 19 c-68 23 -117 21 -153 -5 l-29 -20 -26 55 c-33 66 -101 119 -187 146
-51 16 -83 18 -197 14 -75 -2 -150 -7 -166 -10 -72 -15 -147 -74 -193 -153
-27 -46 -28 -51 -28 -197 0 -130 5 -213 19 -338 5 -38 32 -74 92 -120 93 -71
192 -79 306 -25 82 39 151 103 248 233 76 101 110 171 122 255 14 94 20 111
50 133 37 27 86 29 139 3 l44 -21 6 -105 c6 -95 11 -113 47 -190 111 -237 260
-384 460 -457 111 -41 228 -37 320 11 133 69 235 299 235 531 0 90 15 132 67
184 54 53 54 50 24 -119 -8 -47 -30 -148 -49 -225 -48 -199 -47 -190 -50 -301
-6 -181 40 -309 207 -577 92 -149 175 -311 212 -415 24 -68 72 -231 82 -277
10 -46 44 -243 49 -280 12 -85 5 -293 -10 -355 -2 -8 -7 -35 -10 -60 -18 -126
-158 -592 -215 -713 -46 -98 -119 -154 -185 -141 -31 5 -37 12 -56 63 -19 48
-23 76 -23 191 0 74 5 149 11 166 15 43 -1 72 -57 100 -176 89 -392 -25 -438
-232 -9 -41 -8 -124 3 -182 11 -58 50 -115 100 -147 42 -26 57 -29 124 -30 62
0 86 5 130 27 l55 27 23 -26 c56 -60 150 -75 236 -39 51 21 127 100 158 166
37 75 142 395 184 554 52 200 72 333 73 486 0 124 -4 167 -43 380 -42 238
-146 507 -278 721 -158 256 -191 320 -219 433 -26 103 -20 228 17 376 14 58
39 168 55 245 27 129 33 172 45 294 3 24 6 45 7 46 3 3 46 8 173 21 33 3 62 7
65 9 3 2 26 6 50 10 55 8 176 55 250 98 64 36 168 138 192 188 9 18 32 66 51
104 19 39 42 109 51 155 10 46 23 98 30 115 46 113 -52 230 -187 224 -150 -7
-548 -174 -642 -269 -109 -110 -177 -231 -184 -326 -1 -7 -24 -2 -63 14 -84
34 -217 39 -338 11 -268 -62 -319 -52 -502 92 -49 38 -90 69 -93 69 -3 0 -22
10 -43 23 -59 37 -165 75 -252 91 -14 2 -59 5 -101 5 l-75 1 -17 35 c-9 20
-17 42 -17 49 0 30 -91 194 -136 244 -96 110 -296 238 -438 281 -84 26 -139
26 -192 0z m173 -94 c114 -36 278 -138 369 -231 52 -52 105 -146 138 -242 l24
-73 -33 -22 c-19 -12 -44 -39 -57 -60 -45 -74 -38 -70 -88 -48 -25 11 -76 25
-115 32 -108 20 -232 103 -309 207 -149 203 -168 415 -42 451 17 5 32 10 33
10 1 1 37 -10 80 -24z m2994 -336 c29 -15 31 -45 10 -131 -11 -46 -23 -97 -26
-114 -2 -17 -28 -78 -56 -135 -60 -120 -115 -179 -218 -232 -112 -59 -198 -80
-369 -92 -41 -3 -78 -7 -84 -8 -6 -1 -17 20 -25 47 -8 27 -21 59 -30 72 -35
53 -5 171 71 277 73 102 120 137 268 202 73 31 147 63 163 71 109 49 248 69
296 43z m-1055 -3993 c20 -6 21 -10 12 -54 -8 -44 -5 -142 8 -254 6 -46 5 -47
-35 -73 -22 -15 -60 -30 -84 -32 -106 -12 -163 58 -155 191 5 76 21 116 66
165 51 57 124 79 188 57z"/>
<path d="M1520 2841 c-8 -3 -51 -44 -95 -91 -81 -86 -112 -117 -244 -243 -163
-158 -313 -402 -351 -574 -14 -61 -18 -224 -8 -303 25 -197 148 -384 332 -504
213 -139 523 -264 761 -305 33 -6 74 -13 90 -17 53 -11 348 -13 420 -3 256 36
522 213 725 481 179 236 231 423 194 691 -16 114 -55 309 -64 320 -4 5 -26 3
-49 -3 -32 -8 -41 -15 -37 -28 54 -183 80 -460 55 -585 -15 -74 -88 -219 -156
-312 -201 -273 -438 -432 -698 -471 -37 -5 -294 -5 -303 0 -4 2 -32 7 -62 10
-215 25 -446 101 -679 222 -254 133 -358 238 -411 414 -27 91 -31 113 -30 208
0 149 22 243 80 342 16 28 30 53 30 57 0 3 30 48 66 100 46 66 133 161 285
314 l219 219 -14 29 c-17 32 -33 41 -56 32z"/>
<path d="M1316 1758 c-92 -12 -136 -51 -113 -99 21 -42 80 -62 192 -66 150 -4
255 30 255 83 0 60 -172 102 -334 82z"/>
<path d="M2330 1729 c-51 -10 -92 -37 -96 -62 -3 -24 49 -64 109 -82 102 -31
279 -32 319 -1 31 23 33 62 5 90 -47 47 -226 76 -337 55z"/>
<path d="M2865 1372 c-52 -79 -151 -172 -216 -204 -30 -14 -88 -36 -129 -48
-85 -25 -93 -30 -84 -54 7 -19 27 -17 127 15 135 43 258 137 340 259 43 63 43
66 18 79 -16 9 -24 2 -56 -47z"/>
<path d="M588 702 c-29 -6 -43 -61 -39 -157 4 -94 4 -145 -1 -332 -2 -99 0
-115 18 -139 23 -31 53 -39 79 -21 17 13 19 26 15 127 -2 30 1 91 4 134 6 68
12 86 37 117 33 42 127 129 139 129 12 0 21 -48 25 -135 4 -75 12 -178 20
-242 2 -15 5 -56 6 -91 2 -54 5 -66 25 -79 31 -20 70 -10 80 20 11 32 6 134
-11 247 -12 81 -15 172 -5 189 5 11 40 37 77 57 l66 37 23 -26 c24 -28 40 -92
49 -202 4 -38 8 -77 10 -85 2 -8 7 -48 10 -89 10 -111 29 -143 80 -135 44 7
49 39 30 174 -2 14 -7 50 -10 80 -3 30 -8 62 -10 70 -2 8 -6 40 -10 70 -20
189 -48 237 -141 248 -52 6 -124 -19 -159 -54 l-23 -23 -26 33 c-28 37 -66 55
-109 50 -37 -4 -121 -66 -147 -109 -12 -19 -25 -35 -28 -35 -4 0 -5 26 -2 58
8 85 -18 126 -72 114z"/>
<path d="M1413 648 c-22 -44 -27 -296 -8 -416 24 -144 70 -187 205 -185 41 0
94 7 117 16 39 15 41 14 46 -4 7 -25 46 -39 75 -26 12 6 23 15 23 21 1 6 3
121 5 256 2 135 4 261 5 280 3 51 -8 77 -37 84 -29 8 -58 -6 -69 -31 -5 -10
-9 -116 -11 -237 -2 -120 -5 -220 -7 -222 -7 -8 -111 -24 -152 -24 -63 0 -83
22 -94 100 -8 59 -7 233 3 337 5 53 -15 83 -54 83 -23 0 -33 -7 -47 -32z"/>
<path d="M2151 669 c-80 -24 -193 -195 -207 -312 -11 -94 2 -156 44 -212 77
-102 201 -134 330 -86 102 38 142 101 87 137 -18 12 -28 9 -85 -19 -74 -37
-143 -41 -197 -14 -88 46 -104 151 -40 280 50 100 83 129 150 126 31 -2 61
-11 81 -24 47 -32 62 -35 85 -19 26 19 28 65 3 87 -52 47 -183 76 -251 56z"/>
<path d="M2677 660 c-53 -29 -127 -116 -153 -180 -26 -65 -35 -99 -40 -151
-14 -154 82 -270 243 -293 65 -9 206 41 236 84 17 24 11 59 -12 76 -19 14 -22
14 -96 -21 -66 -32 -114 -38 -160 -21 -74 27 -106 72 -106 149 0 86 68 226
126 257 35 19 113 8 158 -22 41 -29 70 -27 84 5 27 60 -54 120 -178 132 -54 5
-70 3 -102 -15z"/>
</g>
</svg>
