<svg xmlns="http://www.w3.org/2000/svg" width="119.705" height="56.128" viewBox="0 0 119.705 56.128">
  <g id="Group_35" data-name="Group 35" transform="translate(-462.295 293.129) rotate(-90)">
    <path id="Path_35" data-name="Path 35" d="M42.766,172.042c-2.466-1.894-19.618.807-20.909.259-1.067-.762-.2-14.79.643-16.882.294-.748.675-.874,1.581-.563,1.44.6,19.575-1.2,19.575-1.2.264.427.9-1.056,1.067-.532.487,1.217,29.889-1.334,32.4-1.481,1.522-.09.362.791,2.139.4,3.791-.785,12.162-.388,15.016-1.246a7.638,7.638,0,0,1,5.039-.294c2.3.387,14.363-.633,15.693-1.651.322-.279.586-.191.6.122,0,.065,8.543.037,8.594.279.083.307.35.448.579.227.426-.336,9.44-1.783,9.637-.878.586,2.573-.059,13.614-.966,16.326-.921,2.892-7.023-.142-11.692,1.729l-22.164.829L94.907,168.7c-.593-.917-2.563,1.49-3.916-.135-.571-.644-4.35-.632-5.148.093-.7.564-20.089-.224-21.968,1.7C60.261,168.9,46.064,171.562,42.766,172.042Z" transform="translate(421.774 440.932) rotate(90)" fill="#65d07d"/>
    <path id="Path_36" data-name="Path 36" d="M86.355,153.323c.841-2.246-6.185-8.621-6.1-9.539.318-.939,11.944-8.705,13.877-9.539.69-.3.9-.2.9.406-.077,1.015,6.49,8.372,6.49,8.372-.272.372,1.1-.2.733.185-.435.458,1.944,3.741,4.537,7.021,4.25,5.372,8.68,10.9,9.364,11.781.976,1.25-.782.292.675,1.735a24.1,24.1,0,0,1,1.72,1.952c-2.968,2.874-8.04,6.759-9.4,8.784a8.163,8.163,0,0,1-2.553,2.751c-.206.091-.46.167-.777.271-1.269.412-5.89,5.061-5.817,6.26.04.315-.133.332-.343.1-.022-.023-1.9,1.291-1.924,1.311a8.673,8.673,0,0,1-2.027,1.219c-.232-.211-.444-.229-.4.012.03.391-2.986,4.366-3.659,3.741A112.717,112.717,0,0,1,81.5,177.418c-1.457-2.5,3.173-2.132,4.01-5.044l9.188-7.7.194-.375a1.774,1.774,0,0,0-.482-.629c.4.275.142.062-.07-.07s-.376-.192.484.188c.672.3,1.192.12.4-.077-.144-.036-.1-.062.058-.109.267-.257.124-.771-.214-.771,0,.028-.077-.051-.147-.111s-.134-.112-.2-.165a2.753,2.753,0,0,0-.379-.254,1.125,1.125,0,0,0-.668-.177C93.836,159.6,87.673,154.573,86.355,153.323Z" transform="translate(427.213 463.452) rotate(90)" fill="#65d07d"/>
  </g>
</svg>
