<svg xmlns="http://www.w3.org/2000/svg" width="84.366" height="78.44" viewBox="0 0 84.366 78.44">
  <path id="Path_48" data-name="Path 48" d="M256.558,234.372c-2.874-2.421-18.785-11.488-22.4-33.425a33.522,33.522,0,0,1-.48-8.209c.251-1.224,2.321-.671,4.474.258a32.092,32.092,0,0,1,3.089,1.55c1.64.933,2.245,1.494,2.417,2.561a34.185,34.185,0,0,0,7.562,19.6,34.614,34.614,0,0,0,13.669,10.316c.312.429,1.874.141,1.985.518a8.327,8.327,0,0,0,1.415.659,29.7,29.7,0,0,0,7.332,1.64c17.024,1.787,31.249-10.032,32.529-25.817.153-1.882-.009-5.089-.009-5.089.035-.57.18-.3.146-.972-.04-.779-.795-5.179-3.971-11.376a29.771,29.771,0,0,0-7.493-8.8c-2.764-2.152-5.107-3.365-12.182-5.717-11.31-3.762-23.924.958-28.034,6.318-.316.522-.669.793-.8.669-5.559,4.957-6.726,13.007-6.726,13.007-.208.089-.317.547-.238.99a24.7,24.7,0,0,0,.079,3,19.713,19.713,0,0,0,4.381,11.6c.248.326.374.547.347.613-.306.768-1.808,1.934-3.8,2.6a7.662,7.662,0,0,1-5.821-.062,4.224,4.224,0,0,1-1.185-1.175c-5.335-7.13-6.734-28.631,9.368-40.768,12.874-9.7,30.538-9.594,45.492-2.409.754.992,5.757,2.767,7.5,5.733.341.579,2.16,2.434,3.807,4.581,1.463,1.909.985,1.238,2.283,3.118.655.948,1.183,1.736,1.516,2.129a38.338,38.338,0,0,1,4.931,15.417c2.071,19.841-11.557,31.383-13.06,33.34-4.94,3.348-12.28,8.111-23.826,8.868A45.528,45.528,0,0,1,256.558,234.372Z" transform="translate(-233.6 -161.285)" fill="#59a8d9"/>
</svg>
