<svg xmlns="http://www.w3.org/2000/svg" width="41.698" height="39.092" viewBox="0 0 41.698 39.092">
  <g id="waze" transform="translate(0 -16)">
    <g id="Group_2541" data-name="Group 2541" transform="translate(0 16)">
      <g id="Group_2540" data-name="Group 2540">
        <path id="Path_907" data-name="Path 907" d="M41.7,32.94C41.7,23.6,33.512,16,23.455,16S5.212,23.6,5.228,33.141c.005.034.482,3.409-1.04,5.189A3.565,3.565,0,0,1,1.3,39.455a1.3,1.3,0,0,0-1.3,1.3c0,3.612,2.677,6.122,8.076,7.584A5.2,5.2,0,1,0,18.243,49.88c0-.044-.013-.083-.013-.128,1.634.083,3.367.128,5.225.128a5.212,5.212,0,1,0,9.695-2.617A16.693,16.693,0,0,0,41.7,32.94ZM31.219,45.363a5.137,5.137,0,0,0-2.551-.7A5.192,5.192,0,0,0,24.2,47.24c-.25.01-.5.034-.745.034-2.2,0-4.18-.081-6.044-.2a5.165,5.165,0,0,0-7.868-1.045c-3.787-.9-6.088-2.267-6.739-4.107a5.692,5.692,0,0,0,3.365-1.9c2.314-2.7,1.665-7.083,1.65-7.083,0-7.9,7.013-14.334,15.637-14.334S39.092,25.035,39.092,32.94A14.176,14.176,0,0,1,31.219,45.363Z" transform="translate(0 -16)"/>
      </g>
    </g>
    <g id="Group_2543" data-name="Group 2543" transform="translate(16.979 27.728)">
      <g id="Group_2542" data-name="Group 2542">
        <path id="Path_908" data-name="Path 908" d="M209.8,160h-.026a1.292,1.292,0,0,0-1.29,1.3A1.31,1.31,0,1,0,209.8,160Z" transform="translate(-208.48 -160)"/>
      </g>
    </g>
    <g id="Group_2545" data-name="Group 2545" transform="translate(27.404 27.728)">
      <g id="Group_2544" data-name="Group 2544">
        <path id="Path_909" data-name="Path 909" d="M337.8,160h-.026a1.293,1.293,0,0,0-1.29,1.3A1.31,1.31,0,1,0,337.8,160Z" transform="translate(-336.48 -160)"/>
      </g>
    </g>
    <g id="Group_2547" data-name="Group 2547" transform="translate(15.637 34.243)">
      <g id="Group_2546" data-name="Group 2546">
        <path id="Path_910" data-name="Path 910" d="M206.615,240.028a1.306,1.306,0,0,0-1.558.985,5.373,5.373,0,0,1-10.485,0,1.3,1.3,0,0,0-2.544.573,7.982,7.982,0,0,0,15.574,0A1.3,1.3,0,0,0,206.615,240.028Z" transform="translate(-191.997 -239.997)"/>
      </g>
    </g>
  </g>
</svg>
