<svg xmlns="http://www.w3.org/2000/svg" width="25.536" height="25.536" viewBox="0 0 25.536 25.536">
  <g id="linkedin" transform="translate(0)">
    <path id="Subtraction_1" data-name="Subtraction 1" d="M12.768,25.536a12.708,12.708,0,0,1-7.139-2.181A12.8,12.8,0,0,1,1,17.738,12.752,12.752,0,0,1,2.181,5.629,12.806,12.806,0,0,1,7.8,1,12.751,12.751,0,0,1,19.907,2.181,12.8,12.8,0,0,1,24.533,7.8a12.752,12.752,0,0,1-1.177,12.109,12.806,12.806,0,0,1-5.618,4.626A12.688,12.688,0,0,1,12.768,25.536ZM15.8,12.073a1.344,1.344,0,0,1,1.187.575,2.664,2.664,0,0,1,.358,1.5V19.06H20.4V13.8a5.838,5.838,0,0,0-.267-1.835,3.511,3.511,0,0,0-.737-1.288,3.3,3.3,0,0,0-2.51-1.008,3.147,3.147,0,0,0-1.831.524,3.44,3.44,0,0,0-.919.992V9.88H11.081c.041.857,0,9.1,0,9.179h3.052V13.933a2.021,2.021,0,0,1,.1-.744,1.906,1.906,0,0,1,.55-.764A1.566,1.566,0,0,1,15.8,12.073ZM6.342,9.88V19.06H9.393V9.88ZM7.888,5.456a1.786,1.786,0,0,0-1.255.455,1.532,1.532,0,0,0-.472,1.131,1.551,1.551,0,0,0,.46,1.124,1.714,1.714,0,0,0,1.227.463h.02A1.779,1.779,0,0,0,9.13,8.165a1.538,1.538,0,0,0,.464-1.124,1.6,1.6,0,0,0-.469-1.131A1.734,1.734,0,0,0,7.888,5.456Z" transform="translate(0 0)"/>
  </g>
</svg>
