<svg id="instagram_1_" data-name="instagram (1)" xmlns="http://www.w3.org/2000/svg" width="25.536" height="25.536" viewBox="0 0 25.536 25.536">
  <path id="Path_16" data-name="Path 16" d="M211.888,209.444A2.444,2.444,0,1,1,209.444,207,2.444,2.444,0,0,1,211.888,209.444Zm0,0" transform="translate(-196.676 -196.676)"/>
  <path id="Path_17" data-name="Path 17" d="M147.211,137.175a2.428,2.428,0,0,0-1.391-1.391,4.057,4.057,0,0,0-1.361-.252c-.773-.035-1.005-.043-2.963-.043s-2.19.007-2.963.043a4.059,4.059,0,0,0-1.361.253,2.429,2.429,0,0,0-1.392,1.391,4.058,4.058,0,0,0-.252,1.361c-.035.773-.043,1-.043,2.963s.008,2.189.043,2.963a4.056,4.056,0,0,0,.252,1.361,2.428,2.428,0,0,0,1.391,1.391,4.051,4.051,0,0,0,1.361.252c.773.035,1,.043,2.963.043s2.19-.007,2.963-.043a4.051,4.051,0,0,0,1.361-.252,2.428,2.428,0,0,0,1.391-1.391,4.059,4.059,0,0,0,.253-1.361c.035-.773.043-1.005.043-2.963s-.007-2.19-.043-2.963A4.052,4.052,0,0,0,147.211,137.175Zm-5.715,8.089a3.765,3.765,0,1,1,3.765-3.765A3.765,3.765,0,0,1,141.5,145.264Zm3.914-6.8a.88.88,0,1,1,.88-.88A.88.88,0,0,1,145.409,138.465Zm0,0" transform="translate(-128.727 -128.731)"/>
  <path id="Path_18" data-name="Path 18" d="M12.768,0A12.768,12.768,0,1,0,25.536,12.768,12.77,12.77,0,0,0,12.768,0Zm7.287,15.791a5.379,5.379,0,0,1-.341,1.78,3.749,3.749,0,0,1-2.144,2.144,5.383,5.383,0,0,1-1.78.341c-.782.036-1.032.044-3.023.044s-2.241-.009-3.023-.044a5.383,5.383,0,0,1-1.78-.341,3.749,3.749,0,0,1-2.144-2.144,5.378,5.378,0,0,1-.341-1.78c-.036-.782-.044-1.032-.044-3.023s.008-2.241.044-3.023a5.38,5.38,0,0,1,.341-1.78A3.751,3.751,0,0,1,7.966,5.821a5.384,5.384,0,0,1,1.78-.341c.782-.036,1.032-.044,3.023-.044s2.241.009,3.023.044a5.385,5.385,0,0,1,1.78.34,3.75,3.75,0,0,1,2.144,2.144,5.378,5.378,0,0,1,.341,1.78c.036.782.044,1.032.044,3.023S20.091,15.009,20.056,15.791Zm0,0"/>
</svg>
