<svg xmlns="http://www.w3.org/2000/svg" width="69.407" height="86.695" viewBox="0 0 69.407 86.695">
  <g id="Group_53" data-name="Group 53" transform="translate(-720.981 -197.201)">
    <path id="Union_1" data-name="Union 1" d="M727.291,283.614a.992.992,0,0,1-.274-.72q0-1.2-.243-3.55t-.246-3.549a3.651,3.651,0,0,0-.3-1.637,4.956,4.956,0,0,0-1.409,1.031l-1.171,1.31a5.969,5.969,0,0,1-.508.627c0,.4-.035.982-.105,1.755s-.112,1.347-.112,1.719a5,5,0,0,0,.1.833,5.032,5.032,0,0,1,.091.774.894.894,0,0,1-.3.685,1.014,1.014,0,0,1-.707.278q-1.123,0-1.123-2.551,0-.6.109-1.777t.11-1.777q0-.527-.094-1.577c-.062-.7-.1-1.231-.1-1.59q0-2.252,1.014-2.252a.967.967,0,0,1,.71.336,1.05,1.05,0,0,1,.32.736,5.131,5.131,0,0,1-.049.585,5.211,5.211,0,0,0-.049.6l.019,1.044a5.972,5.972,0,0,1,1.518-1.921,2.884,2.884,0,0,1,1.707-.86,2.143,2.143,0,0,1,2.145,1.549,3.56,3.56,0,0,1,1.3-1.085,3.906,3.906,0,0,1,1.727-.364,2.279,2.279,0,0,1,2.263,1.787,25.961,25.961,0,0,1,.407,2.791q.278,1.706.715,5.688a.8.8,0,0,1-.268.674,1.02,1.02,0,0,1-.724.279.894.894,0,0,1-.953-.863q-.178-1.095-.358-3.078l-.336-3.078a6.715,6.715,0,0,0-.338-1.339c-.225-.6-.47-.895-.735-.895a3.512,3.512,0,0,0-1.37.625,5.719,5.719,0,0,0-1.251.924q-.008.933.051,1.866l.3,2.651a22.414,22.414,0,0,1,.189,2.591,1,1,0,0,1-.272.72.947.947,0,0,1-.7.282A.933.933,0,0,1,727.291,283.614Zm14.869-1.1a6.1,6.1,0,0,1-2.857.645,3.782,3.782,0,0,1-2.153-.576,2.575,2.575,0,0,1-1.123-1.857,32.581,32.581,0,0,1-.388-4.686,18.528,18.528,0,0,1,.3-3.1.888.888,0,0,1,.944-.864,1.009,1.009,0,0,1,.715.275.925.925,0,0,1,.288.7,11.411,11.411,0,0,1-.145,1.459,11.562,11.562,0,0,0-.143,1.528q0,1.656.109,2.839a9.579,9.579,0,0,0,.328,1.9,3.3,3.3,0,0,0,.643.272,2.189,2.189,0,0,0,.626.1,10.091,10.091,0,0,0,2.81-.429L742.1,278.7l-.018-1.925a31.962,31.962,0,0,1,.188-3.722.9.9,0,0,1,.963-.914.98.98,0,0,1,.714.277.863.863,0,0,1,.27.694l-.179,3.753q0,.715.009,2.144t.009,2.146q0,.217.036.665t.035.664a.925.925,0,0,1-.288.7,1,1,0,0,1-.7.274C742.624,283.46,742.3,283.145,742.16,282.518Zm29.257.366a4.407,4.407,0,0,1-.666-.724,13.2,13.2,0,0,1-1.678.779,3.723,3.723,0,0,1-1.21.264,4.1,4.1,0,0,1-3.387-1.312,5.893,5.893,0,0,1-1-3.771,5.7,5.7,0,0,1,1.651-4.11,5.309,5.309,0,0,1,3.947-1.707,5.088,5.088,0,0,1,1.935.447q1.35.554,1.351,1.339a.679.679,0,0,1-.2.477,6.853,6.853,0,0,0-.153,1.24c-.039.577-.058,1.315-.067,2.215a8.088,8.088,0,0,0,.17,1.946,14.48,14.48,0,0,0,.625,1.747c.045.119.122.294.228.526l.06.17a.854.854,0,0,1-.278.652.917.917,0,0,1-.645.258C771.975,283.32,771.748,283.175,771.417,282.884Zm-4.87-7.569a4.752,4.752,0,0,0-.541,5.335,1.974,1.974,0,0,0,1.727.814,3.469,3.469,0,0,0,1.62-.348,5.87,5.87,0,0,0,1-.753,35.963,35.963,0,0,1-.315-3.942,8.491,8.491,0,0,1,.053-.928c.035-.334.091-.69.163-1.066a4.807,4.807,0,0,0-.629-.278,1.4,1.4,0,0,0-.423-.09A3.439,3.439,0,0,0,766.547,275.315Zm-10.534,6.746a4.367,4.367,0,0,1-1.429-3.406,7.832,7.832,0,0,1,1.342-4.16q1.488-2.381,3.354-2.382a6.213,6.213,0,0,1,2.173.456q1.52.586,1.521,1.429a1.018,1.018,0,0,1-.249.671.8.8,0,0,1-1.117.12l-.412-.342a3.088,3.088,0,0,0-1.915-.468q-1.015,0-2.007,1.807a6.234,6.234,0,0,0-.9,2.868,2.555,2.555,0,0,0,.892,2.065,3.2,3.2,0,0,0,2.145.7,2.993,2.993,0,0,0,1.271-.316l1.152-.616a1.118,1.118,0,0,1,.427-.158.845.845,0,0,1,.635.291.972.972,0,0,1,.266.672q0,.725-1.526,1.4a5.765,5.765,0,0,1-2.225.595A4.875,4.875,0,0,1,756.013,282.061Zm-9.427,0a4.369,4.369,0,0,1-1.428-3.406,7.858,7.858,0,0,1,1.339-4.16q1.489-2.381,3.356-2.382a6.2,6.2,0,0,1,2.173.456q1.521.586,1.52,1.429a1.01,1.01,0,0,1-.25.671.8.8,0,0,1-1.113.12c-.144-.117-.28-.231-.414-.342a3.084,3.084,0,0,0-1.915-.468q-1.012,0-2.005,1.807a6.217,6.217,0,0,0-.9,2.868,2.553,2.553,0,0,0,.893,2.065,3.207,3.207,0,0,0,2.145.7,2.992,2.992,0,0,0,1.27-.316l1.152-.616a1.111,1.111,0,0,1,.427-.158.843.843,0,0,1,.635.291.975.975,0,0,1,.269.672q0,.725-1.53,1.4a5.754,5.754,0,0,1-2.223.595A4.875,4.875,0,0,1,746.585,282.061Z" fill="#1a1818"/>
    <path id="Path_63" data-name="Path 63" d="M754.332,253.806c-2.175-.18-3.994.342-4.064,1.166s1.639,1.644,3.814,1.824c3.029.253,3.982-.176,4.066-1.165C758.244,254.479,756.4,253.981,754.332,253.806Z" fill="#1a1818"/>
    <path id="Path_64" data-name="Path 64" d="M732.307,254.809c0,1.156,1.872,1.507,3.948,1.517,2.183.009,3.956-.654,3.96-1.483s-1.763-1.508-3.947-1.519C733.229,253.311,732.314,253.815,732.307,254.809Z" fill="#1a1818"/>
    <path id="Path_65" data-name="Path 65" d="M753.7,264.9l.205.822.549-.133c2.478-.6,5.289-1.269,8.182-6.04l-.725-.441c-2.708,4.471-5.224,5.073-7.654,5.657Z" fill="#1a1818"/>
    <path id="Path_66" data-name="Path 66" d="M766.873,244.37c1.81,7.6,1.52,10.049.128,12.971-1.2,2.533-6.259,9.98-13.433,10.976-6.441.892-14.564-1.172-21.188-5.39-5.288-3.37-5.533-8.631-4.8-12.453.481-2.531,4.04-7.644,5.681-8.953a62.868,62.868,0,0,0,5.667-5.72l.207-.227-.649-1-.723.059a61.839,61.839,0,0,1-5.48,5.544c-1.7,1.361-5.689,6.834-6.284,9.97-1.171,6.152.8,11.206,5.547,14.232a36.706,36.706,0,0,0,18.96,5.84,23.785,23.785,0,0,0,3.278-.219c7.865-1.091,13.362-9.158,14.665-11.9,1.759-3.692,1.757-6.731-.007-14.14Z" fill="#1a1818"/>
    <path id="Path_67" data-name="Path 67" d="M790.129,204.78a2.636,2.636,0,0,0-1.535-1.422c-1.871-.616-3.705-.021-5.574.7-1.45.559-2.893,1.2-4.288,1.826l-.418.187a7.782,7.782,0,0,0-2.739,1.846,23.523,23.523,0,0,0-2.1,2.831,6.8,6.8,0,0,0-.894,2.9,9.358,9.358,0,0,0-6.618-.742c-.413.089-.82.192-1.222.294-2.385.605-4.447,1.127-7.679-1.692a13.321,13.321,0,0,0-9.749-3.352c-.02,0-.038.007-.058.009a6.317,6.317,0,0,1-.594-1.135,6.832,6.832,0,0,0-.584-1.672,11.282,11.282,0,0,0-3.248-4.286c-.964-.747-1.863-1.384-2.748-1.95a13.075,13.075,0,0,0-4.421-1.84,3.717,3.717,0,0,0-2.965.6,3.672,3.672,0,0,0-1.458,3.085,10.446,10.446,0,0,0,2.107,6.221A11.678,11.678,0,0,0,736.1,210.1l.213.157a7.149,7.149,0,0,0,3.331,1.621l.247.031a4.517,4.517,0,0,1,1.532.372l.232.114c.144.07.477.231.672.346l.093.425a17.535,17.535,0,0,0-.69,2.675l1.667.294a14.7,14.7,0,0,1,1.406-4.217c.191-.213.368-.425.529-.626a2.977,2.977,0,0,1,1.944-1.377l.443-.091a11.625,11.625,0,0,1,8.229,2.96c3.9,3.4,6.6,2.719,9.208,2.057.383-.1.768-.195,1.162-.279,2.718-.582,5.088-.072,6.418,1.349a4.865,4.865,0,0,0,.265.478,1.747,1.747,0,0,1,.221.422,1.658,1.658,0,0,1,.017.206,2.666,2.666,0,0,0,.2,1c.019.305.023.632.014.976a6.2,6.2,0,0,1-2.627,3.624c-.071-.192-.141-.374-.2-.561a7.032,7.032,0,0,0-6.584-4.706c-2.4.082-4.8.28-7.19.519a3.322,3.322,0,0,0-1.682.767,30.157,30.157,0,0,0-2.178,2.236c-1.384-.557-2.788-1.355-4.192.144a4.794,4.794,0,0,0-3.077-3.38c-1.93-.85-3.922-.4-5.905-.37a5.168,5.168,0,0,0-4.849,4.643,57.651,57.651,0,0,0,.434,7.676.955.955,0,0,0,.2.46,5.232,5.232,0,0,0,7.639,1.329,14.67,14.67,0,0,0,2.9-2.962c1.426-1.807,2.817-3.673,2.682-6.187a1.334,1.334,0,0,1,.343-.8c.761-.918,1.54-.992,2.928-.436.65.26.781.628.754,1.32a7.451,7.451,0,0,0,.3,3.073c1.838,4.379,4.5,8.046,9.4,9.344a5.933,5.933,0,0,0,6.659-2.355,13.4,13.4,0,0,0,2.032-8.021,3.688,3.688,0,0,1,2.053-3.194,73.6,73.6,0,0,1-1.719,8.358c-1.533,6.028.633,9.488,3.142,13.5.251.4.51.814.77,1.24a37.269,37.269,0,0,1,5.176,15.552c.781,5.947-1.741,13.168-3.412,17.945l-.254.727c-.659,1.892-1.613,3.071-2.76,3.41a1.554,1.554,0,0,1-1.522-.273l-1.551.741c.253.9,1.537,1.324,2.411,1.324a4.029,4.029,0,0,0,1.142-.165c1.18-.35,2.813-1.411,3.88-4.482l.254-.723c1.721-4.93,4.325-12.379,3.492-18.726a38.807,38.807,0,0,0-5.413-16.218q-.395-.642-.778-1.252c-2.489-3.978-4.289-6.854-2.935-12.179a53.442,53.442,0,0,0,1.942-10.861c.023,0,.046,0,.069-.006.1-.012.671-.079,3.268-.336a14.1,14.1,0,0,0,5.268-1.551,10.368,10.368,0,0,0,3.5-2.747,10.142,10.142,0,0,0,1.224-2.209c.137-.308.274-.616.429-.919a3.669,3.669,0,0,0,.658-1.939c.061-.253.115-.507.17-.762a10.065,10.065,0,0,1,.472-1.719A2.655,2.655,0,0,0,790.129,204.78Zm-46.081,5.092a12.649,12.649,0,0,0-.71,1.19c-.08.077-.15.159-.239.233-.205-.118-.449-.238-.732-.375l-.192-.094a5.9,5.9,0,0,0-2.083-.542l-.237-.031a5.705,5.705,0,0,1-2.568-1.313l-.218-.16a10.042,10.042,0,0,1-2.366-2.509,8.887,8.887,0,0,1-1.827-5.244,2.072,2.072,0,0,1,.768-1.8,2.011,2.011,0,0,1,1.187-.378,2.479,2.479,0,0,1,.5.052,11.421,11.421,0,0,1,3.864,1.615c.842.538,1.7,1.147,2.625,1.864a9.389,9.389,0,0,1,2.765,3.68,5.333,5.333,0,0,1,.454,1.254l.031.156a7.562,7.562,0,0,0,.525,1.164A3.633,3.633,0,0,0,744.048,209.872Zm44.649-3.6a11.481,11.481,0,0,0-.557,2c-.058.272-.116.544-.184.814l-.03.119.006.123a1.992,1.992,0,0,1-.419,1.138l-.039.067c-.177.341-.332.689-.486,1.036a8.737,8.737,0,0,1-1.023,1.873,8.636,8.636,0,0,1-2.969,2.3,12.488,12.488,0,0,1-4.671,1.373c-2.188.216-2.957.3-3.222.329l-.018-.011A4.52,4.52,0,0,0,774.2,215c-.018-.021-.04-.037-.058-.058a6.486,6.486,0,0,1,.689-3.3A21.564,21.564,0,0,1,776.789,209a6.313,6.313,0,0,1,2.189-1.444l.419-.187c1.376-.615,2.8-1.25,4.21-1.794a9.724,9.724,0,0,1,3.345-.847,3.6,3.6,0,0,1,1.133.174,1.118,1.118,0,0,1,.612,1.365Z" fill="#1a1818"/>
  </g>
</svg>
