<svg xmlns="http://www.w3.org/2000/svg" width="8.894" height="96.035" viewBox="0 0 8.894 96.035">
  <g id="Group_40" data-name="Group 40" transform="translate(-678.553 -1502.423)">
    <path id="Path_52" data-name="Path 52" d="M22.747,248.7c-.283-.678-2.04,0-2.182-.2a56.589,56.589,0,0,1-.159-5.73c.021-.25.059-.288.158-.169.158.223,2.029-.134,2.029-.134.033.149.081-.347.1-.166.067.42,3.106-.036,3.366-.051.158-.009.049.274.229.164.386-.214,1.266.038,1.553-.213.229-.208.281-.211.523-.03.245.163,1.492-.015,1.618-.341.03-.09.058-.057.065.049,0,.022.893.132.9.215.013.105.042.157.064.085.04-.108.963-.474,1-.163.1.883.176,4.628.118,5.537-.057.97-.736-.147-1.2.424l-2.305-.028-.474.347c-.074-.319-.248.471-.411-.1-.068-.227-.463-.276-.537-.04-.065.181-2.1-.357-2.273.272C24.534,247.88,23.086,248.587,22.747,248.7Z" transform="translate(438.744 1618.847) rotate(-90)" fill="#9f9f9f"/>
    <path id="Path_53" data-name="Path 53" d="M64.921,247.233c-.214-.689-1.68-.083-1.791-.294-.093-.279-.04-5.035.028-5.732.024-.249.057-.285.135-.162.124.229,1.676-.05,1.676-.05.024.15.076-.343.091-.162.044.423,2.56.092,2.775.089.13,0,.032.276.184.174.324-.2,1.042.09,1.285-.149.195-.2.237-.2.431-.008.2.173,1.23.047,1.343-.275.027-.089.05-.054.052.052,0,.022.732.169.737.252.008.106.031.159.05.088.036-.106.806-.434.825-.122.054.887.016,4.631-.057,5.537-.074.967-.6-.177-1,.374l-1.9-.123-.4.327c-.052-.322-.218.46-.336-.118-.05-.229-.374-.294-.441-.062-.059.179-1.722-.444-1.88.178C66.417,246.483,65.2,247.13,64.921,247.233Z" transform="translate(439.359 1641.428) rotate(-90)" fill="#9f9f9f"/>
    <path id="Path_54" data-name="Path 54" d="M102.335,246.879c-.269-.68-1.938-.013-2.073-.219-.115-.275-.2-5.031-.145-5.73.02-.25.057-.287.15-.168.15.224,1.929-.121,1.929-.121.032.149.077-.346.1-.165.064.421,2.952-.015,3.2-.028.15-.008.046.274.218.166.366-.211,1.2.047,1.476-.2.218-.207.267-.21.5-.027.233.165,1.418,0,1.538-.33.029-.09.056-.057.062.05,0,.022.848.138.856.221.012.106.04.157.06.085.039-.108.916-.468.946-.157.09.884.162,4.628.105,5.537-.056.969-.7-.152-1.139.416l-2.19-.043-.451.344c-.071-.32-.236.469-.391-.1-.065-.228-.439-.279-.51-.044-.062.181-2-.371-2.16.257C104.034,246.067,102.657,246.765,102.335,246.879Z" transform="translate(439.683 1661.009) rotate(-90)" fill="#9f9f9f"/>
    <path id="Path_55" data-name="Path 55" d="M136.943,246.5c-.2-.695-1.677-.131-1.782-.345-.085-.281.1-5.034.191-5.728.032-.248.065-.284.139-.159.118.233,1.677,0,1.677,0,.019.151.086-.341.1-.159.032.423,2.556.165,2.771.167.13,0,.024.277.179.179.329-.188,1.039.12,1.289-.113.2-.193.243-.193.431,0,.193.179,1.228.082,1.35-.236.03-.088.051-.053.05.054,0,.023.727.189.73.273,0,.106.026.16.048.089.039-.105.818-.411.828-.1.029.887-.115,4.629-.214,5.533-.1.965-.6-.194-1.009.346l-1.894-.177-.409.316c-.043-.324-.23.454-.333-.127-.043-.231-.366-.3-.439-.075-.064.177-1.709-.492-1.885.125C138.458,245.8,137.228,246.408,136.943,246.5Z" transform="translate(439.651 1679.543) rotate(-90)" fill="#9f9f9f"/>
    <path id="Path_56" data-name="Path 56" d="M170.537,245.763c-.231-.691-1.882-.1-2-.31-.1-.279.018-5.035.1-5.731.03-.249.067-.285.153-.161.137.23,1.879-.035,1.879-.035.024.151.09-.342.1-.16.044.423,2.868.116,3.109.114.146,0,.033.276.2.176.365-.2,1.166.1,1.442-.138.221-.2.269-.2.484,0,.22.175,1.378.058,1.508-.262.032-.089.057-.054.057.052,0,.023.819.176.823.259.007.106.032.16.055.089.041-.106.909-.427.926-.115.05.887-.04,4.63-.134,5.536-.1.967-.672-.182-1.124.365L176,245.3l-.453.324c-.055-.323-.25.458-.375-.121-.053-.23-.415-.3-.494-.066-.068.178-1.925-.459-2.109.161C172.222,245.028,170.855,245.663,170.537,245.763Z" transform="translate(440.107 1697.187) rotate(-90)" fill="#9f9f9f"/>
    <path id="Path_57" data-name="Path 57" d="M202.192,244.6c-.285-.675-1.988.021-2.13-.182-.122-.273-.279-5.028-.23-5.728.017-.25.054-.288.152-.171.158.221,1.977-.155,1.977-.155.035.149.074-.347.1-.167.071.42,3.027-.067,3.281-.084.154-.01.051.274.225.163.373-.218,1.235.025,1.511-.229.221-.211.271-.214.509-.035.242.161,1.455-.029,1.573-.358.028-.091.057-.057.064.049,0,.022.872.123.882.206.014.106.044.157.063.084.038-.108.933-.484.969-.173.105.882.232,4.625.187,5.535-.043.97-.719-.139-1.163.436l-2.248,0-.458.352c-.077-.319-.236.473-.4-.1-.07-.226-.455-.271-.524-.035-.061.182-2.055-.336-2.213.295C203.923,243.755,202.52,244.477,202.192,244.6Z" transform="translate(440.954 1713.757) rotate(-90)" fill="#9f9f9f"/>
  </g>
</svg>
