<svg id="Group_39" data-name="Group 39" xmlns="http://www.w3.org/2000/svg" width="8.894" height="96.035" viewBox="0 0 8.894 96.035">
  <path id="Path_52" data-name="Path 52" d="M2.359,0C2.076.678.319,0,.177.2a56.59,56.59,0,0,0-.159,5.73c.021.25.059.288.158.169.158-.223,2.029.134,2.029.134.033-.149.081.347.1.166.067-.42,3.106.036,3.366.051.158.009.049-.274.229-.164.386.214,1.266-.038,1.553.213.229.208.281.212.523.03.245-.163,1.492.015,1.618.342.03.09.058.057.065-.049,0-.022.893-.132.9-.215.013-.105.042-.157.064-.085.04.108.963.474,1,.163.1-.883.176-4.628.118-5.537-.057-.97-.736.147-1.2-.424L8.238.755,7.763.408c-.074.319-.248-.471-.411.1-.068.227-.463.276-.537.04C6.75.367,4.713.906,4.542.277,4.145.824,2.7.117,2.359,0Z" transform="translate(0 96.035) rotate(-90)" fill="#9f9f9f"/>
  <path id="Path_53" data-name="Path 53" d="M1.841,0C1.627.689.161.083.05.294-.043.573.01,5.329.078,6.026c.024.249.057.285.135.162.124-.229,1.676.05,1.676.05.024-.15.076.343.091.162.044-.423,2.56-.092,2.775-.089.13,0,.032-.276.184-.174.324.2,1.042-.09,1.285.149.195.2.237.2.431.008.2-.173,1.23-.047,1.343.275.027.089.05.054.052-.052,0-.022.732-.169.737-.252.008-.106.031-.159.05-.088.036.106.806.434.825.122.054-.887.016-4.631-.057-5.537C9.53-.2,9,.939,8.605.388l-1.9.123-.4-.327C6.254.506,6.088-.276,5.97.3,5.92.531,5.6.6,5.529.364,5.47.186,3.807.808,3.648.186,3.336.749,2.123.1,1.841,0Z" transform="translate(0.855 75.925) rotate(-90)" fill="#9f9f9f"/>
  <path id="Path_54" data-name="Path 54" d="M2.236,0C1.967.68.3.013.163.219.047.494-.039,5.25.018,5.95c.02.25.057.287.15.168.15-.224,1.929.121,1.929.121.032-.149.077.346.1.165.064-.421,2.952.015,3.2.028.15.008.046-.274.218-.166.366.211,1.2-.047,1.476.2.218.207.267.21.5.027.233-.165,1.418,0,1.538.33.029.09.056.057.062-.05,0-.022.848-.138.856-.221.012-.106.04-.157.06-.085.039.108.916.468.946.157.09-.884.162-4.628.105-5.537-.056-.969-.7.152-1.139-.416L7.824.716,7.372.372c-.071.32-.236-.469-.391.1C6.917.7,6.542.754,6.471.52,6.41.338,4.474.89,4.311.262,3.935.812,2.557.114,2.236,0Z" transform="translate(0.885 58.487) rotate(-90)" fill="#9f9f9f"/>
  <path id="Path_55" data-name="Path 55" d="M1.8.038C1.609.733.127.169.021.383c-.085.281.1,5.034.191,5.728.032.248.065.284.139.159.118-.233,1.677,0,1.677,0,.019-.151.086.341.1.159.032-.423,2.556-.165,2.771-.167.13,0,.024-.277.179-.179.329.188,1.039-.12,1.289.113.2.193.243.193.431,0,.193-.179,1.228-.082,1.35.236.03.088.051.053.05-.054,0-.023.727-.189.73-.273,0-.106.026-.16.048-.089.039.105.818.411.828.1.029-.887-.115-4.629-.214-5.533-.1-.965-.6.194-1.009-.346L6.68.411,6.271.1c-.043.324-.23-.454-.333.127C5.9.454,5.573.527,5.5.3,5.435.12,3.79.79,3.615.173,3.319.745,2.089.133,1.8.038Z" transform="translate(1.255 41.981) rotate(-90)" fill="#9f9f9f"/>
  <path id="Path_56" data-name="Path 56" d="M2.043,0C1.811.691.161.1.038.31c-.1.279.018,5.035.1,5.731.03.249.067.285.153.161.137-.23,1.879.035,1.879.035.024-.151.09.342.1.16.044-.423,2.868-.116,3.109-.114.146,0,.033-.276.2-.176.365.2,1.166-.1,1.442.138.221.2.269.2.484,0,.22-.175,1.378-.058,1.508.262.032.089.057.054.057-.052,0-.023.819-.176.823-.259.007-.106.032-.16.055-.089.041.106.909.427.926.115.05-.887-.04-4.631-.134-5.536-.1-.967-.672.182-1.124-.365L7.5.467,7.048.144c-.055.323-.25-.458-.375.121-.053.23-.415.3-.494.066C6.111.153,4.255.79,4.07.17,3.727.736,2.36.1,2.043,0Z" transform="translate(1.577 26.268) rotate(-90)" fill="#9f9f9f"/>
  <path id="Path_57" data-name="Path 57" d="M2.369,0C2.084.675.381-.021.24.182.117.455-.04,5.21.009,5.91c.017.25.054.288.152.171.158-.221,1.977.155,1.977.155.035-.149.074.347.1.167.071-.42,3.027.067,3.281.084.154.01.051-.274.225-.163.373.218,1.235-.025,1.511.229.221.211.271.214.509.035.242-.161,1.455.029,1.573.358.028.091.057.058.064-.049,0-.022.872-.123.882-.206.014-.106.044-.157.063-.084.038.108.933.484.969.173.105-.882.232-4.625.187-5.535-.043-.97-.719.139-1.163-.436l-2.248,0L7.633.461c-.077.319-.236-.473-.4.1-.07.226-.455.271-.524.035C6.646.411,4.652.929,4.495.3,4.1.841,2.7.12,2.369,0Z" transform="translate(1.897 11.511) rotate(-90)" fill="#9f9f9f"/>
</svg>
