<svg xmlns="http://www.w3.org/2000/svg" width="87.44" height="44.437" viewBox="0 0 87.44 44.437">
  <g id="Group_57" data-name="Group 57" transform="translate(-45.465 -94.313)">
    <path id="Path_86" data-name="Path 86" d="M96.147,138.75a.468.468,0,0,1-.216-.053,1.247,1.247,0,0,1-.14-.085l-.815-.568-3.346-2.333-2.517-1.753-.131-.091-.3-.21a1.878,1.878,0,0,1-.283-.241l-1.23-1.259-1.87-1.913-.3-.308-.158-.163-.523.086-.577.094-.524.087-.542.089-.542.09-.526.086-.226.036-.315.051-.4.067-.345.057-.352.058-.257.042-.268.043-.263.044-.314.052-.264.042-.261.042-.265.044-.277.046-.3.048-.243.039-.523.085-.676.113-.425.07-.274.044-.25.04-.319.053-.24.04-.526.086-.232.037-.292.047-.371.061-.747.124-.485.079-.252.041-.312.05-.413.068-.7.117-.507.083-.21.035-.385.063-.32.051-.431.069-.377.063-.374.063-.3.048-.243.038-.347.057-.894.149-.383.063-.31.049-.216.034-.522.085-.3.05-.243.041-.787.13-.267.043-.24.039-.576.1-.507.083-.254.042-.323.054-.251.04-.256.041-.281.046-.3.049-.527.084-.076.012c-.087.014-.177.029-.27.04l-.061.008c-.137.018-.278.036-.424.046s-.273.012-.4.015l-.159,0h-.028l-.159,0c-.127,0-.258-.006-.392-.015s-.282-.028-.416-.045l-.069-.009a6.226,6.226,0,0,1-.675-.128,6.9,6.9,0,0,1-2.716-1.334,7.655,7.655,0,0,1-.676-.628q-.761-.78-1.521-1.562l-1.5-1.541-1.307-1.344c-.1-.1-.2-.209-.3-.317a6.542,6.542,0,0,1-1.463-2.49,6.729,6.729,0,0,1-.258-1.128c-.028-.2-.046-.39-.055-.571s-.023-.374-.036-.557q-.009-.123-.018-.246c0-.013,0-.028,0-.042l-.015-.268c-.011-.2-.021-.4-.033-.6s-.024-.368-.037-.552c0,0-.019-.272-.02-.282l-.015-.268c-.01-.193-.021-.386-.033-.579s-.025-.395-.039-.592l-.018-.263c0-.01,0-.021,0-.031l-.015-.266c-.01-.188-.021-.376-.032-.564s-.026-.405-.04-.608l-.018-.264c0-.01,0-.021,0-.031l-.014-.241q-.014-.25-.029-.5-.021-.336-.043-.672l-.022-.34-.015-.272c-.011-.2-.022-.407-.034-.61-.011-.187-.025-.373-.038-.56l-.017-.25c0-.016,0-.029,0-.042l-.014-.267c-.011-.2-.021-.4-.034-.6s-.025-.373-.038-.56l-.017-.25c0-.014,0-.028,0-.041l-.015-.273c-.011-.2-.022-.407-.034-.61-.011-.184-.024-.368-.037-.551l-.018-.257c0-.014,0-.028,0-.042l-.015-.266q-.017-.309-.034-.618c0-.046-.007-.093-.011-.139s-.01-.121-.013-.182c-.016-.307-.019-.581-.01-.838,0-.083.01-.161.016-.237q0-.041.007-.083c0-.019,0-.038.007-.058h0a4.4,4.4,0,0,1,.1-.732l.013-.066a7.534,7.534,0,0,1,.463-1.531,7.968,7.968,0,0,1,3.358-3.788,7.676,7.676,0,0,1,1.424-.637,8.318,8.318,0,0,1,1.255-.3c.119-.02.233-.03.343-.04l.124-.012.547-.056.015,0,.047,0,.183-.015c.126-.01.252-.02.378-.032s.248-.024.371-.037l.181-.019.051,0,.179-.014c.127-.01.254-.02.381-.032l.273-.028.273-.028.291-.025.257-.022.393-.039.182-.019.046,0,.183-.015c.126-.01.252-.02.378-.032.11-.01.221-.022.331-.033l.212-.022.394-.037.239-.02.306-.026.4-.039.192-.019.045,0,.181-.015c.126-.01.253-.02.379-.032l.281-.029.264-.027.288-.025.243-.021.41-.04.169-.017h.012l.047-.005.183-.015c.126-.01.253-.02.379-.032s.251-.025.377-.038l.18-.019.046,0,.18-.015c.127-.01.254-.02.38-.032l.28-.029.266-.027.287-.025.244-.021.409-.04.17-.017.013,0,.046,0,.183-.015.379-.032c.121-.011.243-.024.364-.037l.175-.018.048,0,.182-.015c.126-.01.253-.02.379-.032s.248-.025.372-.038l.18-.019.052,0,.178-.014c.128-.01.255-.02.383-.032l.273-.028.272-.028.3-.026.251-.021.393-.038.15-.015.02,0,.058-.006.19-.015c.124-.01.248-.02.371-.031l.328-.033.215-.022.394-.037.237-.02.309-.027.407-.04.187-.019.046,0,.182-.015c.126-.01.253-.02.379-.032l.274-.028.272-.028.294-.025.254-.022.4-.039.165-.017.013,0,.048-.005.184-.015c.126-.01.251-.02.377-.032s.249-.024.373-.038l.182-.019.048,0,.181-.015c.127-.01.253-.02.379-.032l.274-.028.272-.028.292-.025.256-.022.4-.039.179-.018.046,0,.183-.015c.126-.01.253-.02.379-.032s.25-.025.375-.038l.182-.019.047,0L79.359,98c.127-.01.254-.02.381-.032l.273-.028.272-.028.292-.025.256-.022.39-.039.185-.019.046,0,.182-.015c.126-.01.253-.02.379-.032s.241-.024.362-.037l.177-.019.048,0,.182-.015c.126-.01.253-.02.379-.032s.248-.025.372-.038l.169-.018.062-.006.178-.014c.128-.01.255-.02.383-.032l.273-.028.273-.028.3-.025.253-.021.384-.038.159-.016.021,0,.056-.006.189-.015c.124-.01.249-.02.373-.031l.328-.033.215-.022.393-.037.242-.02.3-.026.411-.04.151-.015h0l.055-.007.189-.016.355-.03.381-.038.161-.016h.011l.049-.005.185-.015.376-.032c.122-.011.244-.024.366-.037l.172-.018L91,96.92l.181-.015c.127-.01.253-.02.38-.032s.25-.025.374-.038l.181-.019.049,0,.179-.014c.127-.01.254-.02.381-.032L93,96.738l.272-.028.291-.025.258-.022.39-.038.185-.019.047,0,.184-.015c.126-.01.251-.02.377-.032s.249-.025.374-.038l.181-.019.05,0,.178-.014c.128-.01.255-.02.382-.032l.273-.028.273-.028.291-.025.258-.022.391-.039.184-.019.047,0,.18-.014c.127-.01.254-.02.381-.032s.241-.024.361-.037l.176-.019.049,0,.18-.014c.127-.01.254-.02.38-.032s.248-.025.372-.038l.17-.018.062-.006.177-.014c.128-.01.256-.02.384-.032l.268-.028.278-.029.3-.025.267-.022c.122-.011.245-.024.367-.037l.158-.016h.012l.048-.005.185-.015.377-.032c.126-.011.251-.025.377-.038l.18-.019.047,0,.183-.015c.126-.01.252-.02.378-.032l.281-.029.264-.027.291-.026.24-.021.415-.04.165-.016h.011l.049-.005.187-.015.374-.031c.126-.012.253-.025.379-.038l.178-.019.047,0,.182-.015c.126-.01.252-.02.378-.032l.279-.029.266-.027.289-.025.242-.021.415-.04.165-.016h.012l.047-.005.186-.015.375-.032c.121-.011.243-.024.364-.037l.174-.018.048-.005.185-.015c.125-.01.251-.02.376-.031s.248-.024.372-.038l.183-.019.048,0,.18-.015c.127-.01.253-.02.38-.032l.274-.028.272-.028.3-.026.251-.021.394-.038.15-.015.018,0,.06-.007.192-.016c.123-.01.246-.02.369-.031s.22-.022.33-.033l.213-.022c.137-.014.274-.027.412-.039l.246-.02L116,94.6c.125-.011.25-.024.375-.037l.182-.019.047,0,.183-.015c.126-.01.252-.02.378-.032l.276-.028.27-.028.3-.025.254-.022.378-.037.183-.018c.221-.022.433-.025.593-.025h.11a4.764,4.764,0,0,1,1.215.182l1.294.349.894.241.959.259,1.075.291,1.016.273,1.156.311.425.114c.5.135,1.018.274,1.527.416a4.66,4.66,0,0,1,1.823,1,5.57,5.57,0,0,1,1.384,1.882,6.619,6.619,0,0,1,.486,1.558c.041.223.072.461.1.729a7.846,7.846,0,0,1,.025.846c0,.084-.007.164-.013.242,0,.031,0,.063-.006.094,0,.011,0,.05,0,.05l-.014.282c-.01.208-.021.416-.033.623s-.025.418-.039.627l-.021.326-.015.289c-.011.217-.022.434-.034.651s-.025.414-.038.62l-.019.3-.014.279c-.01.2-.021.407-.032.611s-.026.434-.04.651l-.02.32-.014.279c-.011.215-.021.429-.034.643s-.025.411-.038.616l-.02.319-.015.291c-.011.217-.022.433-.034.65s-.025.41-.038.615l-.02.3-.014.282c-.01.208-.021.415-.033.623s-.026.424-.039.636l-.02.317-.014.282q-.017.329-.034.657,0,.085-.009.171c-.008.169-.017.343-.033.518a8.411,8.411,0,0,1-1.788,4.511,7.346,7.346,0,0,1-1.819,1.662,6.052,6.052,0,0,1-1.837.794c-.153.037-.318.07-.5.1l-.11.018-.413.067-.558.092-.559.093-.507.083-.243.04-.335.055-.261.042-.247.04-.288.048-.288.048-.308.05-.218.035-.523.085-.426.07-.312.052-.381.063-.29.047-.235.038-.44.072-.624.1-.22.037-.358.059-.272.043-.253.04-.293.049-.266.044-.29.047-.236.038-.523.086-.688.114-.431.071-.254.041-.27.043-.3.049-.246.041-.319.052-1.289.211-.559.093-.525.085-.559.092-.524.085-.248.041-.311.052-.276.045-.248.04-.336.055-.964.159-.342.056-.264.042-.261.042-.292.048-.267.044-.526.085-.351.056-3.682,5.109-2.021,2.806-2.095,2.906-.412.573-.448.622c-.033.046-.069.092-.111.14a.49.49,0,0,1-.368.167m-.181-1.513a2.091,2.091,0,0,1-.168-.165l-1.383-1.426-1.247-1.286-1.049-1.083L90.983,132.1l-1.1-1.134-1.123-1.159-1.049-1.083c-.136-.14-.27-.282-.4-.423-.037-.038-.075-.075-.113-.113a.088.088,0,0,0-.081-.025l-.192.031c-.326.055-.652.111-.978.164-.25.041-.5.078-.752.119s-.5.087-.751.128-.513.079-.77.121-.5.087-.751.128-.513.079-.77.121-.489.083-.733.124c-.175.029-.35.056-.525.084l-.507.083-.577.095-.542.09-.524.086-.525.085-.559.093-.576.1-.525.083-.49.079-.612.1-.524.088-.507.083-.525.083-.612.1-.524.089-.507.083-.594.1-.525.084-.541.091-.507.083-.594.1-.525.084-.541.091-.507.083-.594.1-.525.083-.541.092-.525.084-.559.092-.507.083-.576.1-.525.084-.559.093-.507.083c-.192.032-.384.065-.576.1s-.373.057-.56.087-.349.06-.524.089l-.507.083-.559.092-.56.089c-.082.013-.164.024-.245.039-.2.036-.4.054-.6.075a5.129,5.129,0,0,1-.8.016c-.188-.009-.376-.028-.564-.055a5.975,5.975,0,0,1-.865-.186,5.646,5.646,0,0,1-1.566-.737,5.51,5.51,0,0,1-1.392-1.352,5.59,5.59,0,0,1-.91-2.023,5.82,5.82,0,0,1-.128-.822c-.016-.183-.02-.366-.033-.548-.018-.248-.024-.5-.041-.743-.013-.183-.014-.366-.03-.548-.022-.242-.02-.484-.04-.726-.016-.189-.015-.378-.032-.566-.02-.236-.019-.473-.039-.708-.016-.195-.016-.39-.032-.584-.019-.23-.019-.461-.038-.69-.016-.2-.016-.4-.033-.6-.02-.224-.018-.449-.037-.672s-.016-.425-.035-.637-.018-.449-.037-.673c-.017-.2-.016-.4-.034-.6-.02-.224-.018-.449-.037-.673-.018-.206-.016-.414-.034-.619s-.018-.437-.036-.655-.017-.413-.034-.619c-.019-.224-.018-.449-.037-.672-.016-.195-.016-.39-.033-.584-.02-.23-.018-.461-.038-.69-.018-.206-.017-.413-.034-.619-.019-.23-.019-.461-.038-.69-.016-.195-.015-.39-.033-.584-.021-.236-.019-.473-.039-.708-.012-.148-.018-.295-.017-.443a1.753,1.753,0,0,1,.015-.283.865.865,0,0,0,.008-.124,4.925,4.925,0,0,1,.088-.738,6.751,6.751,0,0,1,.284-1.078,7.282,7.282,0,0,1,.7-1.45,7.414,7.414,0,0,1,1.414-1.651,7.141,7.141,0,0,1,1.2-.845,6.839,6.839,0,0,1,1.164-.519,6.332,6.332,0,0,1,1.082-.269c.187-.029.374-.054.562-.07.171-.015.34-.039.511-.056s.329-.03.494-.046c.182-.018.364-.038.546-.058l.053-.006c.171-.015.341-.029.512-.046s.34-.038.511-.057c.129-.014.259-.02.388-.038.17-.023.341-.031.512-.048s.317-.035.475-.053l.053-.006c.171-.015.341-.029.512-.046s.34-.038.511-.057l.053-.005c.177-.016.353-.029.53-.047s.328-.039.493-.056.329-.029.494-.046c.182-.018.364-.039.546-.058l.053-.006c.176-.016.353-.03.53-.047.159-.016.317-.038.475-.054s.33-.03.494-.046c.182-.018.364-.039.546-.058l.053-.006c.177-.016.353-.029.53-.047s.34-.04.511-.057c.123-.012.247-.02.37-.036.17-.022.341-.031.512-.048s.34-.038.511-.057l.053-.005c.218-.014.435-.041.652-.066.164-.019.329-.03.494-.046s.352-.037.529-.056l.053-.007c.171-.015.341-.029.512-.046s.34-.037.511-.056l.053-.006c.177-.016.353-.03.53-.047s.328-.038.493-.055.329-.03.494-.046.341-.036.511-.054l.053-.007c.171-.015.341-.029.512-.046s.34-.037.511-.056l.053-.006c.177-.016.353-.029.53-.047s.34-.04.51-.057c.123-.012.247-.02.37-.036.17-.022.341-.031.512-.048s.34-.038.511-.057l.035,0c.165-.015.33-.028.494-.045s.34-.038.511-.057l.053-.005c.23-.016.459-.042.687-.069.17-.02.341-.03.512-.047s.34-.037.511-.056l.053-.006c.177-.016.353-.03.53-.047s.328-.038.493-.055.329-.03.494-.046.341-.036.511-.054l.053-.007c.171-.015.341-.029.512-.046s.34-.037.511-.056l.053-.006c.171-.015.341-.029.512-.046s.34-.039.511-.057c.129-.014.259-.02.388-.038.17-.023.341-.031.512-.048s.34-.038.511-.057l.035,0c.165-.015.33-.028.494-.045s.34-.038.511-.057l.035,0c.236-.017.47-.043.705-.07.17-.02.341-.03.512-.047s.34-.037.511-.056l.053-.006c.176-.016.353-.03.53-.047s.328-.038.493-.055.33-.03.494-.046.341-.036.511-.054l.053-.007c.171-.015.341-.029.512-.046s.34-.037.511-.056l.053-.006c.171-.015.341-.029.512-.046s.34-.039.511-.057c.129-.014.259-.02.388-.038.17-.023.341-.031.512-.048s.34-.039.511-.056.318-.03.476-.046l.546-.058.053-.007c.171-.015.341-.029.512-.046s.34-.038.511-.057l.053-.005c.177-.016.353-.03.53-.047s.328-.039.493-.055.329-.03.494-.046c.182-.018.364-.039.546-.058.117-.013.235-.026.352-.037.165-.016.329-.029.494-.046.182-.018.364-.039.546-.058l.053-.006c.176-.016.353-.03.53-.047s.34-.04.51-.057c.118-.012.235-.018.353-.034.17-.023.341-.031.512-.048s.341-.037.511-.055l.053-.007c.165-.015.33-.028.494-.045s.34-.038.511-.057l.053-.005c.224-.016.447-.042.67-.067.164-.019.329-.03.494-.046s.352-.037.529-.056l.053-.007c.171-.015.341-.029.512-.046s.34-.037.511-.056l.053-.006c.177-.016.353-.03.53-.048.159-.016.317-.038.475-.054s.329-.029.494-.046c.182-.018.364-.039.546-.058l.053-.006c.177-.016.353-.03.53-.047s.34-.04.511-.057c.118-.012.235-.018.353-.034.17-.023.341-.031.512-.048s.341-.037.511-.055l.053-.007c.171-.015.341-.029.512-.046s.34-.04.511-.057c.123-.012.247-.02.37-.036.17-.022.341-.031.512-.048s.34-.038.511-.057l.035,0c.171-.015.341-.029.512-.046s.341-.037.511-.056l.053-.006c.176-.016.353-.03.529-.047s.329-.038.493-.055.329-.03.494-.046.352-.038.528-.057l.053-.006c.177-.016.353-.029.53-.047s.328-.038.493-.055c.129-.013.259-.021.388-.038.17-.022.341-.031.512-.048s.34-.038.511-.057l.053,0c.218-.015.435-.041.652-.067.17-.02.341-.03.512-.047s.341-.037.511-.055l.053-.007c.171-.015.341-.029.512-.046s.34-.038.511-.057l.053-.005c.23-.016.459-.043.688-.069.17-.02.341-.03.512-.047s.34-.037.511-.056l.352-.037c.165-.016.329-.029.494-.046.182-.018.364-.039.546-.058l.035,0c.171-.015.341-.029.512-.046s.341-.037.511-.056l.106-.01c.171-.016.342-.024.512-.048a4.772,4.772,0,0,1,.779-.028,2.947,2.947,0,0,1,.63.093,3.569,3.569,0,0,1,1.347.65,4.01,4.01,0,0,1,.786.813,4.872,4.872,0,0,1,.746,1.559,5.474,5.474,0,0,1,.17.832,4.884,4.884,0,0,1,.046.53c0,.26.011.521-.009.78-.017.23-.019.461-.038.69-.016.189-.016.378-.033.566-.019.212-.019.425-.037.637s-.018.413-.035.619-.018.414-.036.619-.017.414-.035.619-.018.413-.035.619-.017.414-.035.619-.018.425-.036.637c-.017.195-.016.39-.034.584-.019.218-.018.437-.037.655-.017.195-.016.39-.034.584-.02.224-.018.449-.038.672-.016.177-.021.354-.03.531,0,.065-.011.129-.015.194-.006.088-.01.177-.014.265a2.909,2.909,0,0,1-.024.371.286.286,0,0,0,0,.035c-.016.313-.031.626-.048.938,0,.083-.013.165-.019.247,0,.035-.005.071-.007.106-.01.189-.017.378-.031.566-.024.312-.033.625-.05.938-.011.2-.019.4-.04.6a7.228,7.228,0,0,1-1.352,3.515,6.487,6.487,0,0,1-.755.87,5.675,5.675,0,0,1-1.568,1.083,4.39,4.39,0,0,1-1.113.346c-.3.048-.595.1-.891.145-.32.053-.64.11-.96.162-.256.042-.513.079-.77.121s-.5.087-.751.128c-.326.053-.653.1-.979.156-.245.04-.489.083-.733.124l-.507.082-.525.084-.559.093-.576.1-.525.084-.541.091-.525.085-.576.1-.525.084-.541.091-.525.084-.576.1-.525.083-.49.079-.612.1-.524.089-.524.085-.577.1-.507.082-.559.093-.507.083-.594.1-.525.084-.541.091-.507.083-.594.1-.525.084-.541.091-.507.083-.594.1c-.018,0-.035.006-.053.008-.156.012-.163.029-.255.158q-.817,1.138-1.637,2.274l-2.085,2.891-1.2,1.67L98.032,134.4l-1.2,1.67-.757,1.05A.321.321,0,0,1,95.966,137.237Z" fill="#ffc90e" fill-rule="evenodd"/>
    <path id="Path_87" data-name="Path 87" d="M418.514,378.2a.164.164,0,0,1,.017.045c.008.124.016.248.021.372q.021.523.038,1.045c0,.065,0,.129,0,.186a.148.148,0,0,1-.074.059,4.754,4.754,0,0,1-1.358.445,3.4,3.4,0,0,1-.476.044,1.87,1.87,0,0,1-.926-.194,1.64,1.64,0,0,1-.349-.241,1.329,1.329,0,0,1-.391-.662c-.026-.1-.051-.207-.067-.312-.036-.233-.065-.468-.084-.7-.037-.448-.059-.9-.073-1.345-.009-.3-.025-.6-.038-.9q-.016-.381-.033-.762-.019-.452-.038-.9-.016-.381-.033-.762c-.012-.289-.024-.579-.037-.868a.481.481,0,0,0-.015-.1.052.052,0,0,0-.037-.032,1.111,1.111,0,0,0-.159.011l-.841.125c-.064.009-.129.015-.194.021a.048.048,0,0,1-.048-.043c0-.071-.007-.142-.01-.212q-.023-.567-.047-1.134c0-.071-.011-.141-.015-.212a.4.4,0,0,1,0-.053.062.062,0,0,1,.045-.049l.315-.046.842-.116a.068.068,0,0,0,.033-.011.093.093,0,0,0,.032-.04.228.228,0,0,0,.005-.07q-.015-.363-.03-.726c-.01-.224-.016-.449-.021-.675a1.356,1.356,0,0,1,.138-.162l.909-1,.658-.72c.032-.035.065-.069.1-.1.006-.006.021,0,.032,0a.016.016,0,0,1,.01.011c0,.023,0,.047.005.071q.023.638.047,1.276c.01.278.022.555.033.833q.018.461.036.921c0,.018,0,.035,0,.053a.055.055,0,0,0,.059.052l.035,0,.667-.092.614-.088.351-.048c.054-.007.072.01.075.07q.016.4.032.8.012.292.024.585c0,.053,0,.106,0,.16s-.022.073-.074.081L418,372.1c-.2.028-.41.055-.614.085s-.409.061-.613.091c-.053.008-.106.011-.158.019a.2.2,0,0,0-.067.02.09.09,0,0,0-.031.04.079.079,0,0,0,0,.035c.007.183.015.366.022.549q.023.585.044,1.169.016.408.033.815.019.478.038.957c.011.272.021.543.033.815.011.248.019.5.037.744.014.2.031.4.065.6a1.418,1.418,0,0,0,.07.274.341.341,0,0,0,.261.217.893.893,0,0,0,.247.015,2.467,2.467,0,0,0,.639-.137,3.12,3.12,0,0,0,.408-.172.215.215,0,0,1,.1-.037m21.105-7.334a.742.742,0,0,1-.087.023l-1.332.2a.4.4,0,0,1-.062,0c-.033-.014-.036-.039-.04-.061-.02-.092-.037-.185-.06-.277a2.036,2.036,0,0,0-.175-.463,1.643,1.643,0,0,0-.61-.652,2.013,2.013,0,0,0-1.061-.3,2.754,2.754,0,0,0-2.209,1.016,3.451,3.451,0,0,0-.744,1.568,4.474,4.474,0,0,0-.09.934,4.051,4.051,0,0,0,.2,1.29,3.182,3.182,0,0,0,.513.946,1.894,1.894,0,0,0,.679.557,1.852,1.852,0,0,0,.558.164,2.207,2.207,0,0,0,.371.026,3.232,3.232,0,0,0,1.951-.7,3.326,3.326,0,0,0,.694-.777,4.575,4.575,0,0,0,.339-.622c.017-.038.034-.075.052-.113a.068.068,0,0,1,.063-.023l.017,0,1.275.433a.22.22,0,0,1,.031.017.049.049,0,0,1,.021.045.5.5,0,0,1-.015.051,6.246,6.246,0,0,1-.734,1.332,4.753,4.753,0,0,1-2.536,1.779,6.3,6.3,0,0,1-.934.2,4.542,4.542,0,0,1-.92.039,3.265,3.265,0,0,1-2.288-1.061,4.509,4.509,0,0,1-1.126-2.157,5.091,5.091,0,0,1-.111-.825c-.008-.165-.02-.33-.015-.5a6,6,0,0,1,.219-1.486,5.427,5.427,0,0,1,1.1-2.023,5.88,5.88,0,0,1,1.048-.977,4.438,4.438,0,0,1,1.706-.752,4.129,4.129,0,0,1,1.164-.076,2.987,2.987,0,0,1,1.429.479l.119.076a.034.034,0,0,0,.049-.03c0-.047,0-.095,0-.142,0-.112,0-.225,0-.337a.329.329,0,0,1,.008-.07.046.046,0,0,1,.021-.026.14.14,0,0,1,.049-.019l.579-.08.649-.091c.047-.006.094-.013.141-.017.07-.006.089.009.091.072s0,.13.005.2c0,.2,0,.4.005.6q.006,1.241.012,2.483A.266.266,0,0,1,439.619,370.868Zm-9.9,3.084c-.057.011-.12.026-.183.036-.345.052-.689.1-1.034.154-.274.042-.548.087-.823.128-.35.053-.7.1-1.051.156s-.688.108-1.033.161c-.274.042-.549.08-.824.122s-.525.082-.788.122l-.561.085-.613.094-.578.086c-.076.012-.152.025-.227.038a.05.05,0,0,0-.039.051.462.462,0,0,0,.005.053,3.409,3.409,0,0,0,.406,1.109,2.631,2.631,0,0,0,.974.959,2.355,2.355,0,0,0,.781.274,3.413,3.413,0,0,0,1.024.005,4.3,4.3,0,0,0,1.042-.275,4,4,0,0,0,1.59-1.184,5.02,5.02,0,0,0,.335-.457.727.727,0,0,1,.061-.087.056.056,0,0,1,.047-.014c.142.04.283.082.425.124l.986.288a.3.3,0,0,1,.127.056.4.4,0,0,1-.069.142,5.866,5.866,0,0,1-2.131,2.133,6.868,6.868,0,0,1-1.777.737,6.742,6.742,0,0,1-.677.133,5.749,5.749,0,0,1-1.025.062,4.556,4.556,0,0,1-2.694-.952,3.621,3.621,0,0,1-1.167-1.555,4.637,4.637,0,0,1-.287-1.112,6.358,6.358,0,0,1-.062-.883,5.287,5.287,0,0,1,1.1-3.266,6.252,6.252,0,0,1,1.733-1.578,5.077,5.077,0,0,1,3.07-.723,4,4,0,0,1,1.084.248,4.749,4.749,0,0,1,1.414.831,3.56,3.56,0,0,1,.826,1.033,4.813,4.813,0,0,1,.421,1.088,6.754,6.754,0,0,1,.186,1.081c.013.135.027.27.03.406A.121.121,0,0,1,429.715,373.952Zm-4.465-3.267a3.1,3.1,0,0,0-.656.055,3.034,3.034,0,0,0-1.571.837,3.558,3.558,0,0,0-.979,1.775c-.026.115-.04.233-.058.349-.006.036.016.066.065.057l.017,0c.216-.031.433-.06.649-.092.193-.029.385-.061.577-.09s.386-.054.579-.082l.525-.079.63-.095.561-.082.577-.09.665-.1.6-.085.3-.044c.029,0,.058-.013.086-.02a.048.048,0,0,0,.038-.066,2.728,2.728,0,0,0-.315-.767,3.186,3.186,0,0,0-.876-.94,2.248,2.248,0,0,0-.464-.257A2.331,2.331,0,0,0,425.25,370.685ZM440.8,363.14c.041-.009.093-.022.145-.03.1-.015.2-.026.3-.039l.791-.1c.223-.028.446-.054.668-.083s.445-.061.667-.09c.135-.018.27-.033.4-.05l.228-.028a.048.048,0,0,1,.038.032.454.454,0,0,1,.006.052c0,.053,0,.106,0,.16q0,2.306,0,4.612c0,.059,0,.118.007.177,0,0,.005.012.009.013s.025,0,.031,0c.048-.043.1-.088.143-.133a7.7,7.7,0,0,1,1.013-.832,4.656,4.656,0,0,1,.985-.52,3.205,3.205,0,0,1,.756-.184,2.879,2.879,0,0,1,.638,0,1.666,1.666,0,0,1,.775.28,1.522,1.522,0,0,1,.587.779,2.459,2.459,0,0,1,.1.378c.022.122.035.246.05.369a7.415,7.415,0,0,1,.04.974q-.009,1.916-.02,3.831c0,.2,0,.39-.006.585a1.167,1.167,0,0,0,.006.141.049.049,0,0,0,.033.034.611.611,0,0,0,.123-.007l1.19-.19a.043.043,0,0,1,.048.039c0,.024,0,.047,0,.071q0,.665-.009,1.33a.3.3,0,0,1-.009.07.044.044,0,0,1-.022.025.192.192,0,0,1-.051.014l-1.155.185c-.4.065-.8.133-1.206.2l-.437.07a.464.464,0,0,1-.105.006.051.051,0,0,1-.035-.033.563.563,0,0,1-.007-.106c0-.207,0-.414,0-.621,0-.349.007-.7.008-1.046q.007-1.88.012-3.76c0-.2,0-.39,0-.585s-.018-.4-.037-.6a.955.955,0,0,0-.054-.241.772.772,0,0,0-.53-.483.871.871,0,0,0-.4-.024,2.408,2.408,0,0,0-.592.179,4.523,4.523,0,0,0-.693.392,8.382,8.382,0,0,0-.8.619c-.112.1-.22.2-.331.295a.151.151,0,0,0-.053.126c0,.035,0,.071,0,.106q0,.435,0,.869,0,1.792,0,3.583c0,.071,0,.142,0,.213,0,.133.013.129.13.11.192-.032.385-.061.578-.091l.542-.087c.041-.006.082-.014.123-.018.065-.006.088,0,.09.072,0,.012,0,.024,0,.035q0,.656,0,1.313c0,.024,0,.047,0,.071a.065.065,0,0,1-.051.063l-.245.041-.8.13-.525.084-.542.086-.595.1-.752.124-.437.07-.665.106c-.031.005-.053-.016-.055-.052s0-.071,0-.106q0-.186,0-.372,0-.417,0-.834c0-.053,0-.106,0-.159a.056.056,0,0,1,.043-.05l.49-.079.595-.1.368-.056a.068.068,0,0,0,.053-.062q0-.062,0-.124,0-.958-.009-1.916-.006-1.5-.011-3-.006-2.35-.01-4.7c0-.053,0-.106-.006-.159a.039.039,0,0,0-.039-.029l-.351.044-.422.057-.369.049-.334.045a.047.047,0,0,1-.051-.038c0-.024,0-.047-.005-.071q-.005-.709-.01-1.419A.113.113,0,0,1,440.8,363.14Zm17.788,10.343a.153.153,0,0,1-.018-.1c0-.225,0-.449.009-.674q.021-1.055.043-2.11.018-.877.036-1.755.011-.523.022-1.046a1.717,1.717,0,0,0-.035-.405c-.01-.046-.022-.092-.036-.137a.493.493,0,0,0-.462-.353,1.153,1.153,0,0,0-.454.055,2.257,2.257,0,0,0-.422.182,4.358,4.358,0,0,0-.724.509.276.276,0,0,0-.028.036c0,.033,0,.074,0,.115q-.007.47-.014.94-.017,1.028-.036,2.057c-.006.307-.013.615-.019.922a.153.153,0,0,0,.02.1.22.22,0,0,0,.051,0l.77-.123.245-.037a.042.042,0,0,1,.044.043c0,.065,0,.13,0,.195-.007.325-.016.65-.023.975,0,.213-.006.426-.01.638,0,.035,0,.071,0,.106a.055.055,0,0,1-.043.049c-.07.013-.139.026-.209.037l-.822.133-.77.122-.769.127-.752.12-.769.125-.56.089-.228.033a.043.043,0,0,1-.046-.041c0-.035,0-.071,0-.106q.007-.86.014-1.72c0-.035,0-.071,0-.106a.06.06,0,0,1,.045-.048c.046-.009.093-.019.139-.026l.788-.12.263-.042c.057-.01.068-.04.069-.087,0-.154,0-.307.007-.461q.021-1.516.041-3.032.017-1.268.035-2.536.017-1.241.033-2.482c0-.035,0-.071,0-.106a.045.045,0,0,0-.051-.037l-.281.037-.386.054-.456.062a.652.652,0,0,1-.105,0,.036.036,0,0,1-.024-.021.141.141,0,0,1-.009-.051q.006-.426.013-.851c0-.177.006-.355.008-.532s0-.343,0-.514a.154.154,0,0,1,.024-.109c.057-.01.12-.025.183-.033.135-.018.27-.033.4-.049l.316-.04.808-.105c.222-.03.444-.062.667-.091s.457-.055.686-.085.445-.061.667-.091a.86.86,0,0,1,.123-.005.034.034,0,0,1,.024.022.475.475,0,0,1,.007.087q-.009.7-.019,1.4-.014.886-.03,1.773c-.007.39-.016.78-.024,1.17,0,.041,0,.083,0,.124a.029.029,0,0,0,.04.019c.032-.025.066-.049.1-.076a6.611,6.611,0,0,1,.808-.606,4.507,4.507,0,0,1,.545-.295,2.956,2.956,0,0,1,1.415-.261,1.911,1.911,0,0,1,.435.076,1.5,1.5,0,0,1,.8.562,2.177,2.177,0,0,1,.32.649,4.11,4.11,0,0,1,.155.781,6.993,6.993,0,0,1,.03.921c-.007.349-.019.7-.027,1.046-.007.284-.009.567-.016.851q-.018.789-.038,1.578c0,.024,0,.047,0,.071,0,.108.011.121.125.1.181-.026.362-.056.543-.085.1-.017.21-.035.315-.051.035-.005.07-.006.106-.008a.05.05,0,0,1,.044.047c0,.012,0,.024,0,.035-.01.39-.019.78-.029,1.17-.006.213-.014.425-.021.638a.131.131,0,0,1-.009.052.066.066,0,0,1-.035.035c-.069.015-.139.027-.209.038l-.77.122-.752.124-.525.085-.752.119-.524.086A.105.105,0,0,1,458.593,373.483Zm8.961-4.158c0-.026,0-.055.006-.084q.019-.576.038-1.152t.037-1.152q.017-.514.035-1.028c0-.112.011-.224.016-.336,0-.029,0-.059,0-.088a.048.048,0,0,0-.038-.031l-.315.043c-.263.038-.525.08-.785.111a.113.113,0,0,1-.025-.087c.005-.231,0-.461.017-.692.019-.337.02-.674.031-1.01q0-.08.008-.159a.062.062,0,0,1,.057-.058l.544-.076.631-.091.615-.084.649-.092.3-.043.737-.1a.052.052,0,0,1,.054.055c0,.006,0,.012,0,.018q-.009.275-.019.549-.023.647-.046,1.294c-.009.248-.019.5-.028.744q-.022.594-.042,1.187-.015.408-.03.815-.02.558-.04,1.116c-.009.242-.018.484-.027.727,0,.029,0,.06.025.083a.146.146,0,0,0,.031,0c.035,0,.071,0,.106-.01l1.807-.286a.3.3,0,0,0,.019-.068q.02-.452.036-.9.024-.62.047-1.241c.009-.23.019-.461.028-.691q.022-.558.043-1.116c.009-.242.02-.484.029-.726q.021-.54.042-1.081c.009-.23.019-.461.028-.691q.021-.549.042-1.1c.008-.213.018-.425.026-.638a.426.426,0,0,0-.007-.087.033.033,0,0,0-.024-.021,1.463,1.463,0,0,0-.159.009c-.24.031-.48.065-.72.1a2.353,2.353,0,0,1-.351.04.075.075,0,0,1-.024-.064c.006-.219.012-.437.02-.656.007-.2.015-.4.024-.6s.019-.413.029-.62a.172.172,0,0,1,.012-.038.176.176,0,0,1,.043-.018c.152-.022.3-.044.456-.065l.755-.1.387-.048.352-.044.931-.126q.272-.036.545-.07c.052-.006.105-.007.152-.01a.083.083,0,0,1,.029.07q-.011.283-.022.567c0,.047-.007.094-.009.142q-.017.4-.034.8-.024.585-.046,1.17-.023.567-.046,1.134c-.01.242-.02.484-.03.726a.229.229,0,0,0,.006.052s.01.005.015.006.013,0,.015,0c.023-.027.046-.053.068-.082a4.567,4.567,0,0,1,.5-.554,3.1,3.1,0,0,1,.624-.465,2.573,2.573,0,0,1,.9-.306,2.657,2.657,0,0,1,.619-.019,2.04,2.04,0,0,1,1.264.578,2.853,2.853,0,0,1,.477.615,3.718,3.718,0,0,1,.415,1.07,5.193,5.193,0,0,1,.118.824c.013.2.024.4.018.6-.009.266-.025.531-.054.8a7.613,7.613,0,0,1-.152.908,5.608,5.608,0,0,1-.467,1.3,4.6,4.6,0,0,1-.923,1.249,3.142,3.142,0,0,1-1.321.765,2.67,2.67,0,0,1-.734.108,2.079,2.079,0,0,1-1.141-.333,2.632,2.632,0,0,1-.415-.331,1,1,0,0,0-.079-.07s-.026.006-.027.01c-.01.088-.022.175-.026.263-.008.171-.011.343-.017.514,0,.03,0,.059-.006.088a.062.062,0,0,1-.043.051c-.058.011-.116.023-.174.032l-.839.136-.98.155c-.251.04-.5.084-.752.124l-.543.086-.752.122-.56.09-.752.121-.542.089-.577.094c-.047.007-.094.011-.141.015a.044.044,0,0,1-.043-.045c0-.041,0-.083,0-.124,0-.154.006-.307.008-.461a.049.049,0,0,0-.014-.028c-.009-.011-.021-.009-.032,0-.027.023-.056.043-.083.067a5.633,5.633,0,0,1-.457.365,4.318,4.318,0,0,1-1.041.563,3.165,3.165,0,0,1-1.181.2,1.855,1.855,0,0,1-.522-.088,1.536,1.536,0,0,1-.839-.648,2.019,2.019,0,0,1-.263-.636,2.776,2.776,0,0,1-.08-.6c0-.089-.005-.177,0-.266q.009-.541.021-1.082c.01-.4.021-.8.032-1.206q.019-.709.037-1.418c0-.13.012-.26.017-.39,0-.029,0-.059,0-.089a.053.053,0,0,0-.05-.039h-.018l-.333.049-.649.092c-.029,0-.059.005-.084.008a.068.068,0,0,1-.028-.065c.005-.266.01-.532.016-.8.007-.307.016-.615.024-.922,0-.018,0-.035,0-.053.006-.176-.016-.179.181-.2.293-.035.585-.084.877-.126.211-.03.422-.055.632-.085s.409-.06.614-.089l.632-.086.351-.049.3-.043a.049.049,0,0,1,.047.043.343.343,0,0,1,0,.035q-.014.505-.029,1.01-.018.62-.036,1.241-.017.558-.034,1.117-.019.629-.037,1.259c-.008.266-.019.532-.025.8a1.862,1.862,0,0,0,.036.476,1.212,1.212,0,0,0,.049.17.4.4,0,0,0,.35.261,1.241,1.241,0,0,0,.542-.057c.072-.025.145-.051.215-.083A3.243,3.243,0,0,0,467.554,369.325Zm6.771-2.371a3.693,3.693,0,0,0,.038.636,2.3,2.3,0,0,0,.117.444,1.378,1.378,0,0,0,.336.515.938.938,0,0,0,.782.255,1.37,1.37,0,0,0,.8-.376,2.109,2.109,0,0,0,.472-.658,2.958,2.958,0,0,0,.187-.552,5.827,5.827,0,0,0,.133-1.124,3.894,3.894,0,0,0-.031-.583,2.025,2.025,0,0,0-.141-.565,1.218,1.218,0,0,0-.3-.435.911.911,0,0,0-.367-.206,1.1,1.1,0,0,0-.492-.019,1.377,1.377,0,0,0-.654.3,2.044,2.044,0,0,0-.6.779,2.9,2.9,0,0,0-.173.539A4.922,4.922,0,0,0,474.325,366.953Z" transform="translate(-354.86 -255.13)" fill="#fff" fill-rule="evenodd"/>
    <path id="Path_88" data-name="Path 88" d="M230.305,210.844a2.331,2.331,0,0,1,.946.183,2.248,2.248,0,0,1,.464.257,3.187,3.187,0,0,1,.876.94,2.729,2.729,0,0,1,.315.767.049.049,0,0,1-.038.066c-.029.007-.057.015-.086.02l-.3.044-.6.085-.665.1-.577.09-.561.082-.63.095-.525.079c-.193.028-.386.053-.579.082s-.385.061-.577.09c-.216.032-.432.061-.649.092l-.017,0c-.049.01-.07-.02-.065-.057.018-.117.032-.234.058-.349a3.558,3.558,0,0,1,.979-1.775,3.034,3.034,0,0,1,1.571-.837,3.1,3.1,0,0,1,.656-.055m49.075-3.731a4.924,4.924,0,0,1,.115-1.054,2.9,2.9,0,0,1,.173-.538,2.043,2.043,0,0,1,.6-.779,1.377,1.377,0,0,1,.654-.3,1.1,1.1,0,0,1,.492.019.911.911,0,0,1,.367.206,1.218,1.218,0,0,1,.3.435,2.026,2.026,0,0,1,.141.565,3.9,3.9,0,0,1,.031.583,5.825,5.825,0,0,1-.133,1.124,2.956,2.956,0,0,1-.187.552,2.109,2.109,0,0,1-.472.658,1.37,1.37,0,0,1-.8.376.938.938,0,0,1-.782-.255,1.377,1.377,0,0,1-.336-.515,2.3,2.3,0,0,1-.117-.444A3.693,3.693,0,0,1,279.381,207.112Zm-23.5,25.413a2.1,2.1,0,0,1-.168-.165l-1.383-1.426-1.247-1.286-1.049-1.083-1.135-1.172-1.1-1.134-1.123-1.159-1.049-1.083c-.136-.14-.27-.282-.4-.423-.037-.038-.075-.075-.113-.113a.088.088,0,0,0-.081-.025l-.192.031c-.326.055-.652.111-.978.164-.25.041-.5.078-.752.119s-.5.087-.751.128-.513.079-.77.121-.5.087-.751.128-.513.079-.77.121-.489.083-.733.124c-.175.029-.35.056-.525.084l-.507.083-.577.095-.542.09-.524.086-.525.085-.559.093-.576.1-.525.083-.49.079-.612.1-.524.088-.507.083-.525.083-.612.1-.524.089-.507.083-.594.1-.525.084-.541.091-.507.083-.594.1-.525.084-.541.091-.507.083-.594.1-.525.083-.541.092-.525.084-.559.092-.507.083-.576.1-.525.084-.559.093-.507.083c-.192.032-.384.065-.576.1s-.373.057-.56.087-.349.06-.524.089l-.507.083-.559.092-.56.089c-.082.013-.164.024-.245.039-.2.036-.4.054-.6.075a5.131,5.131,0,0,1-.8.016c-.188-.009-.376-.028-.564-.055a5.977,5.977,0,0,1-.865-.186,5.647,5.647,0,0,1-1.566-.737,5.51,5.51,0,0,1-1.392-1.352,5.591,5.591,0,0,1-.91-2.023,5.822,5.822,0,0,1-.128-.822c-.016-.183-.02-.366-.033-.548-.018-.248-.024-.5-.041-.743-.013-.183-.014-.366-.03-.548-.022-.242-.02-.484-.04-.726-.016-.189-.015-.378-.032-.566-.02-.236-.019-.473-.039-.708-.016-.195-.016-.39-.032-.584-.019-.23-.019-.461-.038-.69-.016-.2-.016-.4-.033-.6-.02-.224-.018-.449-.037-.672s-.016-.425-.035-.637-.018-.449-.037-.673c-.017-.2-.016-.4-.034-.6-.02-.224-.018-.449-.037-.673-.018-.206-.016-.414-.034-.619s-.018-.437-.036-.655-.017-.413-.034-.619c-.019-.224-.018-.449-.037-.672-.016-.195-.016-.39-.033-.584-.02-.23-.018-.461-.038-.69-.018-.206-.017-.413-.034-.619-.019-.23-.019-.461-.038-.69-.016-.195-.015-.39-.033-.584-.021-.236-.019-.473-.039-.708-.012-.148-.018-.295-.017-.443a1.752,1.752,0,0,1,.015-.283.867.867,0,0,0,.008-.124,4.926,4.926,0,0,1,.088-.738,6.75,6.75,0,0,1,.284-1.078,7.282,7.282,0,0,1,.7-1.45,7.415,7.415,0,0,1,1.414-1.651,7.141,7.141,0,0,1,1.2-.845,6.842,6.842,0,0,1,1.164-.519,6.332,6.332,0,0,1,1.082-.269c.187-.029.374-.054.562-.07.171-.015.34-.039.511-.056s.329-.03.494-.046c.182-.018.364-.038.546-.058l.053-.006c.171-.015.341-.029.512-.046s.34-.038.511-.057c.129-.014.259-.02.388-.038.169-.023.341-.031.512-.048s.317-.035.475-.053l.053-.006c.171-.015.341-.029.512-.046s.34-.038.511-.057l.053-.005c.177-.016.353-.029.53-.047s.328-.039.493-.056.329-.029.494-.046c.182-.018.364-.039.546-.058l.053-.006c.176-.016.353-.03.529-.047.159-.016.317-.038.475-.054s.33-.03.494-.046c.182-.018.364-.039.546-.058l.053-.006c.177-.016.353-.029.53-.047s.34-.04.511-.057c.123-.012.247-.02.37-.036.17-.022.341-.031.512-.048s.34-.038.511-.057l.053-.005c.218-.014.435-.041.652-.066.164-.019.329-.03.494-.046s.352-.037.529-.056l.053-.007c.171-.015.341-.029.512-.046s.34-.037.511-.056l.053-.006c.177-.016.353-.03.53-.047s.328-.038.493-.055.329-.03.494-.046.341-.036.511-.054l.053-.007c.171-.015.341-.029.512-.046s.34-.037.511-.056l.053-.006c.177-.016.353-.029.53-.047s.34-.04.51-.057c.123-.012.247-.02.37-.036.17-.022.341-.031.512-.048s.34-.038.511-.057l.035,0c.165-.015.33-.028.494-.045s.34-.038.511-.057l.053-.005c.23-.016.459-.042.687-.069.17-.02.341-.03.512-.047s.34-.037.511-.056l.053-.006c.177-.016.353-.03.53-.047s.328-.038.493-.055.329-.03.494-.046.341-.036.511-.054l.053-.007c.171-.015.341-.029.512-.046s.34-.037.511-.056l.053-.006c.171-.015.341-.029.512-.046s.34-.039.511-.057c.129-.014.259-.02.388-.038.17-.023.341-.031.512-.048s.34-.038.511-.057l.035,0c.165-.015.33-.028.494-.045s.34-.038.511-.057l.035,0c.236-.017.47-.043.705-.07.17-.019.341-.03.512-.047s.34-.037.511-.056l.053-.006c.176-.016.353-.03.53-.047s.328-.038.493-.055.329-.03.494-.046.341-.036.511-.054l.053-.007c.171-.015.341-.029.512-.046s.34-.037.511-.056l.053-.006c.171-.015.341-.029.512-.046s.34-.039.511-.057c.129-.014.259-.02.388-.038.17-.023.341-.031.512-.048s.34-.039.511-.056.318-.03.476-.046l.546-.058.053-.007c.171-.015.341-.029.512-.046s.34-.038.511-.057l.053-.005c.177-.016.353-.03.53-.047s.328-.039.493-.055.329-.03.494-.046c.182-.018.364-.039.546-.058.117-.012.235-.026.352-.037.165-.016.329-.029.494-.046.182-.018.364-.039.546-.058l.053-.006c.176-.016.353-.03.529-.047s.34-.04.51-.057c.118-.012.235-.018.353-.034.169-.023.341-.031.512-.048s.341-.037.511-.055l.053-.007c.165-.015.33-.028.494-.045s.34-.038.511-.057l.053-.005c.224-.016.447-.042.67-.067.164-.019.329-.03.494-.046s.352-.037.529-.056l.053-.007c.171-.015.341-.029.512-.046s.34-.037.511-.056l.053-.006c.177-.016.353-.03.53-.048.159-.016.317-.038.475-.054s.329-.029.494-.046c.182-.018.364-.039.546-.058l.053-.006c.177-.016.353-.03.53-.047s.34-.04.511-.057c.118-.012.235-.018.353-.034.17-.023.341-.031.512-.048s.341-.037.511-.055l.053-.007c.171-.015.341-.029.512-.046s.34-.04.511-.057c.123-.012.247-.02.37-.036.17-.022.341-.031.512-.048s.34-.038.511-.057l.035,0c.171-.015.341-.029.512-.046s.341-.037.511-.056l.053-.006c.176-.016.353-.03.529-.047s.329-.038.493-.055.329-.03.494-.046.352-.038.528-.057l.053-.006c.177-.016.353-.029.53-.047s.328-.038.493-.055c.129-.013.259-.021.388-.038.17-.022.341-.031.512-.048s.34-.038.511-.057l.053,0c.218-.015.435-.041.652-.067.17-.02.341-.03.512-.047s.341-.037.511-.055l.053-.007c.171-.015.341-.029.512-.046s.34-.038.511-.057l.053-.005c.23-.016.459-.043.688-.069.17-.02.341-.03.512-.047s.34-.037.511-.056l.352-.037c.165-.016.329-.029.494-.046.182-.018.364-.039.546-.058l.035,0c.171-.015.341-.029.512-.046s.34-.037.511-.056l.106-.01c.171-.016.342-.024.512-.048a4.772,4.772,0,0,1,.779-.028,2.948,2.948,0,0,1,.63.093,3.569,3.569,0,0,1,1.347.65,4.011,4.011,0,0,1,.786.813,4.871,4.871,0,0,1,.746,1.559,5.474,5.474,0,0,1,.17.832,4.877,4.877,0,0,1,.046.53c0,.26.011.521-.009.78-.017.23-.019.461-.038.69-.016.189-.016.378-.033.566-.019.212-.019.425-.037.637s-.018.413-.035.619-.018.414-.036.619-.017.414-.035.619-.018.413-.035.619-.017.414-.035.619-.018.425-.036.637c-.017.195-.016.39-.034.584-.019.218-.018.437-.037.655-.017.195-.016.39-.034.584-.02.224-.018.449-.038.672-.016.177-.021.354-.03.531,0,.065-.011.129-.015.194-.006.088-.01.177-.014.266a2.912,2.912,0,0,1-.024.371.283.283,0,0,0,0,.035c-.016.313-.031.626-.048.938,0,.083-.013.165-.019.247,0,.035-.005.071-.007.106-.01.189-.017.378-.031.566-.024.312-.033.625-.05.938-.011.2-.019.4-.04.6a7.229,7.229,0,0,1-1.352,3.515,6.49,6.49,0,0,1-.755.87,5.675,5.675,0,0,1-1.568,1.083,4.389,4.389,0,0,1-1.113.346c-.3.048-.594.1-.891.145-.32.053-.64.11-.96.162-.256.042-.513.079-.77.121s-.5.087-.751.128c-.326.053-.653.1-.979.156-.245.04-.489.083-.733.124l-.507.082-.525.084-.559.093-.577.1-.525.084-.541.091-.525.085-.576.1-.525.084-.541.091-.525.084-.576.1-.525.083-.49.079-.612.1-.524.089-.524.085-.577.1-.507.082-.559.093-.507.083-.594.1-.525.084-.541.091-.507.083-.594.1-.525.084-.541.091-.507.083-.594.1c-.018,0-.035.006-.053.008-.156.012-.163.029-.255.158q-.817,1.138-1.637,2.274l-2.085,2.891-1.2,1.67-1.535,2.129-1.2,1.67-.757,1.05A.321.321,0,0,1,255.881,232.526Zm16.728-23.042a3.244,3.244,0,0,1-.937.7c-.07.032-.142.058-.215.083a1.241,1.241,0,0,1-.542.057.4.4,0,0,1-.35-.261,1.2,1.2,0,0,1-.049-.17,1.856,1.856,0,0,1-.035-.476c.006-.266.017-.532.025-.8q.019-.629.037-1.259.017-.558.034-1.117.019-.62.037-1.241.015-.505.029-1.01c0-.012,0-.023,0-.035a.049.049,0,0,0-.048-.043l-.3.043-.351.049-.632.086c-.2.029-.409.06-.614.089s-.422.055-.632.085c-.292.041-.584.09-.877.126-.2.024-.175.027-.181.2,0,.018,0,.035,0,.053-.008.307-.017.615-.024.922-.006.266-.011.532-.016.8a.068.068,0,0,0,.028.065c.025,0,.055,0,.084-.008l.649-.092.333-.049h.018a.053.053,0,0,1,.05.039c0,.029,0,.059,0,.089-.005.13-.013.26-.017.39q-.02.709-.037,1.418c-.011.4-.022.8-.032,1.206q-.013.541-.021,1.082c0,.089,0,.177,0,.266a2.78,2.78,0,0,0,.08.6,2.018,2.018,0,0,0,.263.636,1.536,1.536,0,0,0,.839.648,1.855,1.855,0,0,0,.522.088,3.165,3.165,0,0,0,1.181-.2,4.319,4.319,0,0,0,1.041-.563,5.646,5.646,0,0,0,.457-.365c.026-.023.055-.044.082-.067.011-.009.022-.011.032,0a.049.049,0,0,1,.014.028c0,.154-.005.307-.008.461,0,.041,0,.083,0,.124a.044.044,0,0,0,.043.045c.047,0,.094-.007.141-.015l.577-.094.542-.089.752-.121.56-.09.752-.122.543-.086c.251-.041.5-.084.752-.124l.98-.155.84-.136c.058-.01.116-.021.174-.032a.062.062,0,0,0,.043-.051c0-.029,0-.059.006-.088.006-.171.009-.343.017-.514,0-.088.016-.176.026-.263,0,0,.023-.014.027-.01a.981.981,0,0,1,.079.07,2.629,2.629,0,0,0,.415.331,2.079,2.079,0,0,0,1.141.333,2.669,2.669,0,0,0,.734-.108,3.142,3.142,0,0,0,1.321-.765,4.6,4.6,0,0,0,.923-1.249,5.612,5.612,0,0,0,.467-1.3,7.625,7.625,0,0,0,.152-.908c.028-.265.045-.53.054-.8.007-.2-.005-.4-.018-.6a5.2,5.2,0,0,0-.118-.824,3.722,3.722,0,0,0-.415-1.07,2.856,2.856,0,0,0-.477-.615,2.04,2.04,0,0,0-1.264-.578,2.656,2.656,0,0,0-.619.019,2.572,2.572,0,0,0-.9.305,3.1,3.1,0,0,0-.624.465,4.563,4.563,0,0,0-.5.554c-.021.028-.045.055-.068.082,0,0-.01,0-.015,0s-.014,0-.015-.006a.231.231,0,0,1-.006-.052c.01-.242.02-.484.03-.726q.023-.567.046-1.134.023-.585.046-1.17.016-.4.034-.8c0-.047.007-.094.009-.142q.011-.284.021-.567a.083.083,0,0,0-.029-.07c-.046,0-.1,0-.152.01q-.273.034-.545.07l-.931.126-.352.044-.387.048-.755.1c-.152.02-.3.042-.456.065a.173.173,0,0,0-.043.018.167.167,0,0,0-.012.038q-.015.31-.029.62c-.009.2-.017.4-.024.6-.008.219-.013.437-.02.656a.075.075,0,0,0,.024.064,2.363,2.363,0,0,0,.351-.04c.24-.033.48-.066.72-.1a1.47,1.47,0,0,1,.159-.009.033.033,0,0,1,.024.021.42.42,0,0,1,.007.087c-.008.213-.018.425-.026.638q-.022.549-.042,1.1c-.009.23-.019.461-.028.691q-.021.54-.042,1.081c-.01.242-.02.484-.029.726q-.022.558-.043,1.116c-.009.23-.019.461-.028.691q-.024.62-.047,1.24-.017.452-.036.9a.3.3,0,0,1-.019.068l-1.807.286c-.035.005-.071.008-.106.01a.144.144,0,0,1-.031,0c-.03-.023-.026-.054-.025-.083.009-.242.018-.484.027-.727q.021-.558.04-1.116.015-.408.03-.815.021-.594.042-1.187c.009-.248.019-.5.028-.744q.023-.647.046-1.294.01-.275.019-.549c0-.006,0-.012,0-.018a.052.052,0,0,0-.054-.055l-.737.1-.3.043-.649.092-.614.084-.631.091-.544.076a.062.062,0,0,0-.056.058q-.006.08-.008.159c-.011.337-.013.674-.031,1.01-.013.23-.012.461-.017.692a.113.113,0,0,0,.025.087c.26-.031.523-.073.785-.111l.315-.043a.048.048,0,0,1,.038.031c0,.029,0,.059,0,.088,0,.112-.012.224-.016.336q-.018.514-.035,1.028-.019.576-.037,1.152t-.038,1.152C272.614,209.429,272.611,209.458,272.609,209.484Zm-8.961,4.158a.1.1,0,0,0,.033.006l.524-.086.752-.119.525-.085.752-.124.77-.122c.07-.011.14-.023.209-.038a.066.066,0,0,0,.035-.035.131.131,0,0,0,.009-.052c.008-.213.016-.425.021-.638q.016-.585.029-1.17c0-.012,0-.024,0-.035a.05.05,0,0,0-.044-.047c-.035,0-.071,0-.106.008-.105.016-.21.034-.315.051-.181.029-.361.059-.542.085-.114.016-.126,0-.125-.1,0-.024,0-.047,0-.071q.019-.789.038-1.578c.006-.284.009-.567.016-.851.008-.349.02-.7.027-1.046a7,7,0,0,0-.03-.921,4.108,4.108,0,0,0-.155-.781,2.176,2.176,0,0,0-.32-.649,1.5,1.5,0,0,0-.8-.562,1.915,1.915,0,0,0-.435-.076,2.956,2.956,0,0,0-1.415.261,4.518,4.518,0,0,0-.545.295,6.614,6.614,0,0,0-.808.606c-.031.027-.064.051-.1.076a.029.029,0,0,1-.04-.019c0-.041,0-.083,0-.124.008-.39.017-.78.024-1.17q.016-.886.03-1.773.011-.7.019-1.4a.477.477,0,0,0-.007-.087.034.034,0,0,0-.024-.022.856.856,0,0,0-.123.005c-.222.03-.444.062-.667.091s-.457.055-.686.085-.445.062-.667.091l-.808.105-.316.04c-.135.017-.27.031-.4.049-.064.008-.126.023-.183.033a.154.154,0,0,0-.024.109c0,.171,0,.343,0,.514s-.005.355-.008.532q-.007.426-.013.851a.141.141,0,0,0,.009.051.036.036,0,0,0,.025.021.65.65,0,0,0,.105,0l.456-.062.386-.054.281-.037a.045.045,0,0,1,.05.037c0,.035,0,.071,0,.106q-.016,1.241-.033,2.482-.017,1.268-.035,2.536l-.041,3.032c0,.154,0,.307-.007.461,0,.047-.011.077-.069.087l-.263.042-.788.12c-.047.007-.093.017-.139.026a.06.06,0,0,0-.045.048c0,.035,0,.071,0,.106q-.007.86-.014,1.72c0,.035,0,.071,0,.106a.043.043,0,0,0,.047.041l.228-.033.56-.089.769-.125.752-.12.769-.127.77-.122.822-.133c.07-.011.139-.025.209-.037a.055.055,0,0,0,.043-.049c0-.035,0-.071,0-.106,0-.213.005-.426.01-.638.007-.325.015-.65.023-.975,0-.065,0-.13,0-.195a.042.042,0,0,0-.044-.043l-.245.037-.77.123a.219.219,0,0,1-.051,0,.153.153,0,0,1-.02-.1c.006-.307.013-.614.019-.922q.018-1.028.036-2.057.008-.47.014-.94c0-.041,0-.082,0-.115a.275.275,0,0,1,.028-.036,4.355,4.355,0,0,1,.724-.509,2.259,2.259,0,0,1,.422-.182,1.153,1.153,0,0,1,.454-.055.493.493,0,0,1,.462.353c.015.045.026.091.036.137a1.719,1.719,0,0,1,.035.405q-.01.523-.022,1.046-.018.878-.036,1.755-.022,1.055-.043,2.11c0,.225-.007.449-.009.674A.152.152,0,0,0,263.649,213.642ZM245.86,203.3a.113.113,0,0,0-.027.092q0,.71.01,1.419c0,.024,0,.047.005.071a.047.047,0,0,0,.051.038l.334-.045.369-.049.421-.057.351-.044a.04.04,0,0,1,.038.029c0,.053.006.106.006.159q.005,2.35.01,4.7,0,1.5.011,3,0,.958.009,1.916,0,.062,0,.124a.068.068,0,0,1-.053.062l-.368.056-.595.1-.49.079a.056.056,0,0,0-.043.05c0,.053,0,.106,0,.159q0,.417,0,.834,0,.186,0,.373c0,.035,0,.071,0,.106s.023.057.055.052l.665-.106.437-.07.752-.124.595-.1.542-.086.525-.084.8-.13.245-.041a.065.065,0,0,0,.051-.063c0-.024,0-.047,0-.071q0-.656,0-1.313c0-.012,0-.024,0-.035,0-.073-.024-.078-.09-.072-.041,0-.082.011-.123.018l-.542.087c-.193.031-.385.059-.578.091-.117.02-.131.023-.13-.11,0-.071,0-.142,0-.213q0-1.792,0-3.583,0-.434,0-.869c0-.035,0-.071,0-.106a.151.151,0,0,1,.053-.126c.111-.1.22-.2.331-.295a8.368,8.368,0,0,1,.8-.619,4.516,4.516,0,0,1,.693-.393,2.4,2.4,0,0,1,.591-.179.871.871,0,0,1,.4.024.772.772,0,0,1,.53.483.957.957,0,0,1,.054.242c.019.2.038.4.037.6s0,.39,0,.585q-.005,1.88-.012,3.76c0,.349-.005.7-.008,1.046,0,.207,0,.414,0,.621a.558.558,0,0,0,.007.106.051.051,0,0,0,.035.033.468.468,0,0,0,.105-.006l.437-.07c.4-.066.8-.134,1.206-.2.385-.063.77-.123,1.155-.185a.192.192,0,0,0,.051-.014.044.044,0,0,0,.022-.025.3.3,0,0,0,.009-.07q.005-.665.009-1.33c0-.024,0-.047,0-.071a.043.043,0,0,0-.048-.039l-1.19.19a.613.613,0,0,1-.123.007.048.048,0,0,1-.033-.034,1.173,1.173,0,0,1-.006-.141c0-.2,0-.39.006-.585q.011-1.916.02-3.831a7.4,7.4,0,0,0-.04-.974c-.016-.123-.029-.247-.05-.369a2.454,2.454,0,0,0-.1-.378,1.522,1.522,0,0,0-.587-.779,1.666,1.666,0,0,0-.775-.28,2.879,2.879,0,0,0-.638,0,3.21,3.21,0,0,0-.756.184,4.657,4.657,0,0,0-.985.52,7.7,7.7,0,0,0-1.013.832c-.047.045-.094.09-.143.133-.006.005-.021,0-.031,0s-.008-.008-.009-.013c0-.059-.007-.118-.007-.176q0-2.306,0-4.612c0-.053,0-.106,0-.16a.456.456,0,0,0-.006-.052.048.048,0,0,0-.038-.032l-.228.028c-.135.017-.27.032-.4.05-.223.029-.445.061-.667.09s-.446.055-.668.083l-.791.1c-.1.013-.2.024-.3.039C245.953,203.277,245.9,203.29,245.86,203.3Zm-11.09,10.812a.121.121,0,0,0,.022-.091c0-.136-.017-.271-.03-.406a6.764,6.764,0,0,0-.186-1.081,4.81,4.81,0,0,0-.421-1.088,3.559,3.559,0,0,0-.826-1.033,4.75,4.75,0,0,0-1.414-.831,4,4,0,0,0-1.084-.248,5.078,5.078,0,0,0-3.07.723,6.254,6.254,0,0,0-1.733,1.578,5.287,5.287,0,0,0-1.1,3.266,6.363,6.363,0,0,0,.062.883,4.639,4.639,0,0,0,.287,1.112,3.622,3.622,0,0,0,1.167,1.555,4.556,4.556,0,0,0,2.694.952,5.748,5.748,0,0,0,1.025-.062,6.76,6.76,0,0,0,.677-.133,6.866,6.866,0,0,0,1.777-.737,5.866,5.866,0,0,0,2.131-2.133.4.4,0,0,0,.069-.142.3.3,0,0,0-.127-.056l-.986-.288c-.142-.042-.283-.084-.425-.124a.057.057,0,0,0-.047.014.731.731,0,0,0-.061.087,5.01,5.01,0,0,1-.335.457,4,4,0,0,1-1.59,1.184,4.3,4.3,0,0,1-1.042.275,3.412,3.412,0,0,1-1.024-.005,2.356,2.356,0,0,1-.781-.274,2.631,2.631,0,0,1-.974-.959,3.409,3.409,0,0,1-.406-1.109.471.471,0,0,1-.005-.053.05.05,0,0,1,.039-.051c.076-.013.151-.026.227-.038l.578-.086.613-.094.56-.085c.263-.04.525-.083.788-.122s.549-.08.824-.122c.344-.053.688-.109,1.033-.161s.7-.1,1.051-.156c.274-.042.548-.087.823-.128.344-.052.689-.1,1.034-.154C234.65,214.137,234.713,214.122,234.77,214.111Zm9.9-3.084a.267.267,0,0,0,.015-.121q-.006-1.242-.012-2.483,0-.3-.005-.6c0-.065,0-.13,0-.195s-.022-.078-.091-.072c-.047,0-.094.01-.141.017l-.649.091-.579.08a.14.14,0,0,0-.049.019.046.046,0,0,0-.021.026.328.328,0,0,0-.008.07c0,.112,0,.225,0,.337,0,.047,0,.094,0,.142a.034.034,0,0,1-.049.03l-.119-.076a2.986,2.986,0,0,0-1.429-.48,4.128,4.128,0,0,0-1.164.076,4.437,4.437,0,0,0-1.706.752,5.875,5.875,0,0,0-1.048.977,5.426,5.426,0,0,0-1.1,2.023,6,6,0,0,0-.219,1.486c-.005.166.007.331.015.5a5.084,5.084,0,0,0,.111.825,4.509,4.509,0,0,0,1.126,2.157,3.264,3.264,0,0,0,2.288,1.061,4.543,4.543,0,0,0,.92-.039,6.3,6.3,0,0,0,.934-.2,4.753,4.753,0,0,0,2.536-1.779,6.248,6.248,0,0,0,.734-1.332.491.491,0,0,0,.015-.051.049.049,0,0,0-.021-.045.219.219,0,0,0-.031-.017l-1.274-.433-.017,0a.068.068,0,0,0-.063.023c-.018.037-.035.075-.052.113a4.571,4.571,0,0,1-.339.622,3.325,3.325,0,0,1-.694.777,3.231,3.231,0,0,1-1.951.7,2.21,2.21,0,0,1-.371-.026,1.852,1.852,0,0,1-.558-.164,1.9,1.9,0,0,1-.679-.557,3.18,3.18,0,0,1-.513-.946,4.052,4.052,0,0,1-.2-1.29,4.474,4.474,0,0,1,.09-.934,3.45,3.45,0,0,1,.744-1.568,2.754,2.754,0,0,1,2.209-1.016,2.013,2.013,0,0,1,1.061.3,1.642,1.642,0,0,1,.61.652,2.034,2.034,0,0,1,.175.463c.023.092.04.185.06.277,0,.022.007.047.04.061a.4.4,0,0,0,.062,0l1.332-.2A.746.746,0,0,0,244.674,211.027Zm-21.105,7.334a.215.215,0,0,0-.1.037,3.117,3.117,0,0,1-.408.172,2.468,2.468,0,0,1-.639.137.894.894,0,0,1-.247-.015.341.341,0,0,1-.261-.217,1.418,1.418,0,0,1-.07-.274c-.034-.2-.051-.4-.065-.6-.018-.247-.026-.5-.037-.744-.012-.272-.022-.543-.033-.815q-.019-.478-.038-.957-.016-.408-.033-.815-.023-.585-.044-1.169c-.007-.183-.015-.366-.022-.549a.078.078,0,0,1,0-.035.091.091,0,0,1,.031-.04.2.2,0,0,1,.067-.02c.053-.008.106-.011.158-.019.2-.03.409-.062.613-.091s.41-.056.614-.085l.228-.034c.052-.008.074-.032.074-.081s0-.106,0-.159q-.012-.292-.024-.585-.016-.4-.032-.8c0-.059-.021-.077-.075-.07l-.351.048-.614.088-.667.092-.035,0a.055.055,0,0,1-.059-.052c0-.018,0-.035,0-.053q-.018-.461-.036-.921c-.011-.278-.023-.555-.033-.833q-.024-.638-.047-1.276c0-.024,0-.047-.005-.071a.016.016,0,0,0-.01-.011c-.011,0-.026,0-.032,0-.034.033-.067.067-.1.1l-.658.72-.909,1a1.36,1.36,0,0,0-.138.162c0,.227.011.451.021.675q.016.363.03.726a.227.227,0,0,1-.005.07.093.093,0,0,1-.032.04.068.068,0,0,1-.033.011l-.842.116-.315.046a.062.062,0,0,0-.045.049.4.4,0,0,0,0,.053c0,.071.012.141.015.212q.024.567.047,1.134c0,.071.006.142.01.212a.048.048,0,0,0,.048.043c.065-.006.13-.012.194-.021l.841-.125a1.11,1.11,0,0,1,.159-.011.052.052,0,0,1,.037.032.485.485,0,0,1,.015.1c.013.289.025.579.037.868q.016.381.033.762.019.452.038.9.016.381.033.762c.013.3.028.6.038.9.014.449.036.9.073,1.345q.029.354.084.7c.016.1.041.209.067.312a1.329,1.329,0,0,0,.391.662,1.64,1.64,0,0,0,.349.241,1.87,1.87,0,0,0,.926.194,3.394,3.394,0,0,0,.476-.044,4.752,4.752,0,0,0,1.358-.445.148.148,0,0,0,.074-.059c0-.057,0-.121,0-.186q-.018-.523-.038-1.045c0-.124-.013-.248-.021-.372A.164.164,0,0,0,223.569,218.361Z" transform="translate(-159.915 -95.289)" fill="#594844" fill-rule="evenodd"/>
  </g>
</svg>
