<svg xmlns="http://www.w3.org/2000/svg" width="74.395" height="49.006" viewBox="0 0 74.395 49.006">
  <g id="Group_2535" data-name="Group 2535" transform="translate(-7.317 -6.01)">
    <path id="Path_879" data-name="Path 879" d="M23,24.085c0-2.522-1.883-3.342-5.62-4.405C13.7,18.648,10.9,17.19,10.9,12.6c0-3.4,2.521-6.591,7.2-6.591,2.794,0,4.374.942,5.407.942.516,0,.669-.214.881-.609h.334l.213,6.136h-.486C22.9,9.686,20.838,6.647,17.71,6.647,15.522,6.647,14,7.925,14,9.716c0,2.247,2.066,3.008,5.134,3.828,3.372.911,7.109,2.066,7.109,7.107,0,4.375-2.977,7.261-7.442,7.261-2.947,0-5.5-.911-6.349-.911-.485,0-.668.336-.91.911h-.426l-.3-7.229h.516c1.519,3.038,4.466,6.592,7.807,6.592C20.959,27.275,23,26.3,23,24.085Z" transform="translate(-2.585)"/>
    <path id="Path_880" data-name="Path 880" d="M92.266,14.915h-.577c-1.641-4.951-2.582-6.987-5.347-6.987h-.365v19.99h2.582v.637H77.471v-.637h2.582V7.928h-.4c-2.764,0-3.8,2.279-5.346,6.987h-.577l.3-7.626H91.961Z" transform="translate(-49.103 -0.946)"/>
    <path id="Path_881" data-name="Path 881" d="M167.365,7.289l.3,6.015h-.547c-1.671-3.979-3.1-5.346-6.774-5.346h-1.063v9.386h1.032c1.975,0,3.25-1.671,3.766-3.979h.456v8.992h-.516c-.729-3.037-1.883-4.222-4.009-4.222h-.729v9.75h1.154a7.67,7.67,0,0,0,7.442-5.954h.607l-.242,6.624H151.568v-.67h1.793V7.958h-1.793V7.289Z" transform="translate(-106.645 -0.946)"/>
    <path id="Path_882" data-name="Path 882" d="M232.513,7.289c5.711,0,9.083,1.277,9.083,6.045,0,5.166-3.98,6.5-9.874,6.5h-.243v8.142h3.8v.577H223.582v-.577h1.974V7.867h-1.974V7.289ZM231.48,19.258h.638c2.551,0,3.221-1.761,3.221-5.285V12.514c0-3.433-.73-4.647-3.038-4.647h-.821Z" transform="translate(-159.885 -0.946)"/>
    <path id="Path_883" data-name="Path 883" d="M24.467,105.416l.33,6.859H24.2c-1.616-4.749-3.364-6.134-7.586-6.134h-.923V116.86h1.484c2.143,0,3.561-1.682,4.09-4.321h.495V122.3H21.2c-.726-3.332-1.88-4.583-4.024-4.583H15.694v10.058h4.089v.726H7.317v-.726H9.262V106.142H7.317v-.726Z" transform="translate(0 -73.491)"/>
    <path id="Path_884" data-name="Path 884" d="M212.584,128.307H203.25v-.627h2.177V105.846H203.25v-.626h10.192c8.146,0,12.665,2.935,12.665,11.148C226.107,125.668,220.466,128.307,212.584,128.307Zm.528-.627c4.452,0,6.2-2.87,6.2-10.255v-1.915c0-8.014-2.045-9.662-6.662-9.662h-.791v21.833Z" transform="translate(-144.853 -73.346)"/>
    <g id="Group_2534" data-name="Group 2534" transform="translate(28.415 31.76)">
      <path id="Path_885" data-name="Path 885" d="M133.415,128.206c-3.218-7.283-6.12-13.79-8.946-20.327-.364-.841-1.27-2.1.35-2.628,1.236-.406,2.716-.446,3.358,1.031q3.558,8.2,6.932,16.474C135.87,124.632,134.5,126.01,133.415,128.206Z" transform="translate(-114.594 -104.95)" fill="#e757da" fill-rule="evenodd"/>
      <path id="Path_886" data-name="Path 886" d="M97.773,128.206c-3.219-7.283-6.12-13.79-8.946-20.327-.363-.841-1.271-2.1.35-2.628,1.235-.406,2.715-.446,3.357,1.031q3.559,8.2,6.933,16.474C100.228,124.632,98.858,126.01,97.773,128.206Z" transform="translate(-88.244 -104.95)" fill="#e757da" fill-rule="evenodd"/>
      <path id="Path_887" data-name="Path 887" d="M174.3,107.153c.65,1.812-.682,3.178-1.742,5.322l-2.386-4.822c-.364-.842-1.271-2.1.35-2.629,1.236-.4,2.715-.445,3.357,1.031.8,1.836.1.233.1.233" transform="translate(-148.38 -104.783)" fill="#e757da" fill-rule="evenodd"/>
    </g>
  </g>
</svg>
