<svg xmlns="http://www.w3.org/2000/svg" width="123.992" height="37.686" viewBox="0 0 123.992 37.686">
  <g id="Group_70" data-name="Group 70" transform="translate(-381.403 -1392.018)">
    <path id="Path_180" data-name="Path 180" d="M1294.645,1500.521a1.273,1.273,0,0,1,.339-.409q3.644-3.63,7.292-7.255a3.455,3.455,0,0,0,1.057-2,3.22,3.22,0,0,0-.915-2.854c-1.47-1.488-2.959-2.956-4.441-4.432q-1.572-1.566-3.144-3.133c-.065-.065-.166-.112-.162-.241a1.046,1.046,0,0,1,.413-.028q40.464,0,80.928-.006a3.5,3.5,0,0,1,2.913,1.325,3.382,3.382,0,0,1,.722,2.183c0,2.191,0,4.382,0,6.573,0,2.291.016,4.582-.006,6.872a3.311,3.311,0,0,1-1.938,3.076,2.889,2.889,0,0,1-1.314.324l-.427,0h-81.315Z" transform="translate(-874.254 -84.384)" fill="#00a0dd"/>
    <path id="Path_181" data-name="Path 181" d="M704.769,1727.254h3.33c.408,0,.42,0,.451.4a6.135,6.135,0,0,0,7.628,5.52,5.916,5.916,0,0,0,4.52-4.679,3.385,3.385,0,0,0,.114-.972c-.011-.212.085-.281.279-.267.071.005.142,0,.213,0h6.531c.057,0,.114,0,.171,0,.3.012.31.012.308.312a12.358,12.358,0,0,1-.286,2.5,13.654,13.654,0,0,1-26.658.166,12.116,12.116,0,0,1-.311-2.664c0-.3,0-.309.3-.31C702.493,1727.252,703.631,1727.254,704.769,1727.254Z" transform="translate(-306.009 -320.922)" fill="#00a0dd"/>
    <path id="Path_182" data-name="Path 182" d="M396.948,1480.371c-.127.129-.252.259-.38.386-2.419,2.41-4.82,4.839-7.266,7.222a3.469,3.469,0,0,0,.01,4.989c2.456,2.393,4.866,4.833,7.3,7.25a2.929,2.929,0,0,0,.353.264c-.108.2-.22.153-.308.153-3.956,0-7.911.01-11.867,0a3.354,3.354,0,0,1-3.374-3.359c-.021-1.736-.006-3.472-.006-5.208,0-2.746.005-5.492,0-8.239a3.426,3.426,0,0,1,.776-2.292,3.351,3.351,0,0,1,2.691-1.251H396.9Z" transform="translate(0 -84.501)" fill="#00a0dd"/>
    <path id="Path_183" data-name="Path 183" d="M2371.577,2198.316c0-.454.009-.91,0-1.364-.006-.226.079-.292.3-.289.739.01,1.478,0,2.216.006a.775.775,0,0,1,.868.873c.01.71,0,1.421,0,2.131,0,.106.042.251-.1.292a.747.747,0,0,1-.462-.008c-.111-.042-.072-.172-.073-.267,0-.625,0-1.25,0-1.876,0-.1,0-.2,0-.3,0-.145-.079-.2-.213-.2-.554,0-1.108,0-1.663,0-.219,0-.252.126-.25.3,0,.526,0,1.052,0,1.577,0,.156,0,.313,0,.469-.007.323-.015.319-.339.323-.2,0-.281-.054-.276-.265C2371.585,2199.254,2371.577,2198.785,2371.577,2198.316Z" transform="translate(-1905.207 -770.294)" fill="#02a1dd"/>
    <path id="Path_184" data-name="Path 184" d="M1309.438,2198.355c0-.469.007-.939,0-1.408,0-.208.074-.27.275-.268.754.009,1.508-.006,2.263.007a.742.742,0,0,1,.825.818c.008.725,0,1.451,0,2.177,0,.317-.008.317-.3.319-.313,0-.318,0-.319-.342,0-.655,0-1.309,0-1.964,0-.355-.006-.36-.352-.363-.484,0-.968-.006-1.451,0-.3,0-.318.02-.32.314-.006.669,0,1.337,0,2.007,0,.354-.014.347-.356.352-.219,0-.261-.093-.258-.283C1309.444,2199.266,1309.438,2198.81,1309.438,2198.355Z" transform="translate(-888.412 -770.309)" fill="#01a1dd"/>
    <path id="Path_185" data-name="Path 185" d="M2107.419,2197.951c0-.384.012-.768,0-1.15-.011-.28.17-.233.338-.244.185-.011.291.027.287.25-.01.681-.006,1.363,0,2.045,0,.4.012.408.4.411.468,0,.937.006,1.406,0,.29,0,.312-.027.314-.324.006-.667,0-1.335,0-2,0-.386.027-.4.413-.379.164.009.229.072.227.23,0,.313,0,.625,0,.938,0,.426.011.853,0,1.278-.024.626-.284.871-.9.874-.554,0-1.108.006-1.662,0a.737.737,0,0,1-.818-.816C2107.414,2198.689,2107.419,2198.32,2107.419,2197.951Z" transform="translate(-1652.327 -770.185)" fill="#01a1dd"/>
    <path id="Path_186" data-name="Path 186" d="M2198.151,2173.773c0-.54,0-1.08,0-1.62,0-.267.02-.275.3-.279.311,0,.313.005.336.291.02.249-.122.571.078.726.183.142.493.034.748.044.057,0,.113,0,.17,0,.363.006.376.031.372.386,0,.211-.094.269-.286.263-.284-.009-.568,0-.853,0-.157,0-.233.051-.232.219q.008.788,0,1.577c0,.21.107.268.295.263.241-.006.483,0,.725,0,.346,0,.35.01.347.315s0,.292-.367.3c-.27,0-.54,0-.81,0a.743.743,0,0,1-.823-.818C2198.143,2174.881,2198.151,2174.327,2198.151,2173.773Z" transform="translate(-1739.186 -746.563)" fill="#03a1dd"/>
    <path id="Path_187" data-name="Path 187" d="M1873.923,2199.116l1.146-2.085c.276-.5.276-.5.893-.413.035.1-.033.163-.072.234-.507.92-1.025,1.835-1.522,2.76a.5.5,0,0,1-.5.292.453.453,0,0,1-.454-.295c-.494-.911-1-1.815-1.5-2.722a.415.415,0,0,1-.089-.271,1.267,1.267,0,0,1,.554-.03c.141,0,.168.138.221.232.364.659.724,1.32,1.088,1.979C1873.743,2198.906,1873.774,2199.039,1873.923,2199.116Z" transform="translate(-1426.789 -770.205)" fill="#01a0dd"/>
    <path id="Path_188" data-name="Path 188" d="M2065.311,2173.85c0-.54,0-1.081,0-1.621,0-.347.008-.35.313-.346s.3,0,.3.366q0,1.429,0,2.858c0,.1,0,.2,0,.3a.209.209,0,0,0,.229.242c.071,0,.143,0,.213,0,.317.012.312.021.316.348,0,.209-.076.283-.275.265-.1-.009-.2,0-.3,0a.719.719,0,0,1-.8-.79C2065.305,2174.93,2065.311,2174.39,2065.311,2173.85Z" transform="translate(-1612.018 -746.571)" fill="#01a1dd"/>
    <path id="Path_189" data-name="Path 189" d="M1581.509,2173.484c0-.539,0-1.079,0-1.619,0-.106-.052-.251.083-.3a.659.659,0,0,1,.46,0c.1.04.065.176.065.272q0,1.235,0,2.472v.384c0,.557,0,.568.548.608.216.016.215.138.206.285s.061.338-.2.331c-.114,0-.227,0-.341,0a.741.741,0,0,1-.823-.815C1581.5,2174.563,1581.509,2174.023,1581.509,2173.484Z" transform="translate(-1148.865 -746.227)" fill="#01a1dd"/>
    <path id="Path_190" data-name="Path 190" d="M2253.637,2198.393c0,.454-.012.908.005,1.362.009.25-.115.274-.312.272s-.323-.01-.319-.265q.017-1.4,0-2.808c0-.269.158-.247.334-.25s.3.008.3.243C2253.628,2197.428,2253.637,2197.911,2253.637,2198.393Z" transform="translate(-1791.707 -770.332)" fill="#02a1dd"/>
    <path id="Path_191" data-name="Path 191" d="M1846.055,2260.67c-.311,0-.315,0-.32-.291,0-.317,0-.328.323-.328s.323.012.325.288C1846.387,2260.645,1846.364,2260.669,1846.055,2260.67Z" transform="translate(-1401.818 -830.976)" fill="#12a7df"/>
    <path id="Path_192" data-name="Path 192" d="M2253.4,2172.48c-.3,0-.309-.009-.312-.3s.008-.318.292-.322c.318,0,.335.012.333.323C2253.708,2172.473,2253.7,2172.48,2253.4,2172.48Z" transform="translate(-1791.779 -746.546)" fill="#07a3de"/>
    <path id="Path_193" data-name="Path 193" d="M1582.9,1642.851c-.882,0-1.763,0-2.645,0-.3,0-.3.009-.305.312,0,.37-.007.74,0,1.109a.482.482,0,0,0,.511.548c.113.01.227,0,.341,0h4.65c.113,0,.227,0,.341.006a.128.128,0,0,1,.134.132c0,.028,0,.057,0,.085.061.722.061.722-.666.722q-2.3,0-4.607,0a2.579,2.579,0,0,1-.509-.035,1.368,1.368,0,0,1-1.149-1.343c-.02-.583-.008-1.166-.008-1.749,0-.711.019-1.423-.005-2.133a1.447,1.447,0,0,1,1.515-1.538c.3-.006.6,0,.9,0q1.408,0,2.816,0a2.775,2.775,0,0,1,.551.045,1.374,1.374,0,0,1,1.155,1.3c.028.767,0,1.535.015,2.3,0,.238-.136.238-.3.237Q1584.265,1642.848,1582.9,1642.851Z" transform="translate(-1146.457 -236.408)" fill="#fff"/>
    <path id="Path_194" data-name="Path 194" d="M1775.673,1640.448a3.573,3.573,0,0,1-.757.032c-.123.007-.178-.059-.2-.17-.07-.313-.307-.387-.581-.388-1.28,0-2.56-.008-3.839,0-.44,0-.567.159-.572.611,0,.284-.008.569,0,.853a.464.464,0,0,0,.457.511,2.5,2.5,0,0,0,.341.009c1.209,0,2.418.03,3.626-.009a1.467,1.467,0,0,1,1.559,1.574c-.016.283.005.569,0,.853a1.406,1.406,0,0,1-1.4,1.43q-2.09.039-4.18,0a1.369,1.369,0,0,1-1.339-1.206c-.023-.267-.006-.287.269-.3.113,0,.227,0,.341,0,.179-.006.309,0,.36.241.058.277.318.331.577.331.7,0,1.394,0,2.09,0,.554,0,1.109,0,1.664,0,.484,0,.64-.16.651-.636.006-.256.009-.512,0-.768-.018-.422-.155-.559-.577-.566-.54-.009-1.081,0-1.621,0-.768,0-1.536,0-2.3,0a1.4,1.4,0,0,1-1.278-.709,3.908,3.908,0,0,1,0-2.449,1.322,1.322,0,0,1,.941-.669,2.981,2.981,0,0,1,.508-.049c1.209,0,2.418,0,3.626,0a2.634,2.634,0,0,1,.592.063A1.366,1.366,0,0,1,1775.673,1640.448Z" transform="translate(-1328.123 -236.406)" fill="#fff"/>
    <path id="Path_195" data-name="Path 195" d="M2966.68,1645.791c-.654,0-1.309.008-1.962,0a1.416,1.416,0,0,1-1.4-.978,2.033,2.033,0,0,1-.062-.29c-.033-.188.052-.259.236-.247a3.854,3.854,0,0,0,.427,0c.157-.008.254.021.3.208.073.3.321.365.6.365.939,0,1.877,0,2.815,0,.327,0,.655.006.981,0,.427-.011.6-.176.609-.594.008-.256.007-.512,0-.768-.012-.452-.166-.606-.628-.608-1.223,0-2.446,0-3.669,0-.114,0-.228.006-.341,0a1.4,1.4,0,0,1-1.335-1.4c-.009-.37-.01-.74,0-1.109a1.368,1.368,0,0,1,1.122-1.319,2.731,2.731,0,0,1,.508-.049q1.834-.006,3.669,0a1.782,1.782,0,0,1,.867.18,1.412,1.412,0,0,1,.752,1.076c.028.177-.03.272-.225.258a2.353,2.353,0,0,0-.341,0c-.21.015-.379,0-.44-.262a.406.406,0,0,0-.39-.283,2.757,2.757,0,0,0-.3-.016q-1.771,0-3.541,0a1.845,1.845,0,0,0-.34.025.422.422,0,0,0-.395.43c-.016.355-.016.711,0,1.066a.424.424,0,0,0,.388.438,2.153,2.153,0,0,0,.424.027c1.209,0,2.419.031,3.626-.008a1.453,1.453,0,0,1,1.543,1.542c-.024.282,0,.568,0,.853a1.421,1.421,0,0,1-1.447,1.468C2968.045,1645.8,2967.362,1645.79,2966.68,1645.791Z" transform="translate(-2471.616 -236.429)" fill="#fff"/>
    <path id="Path_196" data-name="Path 196" d="M1962.212,1645.79c-.654,0-1.308,0-1.962,0a1.454,1.454,0,0,1-1.218-.591,1.351,1.351,0,0,1-.263-.839c0-1.308-.008-2.616,0-3.925a1.36,1.36,0,0,1,1.258-1.416,3.293,3.293,0,0,1,.467-.028q1.728,0,3.455,0a3.451,3.451,0,0,1,.51.035,1.374,1.374,0,0,1,1.237,1.357q.036,2,0,4.01a1.4,1.4,0,0,1-1.438,1.392c-.682.019-1.365,0-2.048,0Z" transform="translate(-1510.024 -236.428)" fill="#fff"/>
    <path id="Path_197" data-name="Path 197" d="M2589.06,1645.664c-.625,0-1.251,0-1.877,0a1.44,1.44,0,0,1-1.573-1.562q-.01-1.835,0-3.669a1.435,1.435,0,0,1,1.531-1.563c1.294-.017,2.588-.011,3.882,0a1.459,1.459,0,0,1,1.532,1.566q-.042,1.833,0,3.669a1.475,1.475,0,0,1-1.574,1.567C2590.341,1645.649,2589.7,1645.664,2589.06,1645.664Z" transform="translate(-2110.103 -236.302)" fill="#fff"/>
    <path id="Path_198" data-name="Path 198" d="M2773.328,1642.368q0-1.514,0-3.029c0-.38,0-.385.364-.385,1.664,0,3.328-.007,4.992,0a1.447,1.447,0,0,1,1.531,1.1,1.8,1.8,0,0,1,.04.422q0,2.454,0,4.907c0,.365,0,.37-.379.368-.653,0-.563.079-.565-.564,0-1.479,0-2.958,0-4.438,0-.114.006-.228,0-.341a.47.47,0,0,0-.444-.485,2.176,2.176,0,0,0-.34-.018q-1.728,0-3.456,0a2.525,2.525,0,0,0-.3.011c-.345.041-.477.179-.494.521-.008.17,0,.341,0,.512q0,2.2,0,4.395c0,.4,0,.41-.383.407-.649-.005-.558.084-.561-.567C2773.325,1644.246,2773.328,1643.307,2773.328,1642.368Z" transform="translate(-2289.81 -236.391)" fill="#fff"/>
    <path id="Path_199" data-name="Path 199" d="M2234.41,1641.909c0,.8,0,1.592,0,2.388a1.414,1.414,0,0,1-1.489,1.507q-1.982.018-3.966,0a1.407,1.407,0,0,1-1.471-1.481c-.007-1.649,0-3.3,0-4.947,0-.363,0-.368.382-.366.659,0,.561-.065.562.57,0,1.521,0,3.042,0,4.563,0,.58.143.719.736.72q1.77,0,3.54,0c.071,0,.142,0,.213,0,.374-.028.54-.19.545-.566.009-.568,0-1.137,0-1.706,0-1.08,0-2.161,0-3.241,0-.331.007-.339.324-.338.736,0,.613-.078.619.6C2234.415,1640.373,2234.41,1641.141,2234.41,1641.909Z" transform="translate(-1767.264 -236.445)" fill="#fff"/>
    <path id="Path_200" data-name="Path 200" d="M2414.718,1590.983q0-1.792,0-3.583c0-.392,0-.4.4-.4.642,0,.553-.042.558.537,0,.427,0,.853,0,1.28,0,.4,0,.4.385.4.725,0,1.45,0,2.176,0,.364,0,.37,0,.367.38-.005.656.077.565-.561.57-.668.005-1.336,0-2,0-.357,0-.362.005-.362.343q0,1.983,0,3.967c0,.427.157.584.6.589.668.009,1.337,0,2,0,.32,0,.328.006.326.33-.006.737.087.6-.6.614-.583.008-1.166-.012-1.749,0a1.458,1.458,0,0,1-1.547-1.547C2414.733,1593.315,2414.718,1592.148,2414.718,1590.983Z" transform="translate(-1946.506 -186.661)" fill="#feffff"/>
    <path id="Path_201" data-name="Path 201" d="M2143.785,1590.957q0-1.792,0-3.584c0-.367,0-.372.378-.37.656,0,.576-.07.576.559q0,3.349,0,6.7c0,.1-.006.2,0,.3a.484.484,0,0,0,.51.513c.284.017.569.013.853,0,.189-.007.246.071.242.251-.015.861.093.678-.65.7a3.906,3.906,0,0,1-.681-.021,1.415,1.415,0,0,1-1.23-1.458c-.009-1.109,0-2.218,0-3.328Z" transform="translate(-1687.143 -186.659)" fill="#fff"/>
    <path id="Path_202" data-name="Path 202" d="M2528.46,1642.429c0-1.023,0-2.047,0-3.07,0-.358.007-.365.348-.365.737,0,.624-.066.625.6,0,1.891,0,3.781,0,5.672,0,.085-.007.171,0,.256.017.194-.048.284-.26.28-.85-.019-.707.1-.714-.681C2528.454,1644.22,2528.46,1643.324,2528.46,1642.429Z" transform="translate(-2055.394 -236.431)" fill="#fcfeff"/>
    <path id="Path_203" data-name="Path 203" d="M2528.927,1586.879c.085,0,.17,0,.255,0,.165-.005.224.078.22.235-.018.848.139.731-.739.732-.246,0-.246-.018-.244-.508,0-.441,0-.442.253-.459.085-.006.17,0,.255,0Z" transform="translate(-2055.358 -186.539)" fill="#eff9fd"/>
    <path id="Path_204" data-name="Path 204" d="M728.3,1405.343c-.009-.342-.037-.681-.067-1.021a12.941,12.941,0,0,0-1.534-5.108,13.638,13.638,0,0,0-25.66,6.1c0,.281,0,.282.271.291.1,0,.2,0,.3,0h26.119c.1,0,.2-.008.3,0C728.227,1405.625,728.309,1405.555,728.3,1405.343Zm-19.754-1.281a6.122,6.122,0,0,1,12.214,0Z" transform="translate(-305.992)" fill="#51b848"/>
    <path id="Path_205" data-name="Path 205" d="M1404.644,2197.528a.767.767,0,0,0-.816-.838c-.241-.012-.483,0-.725,0-.526,0-1.052,0-1.578,0-.093,0-.2-.03-.254.1a.362.362,0,0,0,.361.549c.114,0,.227,0,.341,0,.569,0,1.137,0,1.706,0,.1,0,.224-.034.276.063a.8.8,0,0,1,.025.54c-.033.155-.186.1-.288.1-.668,0-1.336,0-2,0-.471,0-.428-.015-.429.447,0,.242-.007.484,0,.725a.742.742,0,0,0,.808.791c.369.008.739,0,1.109,0s.768,0,1.151,0c.308,0,.315-.008.317-.3C1404.649,2198.978,1404.653,2198.253,1404.644,2197.528Zm-.641,1.432a1.309,1.309,0,0,0,0,.212c.009.165-.069.225-.23.223-.539-.005-1.078,0-1.617,0-.243,0-.276-.078-.279-.413,0-.192.017-.336.27-.32.269.016.539,0,.808,0s.511.012.766,0C1403.954,2198.642,1404.025,2198.748,1404,2198.96Z" transform="translate(-976.285 -770.314)" fill="#01a0dd"/>
    <path id="Path_206" data-name="Path 206" d="M1495.884,2173.783c0-.633-.271-.9-.913-.908-.4-.006-.8,0-1.192,0-.637,0-.637,0-.64-.615a1.259,1.259,0,0,1,0-.17c.034-.243-.1-.284-.3-.279-.313.008-.333.008-.336.29-.006.639,0,1.278,0,1.916,0,.6,0,1.193,0,1.789,0,.382.005.385.365.387.724,0,1.448,0,2.172,0a.744.744,0,0,0,.847-.832C1495.89,2174.833,1495.888,2174.308,1495.884,2173.783Zm-.9,1.8c-.269,0-.538,0-.807,0s-.51,0-.765,0c-.165,0-.274-.05-.274-.24q0-.807,0-1.614c0-.143.075-.2.211-.2h1.7c.165,0,.216.1.216.248,0,.51,0,1.02,0,1.53C1495.268,2175.5,1495.179,2175.583,1494.984,2175.58Z" transform="translate(-1063.66 -746.501)" fill="#01a0dd"/>
    <path id="Path_207" data-name="Path 207" d="M1219.089,2199.281c-.1,0-.2,0-.3,0-.6,0-1.193,0-1.79,0-.109,0-.252.029-.3-.106a.8.8,0,0,1,0-.542c.058-.143.226-.077.345-.078.668-.005,1.335,0,2,0,.36,0,.362,0,.366-.338,0-.27.007-.54,0-.81a.751.751,0,0,0-.787-.819c-.61-.02-1.222-.02-1.832,0a.732.732,0,0,0-.762.757c-.024.6-.023,1.193,0,1.789a.732.732,0,0,0,.794.761c.383.008.767,0,1.151,0s.767,0,1.151,0c.285,0,.285-.01.29-.284C1219.427,2199.292,1219.423,2199.288,1219.089,2199.281Zm-2.172-2.06c.539,0,1.079.006,1.619,0,.211,0,.259.109.267.293.017.394.009.411-.38.414-.227,0-.454,0-.682,0-.256,0-.511,0-.767,0-.3-.005-.3-.009-.3-.317,0-.043,0-.085,0-.128C1216.662,2197.309,1216.728,2197.219,1216.916,2197.221Z" transform="translate(-798.987 -770.202)" fill="#01a0dd"/>
    <path id="Path_208" data-name="Path 208" d="M1624.805,2199.273c-.1,0-.2,0-.3,0q-.9,0-1.792,0c-.125,0-.26.024-.327-.133-.148-.354.008-.594.392-.6h.213c.612,0,1.223,0,1.835,0,.3,0,.3-.009.307-.316,0-.284.011-.569,0-.853a.748.748,0,0,0-.77-.8c-.611-.021-1.224-.021-1.834,0a.746.746,0,0,0-.777.827q-.01.832,0,1.664a.742.742,0,0,0,.822.818c.37.006.74,0,1.109,0,.4,0,.8,0,1.195,0,.094,0,.2.022.247-.108C1625.233,2199.479,1625.109,2199.279,1624.805,2199.273Zm-2.44-1.581c0-.071,0-.142,0-.213,0-.169.066-.266.251-.265.554,0,1.108,0,1.662,0,.136,0,.215.054.21.2a2.232,2.232,0,0,0,0,.256c.014.179-.054.258-.242.25-.269-.011-.54,0-.81,0s-.568,0-.852,0C1622.422,2197.925,1622.355,2197.851,1622.365,2197.692Z" transform="translate(-1187.393 -770.194)" fill="#01a0dd"/>
    <path id="Path_209" data-name="Path 209" d="M1755.813,2196.686c-.569,0-1.138-.011-1.707,0a.743.743,0,0,0-.812.829q-.009.832,0,1.664a.726.726,0,0,0,.811.819c.37.006.74,0,1.11,0,.4,0,.8-.007,1.194,0,.189,0,.242-.074.245-.251.005-.348.006-.357-.34-.363-.156,0-.313,0-.469,0-.541,0-1.081,0-1.622,0-.111,0-.25.022-.29-.117a.779.779,0,0,1,.008-.542c.061-.13.232-.067.354-.068.7,0,1.394-.008,2.091,0,.2,0,.278-.067.269-.271a6.575,6.575,0,0,1,0-.852A.78.78,0,0,0,1755.813,2196.686Zm0,1.355c-.282-.006-.565,0-.847,0-.254,0-.509,0-.763,0-.294-.006-.294-.01-.3-.318,0-.042,0-.085,0-.127-.011-.174.061-.262.244-.261.551,0,1.1,0,1.652,0,.155,0,.238.064.231.227a2.481,2.481,0,0,0,0,.254C1756.043,2197.976,1755.972,2198.044,1755.81,2198.041Z" transform="translate(-1313.319 -770.313)" fill="#01a0dd"/>
    <path id="Path_210" data-name="Path 210" d="M2283.748,2197.407a.737.737,0,0,0-.767-.828c-.61-.022-1.22-.02-1.83,0a.724.724,0,0,0-.771.742c-.023.609-.024,1.22,0,1.829a.722.722,0,0,0,.809.738c.284.005.568,0,.851,0s.6,0,.894,0a.738.738,0,0,0,.813-.821Q2283.756,2198.238,2283.748,2197.407Zm-.61,1.6c0,.2-.1.271-.292.27-.524,0-1.048,0-1.572,0-.172,0-.265-.063-.264-.248,0-.524.005-1.048,0-1.573,0-.191.1-.242.264-.239.269,0,.538,0,.807,0s.538,0,.808,0c.18,0,.252.084.251.26Q2283.132,2198.243,2283.137,2199.008Z" transform="translate(-1817.891 -770.198)" fill="#01a0dd"/>
    <path id="Path_211" data-name="Path 211" d="M1978.619,2197.373a.724.724,0,0,0-.751-.8c-.625-.023-1.253-.025-1.878,0a.714.714,0,0,0-.724.782q-.012.875,0,1.75a.712.712,0,0,0,.772.771c.3.009.6,0,.9,0s.6.006.9,0a.72.72,0,0,0,.788-.8Q1978.63,2198.227,1978.619,2197.373Zm-.872,1.9q-.807,0-1.614,0c-.179,0-.254-.083-.253-.26q.005-.786,0-1.572c0-.165.078-.228.234-.227.283,0,.566,0,.85,0s.537,0,.807,0c.157,0,.232.068.231.23q0,.785,0,1.571C1978,2199.191,1977.924,2199.27,1977.747,2199.269Z" transform="translate(-1525.813 -770.191)" fill="#01a0dd"/>
    <path id="Path_212" data-name="Path 212" d="M1603.938,1663.285c-.726,0-1.451,0-2.177,0-.31,0-.315-.008-.319-.3-.005-.384-.008-.769,0-1.152.008-.345.142-.486.484-.527a2.5,2.5,0,0,1,.3-.008q1.707,0,3.415,0a2.516,2.516,0,0,1,.383.018.44.44,0,0,1,.429.45c.02.44.008.882.008,1.323,0,.218-.16.2-.3.2Z" transform="translate(-1167.949 -257.781)" fill="#01a0dd"/>
    <path id="Path_213" data-name="Path 213" d="M1983.591,1666.181c-.611,0-1.222,0-1.833,0-.512,0-.656-.15-.657-.662q0-1.79,0-3.58c0-.519.131-.654.659-.657,1.221-.006,2.444,0,3.665,0a1.544,1.544,0,0,1,.212.01c.328.045.451.168.458.5.01.483,0,.966,0,1.449,0,.781,0,1.563,0,2.344,0,.435-.151.588-.589.594C1984.87,1666.187,1984.231,1666.181,1983.591,1666.181Z" transform="translate(-1531.404 -257.765)" fill="#00a0dd"/>
    <path id="Path_214" data-name="Path 214" d="M2610.5,1666.148c-.625,0-1.251,0-1.877,0-.5,0-.657-.163-.658-.67q0-1.792,0-3.584c0-.481.151-.64.641-.644q1.876-.013,3.754,0c.5,0,.626.148.627.647q0,1.813,0,3.626c0,.459-.153.617-.61.623C2611.755,1666.154,2611.129,1666.148,2610.5,1666.148Z" transform="translate(-2131.509 -257.732)" fill="#00a0dd"/>
  </g>
</svg>
