<svg xmlns="http://www.w3.org/2000/svg" width="142" height="40.122" viewBox="0 0 142 40.122">
  <g id="Group_57" data-name="Group 57" transform="translate(-79 -49.878)">
    <text id="PLAYFULLY_COMMITTED" data-name="PLAYFULLY
COMMITTED" transform="translate(122 70)" fill="#59a8d9" font-size="15" font-family="Montserrat-Bold, Montserrat" font-weight="700"><tspan x="0" y="0">PLAYFULLY</tspan><tspan x="0" y="16">COMMITTED</tspan></text>
    <g id="Group_54" data-name="Group 54" transform="translate(-641.981 -147.323)">
      <path id="Union_1" data-name="Union 1" d="M2.884,5.469a.453.453,0,0,1-.125-.329q0-.549-.111-1.622T2.535,1.9A1.669,1.669,0,0,0,2.4,1.148a2.265,2.265,0,0,0-.644.471l-.535.6A2.724,2.724,0,0,1,.988,2.5c0,.181-.016.449-.048.8s-.051.616-.051.786a2.285,2.285,0,0,0,.044.381,2.3,2.3,0,0,1,.042.354.409.409,0,0,1-.138.313.464.464,0,0,1-.323.127Q0,5.267,0,4.1q0-.272.05-.812T.1,2.477q0-.241-.043-.721C.028,1.435.013,1.193.013,1.029Q.013,0,.477,0A.442.442,0,0,1,.8.153.48.48,0,0,1,.948.49,2.347,2.347,0,0,1,.925.757,2.381,2.381,0,0,0,.9,1.033l.009.477A2.73,2.73,0,0,1,1.606.633,1.318,1.318,0,0,1,2.386.24a.98.98,0,0,1,.98.708,1.627,1.627,0,0,1,.595-.5A1.785,1.785,0,0,1,4.75.285,1.041,1.041,0,0,1,5.785,1.1a11.86,11.86,0,0,1,.186,1.276q.127.78.327,2.6a.364.364,0,0,1-.123.308.466.466,0,0,1-.331.128.409.409,0,0,1-.436-.394q-.081-.5-.164-1.407L5.091,2.2a3.068,3.068,0,0,0-.155-.612c-.1-.273-.215-.409-.336-.409a1.605,1.605,0,0,0-.626.285,2.614,2.614,0,0,0-.572.422q0,.426.023.853l.136,1.212A10.246,10.246,0,0,1,3.648,5.14a.458.458,0,0,1-.124.329A.433.433,0,0,1,3.2,5.6.426.426,0,0,1,2.884,5.469Zm6.8-.5a2.79,2.79,0,0,1-1.306.295A1.729,1.729,0,0,1,7.39,5a1.177,1.177,0,0,1-.513-.849A14.887,14.887,0,0,1,6.7,2.01,8.468,8.468,0,0,1,6.835.594.406.406,0,0,1,7.267.2a.461.461,0,0,1,.327.125.423.423,0,0,1,.132.32,5.216,5.216,0,0,1-.066.667,5.285,5.285,0,0,0-.065.7q0,.757.05,1.3a4.377,4.377,0,0,0,.15.867,1.507,1.507,0,0,0,.294.124,1,1,0,0,0,.286.044,4.612,4.612,0,0,0,1.284-.2l-.005-.921-.008-.88A14.613,14.613,0,0,1,9.73.645a.41.41,0,0,1,.44-.417A.448.448,0,0,1,10.5.354a.4.4,0,0,1,.123.317l-.082,1.715q0,.327,0,.98t0,.981q0,.1.016.3t.016.3a.423.423,0,0,1-.132.32.455.455,0,0,1-.322.125C9.891,5.4,9.744,5.255,9.679,4.968Zm13.371.167a2.014,2.014,0,0,1-.3-.331,6.033,6.033,0,0,1-.767.356,1.7,1.7,0,0,1-.553.121,1.875,1.875,0,0,1-1.548-.6,2.693,2.693,0,0,1-.458-1.723,2.6,2.6,0,0,1,.755-1.879,2.426,2.426,0,0,1,1.8-.78,2.325,2.325,0,0,1,.884.2q.617.253.617.612a.31.31,0,0,1-.09.218,3.134,3.134,0,0,0-.07.567c-.018.264-.027.6-.03,1.012a3.7,3.7,0,0,0,.078.889,6.61,6.61,0,0,0,.286.8c.021.054.056.134.1.241l.028.078a.39.39,0,0,1-.127.3.419.419,0,0,1-.295.118C23.306,5.335,23.2,5.269,23.05,5.136ZM20.825,1.677A1.927,1.927,0,0,0,20.315,3a1.932,1.932,0,0,0,.263,1.116.9.9,0,0,0,.789.372,1.585,1.585,0,0,0,.74-.159,2.682,2.682,0,0,0,.457-.344,16.436,16.436,0,0,1-.144-1.8,3.881,3.881,0,0,1,.024-.424c.016-.153.042-.315.074-.487a2.2,2.2,0,0,0-.288-.127.638.638,0,0,0-.193-.041A1.572,1.572,0,0,0,20.825,1.677ZM16.01,4.759A2,2,0,0,1,15.357,3.2a3.579,3.579,0,0,1,.613-1.9A1.886,1.886,0,0,1,17.5.213,2.84,2.84,0,0,1,18.5.421q.695.268.7.653a.465.465,0,0,1-.114.307.368.368,0,0,1-.51.055l-.188-.156a1.411,1.411,0,0,0-.875-.214q-.464,0-.917.826A2.849,2.849,0,0,0,16.174,3.2a1.168,1.168,0,0,0,.408.944,1.464,1.464,0,0,0,.98.322,1.368,1.368,0,0,0,.581-.144l.526-.281a.511.511,0,0,1,.2-.072.386.386,0,0,1,.29.133.444.444,0,0,1,.122.307q0,.331-.7.64a2.635,2.635,0,0,1-1.017.272A2.228,2.228,0,0,1,16.01,4.759Zm-4.309,0A2,2,0,0,1,11.049,3.2a3.591,3.591,0,0,1,.612-1.9A1.889,1.889,0,0,1,13.195.213a2.834,2.834,0,0,1,.993.209q.7.268.695.653a.461.461,0,0,1-.114.307.366.366,0,0,1-.509.055L14.07,1.28a1.409,1.409,0,0,0-.875-.214q-.463,0-.916.826A2.841,2.841,0,0,0,11.865,3.2a1.167,1.167,0,0,0,.408.944,1.466,1.466,0,0,0,.98.322,1.368,1.368,0,0,0,.58-.144l.526-.281a.508.508,0,0,1,.2-.072.385.385,0,0,1,.29.133.446.446,0,0,1,.123.307q0,.331-.7.64a2.63,2.63,0,0,1-1.016.272A2.228,2.228,0,0,1,11.7,4.759Z" transform="translate(720.981 231.225)" fill="#1a1818"/>
      <path id="Path_63" data-name="Path 63" d="M752.124,253.787c-.994-.082-1.825.156-1.857.533s.749.751,1.743.834c1.384.116,1.82-.08,1.858-.532C753.912,254.094,753.07,253.867,752.124,253.787Z" transform="translate(-15.901 -30.716)" fill="#1a1818"/>
      <path id="Path_64" data-name="Path 64" d="M732.307,254c0,.528.856.689,1.8.693,1,0,1.808-.3,1.81-.678s-.806-.689-1.8-.694C732.728,253.318,732.31,253.548,732.307,254Z" transform="translate(-6.15 -30.473)" fill="#1a1818"/>
      <path id="Path_65" data-name="Path 65" d="M753.7,261.753l.094.376.251-.061a5.134,5.134,0,0,0,3.739-2.76l-.331-.2a4.749,4.749,0,0,1-3.5,2.585Z" transform="translate(-17.765 -33.613)" fill="#1a1818"/>
      <path id="Path_66" data-name="Path 66" d="M744.5,239.049c.827,3.474.695,4.593.059,5.928-.551,1.158-2.861,4.561-6.139,5.016a15.225,15.225,0,0,1-9.683-2.463,5.158,5.158,0,0,1-2.2-5.691,10.612,10.612,0,0,1,2.6-4.092,28.727,28.727,0,0,0,2.59-2.614l.095-.1-.3-.459-.33.027a28.26,28.26,0,0,1-2.5,2.534,11.356,11.356,0,0,0-2.872,4.557,5.908,5.908,0,0,0,2.535,6.5,16.776,16.776,0,0,0,8.665,2.669,10.87,10.87,0,0,0,1.5-.1c3.594-.5,6.107-4.185,6.7-5.437.8-1.687.8-3.076,0-6.462Z" transform="translate(-2.543 -20.29)" fill="#1a1818"/>
      <path id="Path_67" data-name="Path 67" d="M758.147,200.665a1.2,1.2,0,0,0-.7-.65,3.735,3.735,0,0,0-2.547.32c-.663.255-1.322.55-1.96.835l-.191.085a3.557,3.557,0,0,0-1.252.844,10.748,10.748,0,0,0-.962,1.294,3.1,3.1,0,0,0-.409,1.327,4.277,4.277,0,0,0-3.025-.339c-.189.041-.375.088-.558.134a3.2,3.2,0,0,1-3.509-.773,6.088,6.088,0,0,0-4.456-1.532l-.027,0a2.887,2.887,0,0,1-.271-.519,3.126,3.126,0,0,0-.267-.764,5.155,5.155,0,0,0-1.484-1.959c-.441-.341-.851-.633-1.256-.891a5.977,5.977,0,0,0-2.021-.841,1.7,1.7,0,0,0-1.355.273,1.678,1.678,0,0,0-.666,1.41,4.774,4.774,0,0,0,.963,2.843,5.337,5.337,0,0,0,1.26,1.332l.1.072a3.267,3.267,0,0,0,1.522.741l.113.014a2.064,2.064,0,0,1,.7.17l.106.052c.066.032.218.106.307.158l.042.194a8.016,8.016,0,0,0-.315,1.223l.762.134a6.719,6.719,0,0,1,.643-1.927c.087-.1.168-.194.242-.286a1.36,1.36,0,0,1,.888-.629l.2-.042a5.313,5.313,0,0,1,3.761,1.353,3.907,3.907,0,0,0,4.208.94c.175-.044.351-.089.531-.128a3.08,3.08,0,0,1,2.933.617,2.215,2.215,0,0,0,.121.218.8.8,0,0,1,.1.193.753.753,0,0,1,.008.094,1.218,1.218,0,0,0,.093.456c.009.139.01.289.006.446a2.833,2.833,0,0,1-1.2,1.656c-.032-.088-.064-.171-.093-.256a3.214,3.214,0,0,0-3.009-2.151c-1.1.037-2.194.128-3.286.237a1.519,1.519,0,0,0-.769.351,13.787,13.787,0,0,0-1,1.022c-.633-.255-1.274-.619-1.916.066a2.191,2.191,0,0,0-1.406-1.545,6.118,6.118,0,0,0-2.7-.169,2.362,2.362,0,0,0-2.216,2.122,26.341,26.341,0,0,0,.2,3.508.436.436,0,0,0,.091.21,2.391,2.391,0,0,0,3.491.607,6.7,6.7,0,0,0,1.324-1.354,4.19,4.19,0,0,0,1.226-2.828.61.61,0,0,1,.157-.364c.348-.42.7-.453,1.338-.2.3.119.357.287.345.6a3.4,3.4,0,0,0,.135,1.4c.84,2,2.057,3.677,4.3,4.27a2.712,2.712,0,0,0,3.043-1.076,6.126,6.126,0,0,0,.929-3.666,1.685,1.685,0,0,1,.938-1.46,33.621,33.621,0,0,1-.786,3.82c-.7,2.755.289,4.336,1.436,6.168.115.184.233.372.352.567a17.033,17.033,0,0,1,2.366,7.108c.357,2.718-.8,6.018-1.559,8.2l-.116.332a2.232,2.232,0,0,1-1.261,1.558.71.71,0,0,1-.7-.125l-.709.339c.116.412.7.605,1.1.605a1.841,1.841,0,0,0,.522-.075,2.868,2.868,0,0,0,1.773-2.048l.116-.33c.786-2.253,1.977-5.658,1.6-8.558a17.736,17.736,0,0,0-2.474-7.412q-.18-.293-.356-.572c-1.138-1.818-1.96-3.132-1.341-5.566a24.429,24.429,0,0,0,.888-4.964l.032,0c.045-.005.307-.036,1.494-.154a6.443,6.443,0,0,0,2.408-.709,4.738,4.738,0,0,0,1.6-1.255,4.637,4.637,0,0,0,.559-1.01c.063-.141.125-.282.2-.42a1.677,1.677,0,0,0,.3-.886c.028-.116.053-.232.078-.348a4.6,4.6,0,0,1,.216-.786A1.213,1.213,0,0,0,758.147,200.665Zm-21.06,2.327a5.776,5.776,0,0,0-.325.544c-.037.035-.069.073-.109.106-.094-.054-.205-.109-.335-.171l-.088-.043a2.7,2.7,0,0,0-.952-.248l-.108-.014a2.607,2.607,0,0,1-1.174-.6l-.1-.073a4.59,4.59,0,0,1-1.081-1.147,4.062,4.062,0,0,1-.835-2.4.947.947,0,0,1,.351-.824.919.919,0,0,1,.542-.173,1.132,1.132,0,0,1,.228.024,5.219,5.219,0,0,1,1.766.738c.385.246.777.524,1.2.852a4.292,4.292,0,0,1,1.264,1.682,2.438,2.438,0,0,1,.207.573l.014.071a3.463,3.463,0,0,0,.24.532A1.66,1.66,0,0,0,737.087,202.992Zm20.406-1.646a5.244,5.244,0,0,0-.255.913c-.027.124-.053.249-.084.372l-.014.054,0,.056a.91.91,0,0,1-.192.52l-.018.031c-.081.156-.152.315-.222.473a4,4,0,0,1-.468.856,3.947,3.947,0,0,1-1.357,1.053,5.708,5.708,0,0,1-2.135.628c-1,.1-1.351.137-1.473.15l-.008-.005a2.066,2.066,0,0,0-.4-1.112c-.008-.01-.018-.017-.027-.027a2.965,2.965,0,0,1,.315-1.507,9.859,9.859,0,0,1,.893-1.206,2.886,2.886,0,0,1,1-.66l.191-.085c.629-.281,1.279-.571,1.924-.82a4.444,4.444,0,0,1,1.529-.387,1.647,1.647,0,0,1,.518.08.511.511,0,0,1,.28.624Z" transform="translate(-5.564)" fill="#1a1818"/>
    </g>
  </g>
</svg>
