<svg xmlns="http://www.w3.org/2000/svg" xmlns:xlink="http://www.w3.org/1999/xlink" width="138.322" height="55.571" viewBox="0 0 138.322 55.571">
  <defs>
    <clipPath id="clip-path">
      <path id="Path_221" data-name="Path 221" d="M0-9.423H138.322V-64.994H0Z" transform="translate(0 64.994)" fill="none"/>
    </clipPath>
  </defs>
  <g id="Group_90" data-name="Group 90" transform="translate(0 64.994)">
    <g id="Group_77" data-name="Group 77" transform="translate(0 -64.994)" clip-path="url(#clip-path)">
      <g id="Group_71" data-name="Group 71" transform="translate(65.369 0.001)">
        <path id="Path_215" data-name="Path 215" d="M-.268-4.933C-3.043-9.944-2.074-17.665,1.954-22s14.191-7.05,18.1-12.024a29.417,29.417,0,0,1,.127,18.412c-1.54,4.231-2.546,7.269-6.978,10.047S3.954-4.7-.268-4.933" transform="translate(1.847 34.021)" fill="#00873f"/>
      </g>
      <g id="Group_72" data-name="Group 72" transform="translate(65.466 5.38)">
        <path id="Path_216" data-name="Path 216" d="M-.3-3.873A10.2,10.2,0,0,1,1.374-17.226c3.662-3.423,9.678-4.094,15.926-9.486,1.109,3.746,1.082,10.809.093,13.933s-2.786,7.121-6.718,9.052S3.291-3.682-.3-3.873" transform="translate(2.057 26.712)" fill="#4fb747"/>
      </g>
      <g id="Group_73" data-name="Group 73" transform="translate(65.709 10.602)">
        <path id="Path_217" data-name="Path 217" d="M-.329-3.174c-1.875-.252-3.5-7.075.694-10.9s9.42-4.217,13.815-7.82a25.562,25.562,0,0,1-.233,10.911c-.862,3.02-1.856,5.175-4.929,7.106s-6.485.851-9.348.7" transform="translate(2.271 21.891)" fill="#bfd630"/>
      </g>
      <g id="Group_74" data-name="Group 74" transform="translate(0.554 38.757)">
        <path id="Path_218" data-name="Path 218" d="M-1.5-.167V-.921H-.322V15.586H-1.5V9.4a8.685,8.685,0,0,1-3.55.852A5.242,5.242,0,0,1-8.79,8.784a5.268,5.268,0,0,1-1.536-4A5.945,5.945,0,0,1-8.741.516a5.054,5.054,0,0,1,3.8-1.666,8.045,8.045,0,0,1,1.323.119A7.672,7.672,0,0,1-1.5-.167M-9.077,4.8A4.551,4.551,0,0,0-8.008,7.851,3.9,3.9,0,0,0-4.867,9.1a7.446,7.446,0,0,0,1.548-.156A8.749,8.749,0,0,0-1.5,8.223V.983A6.356,6.356,0,0,0-4.662,0a4.012,4.012,0,0,0-3.2,1.4A5,5,0,0,0-9.077,4.8" transform="translate(10.326 1.15)" fill="#00873f"/>
      </g>
      <g id="Group_75" data-name="Group 75" transform="translate(13.992 38.986)">
        <path id="Path_219" data-name="Path 219" d="M0,0H1.176V6.732a3.451,3.451,0,0,0,.8,2.375,2.845,2.845,0,0,0,2.256.914A4.242,4.242,0,0,0,7.87,7.669V0H9.046V10.942H7.87V9.058a5.555,5.555,0,0,1-1.678,1.634,4.1,4.1,0,0,1-2.04.479,4.254,4.254,0,0,1-2.916-1.093A4.188,4.188,0,0,1,0,6.769Z" transform="translate(0)" fill="#00873f"/>
      </g>
      <g id="Group_76" data-name="Group 76" transform="translate(25.659 38.756)">
        <path id="Path_220" data-name="Path 220" d="M-1.107-.783V-2.15q0-2.266-2.543-2.268A5.815,5.815,0,0,0-7.024-3.1V-4.251A7.347,7.347,0,0,1-3.474-5.4a4.087,4.087,0,0,1,2.592.746,2.544,2.544,0,0,1,.95,2.133V4.246c0,.4.078.6.229.6a3.887,3.887,0,0,0,1.618-.962v.982c-.422.3-.818.57-1.188.8A1.877,1.877,0,0,1-.242,6H-.336c-.468,0-.722-.446-.77-1.343A5.36,5.36,0,0,1-4.645,6a3.073,3.073,0,0,1-2.1-.79,2.558,2.558,0,0,1-.888-1.994A3.206,3.206,0,0,1-5.824.322,9.674,9.674,0,0,1-1.107-.783m0,.979c-.241-.013-.4-.021-.479-.021A6.858,6.858,0,0,0-5.042.99,2.472,2.472,0,0,0-6.459,3.2,1.572,1.572,0,0,0-5.8,4.525a2.774,2.774,0,0,0,1.679.492A4.588,4.588,0,0,0-1.107,3.624Z" transform="translate(7.634 5.402)" fill="#00873f"/>
      </g>
    </g>
    <path id="Path_222" data-name="Path 222" d="M43.608-26.131h1.175v16.7H43.608Z" transform="translate(-6.323 -5.635)" fill="#00873f"/>
    <path id="Path_223" data-name="Path 223" d="M49.163-20.358h1.176V-9.417H49.163Zm0-5.662h1.176v2.014H49.163Z" transform="translate(-7.128 -5.651)" fill="#00873f"/>
    <g id="Group_79" data-name="Group 79" transform="translate(0 -64.994)" clip-path="url(#clip-path)">
      <g id="Group_78" data-name="Group 78" transform="translate(44.51 35.337)">
        <path id="Path_224" data-name="Path 224" d="M0-.781V-1.74H2.965V-4.357l.8-1.031H4.14V-1.74H7.211v.958H4.14V6.794a1.41,1.41,0,0,0,.409,1.163,1.919,1.919,0,0,0,1.212.324,5.25,5.25,0,0,0,2.027-.537V8.87a4.622,4.622,0,0,1-2.28.561,2.716,2.716,0,0,1-1.86-.6,2.166,2.166,0,0,1-.683-1.7V-.781Z" transform="translate(0 5.388)" fill="#00873f"/>
      </g>
    </g>
    <g id="Group_80" data-name="Group 80" transform="translate(52.965 -26.008)">
      <path id="Path_226" data-name="Path 226" d="M-1.534,0-5.375,7.6-9.343,0h-1.236l4.655,8.767-3.865,7.74h1.2L-.334,0Z" transform="translate(10.579)" fill="#00873f"/>
    </g>
    <g id="Group_86" data-name="Group 86" transform="translate(0 -64.994)" clip-path="url(#clip-path)">
      <g id="Group_81" data-name="Group 81" transform="translate(64.671 37.424)">
        <path id="Path_227" data-name="Path 227" d="M-1.864-1.366V2.646a11.063,11.063,0,0,1-4.119.765A7.134,7.134,0,0,1-10.89,1.662a5.889,5.889,0,0,1-1.967-4.621,6.107,6.107,0,0,1,1.921-4.657A6.934,6.934,0,0,1-5.995-9.424,13.358,13.358,0,0,1-1.946-8.8V-4.7a8.159,8.159,0,0,0-3.087-.722,3.067,3.067,0,0,0-2.2.722,2.3,2.3,0,0,0-.753,1.718A2.043,2.043,0,0,0-7.08-1.219,3.715,3.715,0,0,0-4.921-.59a6.022,6.022,0,0,0,1.8-.273,6.979,6.979,0,0,0,1.257-.5" transform="translate(12.857 9.424)" fill="#bfd630"/>
      </g>
      <g id="Group_82" data-name="Group 82" transform="translate(77.54 37.491)">
        <path id="Path_228" data-name="Path 228" d="M0-2.144V-14.589H4.415v3.432q1.358-3.624,4.017-3.627a6.142,6.142,0,0,1,3.029.961L9.334-8.94a3.306,3.306,0,0,0-2.14-1.019,1.976,1.976,0,0,0-1.671.949,3.385,3.385,0,0,0-.652,1.948v4.919Z" transform="translate(0 14.784)" fill="#bfd630"/>
      </g>
      <g id="Group_83" data-name="Group 83" transform="translate(88.689 37.558)">
        <path id="Path_229" data-name="Path 229" d="M0-1.088a5.848,5.848,0,0,1,2.014-4.68,7.794,7.794,0,0,1,5.27-1.737,7.606,7.606,0,0,1,5.281,1.784,5.925,5.925,0,0,1,2,4.634,5.967,5.967,0,0,1-1.979,4.645A7.562,7.562,0,0,1,7.342,5.329,7.748,7.748,0,0,1,2.014,3.545,5.924,5.924,0,0,1,0-1.088m4.871.024A2.247,2.247,0,0,0,5.57.723a2.521,2.521,0,0,0,1.713.605A2.433,2.433,0,0,0,9.009.7,2.341,2.341,0,0,0,9.7-1.112,2.265,2.265,0,0,0,9-2.865a2.45,2.45,0,0,0-1.737-.64,2.419,2.419,0,0,0-1.713.64,2.349,2.349,0,0,0-.675,1.8" transform="translate(0 7.506)" fill="#bfd630"/>
      </g>
      <g id="Group_84" data-name="Group 84" transform="translate(105.118 37.625)">
        <path id="Path_230" data-name="Path 230" d="M-.826-.248A5.076,5.076,0,0,1,2.823-1.712,5.316,5.316,0,0,1,6.836.06,6.344,6.344,0,0,1,8.507,4.6,6.436,6.436,0,0,1,6.735,9.316a6.19,6.19,0,0,1-4.645,1.807,6.627,6.627,0,0,1-2.916-.551v5.661H-5.7V-1.517H-.826Zm0,3V6.708a5.137,5.137,0,0,0,.8.278,4.381,4.381,0,0,0,1.089.136,2.644,2.644,0,0,0,1.873-.64,2.464,2.464,0,0,0,.7-1.9,2.242,2.242,0,0,0-.741-1.776,2.69,2.69,0,0,0-1.831-.652,3.239,3.239,0,0,0-1.89.6" transform="translate(5.698 1.712)" fill="#bfd630"/>
      </g>
      <g id="Group_85" data-name="Group 85" transform="translate(121.336 37.558)">
        <path id="Path_231" data-name="Path 231" d="M0-1.37A6.721,6.721,0,0,0,3.846.349q1.281,0,1.28-.961,0-.562-1.007-1.042L2.573-2.42Q0-3.655,0-5.785A3.246,3.246,0,0,1,1.258-8.416a5.881,5.881,0,0,1,3.766-1.03A9.617,9.617,0,0,1,7.23-9.2a11.876,11.876,0,0,1,2.162.733v3.225A11.163,11.163,0,0,0,7.277-6.21,4.454,4.454,0,0,0,6.04-6.4c-.777,0-1.168.28-1.168.846q0,.663,1.215,1.132l1.3.492a4.257,4.257,0,0,1,2,1.4A3.7,3.7,0,0,1,10-.32,3.376,3.376,0,0,1,8.753,2.292a5.151,5.151,0,0,1-3.525,1.1A9.841,9.841,0,0,1,0,2.163Z" transform="translate(0 9.446)" fill="#bfd630"/>
      </g>
    </g>
    <path id="Path_233" data-name="Path 233" d="M0-30.055H131.965v-1.088H0Z" transform="translate(0 -4.908)" fill="#bfd630"/>
    <g id="Group_89" data-name="Group 89" transform="translate(0 -64.994)" clip-path="url(#clip-path)">
      <g id="Group_87" data-name="Group 87" transform="translate(131.064 30.929)">
        <path id="Path_234" data-name="Path 234" d="M-.592,0A3.49,3.49,0,0,1,2.9,3.489,3.49,3.49,0,0,1-.592,6.978,3.489,3.489,0,0,1-4.081,3.489,3.49,3.49,0,0,1-.592,0Z" transform="translate(4.081)" fill="none" stroke="#00873f" stroke-miterlimit="22.926" stroke-width="0.653"/>
      </g>
      <g id="Group_88" data-name="Group 88" transform="translate(132.806 32.342)">
        <path id="Path_235" data-name="Path 235" d="M0-.72V-4.969H1.883a2.51,2.51,0,0,1,.864.115.95.95,0,0,1,.474.4,1.217,1.217,0,0,1,.176.64,1.068,1.068,0,0,1-.293.763,1.487,1.487,0,0,1-.9.394,1.411,1.411,0,0,1,.339.212,2.944,2.944,0,0,1,.468.565L3.744-.72H3.037L2.474-1.6c-.164-.255-.3-.451-.406-.586a1.265,1.265,0,0,0-.285-.283.868.868,0,0,0-.257-.114,1.68,1.68,0,0,0-.314-.021H.562V-.72ZM.562-3.094H1.771a1.8,1.8,0,0,0,.6-.08A.638.638,0,0,0,2.7-3.429a.68.68,0,0,0,.113-.381.632.632,0,0,0-.218-.5A1.021,1.021,0,0,0,1.906-4.5H.562Z" transform="translate(0 4.969)" fill="#00873f"/>
      </g>
    </g>
  </g>
</svg>
