<svg xmlns="http://www.w3.org/2000/svg" width="102.964" height="33.309" viewBox="0 0 102.964 33.309">
  <g id="Group_60" data-name="Group 60" transform="translate(-1788.531 -375.071)">
    <path id="Path_116" data-name="Path 116" d="M1842.21,387c0,5.777-3.985,7.836-7.714,7.836-3.448,0-7.455-1.926-7.7-7.305h7.763a55.3,55.3,0,0,0-7.688-1.9,7.354,7.354,0,0,1,7.628-6.677c2.319,0,7.714.785,7.714,8.05m5.05,0c0-7.244-5.01-11.925-12.764-11.925-5.607,0-11.531,3.43-12.6,9.834-1.555-.175-3.163-.311-4.813-.406v-9.074h-5v8.919c-.18,0-.36,0-.54,0a93.059,93.059,0,0,0-10.37.566v-9.482h-5v10.206a55.274,55.274,0,0,0-7.639,1.9h7.639v10.918h5V387.527h10.91v10.918h5V387.527h4.656c.261,6.674,5.429,11.289,12.753,11.289,7.754,0,12.764-4.64,12.764-11.82m13.7,2,10-13.392h-5.836s-6.286,9.112-6.64,9.624l-6.639-9.624h-5.836s9.823,13.154,9.918,13.278v9.561h5.032Zm20.556-.683h-5.9l1.142-2.747,1.75-4.21c.358.826,2.763,6.39,3.008,6.958m9.974,10.13L1880.65,375.6h-4.368l-10.174,22.839h5.3s2.483-5.975,2.6-6.247h9.191c.115.267,2.7,6.247,2.7,6.247Z" transform="translate(0 0)" fill="#0c3f98"/>
    <path id="Path_117" data-name="Path 117" d="M1803.228,428.763v4.924h1.278v-1.763h2.432v-1.058h-2.432v-1.037h2.735v-1.066Z" transform="translate(-6.957 -25.417)" fill="#0c3f98"/>
    <path id="Path_118" data-name="Path 118" d="M1815.883,432.588a1.462,1.462,0,1,1,1.487-1.454,1.436,1.436,0,0,1-1.487,1.454m0-4.034a2.579,2.579,0,1,0,2.766,2.58,2.654,2.654,0,0,0-2.766-2.58" transform="translate(-11.639 -25.318)" fill="#0c3f98"/>
    <path id="Path_119" data-name="Path 119" d="M1856.682,428.763v1.918H1854.5v-1.918h-1.278v4.924h1.278v-1.948h2.185v1.948h1.27v-4.924Z" transform="translate(-30.623 -25.417)" fill="#0c3f98"/>
    <rect id="Rectangle_73" data-name="Rectangle 73" width="1.278" height="4.924" transform="translate(1843.336 403.345)" fill="#0c3f98"/>
    <path id="Path_120" data-name="Path 120" d="M1899.511,428.554c-1.217,0-2.053.6-2.053,1.55,0,.9.651,1.264,1.395,1.426l1.084.22c.372.074.481.213.481.434,0,.3-.286.507-.767.507a.942.942,0,0,1-1.022-.728l-1.317.243c.139.963,1.1,1.491,2.27,1.491,1.154,0,2.139-.544,2.139-1.595,0-.779-.527-1.242-1.426-1.433l-1.077-.227c-.325-.066-.418-.213-.418-.411,0-.28.271-.5.7-.5a.877.877,0,0,1,.906.691l1.255-.242a1.976,1.976,0,0,0-2.146-1.426" transform="translate(-51.495 -25.318)" fill="#0c3f98"/>
    <rect id="Rectangle_74" data-name="Rectangle 74" width="1.278" height="4.924" transform="translate(1851.329 403.345)" fill="#0c3f98"/>
    <path id="Path_121" data-name="Path 121" d="M1915.125,432.588a1.462,1.462,0,1,1,1.487-1.454,1.436,1.436,0,0,1-1.487,1.454m0-4.034a2.579,2.579,0,1,0,2.766,2.58,2.654,2.654,0,0,0-2.766-2.58" transform="translate(-58.619 -25.318)" fill="#0c3f98"/>
    <path id="Path_122" data-name="Path 122" d="M1928.815,428.763v2.94l-2.626-2.94h-1.061v4.924h1.278v-2.852l2.626,2.852h1.054v-4.924Z" transform="translate(-64.664 -25.417)" fill="#0c3f98"/>
    <path id="Path_123" data-name="Path 123" d="M1939.514,430.13l.666,1.617h-1.324Zm-.658-1.367-2.168,4.924h1.37l.364-.9h2.185l.364.9h1.363l-2.169-4.924Z" transform="translate(-70.136 -25.417)" fill="#0c3f98"/>
    <path id="Path_124" data-name="Path 124" d="M1950.877,430.982V429.8h1.208c.457,0,.751.235.751.589s-.294.595-.751.595Zm3.478,2.7-1.627-1.749a1.568,1.568,0,0,0,1.364-1.566,1.655,1.655,0,0,0-1.867-1.609H1949.6v4.924h1.278V432h.372l1.565,1.69Z" transform="translate(-76.248 -25.417)" fill="#0c3f98"/>
    <path id="Path_125" data-name="Path 125" d="M1965.314,428.763v4.924h4.044v-1.044h-2.766v-.926h2.517v-.985h-2.517v-.926h2.742v-1.044Z" transform="translate(-83.687 -25.417)" fill="#0c3f98"/>
    <path id="Path_126" data-name="Path 126" d="M1976.691,428.554c-1.216,0-2.053.6-2.053,1.55,0,.9.651,1.264,1.4,1.426l1.084.22c.372.074.481.213.481.434,0,.3-.286.507-.767.507a.944.944,0,0,1-1.023-.728l-1.317.243c.139.963,1.1,1.491,2.27,1.491,1.154,0,2.139-.544,2.139-1.595,0-.779-.527-1.242-1.426-1.433l-1.077-.227c-.326-.066-.418-.213-.418-.411,0-.28.271-.5.7-.5a.878.878,0,0,1,.907.691l1.255-.242a1.976,1.976,0,0,0-2.146-1.426" transform="translate(-88.032 -25.318)" fill="#0c3f98"/>
    <path id="Path_127" data-name="Path 127" d="M1827.085,431.028v-1.183h1.209c.457,0,.751.235.751.589s-.294.595-.751.595Zm3.478,2.7-1.627-1.749a1.568,1.568,0,0,0,1.364-1.566,1.654,1.654,0,0,0-1.867-1.609h-2.626v4.924h1.278v-1.69h.371l1.566,1.69Z" transform="translate(-17.646 -25.439)" fill="#0c3f98"/>
    <path id="Path_128" data-name="Path 128" d="M1842.366,428.809v1.058h1.68v3.865h1.271v-3.865H1847v-1.058Z" transform="translate(-25.485 -25.439)" fill="#0c3f98"/>
    <path id="Path_129" data-name="Path 129" d="M1864.388,428.809v4.923h4.044v-1.044h-2.766v-.926h2.517v-.984h-2.517v-.926h2.742v-1.044Z" transform="translate(-35.91 -25.439)" fill="#0c3f98"/>
    <path id="Path_130" data-name="Path 130" d="M1883.939,428.809l-1.418,3.263-1.409-3.263h-1.41l2.208,4.923h1.231l2.208-4.923Z" transform="translate(-43.159 -25.439)" fill="#0c3f98"/>
    <rect id="Rectangle_75" data-name="Rectangle 75" width="1.278" height="4.924" transform="translate(1879.18 403.345)" fill="#0c3f98"/>
  </g>
</svg>
