<svg xmlns="http://www.w3.org/2000/svg" width="148.458" height="33.011" viewBox="0 0 148.458 33.011"><g transform="translate(-34.595 -3.5)"><g transform="translate(34.595 3.5)"><path d="M110.8,350.51c.368-.64,1.383-2.377,2.4-4.115.938-1.606,1.842-3.156,2.134-3.663,1.057-1.828,3.67-1.793,5.568-1.759.292.007.57.007.82.007l1.786-.007-4.3,7.445a4.144,4.144,0,0,1-3.49,2.071l-1.314.028-3.608-.007Z" transform="translate(-105.503 -317.506)" fill="#fece6a"/><path d="M191.525,254.812l2.482-4.212-4.657.021h-3.462c-5.533,0-7.313,3.4-8.494,5.658-.16.306-.306.591-.452.841-.473.848-.841,1.529-.841,1.529,1.057-1.828,3.67-1.793,5.568-1.759.292.007.57.007.82.007l1.786-.007,3.712-.021A4.183,4.183,0,0,0,191.525,254.812Z" transform="translate(-166.264 -233.423)" fill="#feae06"/><path d="M37.536,3.5c.368.64,1.369,2.391,2.363,4.129.925,1.613,1.814,3.17,2.106,3.684,1.057,1.828-.285,4.073-1.258,5.7-.153.25-.292.494-.417.709l-.883,1.55-4.3-7.438a4.14,4.14,0,0,1-.049-4.06l.633-1.154Z" transform="translate(-34.595 -3.5)" fill="#89e5b8"/><path d="M76.528,118.208c-.181-.292-.355-.563-.5-.813-.5-.834-.9-1.495-.9-1.495,1.057,1.828-.285,4.073-1.258,5.7-.153.25-.292.494-.417.709l-.883,1.55-1.835,3.225a4.14,4.14,0,0,0-.007,4.087l2.412,4.254,2.308-4.046,1.731-3C79.948,123.6,77.981,120.488,76.528,118.208Z" transform="translate(-67.713 -108.087)" fill="#3bd388"/><path d="M306.918,135.835c-.744,0-2.753-.007-4.762-.021-1.863-.007-3.656-.014-4.24-.014-2.113,0-3.385-2.28-4.31-3.941-.146-.257-.278-.5-.4-.716l-.9-1.543h8.6a4.135,4.135,0,0,1,3.538,1.988l.681,1.119Z" transform="translate(-274.386 -120.834)" fill="#bfb0fb"/><path d="M148.987,53.542,144.1,53.5l2.35,4.025,1.731,3C151,65.394,154.8,64.99,157.328,65h.959c.973-.021,1.731-.014,1.731-.014-2.113,0-3.385-2.28-4.31-3.941-.146-.257-.278-.5-.4-.716l-.9-1.543-1.877-3.2A4.143,4.143,0,0,0,148.987,53.542Z" transform="translate(-136.488 -50.024)" fill="#947bf9"/></g><path d="M616.709,127.006H612.9v19.352h3.809v-6.645a5.357,5.357,0,0,0,4.3,1.78c4.484,0,7.111-3.323,7.111-7.4s-2.628-7.4-7.111-7.4a5.739,5.739,0,0,0-4.3,1.724Zm-.153,7.083a3.652,3.652,0,0,1,3.893-3.99,3.789,3.789,0,0,1,3.893,3.99,3.895,3.895,0,1,1-7.785,0Z" transform="translate(-538.105 -114.636)" fill="#3c3f4f"/><path d="M853.4,76.318h3.865V57H853.4Z" transform="translate(-761.888 -49.781)" fill="#3c3f4f"/><path d="M939.614,141.079h3.816V126.913h-3.816v1.467a5.357,5.357,0,0,0-4.3-1.78c-4.484,0-7.111,3.323-7.111,7.4s2.628,7.4,7.111,7.4a5.739,5.739,0,0,0,4.3-1.724Zm.153-7.083a3.652,3.652,0,0,1-3.893,3.99,3.789,3.789,0,0,1-3.893-3.99,3.895,3.895,0,1,1,7.785,0Z" transform="translate(-831.488 -114.543)" fill="#3c3f4f"/><path d="M1185.226,127.4a5.742,5.742,0,0,0-3.788,1.522v-1.265H1177.6v14.167h3.837V134.33c-.077-3.093,1.647-3.733,2.7-3.733,1.495,0,2.732.667,2.732,2.857v8.369h3.941v-8.369C1190.814,129.77,1189.32,127.4,1185.226,127.4Z" transform="translate(-1063.552 -115.287)" fill="#3c3f4f"/><path d="M1399.614,141.079h3.809V126.913h-3.809v1.467a5.357,5.357,0,0,0-4.3-1.78c-4.484,0-7.111,3.323-7.111,7.4s2.628,7.4,7.111,7.4a5.739,5.739,0,0,0,4.3-1.724Zm.153-7.083a3.652,3.652,0,0,1-3.893,3.99,3.789,3.789,0,0,1-3.893-3.99,3.895,3.895,0,1,1,7.785,0Z" transform="translate(-1259.512 -114.543)" fill="#3c3f4f"/><path d="M1641.716,76.318V74.9a5.739,5.739,0,0,0,4.3,1.724c4.484,0,7.111-3.323,7.111-7.4s-2.628-7.4-7.111-7.4a5.367,5.367,0,0,0-4.3,1.78V57H1637.9V76.318Zm-.153-7.083a3.895,3.895,0,1,1,7.785,0,3.789,3.789,0,0,1-3.893,3.99A3.649,3.649,0,0,1,1641.563,69.234Z" transform="translate(-1491.855 -49.781)" fill="#3c3f4f"/><path d="M1878.4,76.411h3.865V57.1H1878.4Z" transform="translate(-1715.637 -49.874)" fill="#3c3f4f"/><path d="M1960.816,142.464a7.787,7.787,0,0,0,6.617-3.295l-2.989-1.724a4.578,4.578,0,0,1-3.635,1.647c-.772,0-3.4-.257-3.865-2.579h11.178s.076-.7.076-1.78a7.137,7.137,0,0,0-7.4-7.035c-2.655,0-7.7,1.543-7.7,7.368S1958.056,142.464,1960.816,142.464Zm-.028-11.386a3.292,3.292,0,0,1,3.35,2.7h-7.083C1957.208,132.343,1958.571,131.078,1960.788,131.078Z" transform="translate(-1785.145 -115.567)" fill="#3c3f4f"/></g></svg>