<svg xmlns="http://www.w3.org/2000/svg" width="148.458" height="25.67" viewBox="0 0 148.458 25.67">
  <g id="Group_92" data-name="Group 92" transform="translate(-52.173 -233.874)">
    <path id="Path_237" data-name="Path 237" d="M441.472,288.519h0a7.77,7.77,0,0,0,1.223.067c1.507,0,2.9-.553,2.9-2.194,0-1.541-1.323-2.178-2.915-2.178h-1.206Zm0-5.411H442.8c1.542,0,2.446-.8,2.446-1.893,0-1.324-1.005-1.843-2.479-1.843a6.244,6.244,0,0,0-1.29.1Zm-1.457-4.623a14.122,14.122,0,0,1,2.663-.235,4.666,4.666,0,0,1,3.1.821,2.367,2.367,0,0,1,.938,1.993,2.681,2.681,0,0,1-1.91,2.479v.033a2.91,2.91,0,0,1,2.328,2.831,3.044,3.044,0,0,1-.955,2.261,5.671,5.671,0,0,1-3.9,1.055,17.011,17.011,0,0,1-2.261-.134Z" transform="translate(-309.774 -35.444)"/>
    <path id="Path_238" data-name="Path 238" d="M506.714,284.666h-4.389v4.07h4.892v1.223h-6.349V278.669h6.1v1.223h-4.64v3.568h4.389Z" transform="translate(-358.378 -35.779)"/>
    <path id="Path_239" data-name="Path 239" d="M559.776,285.269h0l-1.106-3.25c-.251-.737-.419-1.407-.586-2.06h-.033c-.168.67-.352,1.357-.57,2.044l-1.106,3.267Zm-3.7,1.139L554.9,289.96h-1.507l3.836-11.291h1.759l3.853,11.291h-1.558l-1.206-3.551Z" transform="translate(-400.331 -35.779)"/>
    <path id="Path_240" data-name="Path 240" d="M625.71,278.669v6.684c0,2.529,1.122,3.6,2.63,3.6,1.675,0,2.747-1.105,2.747-3.6v-6.684h1.474v6.583c0,3.467-1.826,4.891-4.272,4.891-2.312,0-4.054-1.323-4.054-4.824v-6.651Z" transform="translate(-456.914 -35.779)"/>
    <path id="Path_241" data-name="Path 241" d="M690.938,279.909H687.5v-1.24h8.359v1.24h-3.451v10.051h-1.474Z" transform="translate(-507.446 -35.779)"/>
    <path id="Path_242" data-name="Path 242" d="M749.427,289.96v-4.791l-3.568-6.5h1.658l1.592,3.116c.435.854.77,1.541,1.122,2.329h.033c.318-.737.7-1.474,1.139-2.329l1.625-3.116h1.659l-3.786,6.483v4.808Z" transform="translate(-554.056 -35.779)"/>
    <path id="Path_243" data-name="Path 243" d="M59.209,289.96l-1.441-2.5c-.586-.955-.955-1.575-1.307-2.228h-.033c-.318.653-.637,1.256-1.223,2.245l-1.357,2.479H52.173l3.451-5.712-3.317-5.578H54l1.491,2.647c.419.737.737,1.307,1.039,1.91h.05c.318-.67.6-1.189,1.022-1.91l1.541-2.647h1.675l-3.434,5.495,3.518,5.8Z" transform="translate(0 -35.779)"/>
    <path id="Path_244" data-name="Path 244" d="M125.388,283.862h0a4.891,4.891,0,0,0,1.206.117c1.759,0,2.831-.854,2.831-2.412,0-1.491-1.055-2.211-2.663-2.211a6.12,6.12,0,0,0-1.374.117Zm-1.457-5.444a16.885,16.885,0,0,1,2.8-.218,4.64,4.64,0,0,1,3.166.938,3.035,3.035,0,0,1,.988,2.362,3.324,3.324,0,0,1-.871,2.413,4.679,4.679,0,0,1-3.451,1.239,5.018,5.018,0,0,1-1.173-.1v4.523h-1.457Z" transform="translate(-57.314 -35.393)"/>
    <path id="Path_245" data-name="Path 245" d="M194.043,284.666h-4.389v4.07h4.892v1.223H188.2V278.669h6.1v1.223h-4.64v3.568h4.389Z" transform="translate(-108.644 -35.779)"/>
    <path id="Path_246" data-name="Path 246" d="M250.506,283.627H252c1.558,0,2.546-.854,2.546-2.144,0-1.457-1.055-2.094-2.6-2.111a5.98,5.98,0,0,0-1.44.134Zm-1.457-5.143a15.184,15.184,0,0,1,2.8-.235,4.617,4.617,0,0,1,3.266.921,2.812,2.812,0,0,1,.888,2.144,2.965,2.965,0,0,1-2.127,2.881v.05a2.815,2.815,0,0,1,1.658,2.278,17.933,17.933,0,0,0,.871,3.1H254.9a14.627,14.627,0,0,1-.754-2.7c-.335-1.558-.938-2.144-2.262-2.195h-1.373v4.892h-1.457Z" transform="translate(-157.247 -35.443)"/>
    <path id="Path_247" data-name="Path 247" d="M310.756,279.909h-3.434v-1.24h8.359v1.24H312.23v10.051h-1.474Z" transform="translate(-203.79 -35.779)"/>
    <path id="Path_248" data-name="Path 248" d="M362.684,259.543h1.081l10.4-25.67h-1.1Z" transform="translate(-248.009)" fill="#eb008b"/>
  </g>
</svg>
