<svg xmlns="http://www.w3.org/2000/svg" xmlns:xlink="http://www.w3.org/1999/xlink" width="66.38" height="53.932" viewBox="0 0 66.38 53.932">
  <defs>
    <clipPath id="clip-path">
      <path id="Path_145" data-name="Path 145" d="M532.807,165.134a2.711,2.711,0,1,1,2.712,2.711,2.71,2.71,0,0,1-2.712-2.711m-5.656,0a8.368,8.368,0,1,0,8.368-8.368,8.364,8.364,0,0,0-8.368,8.368m23.365,0a2.712,2.712,0,1,1,2.712,2.711,2.71,2.71,0,0,1-2.712-2.711m-5.656,0a8.368,8.368,0,1,0,8.368-8.368,8.363,8.363,0,0,0-8.368,8.368M512.847,150.22v23.047h5.422v-8.808h7.411v-5.43h-7.411v-3.378h9.053V150.22Zm55.279,14.8a2.736,2.736,0,1,1,2.736,2.736,2.736,2.736,0,0,1-2.736-2.736m5.677-14.8v7.918a5.108,5.108,0,0,0-3.559-1.372c-4.239,0-7.675,3.694-7.675,8.251s3.436,8.251,7.675,8.251a5.079,5.079,0,0,0,3.559-1.392v1.392h5.423V150.22Z" transform="translate(-512.847 -150.22)" fill="#39a861"/>
    </clipPath>
  </defs>
  <g id="Group_65" data-name="Group 65" transform="translate(-512.847 -67.653)">
    <g id="Group_64" data-name="Group 64" transform="translate(512.847 98.305)">
      <path id="Path_144" data-name="Path 144" d="M532.807,165.134a2.711,2.711,0,1,1,2.712,2.711,2.71,2.71,0,0,1-2.712-2.711m-5.656,0a8.368,8.368,0,1,0,8.368-8.368,8.364,8.364,0,0,0-8.368,8.368m23.365,0a2.712,2.712,0,1,1,2.712,2.711,2.71,2.71,0,0,1-2.712-2.711m-5.656,0a8.368,8.368,0,1,0,8.368-8.368,8.363,8.363,0,0,0-8.368,8.368M512.847,150.22v23.047h5.422v-8.808h7.411v-5.43h-7.411v-3.378h9.053V150.22Zm55.279,14.8a2.736,2.736,0,1,1,2.736,2.736,2.736,2.736,0,0,1-2.736-2.736m5.677-14.8v7.918a5.108,5.108,0,0,0-3.559-1.372c-4.239,0-7.675,3.694-7.675,8.251s3.436,8.251,7.675,8.251a5.079,5.079,0,0,0,3.559-1.392v1.392h5.423V150.22Z" transform="translate(-512.847 -150.22)" fill="#39a861"/>
      <g id="Group_63" data-name="Group 63" transform="translate(0 0)" clip-path="url(#clip-path)">
        <rect id="Rectangle_76" data-name="Rectangle 76" width="676.479" height="380.52" transform="translate(-305.121 -193.783)" fill="#39a861"/>
      </g>
    </g>
    <path id="Path_146" data-name="Path 146" d="M564.985,79.929h-2.7v4.256c0,1.288.414,2.237,1.5,2.237a4.494,4.494,0,0,0,1.21-.159v3.992a5.568,5.568,0,0,1-2.638.678h-.067c-.068,0-.128-.007-.2-.007h-.052l-.1-.008a4.99,4.99,0,0,1-5.074-5.369V71.517l5.413-1.152v4.142h2.706Zm-46.718-6.854v3.39h3.007a1.695,1.695,0,0,0,0-3.39Zm4.059,12.2a1.695,1.695,0,0,0,0-3.389h-4.059v3.389Zm4.984-6.763A7.123,7.123,0,0,1,522.318,90.7h-9.471V67.653h8.419a7.123,7.123,0,0,1,6.044,10.86m12.042,14.37a2.711,2.711,0,1,1-2.706,2.711,2.708,2.708,0,0,1,2.706-2.711m0-18.686A8.368,8.368,0,1,1,531,82.565a8.36,8.36,0,0,1,8.351-8.367m0,11.079a2.711,2.711,0,1,0-2.706-2.712,2.707,2.707,0,0,0,2.706,2.712m15.41-17.624V90.7h-5.412V68.805Z" transform="translate(0 0)" fill="#39a861" fill-rule="evenodd"/>
  </g>
</svg>
