<svg xmlns="http://www.w3.org/2000/svg" width="143.405" height="48.955" viewBox="0 0 143.405 48.955"><g transform="translate(-100.5 -30.425)"><g transform="translate(-620.481 -166.776)"><path d="M3.563,6.758a.56.56,0,0,1-.154-.407q0-.678-.137-2t-.139-2a2.062,2.062,0,0,0-.168-.924A2.8,2.8,0,0,0,2.17,2l-.661.74a3.37,3.37,0,0,1-.287.354c0,.223-.02.554-.059.991s-.063.761-.063.971a2.822,2.822,0,0,0,.054.471,2.842,2.842,0,0,1,.051.437.5.5,0,0,1-.171.387.573.573,0,0,1-.4.157Q0,6.508,0,5.067q0-.336.061-1t.062-1q0-.3-.053-.89c-.035-.4-.054-.7-.054-.9Q.016,0,.589,0a.546.546,0,0,1,.4.19.593.593,0,0,1,.181.416,2.9,2.9,0,0,1-.027.33,2.946,2.946,0,0,0-.027.341l.011.59A3.372,3.372,0,0,1,1.984.782,1.629,1.629,0,0,1,2.948.3a1.21,1.21,0,0,1,1.211.875A2.01,2.01,0,0,1,4.894.558,2.206,2.206,0,0,1,5.869.352,1.287,1.287,0,0,1,7.148,1.362a14.664,14.664,0,0,1,.23,1.576q.157.964.4,3.212a.45.45,0,0,1-.151.381.576.576,0,0,1-.409.158A.505.505,0,0,1,6.682,6.2q-.1-.618-.2-1.738L6.29,2.724A3.792,3.792,0,0,0,6.1,1.968c-.127-.337-.265-.505-.415-.505a1.984,1.984,0,0,0-.774.353,3.229,3.229,0,0,0-.706.522q0,.527.029,1.054l.168,1.5a12.657,12.657,0,0,1,.107,1.463.566.566,0,0,1-.154.407.534.534,0,0,1-.4.159A.527.527,0,0,1,3.563,6.758Zm8.4-.619a3.448,3.448,0,0,1-1.613.364,2.136,2.136,0,0,1-1.216-.325A1.454,1.454,0,0,1,8.5,5.129a18.4,18.4,0,0,1-.219-2.646A10.462,10.462,0,0,1,8.445.733.5.5,0,0,1,8.979.245a.57.57,0,0,1,.4.155.522.522,0,0,1,.163.4,6.444,6.444,0,0,1-.082.824,6.525,6.525,0,0,0-.081.863q0,.935.061,1.6a5.41,5.41,0,0,0,.185,1.071,1.862,1.862,0,0,0,.363.153,1.236,1.236,0,0,0,.354.054,5.7,5.7,0,0,0,1.587-.242l-.007-1.137L11.916,2.9A18.043,18.043,0,0,1,12.022.8a.506.506,0,0,1,.544-.516.553.553,0,0,1,.4.157.488.488,0,0,1,.152.392l-.1,2.119q0,.4.005,1.211t.005,1.212q0,.123.02.376t.02.375a.522.522,0,0,1-.163.4.562.562,0,0,1-.4.155C12.222,6.671,12.039,6.493,11.959,6.139Zm16.521.207a2.49,2.49,0,0,1-.376-.409,7.454,7.454,0,0,1-.947.44,2.1,2.1,0,0,1-.683.149,2.317,2.317,0,0,1-1.912-.741A3.327,3.327,0,0,1,24,3.655a3.219,3.219,0,0,1,.933-2.321A3,3,0,0,1,27.157.369,2.873,2.873,0,0,1,28.25.622q.762.313.763.756a.383.383,0,0,1-.112.269,3.874,3.874,0,0,0-.086.7c-.022.326-.033.743-.038,1.251a4.568,4.568,0,0,0,.1,1.1,8.176,8.176,0,0,0,.353.986c.025.067.069.166.129.3l.034.1a.482.482,0,0,1-.157.368.518.518,0,0,1-.364.146C28.8,6.592,28.667,6.51,28.48,6.346ZM25.73,2.071a2.381,2.381,0,0,0-.63,1.634,2.387,2.387,0,0,0,.325,1.379,1.115,1.115,0,0,0,.975.459,1.959,1.959,0,0,0,.915-.2,3.314,3.314,0,0,0,.565-.425A20.314,20.314,0,0,1,27.7,2.7a4.791,4.791,0,0,1,.03-.524c.02-.189.051-.39.092-.6a2.712,2.712,0,0,0-.355-.157.788.788,0,0,0-.239-.051A1.942,1.942,0,0,0,25.73,2.071ZM19.782,5.881a2.466,2.466,0,0,1-.807-1.924,4.423,4.423,0,0,1,.758-2.349A2.331,2.331,0,0,1,21.627.263,3.509,3.509,0,0,1,22.853.52q.858.331.859.807a.575.575,0,0,1-.141.379.454.454,0,0,1-.631.068l-.233-.193a1.743,1.743,0,0,0-1.081-.264q-.573,0-1.133,1.02a3.52,3.52,0,0,0-.509,1.62,1.443,1.443,0,0,0,.5,1.166,1.809,1.809,0,0,0,1.211.4,1.69,1.69,0,0,0,.718-.178l.65-.348a.632.632,0,0,1,.241-.089.477.477,0,0,1,.359.164.549.549,0,0,1,.15.38q0,.409-.862.79a3.256,3.256,0,0,1-1.256.336A2.753,2.753,0,0,1,19.782,5.881Zm-5.324,0a2.467,2.467,0,0,1-.807-1.924,4.437,4.437,0,0,1,.756-2.349A2.334,2.334,0,0,1,16.3.263,3.5,3.5,0,0,1,17.53.52q.859.331.858.807a.57.57,0,0,1-.141.379.452.452,0,0,1-.629.068c-.081-.066-.158-.131-.234-.193A1.741,1.741,0,0,0,16.3,1.317q-.572,0-1.132,1.02a3.511,3.511,0,0,0-.51,1.62,1.441,1.441,0,0,0,.5,1.166,1.811,1.811,0,0,0,1.211.4,1.69,1.69,0,0,0,.717-.178l.65-.348a.627.627,0,0,1,.241-.089.476.476,0,0,1,.358.164.551.551,0,0,1,.152.38q0,.409-.864.79a3.249,3.249,0,0,1-1.255.336A2.753,2.753,0,0,1,14.458,5.881Z" transform="translate(720.981 239.239)" fill="#1a1818"/><path d="M752.562,253.791c-1.228-.1-2.255.193-2.295.658s.926.928,2.154,1.03c1.711.143,2.249-.1,2.3-.658C754.771,254.171,753.731,253.889,752.562,253.791Z" transform="translate(-12.748 -24.626)" fill="#1a1818"/><path d="M732.307,254.162c0,.653,1.057.851,2.229.857,1.233.005,2.234-.369,2.236-.837s-1-.852-2.229-.858C732.828,253.317,732.311,253.6,732.307,254.162Z" transform="translate(-4.93 -24.431)" fill="#1a1818"/><path d="M753.7,262.377l.116.464.31-.075a6.343,6.343,0,0,0,4.62-3.411l-.409-.249a5.867,5.867,0,0,1-4.322,3.194Z" transform="translate(-14.243 -26.948)" fill="#1a1818"/><path d="M748.934,240.1c1.022,4.293.858,5.675.072,7.325-.68,1.43-3.534,5.636-7.585,6.2a18.812,18.812,0,0,1-11.965-3.044c-2.986-1.9-3.124-4.874-2.713-7.032a13.112,13.112,0,0,1,3.208-5.056,35.492,35.492,0,0,0,3.2-3.23l.117-.128-.367-.567-.408.033a34.907,34.907,0,0,1-3.094,3.131,14.032,14.032,0,0,0-3.548,5.63c-.661,3.474.451,6.328,3.132,8.037a20.727,20.727,0,0,0,10.706,3.3,13.426,13.426,0,0,0,1.851-.124c4.441-.616,7.545-5.171,8.281-6.718.993-2.085.992-3.8,0-7.985Z" transform="translate(-2.039 -16.267)" fill="#1a1818"/><path d="M764.489,201.481a1.488,1.488,0,0,0-.867-.8,4.615,4.615,0,0,0-3.148.4c-.819.316-1.634.679-2.421,1.031l-.236.106a4.395,4.395,0,0,0-1.547,1.042,13.284,13.284,0,0,0-1.188,1.6,3.836,3.836,0,0,0-.5,1.64,5.284,5.284,0,0,0-3.737-.419c-.233.05-.463.108-.69.166a3.948,3.948,0,0,1-4.336-.955,7.522,7.522,0,0,0-5.505-1.893l-.033.005a3.564,3.564,0,0,1-.335-.641,3.854,3.854,0,0,0-.33-.944,6.371,6.371,0,0,0-1.834-2.42c-.544-.422-1.052-.782-1.552-1.1a7.383,7.383,0,0,0-2.5-1.039,2.1,2.1,0,0,0-1.674.338,2.073,2.073,0,0,0-.823,1.742,5.9,5.9,0,0,0,1.19,3.513,6.6,6.6,0,0,0,1.557,1.646l.12.089a4.037,4.037,0,0,0,1.881.915l.139.018a2.551,2.551,0,0,1,.865.21l.131.064c.081.04.269.13.379.2l.053.24a9.9,9.9,0,0,0-.39,1.511l.941.166a8.3,8.3,0,0,1,.794-2.381c.108-.12.208-.24.3-.354a1.681,1.681,0,0,1,1.1-.778l.25-.051A6.565,6.565,0,0,1,745.185,206a4.827,4.827,0,0,0,5.2,1.162c.216-.055.434-.11.656-.158a3.806,3.806,0,0,1,3.624.762,2.752,2.752,0,0,0,.15.27.989.989,0,0,1,.125.238.961.961,0,0,1,.01.116,1.505,1.505,0,0,0,.115.563c.011.172.013.357.008.551a3.5,3.5,0,0,1-1.483,2.046c-.04-.108-.08-.211-.115-.317a3.971,3.971,0,0,0-3.718-2.657c-1.355.046-2.71.158-4.06.293a1.876,1.876,0,0,0-.95.433,17.033,17.033,0,0,0-1.23,1.263c-.781-.315-1.574-.765-2.367.081a2.707,2.707,0,0,0-1.737-1.909,7.559,7.559,0,0,0-3.334-.209,2.918,2.918,0,0,0-2.738,2.622,32.554,32.554,0,0,0,.245,4.335.54.54,0,0,0,.113.26,2.954,2.954,0,0,0,4.314.75,8.28,8.28,0,0,0,1.636-1.673,5.176,5.176,0,0,0,1.514-3.494.753.753,0,0,1,.194-.45c.43-.518.87-.56,1.653-.246.367.147.441.355.426.745a4.207,4.207,0,0,0,.167,1.735c1.038,2.473,2.542,4.543,5.307,5.276a3.351,3.351,0,0,0,3.76-1.33,7.569,7.569,0,0,0,1.147-4.529,2.082,2.082,0,0,1,1.159-1.8,41.554,41.554,0,0,1-.971,4.72c-.866,3.4.357,5.358,1.774,7.622.142.228.288.46.435.7a21.044,21.044,0,0,1,2.923,8.782c.441,3.358-.983,7.436-1.927,10.133l-.143.411a2.758,2.758,0,0,1-1.559,1.926.877.877,0,0,1-.859-.154l-.876.418c.143.509.868.748,1.361.748a2.275,2.275,0,0,0,.645-.093,3.544,3.544,0,0,0,2.191-2.531l.143-.408c.972-2.784,2.442-6.99,1.972-10.574a21.914,21.914,0,0,0-3.057-9.158q-.223-.363-.439-.707c-1.406-2.246-2.422-3.87-1.657-6.877a30.172,30.172,0,0,0,1.1-6.133c.013,0,.026,0,.039,0,.055-.007.379-.045,1.845-.19a7.962,7.962,0,0,0,2.975-.876,5.855,5.855,0,0,0,1.976-1.551,5.729,5.729,0,0,0,.691-1.247c.077-.174.155-.348.242-.519a2.072,2.072,0,0,0,.372-1.095c.034-.143.065-.286.1-.43a5.691,5.691,0,0,1,.267-.971A1.5,1.5,0,0,0,764.489,201.481Zm-26.021,2.875a7.134,7.134,0,0,0-.4.672c-.045.043-.085.09-.135.132-.116-.067-.254-.134-.413-.212l-.108-.053a3.333,3.333,0,0,0-1.176-.306l-.134-.017a3.222,3.222,0,0,1-1.45-.741l-.123-.09a5.67,5.67,0,0,1-1.336-1.417,5.017,5.017,0,0,1-1.032-2.961,1.169,1.169,0,0,1,.434-1.019,1.135,1.135,0,0,1,.67-.213,1.4,1.4,0,0,1,.281.029,6.451,6.451,0,0,1,2.182.912c.475.3.96.648,1.482,1.053a5.3,5.3,0,0,1,1.561,2.078,3.006,3.006,0,0,1,.256.708l.018.088a4.276,4.276,0,0,0,.3.657A2.052,2.052,0,0,0,738.467,204.356Zm25.213-2.034a6.487,6.487,0,0,0-.314,1.128c-.033.154-.066.307-.1.46l-.017.067,0,.069a1.125,1.125,0,0,1-.237.643l-.022.038c-.1.193-.187.389-.274.585a4.929,4.929,0,0,1-.578,1.058,4.877,4.877,0,0,1-1.677,1.3,7.052,7.052,0,0,1-2.638.775c-1.235.122-1.67.169-1.819.186l-.01-.006a2.552,2.552,0,0,0-.5-1.374c-.01-.012-.023-.021-.033-.033a3.663,3.663,0,0,1,.389-1.862,12.172,12.172,0,0,1,1.1-1.49,3.565,3.565,0,0,1,1.236-.815l.237-.106c.777-.347,1.581-.706,2.377-1.013a5.491,5.491,0,0,1,1.889-.478,2.035,2.035,0,0,1,.64.1.631.631,0,0,1,.346.771Z" transform="translate(-4.461 0)" fill="#1a1818"/></g><path d="M5.64-10.515a4.6,4.6,0,0,1,3.12.967A3.419,3.419,0,0,1,9.87-6.825,3.739,3.739,0,0,1,8.76-3.937,4.421,4.421,0,0,1,5.64-2.91H3.765V0H1.02V-10.515ZM5.505-5.1a1.85,1.85,0,0,0,1.3-.42A1.567,1.567,0,0,0,7.26-6.735,1.5,1.5,0,0,0,6.8-7.912a1.871,1.871,0,0,0-1.3-.413H3.765V-5.1Zm5.715-5.415h2.745V-2.34H18.42V0h-7.2ZM27.435,0l-.72-1.86H22.17L21.435,0h-2.82L23.13-10.515h2.82L30.36,0ZM23-3.96h2.91l-1.44-3.75Zm16.8-6.555L36-3.36V0H33.255V-3.285l-3.87-7.23H32.13L34.62-6l2.43-4.515Zm.945,0H48.6l-.015,2.19h-5.1v2.34h4.71v2.19h-4.71V0H40.74Zm11.67,6.18A2.18,2.18,0,0,0,53-2.745a1.986,1.986,0,0,0,1.485.6,1.859,1.859,0,0,0,1.433-.593,2.261,2.261,0,0,0,.547-1.6v-6.18h2.745v6.18a4.8,4.8,0,0,1-.577,2.393A3.908,3.908,0,0,1,56.978-.36,5.4,5.4,0,0,1,54.465.2,5.488,5.488,0,0,1,51.938-.36a3.983,3.983,0,0,1-1.68-1.582,4.7,4.7,0,0,1-.592-2.393v-6.18H52.41Zm8.67-6.18h2.745V-2.34H68.28V0h-7.2Zm8.445,0H72.27V-2.34h4.455V0h-7.2Zm17.76,0L83.49-3.36V0H80.745V-3.285l-3.87-7.23H79.62L82.11-6l2.43-4.515ZM8.625,9.055A3.92,3.92,0,0,0,7.41,8.028a2.908,2.908,0,0,0-1.395-.382,2.728,2.728,0,0,0-1.447.4,2.816,2.816,0,0,0-1.028,1.1,3.4,3.4,0,0,0,0,3.105,2.816,2.816,0,0,0,1.028,1.095,2.728,2.728,0,0,0,1.447.4,3.183,3.183,0,0,0,1.35-.33,4.279,4.279,0,0,0,1.26-.9l1.6,1.725A6.419,6.419,0,0,1,8.2,15.663a5.643,5.643,0,0,1-5.153-.187,5.261,5.261,0,0,1-1.98-1.965,5.471,5.471,0,0,1-.72-2.79A5.24,5.24,0,0,1,3.1,6.025a5.863,5.863,0,0,1,2.873-.7,5.827,5.827,0,0,1,2.31.488,5.726,5.726,0,0,1,1.935,1.327Zm7.6-3.735a5.979,5.979,0,0,1,2.9.7,5.229,5.229,0,0,1,2.783,4.7,5.322,5.322,0,0,1-2.783,4.755,5.88,5.88,0,0,1-2.9.72,5.929,5.929,0,0,1-2.9-.712,5.28,5.28,0,0,1-2.04-1.965,5.382,5.382,0,0,1-.742-2.8,5.229,5.229,0,0,1,2.782-4.7A5.979,5.979,0,0,1,16.23,5.32Zm.03,2.325a2.74,2.74,0,0,0-1.448.4,2.918,2.918,0,0,0-1.057,1.117,3.347,3.347,0,0,0,.007,3.15,3.054,3.054,0,0,0,1.057,1.125,2.665,2.665,0,0,0,1.44.412,2.628,2.628,0,0,0,1.433-.412,2.9,2.9,0,0,0,1.028-1.125,3.495,3.495,0,0,0,0-3.15A2.845,2.845,0,0,0,17.693,8.05,2.664,2.664,0,0,0,16.26,7.645Zm7.02-2.16h2.985l3.045,6.15,3.03-6.15h2.985V16H32.9L32.88,9.34l-2.685,5.61h-1.77l-2.7-5.61V16H23.28Zm14.085,0H40.35l3.045,6.15,3.03-6.15H49.41V16H46.98l-.015-6.66L44.28,14.95H42.51l-2.7-5.61V16H37.365Zm14.085,0h2.745V16H51.45Zm3.87,0h9.015V7.75h-3.15V16H58.44V7.75H55.32Zm9.21,0h9.015V7.75H70.4V16H67.65V7.75H64.53Zm10.125,0h8.3v2.19H77.4V9.64h5.01v2.175l-5.01.015v1.98h5.7V16H74.655Zm14.655,0a6.226,6.226,0,0,1,2.917.66A4.831,4.831,0,0,1,94.2,8a5.277,5.277,0,0,1,.7,2.738,5.273,5.273,0,0,1-.712,2.745,4.823,4.823,0,0,1-2.01,1.86,6.478,6.478,0,0,1-2.978.66H84.78V5.485Zm.075,8.295a2.654,2.654,0,0,0,1.41-.375,2.549,2.549,0,0,0,.96-1.065,3.475,3.475,0,0,0,.345-1.575,3.331,3.331,0,0,0-.368-1.59A2.686,2.686,0,0,0,90.72,8.1a2.827,2.827,0,0,0-1.47-.382H87.525v6.06Z" transform="translate(149 52)"/></g></svg>