<svg xmlns="http://www.w3.org/2000/svg" width="151" height="50.125" viewBox="0 0 151 50.125">
  <g id="Group_55" data-name="Group 55" transform="translate(-100.5 -30.425)">
    <g id="Group_53" data-name="Group 53" transform="translate(100.5 30.425)">
      <path id="Union_1" data-name="Union 1" d="M3.563,6.758a.56.56,0,0,1-.154-.407q0-.678-.137-2t-.139-2a2.062,2.062,0,0,0-.168-.924A2.8,2.8,0,0,0,2.17,2l-.661.74a3.37,3.37,0,0,1-.287.354c0,.223-.02.554-.059.991s-.063.761-.063.971a2.822,2.822,0,0,0,.054.471,2.842,2.842,0,0,1,.051.437.5.5,0,0,1-.171.387.573.573,0,0,1-.4.157Q0,6.508,0,5.067q0-.336.061-1t.062-1q0-.3-.053-.89c-.035-.4-.054-.7-.054-.9Q.016,0,.589,0a.546.546,0,0,1,.4.19.593.593,0,0,1,.181.416,2.9,2.9,0,0,1-.027.33,2.946,2.946,0,0,0-.027.341l.011.59A3.372,3.372,0,0,1,1.984.782,1.629,1.629,0,0,1,2.948.3a1.21,1.21,0,0,1,1.211.875A2.01,2.01,0,0,1,4.894.558,2.206,2.206,0,0,1,5.869.352,1.287,1.287,0,0,1,7.148,1.362a14.664,14.664,0,0,1,.23,1.576q.157.964.4,3.212a.45.45,0,0,1-.151.381.576.576,0,0,1-.409.158A.505.505,0,0,1,6.682,6.2q-.1-.618-.2-1.738L6.29,2.724A3.792,3.792,0,0,0,6.1,1.968c-.127-.337-.265-.505-.415-.505a1.984,1.984,0,0,0-.774.353,3.229,3.229,0,0,0-.706.522q0,.527.029,1.054l.168,1.5a12.657,12.657,0,0,1,.107,1.463.566.566,0,0,1-.154.407.534.534,0,0,1-.4.159A.527.527,0,0,1,3.563,6.758Zm8.4-.619a3.448,3.448,0,0,1-1.613.364,2.136,2.136,0,0,1-1.216-.325A1.454,1.454,0,0,1,8.5,5.129a18.4,18.4,0,0,1-.219-2.646A10.462,10.462,0,0,1,8.445.733.5.5,0,0,1,8.979.245a.57.57,0,0,1,.4.155.522.522,0,0,1,.163.4,6.444,6.444,0,0,1-.082.824,6.525,6.525,0,0,0-.081.863q0,.935.061,1.6a5.41,5.41,0,0,0,.185,1.071,1.862,1.862,0,0,0,.363.153,1.236,1.236,0,0,0,.354.054,5.7,5.7,0,0,0,1.587-.242l-.007-1.137L11.916,2.9A18.043,18.043,0,0,1,12.022.8a.506.506,0,0,1,.544-.516.553.553,0,0,1,.4.157.488.488,0,0,1,.152.392l-.1,2.119q0,.4.005,1.211t.005,1.212q0,.123.02.376t.02.375a.522.522,0,0,1-.163.4.562.562,0,0,1-.4.155C12.222,6.671,12.039,6.493,11.959,6.139Zm16.521.207a2.49,2.49,0,0,1-.376-.409,7.454,7.454,0,0,1-.947.44,2.1,2.1,0,0,1-.683.149,2.317,2.317,0,0,1-1.912-.741A3.327,3.327,0,0,1,24,3.655a3.219,3.219,0,0,1,.933-2.321A3,3,0,0,1,27.157.369,2.873,2.873,0,0,1,28.25.622q.762.313.763.756a.383.383,0,0,1-.112.269,3.874,3.874,0,0,0-.086.7c-.022.326-.033.743-.038,1.251a4.568,4.568,0,0,0,.1,1.1,8.176,8.176,0,0,0,.353.986c.025.067.069.166.129.3l.034.1a.482.482,0,0,1-.157.368.518.518,0,0,1-.364.146C28.8,6.592,28.667,6.51,28.48,6.346ZM25.73,2.071a2.381,2.381,0,0,0-.63,1.634,2.387,2.387,0,0,0,.325,1.379,1.115,1.115,0,0,0,.975.459,1.959,1.959,0,0,0,.915-.2,3.314,3.314,0,0,0,.565-.425A20.314,20.314,0,0,1,27.7,2.7a4.791,4.791,0,0,1,.03-.524c.02-.189.051-.39.092-.6a2.712,2.712,0,0,0-.355-.157.788.788,0,0,0-.239-.051A1.942,1.942,0,0,0,25.73,2.071ZM19.782,5.881a2.466,2.466,0,0,1-.807-1.924,4.423,4.423,0,0,1,.758-2.349A2.331,2.331,0,0,1,21.627.263,3.509,3.509,0,0,1,22.853.52q.858.331.859.807a.575.575,0,0,1-.141.379.454.454,0,0,1-.631.068l-.233-.193a1.743,1.743,0,0,0-1.081-.264q-.573,0-1.133,1.02a3.52,3.52,0,0,0-.509,1.62,1.443,1.443,0,0,0,.5,1.166,1.809,1.809,0,0,0,1.211.4,1.69,1.69,0,0,0,.718-.178l.65-.348a.632.632,0,0,1,.241-.089.477.477,0,0,1,.359.164.549.549,0,0,1,.15.38q0,.409-.862.79a3.256,3.256,0,0,1-1.256.336A2.753,2.753,0,0,1,19.782,5.881Zm-5.324,0a2.467,2.467,0,0,1-.807-1.924,4.437,4.437,0,0,1,.756-2.349A2.334,2.334,0,0,1,16.3.263,3.5,3.5,0,0,1,17.53.52q.859.331.858.807a.57.57,0,0,1-.141.379.452.452,0,0,1-.629.068c-.081-.066-.158-.131-.234-.193A1.741,1.741,0,0,0,16.3,1.317q-.572,0-1.132,1.02a3.511,3.511,0,0,0-.51,1.62,1.441,1.441,0,0,0,.5,1.166,1.811,1.811,0,0,0,1.211.4,1.69,1.69,0,0,0,.717-.178l.65-.348a.627.627,0,0,1,.241-.089.476.476,0,0,1,.358.164.551.551,0,0,1,.152.38q0,.409-.864.79a3.249,3.249,0,0,1-1.255.336A2.753,2.753,0,0,1,14.458,5.881Z" transform="translate(0 43.208)" fill="#1a1818"/>
      <path id="Path_63" data-name="Path 63" d="M752.562,253.791c-1.228-.1-2.255.193-2.295.658s.926.928,2.154,1.03c1.711.143,2.249-.1,2.3-.658C754.771,254.171,753.731,253.889,752.562,253.791Z" transform="translate(-733.729 -221.035)" fill="#1a1818"/>
      <path id="Path_64" data-name="Path 64" d="M732.307,254.162c0,.653,1.057.851,2.229.857,1.233.005,2.234-.369,2.236-.837s-1-.852-2.229-.858C732.828,253.317,732.311,253.6,732.307,254.162Z" transform="translate(-725.911 -220.848)" fill="#1a1818"/>
      <path id="Path_65" data-name="Path 65" d="M753.7,262.377l.116.464.31-.075a6.343,6.343,0,0,0,4.62-3.411l-.409-.249a5.867,5.867,0,0,1-4.322,3.194Z" transform="translate(-735.224 -223.245)" fill="#1a1818"/>
      <path id="Path_66" data-name="Path 66" d="M748.934,240.1c1.022,4.293.858,5.675.072,7.325-.68,1.43-3.534,5.636-7.585,6.2a18.812,18.812,0,0,1-11.965-3.044c-2.986-1.9-3.124-4.874-2.713-7.032a13.112,13.112,0,0,1,3.208-5.056,35.492,35.492,0,0,0,3.2-3.23l.117-.128-.367-.567-.408.033a34.907,34.907,0,0,1-3.094,3.131,14.032,14.032,0,0,0-3.548,5.63c-.661,3.474.451,6.328,3.132,8.037a20.727,20.727,0,0,0,10.706,3.3,13.426,13.426,0,0,0,1.851-.124c4.441-.616,7.545-5.171,8.281-6.718.993-2.085.992-3.8,0-7.985Z" transform="translate(-723.02 -212.612)" fill="#1a1818"/>
      <path id="Path_67" data-name="Path 67" d="M764.489,201.583a1.5,1.5,0,0,0-.867-.822,4.519,4.519,0,0,0-3.148.4c-.819.323-1.634.7-2.421,1.056l-.236.108a4.39,4.39,0,0,0-1.547,1.067,13.587,13.587,0,0,0-1.188,1.637,4,4,0,0,0-.5,1.679,5.173,5.173,0,0,0-3.737-.429c-.233.051-.463.111-.69.17a3.881,3.881,0,0,1-4.336-.978,7.409,7.409,0,0,0-5.505-1.938l-.033.005a3.682,3.682,0,0,1-.335-.656,4.012,4.012,0,0,0-.33-.967,6.514,6.514,0,0,0-1.834-2.478c-.544-.432-1.052-.8-1.552-1.128a7.289,7.289,0,0,0-2.5-1.064,2.06,2.06,0,0,0-1.674.346,2.142,2.142,0,0,0-.823,1.784,6.136,6.136,0,0,0,1.19,3.6,6.689,6.689,0,0,0,1.557,1.685l.12.091a4,4,0,0,0,1.881.937l.139.018a2.5,2.5,0,0,1,.865.215l.131.066c.081.04.269.134.379.2l.053.246a10.334,10.334,0,0,0-.39,1.547l.941.17a8.648,8.648,0,0,1,.794-2.438c.108-.123.208-.246.3-.362a1.683,1.683,0,0,1,1.1-.8l.25-.053a6.469,6.469,0,0,1,4.647,1.712,4.744,4.744,0,0,0,5.2,1.189c.216-.056.434-.113.656-.161a3.74,3.74,0,0,1,3.624.78,2.839,2.839,0,0,0,.15.276,1.022,1.022,0,0,1,.125.244,1.006,1.006,0,0,1,.01.119,1.574,1.574,0,0,0,.115.576c.011.176.013.365.008.564a3.582,3.582,0,0,1-1.483,2.1c-.04-.111-.08-.216-.115-.324a3.979,3.979,0,0,0-3.718-2.721c-1.355.047-2.71.162-4.06.3a1.856,1.856,0,0,0-.95.443,17.258,17.258,0,0,0-1.23,1.293c-.781-.322-1.574-.783-2.367.083a2.748,2.748,0,0,0-1.737-1.954,7.388,7.388,0,0,0-3.334-.214,2.951,2.951,0,0,0-2.738,2.685,34.123,34.123,0,0,0,.245,4.438.56.56,0,0,0,.113.266,2.913,2.913,0,0,0,4.314.768,8.389,8.389,0,0,0,1.636-1.713,5.362,5.362,0,0,0,1.514-3.577.781.781,0,0,1,.194-.461c.43-.531.87-.574,1.653-.252.367.15.441.363.426.763a4.406,4.406,0,0,0,.167,1.777c1.038,2.532,2.542,4.652,5.307,5.4a3.312,3.312,0,0,0,3.76-1.362,7.9,7.9,0,0,0,1.147-4.638,2.137,2.137,0,0,1,1.159-1.847,43.441,43.441,0,0,1-.971,4.833c-.866,3.485.357,5.486,1.774,7.8.142.233.288.471.435.717a21.9,21.9,0,0,1,2.923,8.992c.441,3.439-.983,7.614-1.927,10.376l-.143.42a2.807,2.807,0,0,1-1.559,1.972.862.862,0,0,1-.859-.158l-.876.428c.143.521.868.766,1.361.766a2.226,2.226,0,0,0,.645-.1,3.6,3.6,0,0,0,2.191-2.592l.143-.418c.972-2.851,2.442-7.158,1.972-10.828a22.8,22.8,0,0,0-3.057-9.377q-.223-.371-.439-.724c-1.406-2.3-2.422-3.963-1.657-7.042a31.567,31.567,0,0,0,1.1-6.28c.013,0,.026,0,.039,0,.055-.007.379-.046,1.845-.194a7.824,7.824,0,0,0,2.975-.9,5.054,5.054,0,0,0,2.667-2.866c.077-.178.155-.356.242-.531a2.154,2.154,0,0,0,.372-1.121c.034-.146.065-.293.1-.441a5.938,5.938,0,0,1,.267-.994A1.569,1.569,0,0,0,764.489,201.583Zm-26.021,2.944a7.342,7.342,0,0,0-.4.688c-.045.045-.085.092-.135.135-.116-.068-.254-.138-.413-.217l-.108-.054a3.27,3.27,0,0,0-1.176-.313l-.134-.018a3.2,3.2,0,0,1-1.45-.759l-.123-.093a5.75,5.75,0,0,1-1.336-1.451,5.218,5.218,0,0,1-1.032-3.032,1.21,1.21,0,0,1,.434-1.043,1.117,1.117,0,0,1,.67-.219,1.369,1.369,0,0,1,.281.03,6.369,6.369,0,0,1,2.182.934c.475.311.96.663,1.482,1.078a5.417,5.417,0,0,1,1.561,2.128,3.129,3.129,0,0,1,.256.725l.018.09a4.432,4.432,0,0,0,.3.673A2.062,2.062,0,0,0,738.467,204.527Zm25.213-2.083a6.766,6.766,0,0,0-.314,1.155c-.033.157-.066.315-.1.471l-.017.069,0,.071a1.169,1.169,0,0,1-.237.658l-.022.039c-.1.2-.187.4-.274.6a5.084,5.084,0,0,1-.578,1.083,4.9,4.9,0,0,1-1.677,1.332,6.929,6.929,0,0,1-2.638.794c-1.235.125-1.67.173-1.819.19l-.01-.006a2.651,2.651,0,0,0-.5-1.407c-.01-.012-.023-.021-.033-.034a3.826,3.826,0,0,1,.389-1.907,12.448,12.448,0,0,1,1.1-1.525,3.559,3.559,0,0,1,1.236-.835l.237-.108c.777-.356,1.581-.723,2.377-1.037a5.387,5.387,0,0,1,1.889-.49,1.991,1.991,0,0,1,.64.1.584.584,0,0,1,.318.321A.6.6,0,0,1,763.68,202.445Z" transform="translate(-725.442 -197.201)" fill="#1a1818"/>
    </g>
    <text id="PLAYFULLY_COMMITTED" data-name="PLAYFULLY
COMMITTED" transform="translate(152.5 52)" font-size="15" font-family="Montserrat-Bold, Montserrat" font-weight="700"><tspan x="0" y="0">PLAYFULLY</tspan><tspan x="0" y="16">COMMITTED</tspan></text>
  </g>
</svg>
