<svg xmlns="http://www.w3.org/2000/svg" width="113.021" height="70.539" viewBox="0 0 113.021 70.539">
  <g id="Group_2536" data-name="Group 2536" transform="translate(-1263.621 -285.666)">
    <path id="Path_888" data-name="Path 888" d="M1337.807,514.754a5.12,5.12,0,0,1-1.562-3.782,5.065,5.065,0,0,1,1.562-3.768,5.692,5.692,0,0,1,7.795,0,5.429,5.429,0,0,1-7.795,7.55Zm2.181-5.534a2.421,2.421,0,1,0,3.42-.013,2.458,2.458,0,0,0-3.42.013Zm-21.6,6.907V506.65h-3.159v-.822h7.176v.822h-3.159v9.478Zm-3.6,0-4.238-8.781-4.252,8.781h-.945l4.972-10.3h.465l4.943,10.3Zm-15.977,0v-10.3h3.214a3.08,3.08,0,0,1,3.327,3.15,3.085,3.085,0,0,1-.9,2.23,3.375,3.375,0,0,1-2.551.92h-2.228v4Zm.86-4.793h2.242a2.345,2.345,0,0,0,2.566-2.369,2.245,2.245,0,0,0-2.411-2.327h-2.4Zm-9.614,4.793v-10.3h6.273v.808h-5.413v3.875h5.047v.794h-5.047v4.014h5.442v.808Zm-8.585,0v-10.3h.86V515.3h5.822v.822Zm-8.755,0v-10.3h6.273v.808h-5.413v3.875h5.047v.794h-5.047v4.014h5.442v.808Zm-5.935,0V506.65h-3.158v-.822h7.176v.822h-3.159v9.478Zm106.908-.01v-3.684h-3.264v3.685H1367.5V505.842h2.927v3.81h3.264v-3.81h2.955v10.275Zm-13.127,0v-7.494h-2.842v-2.781h8.625v2.781h-2.828v7.494Zm-6.515,0L1352.4,512.9h-.9v3.212h-2.927V505.842h4.531a4.026,4.026,0,0,1,2.941.973,3.382,3.382,0,0,1,1,2.516,3.269,3.269,0,0,1-1.787,3.073l2.124,3.712ZM1351.5,510.4H1353a.927.927,0,0,0,1.027-.973.9.9,0,0,0-.833-.959.932.932,0,0,0-.123,0H1351.5Zm-18.953,5.715-4.348-5.075v5.075h-2.871V505.842h2.2l4.446,5.144v-5.144h2.869v10.275Zm-23.263-1.6v-.847h2.514v.847Z" transform="translate(0 -160.081)"/>
    <path id="Path_889" data-name="Path 889" d="M1453.285,351.379l11.364-19.755,4.011,6.975a1.8,1.8,0,0,0,2.454.669l.009-.005a1.814,1.814,0,0,0,.661-2.473L1466.731,328l8.576-14.911a23.154,23.154,0,0,1-22.023,38.287Z" transform="translate(-138.011 -19.957)"/>
    <path id="Path_890" data-name="Path 890" d="M1386.621,308.815a23.148,23.148,0,0,1,39.423-16.461L1417.62,307l-6.357-11.054a1.749,1.749,0,0,0-.259-.343c-.025-.027-.054-.05-.082-.077a1.812,1.812,0,0,0-.271-.21c-.021-.012-.038-.033-.054-.043s-.036-.014-.054-.024q-.087-.044-.177-.08a1.487,1.487,0,0,0-.155-.059,1.713,1.713,0,0,0-.169-.038c-.054-.011-.116-.023-.175-.029a1.471,1.471,0,0,0-.168,0,1.5,1.5,0,0,0-.172,0c-.053.006-.115.016-.173.027a1.561,1.561,0,0,0-.17.039,1.2,1.2,0,0,0-.156.059,1.353,1.353,0,0,0-.311.163,1.824,1.824,0,0,0-.16.12c-.044.039-.084.086-.128.121a.782.782,0,0,0-.12.12,1.353,1.353,0,0,0-.12.163c-.017.027-.04.05-.057.078l-12.017,20.893a1.805,1.805,0,0,0,3.119,1.819l.006-.009,10.454-18.179,5.843,10.158-11.816,20.542A23.156,23.156,0,0,1,1386.621,308.815Z" transform="translate(-89.502)"/>
  </g>
</svg>
