<svg xmlns="http://www.w3.org/2000/svg" width="115.155" height="74.876" viewBox="0 0 115.155 74.876">
  <g id="Group_2532" data-name="Group 2532" transform="translate(-49.607 -51.023)">
    <path id="Path_829" data-name="Path 829" d="M77.877,80.5a21.835,21.835,0,1,1,22.59,21.065A21.819,21.819,0,0,1,77.877,80.5" transform="translate(7.43 1.81)" fill="#495799"/>
    <path id="Path_830" data-name="Path 830" d="M118.112,69.159a16.965,16.965,0,0,0-4.188-3.578c-.015-.087-.03-.174-.049-.263a6.2,6.2,0,0,0-1.018-2.267c.522.261,4.967,4.778,5.255,6.108m-13.548-8.382c-.327.346-.663.739-1.022,1.172-.131-.542-.274-1.042-.427-1.5a7.682,7.682,0,0,1,1.449.323m1.749-1.446a6.186,6.186,0,0,0-1.185.885,8.474,8.474,0,0,0-2.3-.515,5.992,5.992,0,0,0-.722-1.31,26.918,26.918,0,0,1,3.839.812c.123.042.244.083.365.128M90.062,97.551a4.2,4.2,0,0,0,.352,1.235c-2.44-1.159-6.2-4.15-6.714-5.048a24.017,24.017,0,0,0,6.361,3.813m9.56,2.275c-.515.811-.887,1.014-1.286,1a25.734,25.734,0,0,1-6.726-1.516c-.344-.163-.706-.527-.8-1.465a31.617,31.617,0,0,0,4.491,1.34,30.319,30.319,0,0,0,4.326.638m8.7-.97c-1.228.926-5.513,1.989-8.622,2.008a4.306,4.306,0,0,0,.734-.993,22.6,22.6,0,0,0,7.888-1.015m4.75-29.886a4.28,4.28,0,0,0,.909-2.5,15.249,15.249,0,0,1,4.279,4.029,5.8,5.8,0,0,1-1.244,3.55,27.25,27.25,0,0,0-3.944-5.076m-7.547-5.583c.744.114,1.489.263,2.228.448a1.475,1.475,0,0,1-.215.692q-1-.619-2.013-1.14M86.492,66.9a5.718,5.718,0,0,1,.654-3.911,15.735,15.735,0,0,1,5.011-1.435,4.424,4.424,0,0,0-.2,2.647,27.459,27.459,0,0,0-5.465,2.7M78.434,80.026a15.711,15.711,0,0,0,3.807,5.631,14.594,14.594,0,0,0-.22,5.383,16.191,16.191,0,0,1-2.748-5.27,22.108,22.108,0,0,1-.839-5.744M115.34,93.665A18.357,18.357,0,0,1,110.978,97a14.728,14.728,0,0,0,1.875-4.434,15.023,15.023,0,0,0,5.482-3.33,25.408,25.408,0,0,1-3,4.427m-8.011-32.136a6.26,6.26,0,0,0-1.474-1,2.972,2.972,0,0,1,1.459-.806,14.108,14.108,0,0,1,3.132,1.85,12.563,12.563,0,0,0-3.117-.048m-2.973.576c.336-.407.647-.753.937-1.046a6.408,6.408,0,0,1,1.052.6,18.968,18.968,0,0,0-1.989.446m-3.282-1.613a6.193,6.193,0,0,1,1.259-.1c.144.394.285.849.422,1.368a19.415,19.415,0,0,0-1.681-1.272m-3.812-1.826a13.571,13.571,0,0,1,3.7-.357,2.7,2.7,0,0,1,1.079,1.37,6.245,6.245,0,0,0-1.785.3,13.083,13.083,0,0,0-2.992-1.311m-2.709.318a5.914,5.914,0,0,0-1.974,1.785,17.425,17.425,0,0,0-4.663,1.137,32.306,32.306,0,0,1,6.637-2.921m4.87,1.364a2.959,2.959,0,0,0-.813.679,21.562,21.562,0,0,0-5.034-.337,6.308,6.308,0,0,1,2.362-1.6,11.075,11.075,0,0,1,3.486,1.254m2.175,1.425q-1.072-.339-2.133-.572a2.768,2.768,0,0,1,.687-.428c.5.311.984.648,1.446,1m5.472.52a2.944,2.944,0,0,1,.505.738q-1.106-.256-2.273-.414a17.662,17.662,0,0,1,1.768-.323m4.418.23a6.517,6.517,0,0,1,1.586,2.568,21.424,21.424,0,0,0-4.665-1.851,3.035,3.035,0,0,0-.48-1.031,10.5,10.5,0,0,1,3.559.314m-30.65,9.621a17.089,17.089,0,0,0-2.324,4.4,7.533,7.533,0,0,1,.183-1.575,21.662,21.662,0,0,1,2-5.314,8.224,8.224,0,0,0,.143,2.492m4.02,6.638a26.623,26.623,0,0,0-2.424,6.046,13.644,13.644,0,0,1-3.721-6.4,15.83,15.83,0,0,1,2.381-5.3,13.8,13.8,0,0,0,3.764,5.661m34.169,3.007a15.676,15.676,0,0,1-.194,5.778,13.053,13.053,0,0,1-5.783,4.159,25.715,25.715,0,0,0,.447-6.59,13.793,13.793,0,0,0,5.53-3.347m1.762-2.67a19.264,19.264,0,0,1-.623,5.822,7.977,7.977,0,0,1-.307.846,16.916,16.916,0,0,0-.172-4.765,8.214,8.214,0,0,0,1.1-1.9m-1.307.9a20.866,20.866,0,0,0-2.071-5.289,6.517,6.517,0,0,0,1.5-3.218,13.232,13.232,0,0,1,1.08,2.395c.14.494.274.986.38,1.414q.129.762.225,1.507a7.12,7.12,0,0,1-1.113,3.191M101.195,96.1a19.545,19.545,0,0,1-1.173,3.015,28.466,28.466,0,0,1-4.569-.634,30.823,30.823,0,0,1-4.691-1.425,23.994,23.994,0,0,1,.534-4.742c-.225-.15-.436-.283-.652-.417a26.482,26.482,0,0,0-.6,4.862A22.2,22.2,0,0,1,83,92.115a12.419,12.419,0,0,1-.147-5.871A26.246,26.246,0,0,0,87.512,89.6v-.044a1.271,1.271,0,0,1,.2-.669,24.944,24.944,0,0,1-4.684-3.463A25.346,25.346,0,0,1,85.4,79.285c.528.467,1.092.919,1.689,1.353a3.952,3.952,0,0,1,.539-.5,21.456,21.456,0,0,1-1.87-1.5q.3-.527.619-1.051l.02-.033a36.466,36.466,0,0,1,3.223-4.425q.131.114.265.227a8.864,8.864,0,0,0,.032-1.661l-.355.4a10.476,10.476,0,0,1-2.892-4.432,25.91,25.91,0,0,1,5.462-2.816l.011.032c.194-.08.44-.171.676-.251a25.845,25.845,0,0,1,5.49-1.307l-.169-.657a30.14,30.14,0,0,0-5.5,1.3,3.649,3.649,0,0,1,.38-2.492,21.9,21.9,0,0,1,5.2.255,2.168,2.168,0,0,0-.083.933,4.936,4.936,0,0,1,.714-.128,1.442,1.442,0,0,1,.112-.671c.744.148,1.475.33,2.187.541-.583.019-1.175.056-1.769.112a2.045,2.045,0,0,0,.331.662q.909-.068,1.83-.075-.682.292-1.361.629a.783.783,0,0,0,.711.283,5.8,5.8,0,0,0,2.367-1.317,7.179,7.179,0,0,0,.265,1.978,2.143,2.143,0,0,0,.657.922c-.075-.6-.159-1.185-.254-1.738q.813.843,1.566,1.791a3.864,3.864,0,0,0,.769-.184q-.638-.824-1.324-1.579,1.067.519,2.074,1.123l.059.037c.109.067.356.22.648.4q.519.333,1.018.686l.587,0,.935.32c-.685-.542-1.388-1.051-2.1-1.521a2.062,2.062,0,0,0,.307-.9,21.187,21.187,0,0,1,4.778,1.994,3.676,3.676,0,0,1-.709,2.421q-.4-.392-.821-.767l-.666.283c.364.322.72.652,1.063.99a5.067,5.067,0,0,1-.388.362,3.394,3.394,0,0,1,.533.5c.13-.111.255-.226.373-.345a25.647,25.647,0,0,1,3.875,5.168,10.614,10.614,0,0,1-4.38,2.609q-.347-1.2-.772-2.371c-.193.117-.407.232-.64.347q.292.815.547,1.643a8.736,8.736,0,0,1,.365,1.271c.362.213.453.115.884.544-.062-.253-.128-.5-.194-.754a11.729,11.729,0,0,0,4.557-2.616,20.885,20.885,0,0,1,1.993,5.551,12.389,12.389,0,0,1-5.419,3.541,35.243,35.243,0,0,0-.932-5.71c-.155.321-.313.726-.476,1.133a33.934,33.934,0,0,1,.7,4.813,20.612,20.612,0,0,1-2.277.568,4.766,4.766,0,0,1,.485.624q.951-.2,1.835-.467a24.476,24.476,0,0,1-.522,6.574l-.019.082-.059.02a6.958,6.958,0,0,0-.153.806.36.36,0,0,1-.057.2,12.4,12.4,0,0,1-2.357,4.583,21.83,21.83,0,0,1-8.81,1.522,21.606,21.606,0,0,0,1.137-3.036c-.085,0-.167.005-.246.005-.165,0-.333-.005-.505-.014M96.916,66.5q.426-.292.859-.568a5.627,5.627,0,0,0,.331-1.053q-1.286.777-2.532,1.692c.323-.018.746-.043,1.343-.071M81.629,72.379a21.191,21.191,0,0,1,4.425-4.285,11.353,11.353,0,0,0,3.037,4.544,36.747,36.747,0,0,0-3.871,5.49,12.585,12.585,0,0,1-3.592-5.749m.405-4.923c.116-.169.236-.337.357-.5a12.628,12.628,0,0,1,3.657-3.364,6.546,6.546,0,0,0-.226,3.651l.021.1a21.216,21.216,0,0,0-4.408,4.031,7.033,7.033,0,0,1,.6-3.91" transform="translate(7.575 1.914)" fill="#0c297c"/>
    <path id="Path_831" data-name="Path 831" d="M88.666,84.237a3.16,3.16,0,0,1,.213-.246c.081-.076.248-.194.248-.194a1.238,1.238,0,0,0,.245.2.81.81,0,0,0,.494.139,1.156,1.156,0,0,0,.417-.063,2.392,2.392,0,0,0,.26-.09l.668.441a1.847,1.847,0,0,0-.16.484,3.291,3.291,0,0,0-.019.493,1.055,1.055,0,0,0,.019.133,4.163,4.163,0,0,1,.293-.341,3.476,3.476,0,0,1,.418-.365c.147-.1.2-.143.2-.143s-.176.27-.374.554-.37.559-.559.83-.541.8-.541.8a.7.7,0,0,1,.3.191.647.647,0,0,1,.072.741.7.7,0,0,1-.782.318.608.608,0,0,1-.465-.458.744.744,0,0,1,.005-.4.61.61,0,0,1,.071-.191l.99-1.5s-.744-.413-1.25-.777l-.764-.549m2.8,1.786.673-1a15.154,15.154,0,0,0,1.706.759,14.679,14.679,0,0,0,2.776.7,9.63,9.63,0,0,0,2.469-.029,10.639,10.639,0,0,0,2.583-.763,5.564,5.564,0,0,0,.9-.513,1.7,1.7,0,0,0-.128.318,1.29,1.29,0,0,0-.024.232,1.17,1.17,0,0,0-.522.407,1.54,1.54,0,0,0-.336.825,1.918,1.918,0,0,0,.033.573,1.314,1.314,0,0,0,.067.213c.014.029.071.119.071.119a4.875,4.875,0,0,1,.227-.484,1.859,1.859,0,0,1,.455-.532,1.7,1.7,0,0,1,.351-.212,1.585,1.585,0,0,0,.436.322,1.447,1.447,0,0,0,.607.1,1.484,1.484,0,0,0,.445-.081,1.414,1.414,0,0,0,.237-.1,1.541,1.541,0,0,0,.047.417.8.8,0,0,0,.124.236c.028.038.09.11.09.11a11.275,11.275,0,0,1-1.114.434,13.825,13.825,0,0,1-2.336.561,13.094,13.094,0,0,1-3.155.032,11.942,11.942,0,0,1-2.924-.758c-.792-.317-1.83-.8-2.3-1.051s-.82-.456-.976-.546-.479-.289-.479-.289M105.55,83.51a.587.587,0,0,0,.74,0l1.849,0a1.418,1.418,0,0,1,.321.309,1.03,1.03,0,0,1,.307.678.678.678,0,0,1-.047.346.393.393,0,0,1-.024.058,1.448,1.448,0,0,1,.232.331,1.839,1.839,0,0,1,.2.615,1.7,1.7,0,0,1,.015.423c-.015.109-.043.3-.043.3a2.031,2.031,0,0,0-.095-.341,2.068,2.068,0,0,0-.28-.553,2.9,2.9,0,0,0-.326-.351.767.767,0,0,1-.218.128.929.929,0,0,1-.525.038.774.774,0,0,1-.451-.293,2.18,2.18,0,0,1-.17-.261c-.033-.066-.071-.152-.071-.152a2.322,2.322,0,0,0-.152.389,2.271,2.271,0,0,0-.057.649,2.907,2.907,0,0,1-.024.871,1.356,1.356,0,0,1-.436.8.785.785,0,0,1-.479.2.757.757,0,0,1-.227,0,1.156,1.156,0,0,0-.138.383,2.019,2.019,0,0,0,0,.592c.029.167.033.239.048.28s.047.128.047.128a1.759,1.759,0,0,1-.332-.469,1.411,1.411,0,0,1-.174-.711.588.588,0,0,1,.066-.251c.01-.028.019-.061.019-.061a.93.93,0,0,1-.294-.308.966.966,0,0,1-.051-.668,1.521,1.521,0,0,1,.179-.427l-.1-.114s-.095.123-.181.213a1.4,1.4,0,0,1-.426.341,1.113,1.113,0,0,1-.844.095.907.907,0,0,1-.337-.218.811.811,0,0,1-.117-.171,1.3,1.3,0,0,0-.313.053,1.075,1.075,0,0,0-.455.288,2.084,2.084,0,0,0-.346.423c-.038.066-.081.152-.081.152a1.9,1.9,0,0,1,.171-.659,1.081,1.081,0,0,1,.479-.549,1.233,1.233,0,0,1,.341-.1.815.815,0,0,1,.039-.493.981.981,0,0,1,.573-.6,1.659,1.659,0,0,1,.553-.134c.067,0,.157,0,.157,0l.019-.148a1.012,1.012,0,0,1-.256-.033.968.968,0,0,1-.534-.289.813.813,0,0,1-.189-.45,2.351,2.351,0,0,1-.005-.251l-.032-.011Zm-3.613,0-.116.04-.213.075s.048-.048.134-.117Zm-7.916,0a1.143,1.143,0,0,1-.441.542,1.339,1.339,0,0,1-.8.109,1.067,1.067,0,0,0-.465.053,2.313,2.313,0,0,0-.644.336c-.184.162-.331.3-.331.3a2.523,2.523,0,0,1,.455-.758.957.957,0,0,1,.5-.3l.181-.033a1.108,1.108,0,0,1-.123-.246Zm-1.974,0,.008.035-.407.274a.5.5,0,0,1-.067-.169.682.682,0,0,1-.008-.143Zm-1.31,0a1.658,1.658,0,0,1-.422.239.915.915,0,0,1-1.067-.237Zm-1.7,0a1.06,1.06,0,0,0-.2.121,2.07,2.07,0,0,0-.394.417,2.8,2.8,0,0,0-.184.307,2.546,2.546,0,0,1,.189-.739c.02-.038.04-.073.059-.107Zm-.9,0-.008.013-.071.165a1.179,1.179,0,0,0-.189-.053,1.029,1.029,0,0,0-.384.082,1.241,1.241,0,0,0-.422.364,1.037,1.037,0,0,0-.222.455.515.515,0,0,0,.043.337,1.3,1.3,0,0,0,.136.179.772.772,0,0,1-.45-.194.836.836,0,0,1-.308-.582.935.935,0,0,1,.095-.5,1.447,1.447,0,0,1,.095-.157.279.279,0,0,1-.153-.106Z" transform="translate(9.639 8.542)" fill="#fee661"/>
    <path id="Path_832" data-name="Path 832" d="M101.763,84.668a2.221,2.221,0,0,1,.424-.278,1.556,1.556,0,0,1,.787-.189c.133.019.279.047.279.047a1,1,0,0,1,1.138-.369,2.265,2.265,0,0,1,.754.427,2.247,2.247,0,0,0,.4.35l.028.016-2.477,0a2.486,2.486,0,0,0-.285-.073,2.787,2.787,0,0,0-.6.009,2.047,2.047,0,0,0-.253.066Zm-10.168,0a.5.5,0,0,1,.092-.3.7.7,0,0,1,.284-.218c.1-.027.141-.033.141-.033a1.463,1.463,0,0,0-.061.3,1.506,1.506,0,0,0,.009.236l.006.018Zm-5.268,0a.619.619,0,0,1-.114-.249.973.973,0,0,1,.005-.484,1.553,1.553,0,0,1,.487-.7,1.652,1.652,0,0,1,.745-.341c.288-.043.458-.024.611-.043a1.875,1.875,0,0,0,.284-.048c.066-.019.16-.042.16-.042a.857.857,0,0,1-.176.189,1.812,1.812,0,0,1-.431.246c-.157.061-.241.085-.241.085a2.175,2.175,0,0,1,.3.053,2.261,2.261,0,0,1,.749.417,1.012,1.012,0,0,0-.043.181c-.005.064-.014.169-.014.169a1.757,1.757,0,0,0-.318.294,1.792,1.792,0,0,0-.168.269ZM105.614,79.1l.014.042a2.687,2.687,0,0,0,.417.825.77.77,0,0,0,.924.327,1.324,1.324,0,0,1,.535-.1.505.505,0,0,1,.4.289c.109.195.09.265.279.393s.365.138.479.394a.848.848,0,0,1,.048.682,4.313,4.313,0,0,0-.148.525c-.005.124.005.186.172.289a2.482,2.482,0,0,1,.52.413,2.071,2.071,0,0,1,.218.265l-.393,1.043a1.732,1.732,0,0,0-.143-.162,1.6,1.6,0,0,0-.3-.213,1.461,1.461,0,0,0-.331-.129l-.176.671a.1.1,0,0,1,.025.014h-1.849c.027-.021.053-.045.08-.069.375-.341.275-1.071.261-1.188a2.344,2.344,0,0,0-.356-.854,2.83,2.83,0,0,0-1.061-.971,3.424,3.424,0,0,0-1.36-.374,1.94,1.94,0,0,0-.844.155,1.638,1.638,0,0,0-.511.375,1.526,1.526,0,0,0-.143.165l-.431-.577a1.461,1.461,0,0,1,.744-.687,2.119,2.119,0,0,1,.322-.11,3.441,3.441,0,0,1-.417-.568,2.911,2.911,0,0,1-.284-.711l-.025-.15Zm-6.68,0c-.46.184-.647.364-.746.61a1.023,1.023,0,0,0-.042.682.716.716,0,0,0,.157.3,1.179,1.179,0,0,1,.279.408.63.63,0,0,1-.014.527c-.09.136-.194.184-.256.312a1.031,1.031,0,0,0-.081.289.656.656,0,0,1-.189.431,1.112,1.112,0,0,1-.587.172.818.818,0,0,0-.6.212,1.565,1.565,0,0,0-.184.673,2.142,2.142,0,0,1-.085.356c-.034.071-.129.312-.129.312l-1.317.109a3.706,3.706,0,0,0,.17-.515,3.163,3.163,0,0,0,.062-.385.841.841,0,0,0-.009-.155l-1.157.47a2.189,2.189,0,0,1-.1.611c-.018.045-.037.093-.057.141l-1.667,0a.549.549,0,0,1-.03-.136.945.945,0,0,1,.091-.472,1.114,1.114,0,0,1,.109-.172,1.2,1.2,0,0,0-.379-.028,2.166,2.166,0,0,0-.825.365c-.189.13-.39.3-.582.441l-1.49,0a.619.619,0,0,1-.04-.051.861.861,0,0,0-.169.053l-.529,0a1.163,1.163,0,0,1,.266-.325,2.156,2.156,0,0,1,.189-.109A1.182,1.182,0,0,1,89,83.8a.7.7,0,0,1,.351-.455,1.532,1.532,0,0,1,.52-.157,1.18,1.18,0,0,0,.167-.028l-.01-.181a1.615,1.615,0,0,1-.71.009.95.95,0,0,1-.607-.5.693.693,0,0,1-.09-.4c.005-.076.005-.129.005-.129a1.534,1.534,0,0,0-.427-.208,2.284,2.284,0,0,0-.6-.09,1.811,1.811,0,0,0-.307.014,2.946,2.946,0,0,1,.4-.17,1.929,1.929,0,0,1,.591-.076,1.379,1.379,0,0,1,.346.071.6.6,0,0,1,.143.076.9.9,0,0,1,.232-.217.979.979,0,0,1,.606-.133,1.235,1.235,0,0,1,.625.289,1.858,1.858,0,0,1,.314.4l.144-.13a1.224,1.224,0,0,1-.326-.511.82.82,0,0,1,.015-.551.915.915,0,0,1,.141-.236,2.478,2.478,0,0,0-.384-.361,1.857,1.857,0,0,0-.493-.265c-.114-.042-.3-.09-.3-.09a2.235,2.235,0,0,1,.265-.028,2.429,2.429,0,0,1,.663.076,1.05,1.05,0,0,1,.422.246,1.274,1.274,0,0,1,.119.146,1.077,1.077,0,0,1,.522-.071,1.149,1.149,0,0,1,.744.46,1.376,1.376,0,0,1,.293.606,1.454,1.454,0,0,0,.511.887,1.358,1.358,0,0,0,1.062.1,3.3,3.3,0,0,0,1.336-.73,1.94,1.94,0,0,0,.673-1.473c0-.038-.029-.489-.019-.7,0-.068.008-.13.013-.187Z" transform="translate(9.618 7.383)" fill="#fee661"/>
    <path id="Path_833" data-name="Path 833" d="M105.472,74.7c.023.095.039.157.039.157s-.345-.093-.565-.159Zm-2.988,0a4.138,4.138,0,0,1,.933.508,3.347,3.347,0,0,1,.649.6c.071.08.157.184.179.217s.067.1.067.1a3.987,3.987,0,0,0,.6-.01,4.281,4.281,0,0,0,2-.573,2.4,2.4,0,0,0,.714-.842H109.8l.016.02-.284.7a.949.949,0,0,0-.4-.146,1.262,1.262,0,0,0-.782.193,1.112,1.112,0,0,0-.38.294,4.353,4.353,0,0,1-.866.706,5.073,5.073,0,0,1-1.579.559,4.9,4.9,0,0,1-.663.1,4.921,4.921,0,0,0,.241.672,1.27,1.27,0,0,0,.592.583,1.285,1.285,0,0,0,.587.123,1.556,1.556,0,0,0,.242-.033l.422,1.214a1.988,1.988,0,0,1-.455.152,1.637,1.637,0,0,1-.484.033,2,2,0,0,1-.294-.053,3.31,3.31,0,0,0,.109.445l-3.327,0a8.017,8.017,0,0,0-.176-.87,2.157,2.157,0,0,0-.518-.906,1.125,1.125,0,0,0-.405-.292s.117.187.231.347a3.112,3.112,0,0,1,.341.613,3.266,3.266,0,0,1,.148.722,2.974,2.974,0,0,1,.015.337A3.558,3.558,0,0,0,101.056,80a4.888,4.888,0,0,0-1.829.227l-.078.032-2.974,0c.011-.114.027-.2.039-.266.019-.095.028-.16.028-.16a1.107,1.107,0,0,1-.493.1,1.831,1.831,0,0,1-.517-.057.988.988,0,0,1-.165-.052l-.005-.621a1.819,1.819,0,0,0,.559-.019A2.426,2.426,0,0,0,96.64,78.8a8.857,8.857,0,0,1,1.351-.9,7.979,7.979,0,0,1,1.834-.677,5.612,5.612,0,0,1,.88-.1c.148-.005.313,0,.313,0a1.789,1.789,0,0,0-.682-.36,3.965,3.965,0,0,0-1.161-.213,4.554,4.554,0,0,1-1.744-.3,3.858,3.858,0,0,1-.938-.6c-.095-.08-.189-.174-.189-.174a3.072,3.072,0,0,1,.107.35,1.91,1.91,0,0,1,.08.615.712.712,0,0,1-.063.28l-1.276.237A2.085,2.085,0,0,0,95,76.452a1.962,1.962,0,0,0-.284-.408.991.991,0,0,0-.152-.133,3.413,3.413,0,0,1,.138.455,3.258,3.258,0,0,1,.081.493c.009.11.009.152.009.152l-1.3.242a1.436,1.436,0,0,0-.072-.389A1.511,1.511,0,0,0,93,76.247a1.094,1.094,0,0,0-.587-.232,1.036,1.036,0,0,0-.336.01.827.827,0,0,0-.11.033,1.262,1.262,0,0,1-.085.522,1.584,1.584,0,0,1-.427.668,1.218,1.218,0,0,1-.455.246.9.9,0,0,1-.2.047,1.293,1.293,0,0,1-.409.7,1.2,1.2,0,0,1-.63.284,1.743,1.743,0,0,1-.379.024,1.058,1.058,0,0,1-.184-.029,1.2,1.2,0,0,0,.383-.138,1.448,1.448,0,0,0,.494-.445,1.3,1.3,0,0,0,.2-.37.409.409,0,0,0,.024-.119A.928.928,0,0,1,90,77.134a.806.806,0,0,1-.114-.573.955.955,0,0,1,.251-.479,1.9,1.9,0,0,1,.213-.194s-.172,0-.251.01a1.99,1.99,0,0,0-.583.189,1.044,1.044,0,0,0-.336.3,3.211,3.211,0,0,1-.568.664,1.8,1.8,0,0,1-1,.412.909.909,0,0,1-.63-.194.515.515,0,0,1-.162-.162c-.019-.028-.062-.1-.062-.1a1.986,1.986,0,0,0-.479.043,2.255,2.255,0,0,0-.639.265,2.984,2.984,0,0,0-.279.222,2.8,2.8,0,0,1,.274-.46,1.374,1.374,0,0,1,.484-.35,1.838,1.838,0,0,1,.336-.115l.124-.018a.9.9,0,0,1,.1-.432.741.741,0,0,1,.4-.36,1.972,1.972,0,0,1,.327-.1l-.028-.138a1.363,1.363,0,0,1-.811-.037.939.939,0,0,1-.606-.583.821.821,0,0,1-.057-.239Z" transform="translate(9.403 6.224)" fill="#fee661"/>
    <path id="Path_834" data-name="Path 834" d="M93.162,74.535,91.191,73.37l-.066-1.1,1.345-.93,1.649.7a2.412,2.412,0,0,0-.607.8,3.307,3.307,0,0,0-.3,1.071c-.028.265-.047.625-.047.625M90.9,73.474,88.8,72.2l.1-1.839,1.9,1.081Zm16.892,2.382a2.091,2.091,0,0,0,.2-.667,2.367,2.367,0,0,0-.355-1.617,3.135,3.135,0,0,0-.758-.9c-.095-.08-.165-.152-.165-.152s.264-.16.379-.222.436-.194.436-.194a5.344,5.344,0,0,1,.749.844,3.456,3.456,0,0,1,.625,1.478,2.933,2.933,0,0,1-.047,1.014c-.024.086-.048.162-.048.162a1.753,1.753,0,0,1,.379-.052,1.127,1.127,0,0,1,.544.133,1.188,1.188,0,0,1,.231.172Zm2.273-5.565a2.968,2.968,0,0,1-1.149.993,5.416,5.416,0,0,1-1.193.493,3.322,3.322,0,0,0-1.289.626,2.849,2.849,0,0,0-.834,1.336,4.006,4.006,0,0,0-.095,1.431c.03.235.091.513.131.683l-.525,0c-.051-.018-.095-.032-.126-.042-.172-.057-.75-.275-.75-.275a3.183,3.183,0,0,1-.171-.928,3.3,3.3,0,0,1,.189-1.08,1.571,1.571,0,0,0,.124-.342,2.994,2.994,0,0,0-.388.551,2.923,2.923,0,0,0-.275,1.127,2.314,2.314,0,0,0,.028.475s-.72-.455-.882-.882a1.913,1.913,0,0,1,.057-1.649,2.344,2.344,0,0,1,1.374-1.061c.616-.189,1.6-.227,2.626-.484a5.424,5.424,0,0,0,1.744-.654,3.384,3.384,0,0,0,.471-.323Zm-4.579,0c.182.211.362.379.446.462.141.141.369.341.369.341l-1.109.17s-.407-.436-.53-.606c-.044-.062-.14-.191-.248-.368Zm-9.482,0a.913.913,0,0,0,.692.259,1.038,1.038,0,0,0,.614-.255l4.459,0-.221.822a4.682,4.682,0,0,0-.644-.388,3.038,3.038,0,0,0-.628-.147,3.065,3.065,0,0,1,.522.437,3.005,3.005,0,0,1,.283.471,1.852,1.852,0,0,1,.087.332l-1.308,1.516a2.4,2.4,0,0,1-.117-.25,1.835,1.835,0,0,0-.279-.46,5.5,5.5,0,0,0-.4-.441,2.953,2.953,0,0,1,.224.587,2.354,2.354,0,0,1,.128.744,1.2,1.2,0,0,1-.033.275s.128.085.374.256.592.412,1.038.767a4.27,4.27,0,0,0,1.283.816c.2.076.392.149.575.225H86.077a.735.735,0,0,1,.005-.141.788.788,0,0,1,.015-.1,1.723,1.723,0,0,0-.37-.307,1.5,1.5,0,0,0-.546-.2,3.683,3.683,0,0,0-.426-.024,1.61,1.61,0,0,1,.517-.165,1.37,1.37,0,0,1,.678.057,1.672,1.672,0,0,1,.345.176.936.936,0,0,1,.322-.246.867.867,0,0,1,.664-.005,1.214,1.214,0,0,1,.388.256l.081.081.114-.072a.822.822,0,0,1-.2-.331.855.855,0,0,1-.01-.63.706.706,0,0,1,.157-.28.633.633,0,0,0,.057-.066,2.4,2.4,0,0,0-.162-.332,1.406,1.406,0,0,0-.474-.408,1.488,1.488,0,0,0-.317-.141,1.963,1.963,0,0,0-.237-.057,1.592,1.592,0,0,1,.664,0,1.389,1.389,0,0,1,.6.3,1.244,1.244,0,0,1,.256.275c.038.057.081.119.081.119a1.122,1.122,0,0,1,.677.038,1.18,1.18,0,0,1,.53.558c.115.242.176.5.248.621s.146.246.539.317a8.012,8.012,0,0,0,1.555.052,3.153,3.153,0,0,0,1.119-.152,3.3,3.3,0,0,0,.772-.426,6.349,6.349,0,0,1,.933-.578,3.787,3.787,0,0,1,.986-.322c.16-.024.539-.057.539-.057a4.339,4.339,0,0,0-.615-.019,4.2,4.2,0,0,0-1.157.26,4.035,4.035,0,0,0-.668.322c-.133.081-.265.167-.265.167a3.62,3.62,0,0,1,.086-.792,3.26,3.26,0,0,1,.5-1.1,1.776,1.776,0,0,1,.427-.417c.076-.053.162-.11.162-.11l-.673-.288s.138-.332.237-.508a2.068,2.068,0,0,1,.606-.658.99.99,0,0,1,.493-.167c.066,0,.176,0,.176,0s0-.02-.008-.054Zm-4.108,0,.067.376.578.294-1.422.985-.028-.644-.616-.369.906-.643Zm-.98,0-.688.5-.851-.5Z" transform="translate(9.242 5.066)" fill="#fee661"/>
    <path id="Path_835" data-name="Path 835" d="M88.589,69.584l-.019-1,2.2-.048.019,1Zm10.441-2.79a1.2,1.2,0,0,1,.652-.5,1.639,1.639,0,0,1,.493-.029,3.28,3.28,0,0,0-.465.2,1.592,1.592,0,0,0-.336.423s-.346-.092-.344-.1m5.025,4.659a3.077,3.077,0,0,1-.464-1.273,2.372,2.372,0,0,1,.389-1.581,3.243,3.243,0,0,1,1.9-1.375,3.82,3.82,0,0,1,3.137.551,2.738,2.738,0,0,1,1.081,1.44,2.5,2.5,0,0,1-.181,1.867,3.191,3.191,0,0,1-.216.375l-.935,0a2,2,0,0,0,.724-1.082,2.024,2.024,0,0,0-.417-1.62,2.316,2.316,0,0,0-1.024-.74c-.22-.075-.46-.16-.491-.1s.092.241.112.34a.994.994,0,0,1,.01.474c-.029.095-.048.171-.048.171l-.71-.038a.971.971,0,0,0-.115-.559,1.116,1.116,0,0,0-.293-.284c-.126-.083-.237-.063-.476,0a2.3,2.3,0,0,0-.681.32,1.9,1.9,0,0,0-.834,1.119,2.483,2.483,0,0,0,.246,1.516,2.786,2.786,0,0,0,.351.489Zm-8.943,0a1.376,1.376,0,0,1,.011-.386,1.644,1.644,0,0,1,.186-.469,2.353,2.353,0,0,0,.028.251,1.156,1.156,0,0,0,.26.549c.015.018.032.035.048.052Zm-4.091,0,.458-.325.057.325Zm-2,0-.3-.173.057-1.421,1.887-.039.35,1.3-.458.333Zm18.431-5.575-.179.076-4.909.284s.119-.183.239-.359Zm-6.44,0,.01.006-.36.844.852.389.323-.57c.081-.144.251-.4.437-.671Zm-2.23,0,.1.044.08-.044Zm-2.06,0a.612.612,0,0,0,.067.187c.053.1.22.135.282.149a2.76,2.76,0,0,1,.306.082c.086.029.2.056.2.056l-.095.265a1.654,1.654,0,0,0-.389-.076,1.1,1.1,0,0,0-.493.124,1.228,1.228,0,0,0-.293.261.746.746,0,0,1,.033-.356.932.932,0,0,1,.222-.246.533.533,0,0,1-.106-.3.513.513,0,0,1,.027-.144H95.121a4.081,4.081,0,0,1-.328.27,4.328,4.328,0,0,0-.561.585,1.908,1.908,0,0,0-.251.566l.38.237a.853.853,0,0,0-.057.114.91.91,0,0,0-.019.583.845.845,0,0,0,.546.487.733.733,0,0,0,.317.033s0,.034-.009.114a.939.939,0,0,0,.038.37.769.769,0,0,0,.179.317s.019-.138.043-.241a1.142,1.142,0,0,1,.27-.559,1.023,1.023,0,0,1,.834-.365,1,1,0,0,1,.847.485,1.944,1.944,0,0,1,.308,1.017,1.8,1.8,0,0,1-.107.615s-.163-.119-.21-.167a1.894,1.894,0,0,0-.36-.22,2.969,2.969,0,0,0-1.322-.337,9.987,9.987,0,0,0-1.167.093,1.635,1.635,0,0,1-.927-.235.94.94,0,0,1-.365-.508,1.477,1.477,0,0,1-.048-.3,1.365,1.365,0,0,1-.08.165,1.016,1.016,0,0,0-.114.446.938.938,0,0,0,.255.673,1.4,1.4,0,0,0,.873.4,4.1,4.1,0,0,0,1.217-.188,2.41,2.41,0,0,1,1.095-.043,1.608,1.608,0,0,1,1.044.506,1.774,1.774,0,0,1-.322.52c-.056.051-.112.1-.17.145l4.459,0,.27-1.009a2.93,2.93,0,0,0-.206-.289,1.611,1.611,0,0,0-.505-.328c-.327-.14-.7-.265-.7-.265a5.714,5.714,0,0,0,.707.025,3.631,3.631,0,0,0,.619-.083l.687-1.934a3.312,3.312,0,0,1-.441-.047,2.606,2.606,0,0,1-.527-.194c-.152-.067-1.028-.47-1.028-.47l.375-.839a3.245,3.245,0,0,0-.37-.117,1.64,1.64,0,0,0-.654,0,1.464,1.464,0,0,0-.683.346l-.827-.374Zm-2.011,0c-.128.1-.235.192-.352.3a2.374,2.374,0,0,0-.316.33,2.335,2.335,0,0,0-.164.236l-1.86.1-.035-.966Zm-3.035,0v.054l.068,1.723v.018a1.086,1.086,0,0,0,.03.13.9.9,0,0,0,.194.352.593.593,0,0,0,.125.085,1.139,1.139,0,0,1-.021.155.193.193,0,0,1-.109.119.683.683,0,0,1-.157.01.578.578,0,0,1,.01.09.293.293,0,0,1-.067.16.335.335,0,0,1-.241.146.311.311,0,0,1-.294-.152.3.3,0,0,1-.024-.26s-.071-.005-.1-.005a.274.274,0,0,1-.157-.09.392.392,0,0,1-.047-.157,1.208,1.208,0,0,0,.124-.1,1.313,1.313,0,0,0,.184-.236.721.721,0,0,0,.058-.225L91.2,65.878Zm-1.154,0,.388.27s.024,1.128.038,1.317a.819.819,0,0,1-.095.549.646.646,0,0,1-.559.251c-.274.009-1.834.047-1.834.047a1.509,1.509,0,0,1-.3-.474,2,2,0,0,1-.124-.484,1.283,1.283,0,0,1-.009-.152s.133-.038.227-.076a1.037,1.037,0,0,0,.237-.179l.009.255a.859.859,0,0,0,.427-.114,1.072,1.072,0,0,0,.484-.379,1.82,1.82,0,0,0,.165-.289c.019-.057.047-.152.047-.152a1.39,1.39,0,0,0,.157.176,1.3,1.3,0,0,0,.167.114l-.138.1a1.494,1.494,0,0,0-.332.317,2.116,2.116,0,0,0-.217.413c-.019.061-.062.236-.062.236a2.815,2.815,0,0,1,.294-.35,3.018,3.018,0,0,1,.436-.36.923.923,0,0,1,.241-.119l-.01-.432a1.18,1.18,0,0,1-.336-.3,1.211,1.211,0,0,1-.106-.192Zm-1.116,0,0,.095a.706.706,0,0,1-.048.279,1.278,1.278,0,0,1-.241.379.906.906,0,0,1-.284.191.486.486,0,0,1-.1.023l-.014-.782a1.346,1.346,0,0,1-.076.227,1.151,1.151,0,0,1-.2.341.634.634,0,0,1-.241.186,2.111,2.111,0,0,1-.227.071l-.011-1.009Zm-1.744,0,.016,1.137a1.03,1.03,0,0,1-.455.024,1.631,1.631,0,0,1-.673-.355,4.362,4.362,0,0,1-.436-.446s.134-.2.272-.359Z" transform="translate(9.599 3.905)" fill="#fee661"/>
    <path id="Path_836" data-name="Path 836" d="M90.847,66.844l-1.236-.865a.258.258,0,0,1,.076-.056.49.49,0,0,1,.23-.054.359.359,0,0,1,.2.109.62.62,0,0,1,.081.157.378.378,0,0,1,.181-.249.318.318,0,0,1,.325.006.45.45,0,0,1,.117.144c.013.027.01.037.01.037Zm11.694.086c.077-.11.153-.22.2-.275.114-.141.559-.644.559-.644l3.838-.1,1.45.522-1.193.5Zm-3.642,0a4.366,4.366,0,0,1,.423-.2,1.717,1.717,0,0,1,.9-.057,1.852,1.852,0,0,1,.73.259h1.263c.179-.26.375-.528.52-.7a6.549,6.549,0,0,1,.976-.911c.17-.123.4-.3.4-.3a1.035,1.035,0,0,1-.1.009c-.038,0-.17.029-.332.058a4.725,4.725,0,0,0-.739.246,6.3,6.3,0,0,0-.559.3.635.635,0,0,0-.1-.114.755.755,0,0,0-.342-.208,1.242,1.242,0,0,0-.465-.01l.008.018a1.255,1.255,0,0,1,.337.472.754.754,0,0,1-.04.577.408.408,0,0,1-.774-.168v-.4s-.211.168-.314.237a.539.539,0,0,1-.359.078.48.48,0,0,1-.285-.182.456.456,0,0,1,.016-.5.688.688,0,0,1,.39-.293,1.025,1.025,0,0,1,.471-.027c.123.03.211.054.241.063a.018.018,0,0,0,.025-.01s-.019-.076-.038-.133a.9.9,0,0,0-.332-.37.614.614,0,0,0-.407-.124s.038-.1.066-.189.095-.322.152-.6a3.6,3.6,0,0,0,.048-.674s-.436.361-.57.494a6.455,6.455,0,0,0-.446.606,1.276,1.276,0,0,0-.417-.189,1.026,1.026,0,0,0-.6.114c.035.023.114.072.218.143a1.058,1.058,0,0,1,.3.368.688.688,0,0,1,.043.487.44.44,0,0,1-.33.33.592.592,0,0,1-.351-.086.522.522,0,0,1-.158-.28c-.019-.123-.043-.4-.043-.4a3.42,3.42,0,0,1-.287.3.54.54,0,0,1-.523-.021.406.406,0,0,1-.15-.5.756.756,0,0,1,.4-.416,1.054,1.054,0,0,1,.53-.054l.013,0a.53.53,0,0,0-.048-.076,1.129,1.129,0,0,0-.1-.138.837.837,0,0,0-.3-.194,1.632,1.632,0,0,0-.455-.057s-.038-.189-.057-.294a5.289,5.289,0,0,0-.162-.549,4.82,4.82,0,0,0-.417-.8s.028.227.047.427a8.415,8.415,0,0,1-.152,1.754,15.566,15.566,0,0,1-.493,1.706l2.557,1.169Zm-3.836,0c.039-.035.077-.075.116-.117.207-.232.392-.547.529-.666a1.711,1.711,0,0,1,.362-.123l2,.906H96.662a.409.409,0,0,1,.024-.236.355.355,0,0,0-.263.237Zm-3.14,0-.023-.592,3.372-.106s-.08.152-.138.236a2.643,2.643,0,0,1-.378.38c-.037.03-.072.058-.106.085Zm-.782,0L91.1,65.695l-.009-.322v-.037a.724.724,0,0,0-.061-.225,1.391,1.391,0,0,0-.184-.237,1.325,1.325,0,0,0-.124-.1.41.41,0,0,1,.047-.157.274.274,0,0,1,.157-.09c.029,0,.1-.005.1-.005a.3.3,0,0,1,.024-.26.316.316,0,0,1,.294-.153.338.338,0,0,1,.241.148.378.378,0,0,1,.067.194.578.578,0,0,1-.01.09.667.667,0,0,1,.157.009.2.2,0,0,1,.109.119.407.407,0,0,1,.01.119.739.739,0,0,0-.114.085.566.566,0,0,0-.182.255.732.732,0,0,0-.043.231c0,.057.027,1.3.034,1.575Zm-1.489,0a.757.757,0,0,1-.063-.327.506.506,0,0,1,.042-.251l.831.578Zm-1.753,0-.008-.7a.91.91,0,0,1,.1-.226.354.354,0,0,1,.306-.138.373.373,0,0,1,.26.117.6.6,0,0,1,.072.133.675.675,0,0,1,.123-.174.369.369,0,0,1,.294-.076.365.365,0,0,1,.26.207.311.311,0,0,1,.014.11s.016.525.021.745Zm-1.574,0a1.7,1.7,0,0,1,.145-.152,1.4,1.4,0,0,1,.582-.36.776.776,0,0,1,.541.042l.008.47Z" transform="translate(9.655 2.853)" fill="#fee661"/>
    <path id="Path_837" data-name="Path 837" d="M71.124,73.739l-.188,2.686,5.078.355.059-.844-2.326-.163.1-1.416-.682-.048-.1,1.416-1.379-.1.121-1.739ZM76.485,70.5c-.24.835-1.031.952-2.29.591-1.173-.336-1.749-.837-1.514-1.658.251-.876,1.072-.909,2.267-.567,1.316.378,1.745.907,1.537,1.634m.621.155c.365-1.272-.414-2.292-1.942-2.729-1.428-.41-2.715-.059-3.111,1.319-.35,1.224.32,2.3,1.932,2.766,1.45.416,2.722.038,3.121-1.355m48.924-1.341a.583.583,0,0,0,.345-.751.57.57,0,0,0-.74-.333.578.578,0,1,0,.4,1.085m5.692,3.709-.559-2.633-4.98,1.058.176.827,2.281-.485.3,1.389.669-.143-.3-1.389,1.353-.287.364,1.7Zm-4.8,3.621,5.085-.266-.045-.866-5.083.265Zm-2.688-11a1.924,1.924,0,0,0,.6.176,2.535,2.535,0,0,0,1.289-.177Zm-47.975,0,2.172,1.154.39-.734-.792-.421Z" transform="translate(5.608 3.846)" fill="#0c297c"/>
    <path id="Path_838" data-name="Path 838" d="M74.522,67.44c.352-.662.717-.784,1.172-.543a.853.853,0,0,1,.439.491,1.113,1.113,0,0,1-.2.835l-.2.383L74.3,67.849Zm9.406-5.072L79.9,59.225l-.768.823L80.7,62.611a8.094,8.094,0,0,0,.482.7,8.569,8.569,0,0,0-.749-.437l-2.641-1.4-.768.823,3.407,3.81L81,65.505l-2.1-2.259c-.216-.231-.534-.57-.658-.685.143.093.527.321.839.481l2.832,1.483L82.408,64l-1.724-2.876c-.172-.29-.347-.544-.446-.687.114.106.4.356.654.561l2.469,1.98Zm2.426-1.755-2.992-4.118-.7.51,2.992,4.118ZM91.4,57.856,89.169,53.28l-.72.352,1.032,2.083c.2.417.568,1.048.7,1.271l-.01.029a9.335,9.335,0,0,0-1.044-.948l-2.2-1.692-.859.419L88.3,59.367,89.047,59,87.94,56.8c-.2-.4-.445-.879-.666-1.247l.01-.029A15.32,15.32,0,0,0,88.527,56.6L90.6,58.246Zm3.333-1.533a.582.582,0,0,0-.719-.409.569.569,0,0,0-.4.707.578.578,0,1,0,1.115-.3m4.393-5.3-2.677.282.532,5.063.841-.088-.244-2.319,1.412-.149-.071-.681-1.412.149-.145-1.375,1.734-.182Zm3.084,5.128.266-5.085-.866-.045-.266,5.085Zm5.661.912,1.145-4.96-.78-.181-.509,2.268c-.1.452-.218,1.172-.255,1.428-.038-.227-.116-.865-.24-1.377l-.645-2.7-.932-.215-1.144,4.96.81.188.525-2.408c.093-.438.207-.964.268-1.388.052.3.179.985.318,1.6l.573,2.585Zm9.206,4.785,1.593-5.109-.8-.562L113.576,59.4l.717.5,1.105-.86,1.35.945-.431,1.334ZM117,59.3l-1.024-.717c.29-.21,1.769-1.411,1.769-1.411-.078.188-.724,2.008-.745,2.128m8.506,9.161c-1,.577-1.7.563-2.146-.213l-.279-.485,3.231-1.865.268.466a1.028,1.028,0,0,1,.1,1.048,2.6,2.6,0,0,1-1.171,1.05M112.847,58.275l-1.72-.767,1.786-4.011-.787-.351-2.07,4.651,2.379,1.058Zm7.8,7.153,3.723-3.472-.547-.586-1.69,1.6c-.34.317-.837.851-1.01,1.043l-.032,0a9.18,9.18,0,0,0,.6-1.274l.975-2.6-.652-.7L118.295,62.9l.566.607,1.783-1.7c.323-.311.711-.682,1-1h.03a15.152,15.152,0,0,0-.661,1.5l-.971,2.464ZM125.5,69.5a4.077,4.077,0,0,0,.552-.268,2.723,2.723,0,0,0,1.317-1.4,2.342,2.342,0,0,0-.376-2.093l-.529-.918-4.409,2.546.629,1.089a2.435,2.435,0,0,0,.928,1.039ZM77.4,69.5l-1.151-.611a.426.426,0,0,1,.292-.22,5.61,5.61,0,0,1,1.518-.177l.9-.02.472-.889-1.431.088a3.874,3.874,0,0,0-1.265.218,1.285,1.285,0,0,0-.64-1.773,1.444,1.444,0,0,0-2.062.778l-.729,1.37L75.634,69.5Z" transform="translate(6.233)" fill="#0c297c"/>
    <path id="Path_839" data-name="Path 839" d="M51.408,101.568c1.223,0,1.4-.1,1.486-.873h.265v2.1h-.265c-.121-.772-.293-.859-1.486-.859V103.4c0,.615.3.816,1.223.816,1.086,0,1.451-.273,1.651-1.244h.287l-.115,1.637H49.607v-.287c.637-.02.75-.141.75-.815v-3.3c0-.664-.1-.786-.672-.815v-.285H54.2l.051,1.4h-.308c-.121-.8-.443-1.022-1.457-1.022h-.808c-.242,0-.272.035-.272.264Z" transform="translate(0 12.644)" fill="#0c297c"/>
    <path id="Path_840" data-name="Path 840" d="M58.856,103.276l1.651-4.168h2.088v.287c-.637,0-.736.215-.736,1.079v2.775c0,.942.107,1.057.815,1.079v.287H59.985v-.287c.709-.021.822-.143.822-1.029V99.952h-.035l-1.923,4.732h-.529l-1.987-4.732H56.3v3.3c0,.942.107,1.057.816,1.079v.287h-2.2v-.287c.709-.021.83-.143.83-1.029v-2.873c0-.808-.107-1.029-.75-1.029v-.287h2.166l1.665,4.168Z" transform="translate(1.396 12.644)" fill="#0c297c"/>
    <path id="Path_841" data-name="Path 841" d="M66.381,103.14a1.047,1.047,0,0,0-.414-.93,2.478,2.478,0,0,0-1.387-.278h-.344v1.428c0,.587.279.816.994.816.772,0,1.151-.336,1.151-1.037M64.658,101.5a1.652,1.652,0,0,0,.957-.236.835.835,0,0,0,.344-.736c0-.693-.328-.986-1.086-.986h-.508a.119.119,0,0,0-.129.122V101.5Zm-2.23,3.109v-.287c.643-.02.758-.141.758-.815v-3.3c0-.664-.093-.786-.607-.815v-.285h2.295c1.43,0,2.244.486,2.244,1.336,0,.572-.4.965-1.223,1.2v.029a1.53,1.53,0,0,1,1.715,1.486,1.2,1.2,0,0,1-.678,1.094,3.634,3.634,0,0,1-1.752.357Z" transform="translate(3.371 12.644)" fill="#0c297c"/>
    <path id="Path_842" data-name="Path 842" d="M69.424,102.534h1.7l-.822-2.166h-.029Zm1.859.428H69.26a3.151,3.151,0,0,0-.336,1.051c0,.287.215.328.644.328v.287H67.609v-.287a.815.815,0,0,0,.822-.578l1.879-4.711h.529l1.709,4.174c.393.966.5,1.044,1.144,1.109v.293h-2.7v-.293c.457-.021.644-.071.644-.3a2.224,2.224,0,0,0-.187-.643Z" transform="translate(4.734 12.629)" fill="#0c297c"/>
    <path id="Path_843" data-name="Path 843" d="M73.581,102.805h.279a1.6,1.6,0,0,0,1.637,1.459c.715,0,1.193-.357,1.193-.887,0-.451-.236-.644-1.344-1.058s-1.637-.986-1.637-1.752a1.58,1.58,0,0,1,1.766-1.516,2.133,2.133,0,0,1,1.322.458l.129-.357H77.1l.078,1.543H76.9a1.464,1.464,0,0,0-1.379-1.207c-.586,0-.994.322-.994.779,0,.407.229.586,1.215.957,1.33.508,1.873,1.043,1.873,1.838,0,.965-.879,1.637-2.129,1.637a2.331,2.331,0,0,1-1.48-.5l-.143.428h-.172Z" transform="translate(6.304 12.629)" fill="#0c297c"/>
    <path id="Path_844" data-name="Path 844" d="M78.349,102.805h.279a1.6,1.6,0,0,0,1.637,1.459c.715,0,1.193-.357,1.193-.887,0-.451-.236-.644-1.344-1.058s-1.637-.986-1.637-1.752a1.58,1.58,0,0,1,1.766-1.516,2.133,2.133,0,0,1,1.322.458l.129-.357h.172l.078,1.543h-.279a1.464,1.464,0,0,0-1.379-1.207c-.586,0-.994.322-.994.779,0,.407.229.586,1.215.957,1.33.508,1.873,1.043,1.873,1.838,0,.965-.879,1.637-2.129,1.637a2.331,2.331,0,0,1-1.48-.5l-.143.428h-.172Z" transform="translate(7.558 12.629)" fill="#0c297c"/>
    <path id="Path_845" data-name="Path 845" d="M83.509,100.009c-.285-.5-.451-.614-.822-.614v-.287h2.4V99.4c-.4,0-.543.078-.543.227a1.16,1.16,0,0,0,.178.445l1.022,1.951h.029l.9-1.5a2.359,2.359,0,0,0,.422-.907c0-.165-.121-.215-.522-.215v-.287H88.37V99.4c-.416,0-.629.215-1.287,1.336l-1.044,1.787v.729c0,.951.136,1.08.744,1.08v.285H84.238v-.285c.594,0,.751-.129.751-1.029v-.658Z" transform="translate(8.698 12.644)" fill="#0c297c"/>
    <path id="Path_846" data-name="Path 846" d="M95.5,101.94c0-1.486-.693-2.424-1.809-2.424s-1.809.937-1.809,2.424c0,1.408.693,2.295,1.809,2.295s1.809-.887,1.809-2.295m1.244-.021a3.059,3.059,0,1,1-3.053-2.867,2.906,2.906,0,0,1,3.053,2.867" transform="translate(10.788 12.629)" fill="#0c297c"/>
    <path id="Path_847" data-name="Path 847" d="M98.662,103.462c0,.729.136.844,1.043.865v.285H96.86v-.285c.637-.021.751-.143.751-.815v-3.3c0-.664-.1-.786-.672-.815v-.285h4.375l.086,1.508h-.3c-.115-.815-.4-1.108-1.322-1.108h-.986a.115.115,0,0,0-.129.121V101.7c1.158,0,1.416-.158,1.486-.93h.265v2.238h-.265c-.114-.8-.357-.922-1.486-.93Z" transform="translate(12.425 12.644)" fill="#0c297c"/>
    <path id="Path_848" data-name="Path 848" d="M105.936,103.462c0,.729.136.844,1.043.865v.285h-2.845v-.285c.637-.021.751-.143.751-.815v-3.3c0-.664-.1-.786-.672-.815v-.285h4.375l.086,1.508h-.3c-.115-.815-.4-1.108-1.322-1.108h-.986a.115.115,0,0,0-.129.121V101.7c1.158,0,1.416-.158,1.486-.93h.265v2.238h-.265c-.114-.8-.357-.922-1.486-.93Z" transform="translate(14.338 12.644)" fill="#0c297c"/>
    <path id="Path_849" data-name="Path 849" d="M111.606,104.613h-2.552v-.287c.644-.02.751-.141.751-1.028v-2.874c0-.807-.093-1-.679-1.029v-.285h2.408v.285c-.586.029-.678.222-.678,1.029V103.3c0,.887.107,1.008.75,1.028Z" transform="translate(15.631 12.644)" fill="#0c297c"/>
    <path id="Path_850" data-name="Path 850" d="M117.041,104.684l-3.169-4.51h-.028v3.073c0,.943.107,1.058.744,1.08v.285h-2.123v-.285c.7-.021.822-.143.822-1.029v-2.873c0-.808-.107-1-.751-1.029v-.287h1.994l2.882,4.132h.028v-2.767c0-.943-.107-1.057-.744-1.079v-.287h2.123v.287c-.7.021-.822.143-.822,1.029v4.26Z" transform="translate(16.528 12.644)" fill="#0c297c"/>
    <path id="Path_851" data-name="Path 851" d="M123.753,104.613h-4.925v-.287c.637-.02.751-.141.751-.815v-3.3c0-.664-.1-.786-.673-.815v-.285h2.467v.285c-.643.023-.743.144-.743.865v3c0,.8.3.965,1.293.965,1.1,0,1.444-.229,1.658-1.23h.285Z" transform="translate(18.201 12.644)" fill="#0c297c"/>
    <path id="Path_852" data-name="Path 852" d="M125.66,102.534h1.7l-.822-2.166h-.029Zm1.858.428h-2.023a3.151,3.151,0,0,0-.336,1.051c0,.287.215.328.643.328v.287h-1.958v-.287a.816.816,0,0,0,.822-.578l1.879-4.711h.529l1.709,4.174c.393.966.5,1.044,1.143,1.109v.293h-2.7v-.293c.457-.021.644-.071.644-.3a2.224,2.224,0,0,0-.187-.643Z" transform="translate(19.52 12.629)" fill="#0c297c"/>
    <path id="Path_853" data-name="Path 853" d="M134.256,104.684l-3.167-4.51h-.028v3.073c0,.943.107,1.058.743,1.08v.285h-2.122v-.285c.7-.021.821-.143.821-1.029v-2.873c0-.808-.106-1-.75-1.029v-.287h1.994l2.881,4.132h.029v-2.767c0-.943-.107-1.057-.744-1.079v-.287h2.123v.287c-.7.021-.822.143-.822,1.029v4.26Z" transform="translate(21.055 12.644)" fill="#0c297c"/>
    <path id="Path_854" data-name="Path 854" d="M137.967,99.545a.112.112,0,0,0-.121.122v3.694c0,.551.335.816,1.051.816,1.243,0,1.944-.779,1.944-2.209,0-1.523-.751-2.424-1.98-2.424Zm-1.923,5.068v-.287c.629-.02.751-.135.751-.815v-3.3c0-.664-.093-.786-.638-.815v-.285h2.718a2.918,2.918,0,0,1,3.159,2.845,2.725,2.725,0,0,1-3.008,2.658Z" transform="translate(22.728 12.644)" fill="#0c297c"/>
    <path id="Path_855" data-name="Path 855" d="M74.735,109.927a1.047,1.047,0,0,0-.414-.93,2.478,2.478,0,0,0-1.387-.278h-.344v1.428c0,.587.279.816.994.816.772,0,1.151-.336,1.151-1.037m-1.723-1.637a1.652,1.652,0,0,0,.957-.236.835.835,0,0,0,.344-.736c0-.693-.328-.986-1.086-.986h-.508a.119.119,0,0,0-.129.123v1.836Zm-2.23,3.109v-.287c.643-.02.758-.141.758-.815V107c0-.664-.093-.786-.607-.815V105.9h2.295c1.43,0,2.244.486,2.244,1.336,0,.572-.4.965-1.223,1.2v.029a1.53,1.53,0,0,1,1.715,1.486,1.2,1.2,0,0,1-.678,1.094,3.634,3.634,0,0,1-1.752.357Z" transform="translate(5.568 14.429)" fill="#0c297c"/>
    <path id="Path_856" data-name="Path 856" d="M81.446,109.184c0,1.615-.679,2.287-2.316,2.287-1.537,0-2.215-.615-2.215-2.023V107.49c0-.736-.029-.986-.129-1.137-.086-.129-.222-.172-.558-.172v-.287h2.566v.287c-.4,0-.565.035-.664.157-.129.15-.164.408-.164,1.152v1.872c0,1.08.457,1.6,1.416,1.6.985,0,1.471-.544,1.471-1.637v-1.652c0-.793-.049-1.115-.207-1.293a.88.88,0,0,0-.693-.193v-.287h2.316v.287c-.35,0-.522.049-.629.178-.143.179-.193.515-.193,1.308Z" transform="translate(7 14.428)" fill="#0c297c"/>
    <path id="Path_857" data-name="Path 857" d="M87.009,105.91h.351l-.144,1.809h-.285A1.662,1.662,0,0,0,85.3,106.3c-1.121,0-1.766.916-1.766,2.41,0,1.473.623,2.3,1.795,2.3a1.815,1.815,0,0,0,1.851-1.536H87.5v1.936h-.336l-.1-.565a2.929,2.929,0,0,1-1.91.637,2.617,2.617,0,0,1-2.858-2.73,2.792,2.792,0,0,1,2.945-2.917,2.9,2.9,0,0,1,1.637.515Z" transform="translate(8.594 14.413)" fill="#0c297c"/>
    <path id="Path_858" data-name="Path 858" d="M93.4,110.249c0,.729.107.844.75.864v.287H91.527v-.287c.7-.02.822-.141.822-.815v-1.493H89.7v1.444c0,.729.115.844.815.864v.287H87.9v-.287c.643-.02.75-.141.75-.815V107c0-.664-.092-.786-.672-.815V105.9h2.467v.285c-.644.023-.744.144-.744.865v1.315h2.652V107c0-.664-.107-.786-.75-.815V105.9h2.473v.285c-.578.023-.672.144-.672.865Z" transform="translate(10.068 14.429)" fill="#0c297c"/>
    <path id="Path_859" data-name="Path 859" d="M95.8,109.321h1.7l-.822-2.166h-.029Zm1.858.428H95.638A3.151,3.151,0,0,0,95.3,110.8c0,.287.215.328.643.328v.287H93.987v-.287a.816.816,0,0,0,.822-.578l1.879-4.711h.529l1.709,4.174c.393.966.5,1.044,1.143,1.109v.293h-2.7v-.293c.457-.021.643-.071.643-.3a2.21,2.21,0,0,0-.186-.643Z" transform="translate(11.669 14.414)" fill="#0c297c"/>
    <path id="Path_860" data-name="Path 860" d="M101.654,108.432h.465c.893,0,1.336-.328,1.336-1.121A.964.964,0,0,0,102.4,106.3h-.623a.118.118,0,0,0-.128.121Zm1.48.373,1.657,1.9a1.189,1.189,0,0,0,.887.407v.285h-1.694l-1.773-2.172c-.236-.285-.408-.365-.557-.365v1.4c0,.709.128.851,1.036.851v.285H99.852v-.285c.629,0,.751-.143.751-.815V107c0-.664-.087-.787-.673-.815v-.287H102.4c1.372,0,2.166.515,2.166,1.38,0,.793-.436,1.35-1.436,1.529" transform="translate(13.212 14.428)" fill="#0c297c"/>
    <path id="Path_861" data-name="Path 861" d="M107.282,108.355c1.223,0,1.4-.1,1.486-.873h.265v2.1h-.265c-.121-.772-.293-.859-1.486-.859v1.473c0,.615.3.816,1.223.816,1.086,0,1.451-.273,1.651-1.244h.285l-.114,1.637H105.48v-.287c.637-.02.751-.141.751-.815V107c0-.664-.1-.786-.672-.815V105.9h4.518l.049,1.4h-.307c-.121-.8-.443-1.022-1.459-1.022h-.807c-.244,0-.272.035-.272.264Z" transform="translate(14.692 14.429)" fill="#0c297c"/>
    <path id="Path_862" data-name="Path 862" d="M110.927,109.591h.279a1.6,1.6,0,0,0,1.637,1.459c.715,0,1.193-.357,1.193-.887,0-.451-.236-.644-1.344-1.058s-1.637-.986-1.637-1.752a1.58,1.58,0,0,1,1.766-1.516,2.133,2.133,0,0,1,1.322.458l.129-.357h.172l.078,1.543h-.279a1.463,1.463,0,0,0-1.379-1.207c-.586,0-.994.322-.994.779,0,.407.229.586,1.215.957,1.33.508,1.873,1.043,1.873,1.838,0,.965-.879,1.637-2.129,1.637a2.334,2.334,0,0,1-1.48-.5l-.143.428h-.172Z" transform="translate(16.124 14.413)" fill="#0c297c"/>
    <path id="Path_863" data-name="Path 863" d="M121.152,107.468h-.307c-.058-.943-.437-1.2-1.2-1.2-.744,0-.851.051-.851.222v3.746c0,.614.121.85.965.878v.287h-2.994v-.287c.85-.028.979-.264.979-.878V106.49c0-.172-.1-.222-.736-.222-.693,0-1.287.043-1.315,1.2h-.279l.072-1.572h5.6Z" transform="translate(17.303 14.429)" fill="#0c297c"/>
  </g>
</svg>
