<svg xmlns="http://www.w3.org/2000/svg" width="67.447" height="56.787" viewBox="0 0 67.447 56.787">
  <g id="Group_2539" data-name="Group 2539" transform="translate(-4077.904 -1287.238)">
    <g id="Group_2537" data-name="Group 2537" transform="translate(4077.904 1287.238)">
      <path id="Path_891" data-name="Path 891" d="M4077.9,1303.467l67.213-12.173v-4.055l-67.213,12.174Z" transform="translate(-4077.904 -1287.238)"/>
      <path id="Path_892" data-name="Path 892" d="M4145.118,1317.039v-4.055l-66.735,12.087h-.479v4.142l.836-.151h66.377v-3.99h-44.346Z" transform="translate(-4077.904 -1298.308)"/>
      <path id="Path_893" data-name="Path 893" d="M4145.118,1347.2l-67.213,12.173v4.055l67.213-12.174Z" transform="translate(-4077.904 -1313.021)"/>
    </g>
    <g id="Group_2538" data-name="Group 2538" transform="translate(4077.972 1327.01)">
      <path id="Path_894" data-name="Path 894" d="M4080.26,1377.128c1.1-.193,1.784.336,1.784,1.279a1.977,1.977,0,0,1-1.784,1.909l-1.631.287v1.946l-.6.106v-5.134Zm0,2.644a1.311,1.311,0,0,0,1.187-1.259c0-.613-.452-.97-1.187-.841l-1.631.288v2.1Z" transform="translate(-4078.024 -1365.642)"/>
      <path id="Path_895" data-name="Path 895" d="M4091.636,1377.556a3.271,3.271,0,0,1-2.649,3.134,2.152,2.152,0,0,1-2.658-2.2,3.279,3.279,0,0,1,2.658-3.135A2.153,2.153,0,0,1,4091.636,1377.556Zm-.613.108a1.671,1.671,0,0,0-2.037-1.74,2.544,2.544,0,0,0-2.045,2.46,1.665,1.665,0,0,0,2.045,1.731A2.528,2.528,0,0,0,4091.023,1377.664Z" transform="translate(-4081.595 -1364.879)"/>
      <path id="Path_896" data-name="Path 896" d="M4100.987,1374.742l-.6.245a1.034,1.034,0,0,0-1.333-.784,1.256,1.256,0,0,0-1.164,1.133c0,.459.291.615.774.63l1.117.055c.712.028,1.3.286,1.3,1.106a2.023,2.023,0,0,1-1.907,1.861c-1.088.192-1.961-.214-2.083-1.165l.635-.242c.115.7.7,1,1.5.861.781-.137,1.248-.61,1.248-1.177,0-.484-.261-.629-.835-.658l-1.156-.049c-.659-.03-1.233-.273-1.233-1.093a1.956,1.956,0,0,1,1.823-1.793A1.493,1.493,0,0,1,4100.987,1374.742Z" transform="translate(-4086.218 -1364.155)"/>
      <path id="Path_897" data-name="Path 897" d="M4107.4,1372.626v4.591l-.613.108v-4.59l-1.907.336v-.544l4.419-.779v.544Z" transform="translate(-4089.569 -1363.346)"/>
      <path id="Path_898" data-name="Path 898" d="M4119.679,1374.9l-.582.1v-3.847l-2.022,4.2-.313.056-2.03-3.489v3.847l-.582.1v-5.134l.529-.093,2.236,3.836,2.235-4.625.529-.093Z" transform="translate(-4093.556 -1362.495)"/>
      <path id="Path_899" data-name="Path 899" d="M4131.082,1370.6a3.27,3.27,0,0,1-2.649,3.133,2.151,2.151,0,0,1-2.658-2.2,3.279,3.279,0,0,1,2.658-3.135A2.153,2.153,0,0,1,4131.082,1370.6Zm-.613.108a1.671,1.671,0,0,0-2.037-1.74,2.544,2.544,0,0,0-2.045,2.46,1.665,1.665,0,0,0,2.045,1.732A2.528,2.528,0,0,0,4130.469,1370.708Z" transform="translate(-4098.555 -1361.888)"/>
      <path id="Path_900" data-name="Path 900" d="M4138.71,1366.876c1.8-.318,2.841.61,2.841,2.066a3.172,3.172,0,0,1-2.841,3.068l-1.7.3v-5.134Zm-.008,4.584a2.479,2.479,0,0,0,2.236-2.41c0-1.142-.8-1.883-2.236-1.629l-1.087.192v4.039Z" transform="translate(-4103.385 -1361.224)"/>
      <path id="Path_901" data-name="Path 901" d="M4150.648,1369.681l-3.745.66v-5.135l3.737-.659v.544l-3.132.553v1.739l2.91-.513v.544l-2.91.513v1.755l3.14-.554Z" transform="translate(-4107.639 -1360.25)"/>
      <path id="Path_902" data-name="Path 902" d="M4158.97,1368.367l-1.961-1.854-.941.166v2.2l-.606.107v-5.134l2.375-.418c1-.177,1.677.286,1.677,1.167a1.855,1.855,0,0,1-1.677,1.767l-.092.016,1.984,1.849Zm-1.134-2.552a1.174,1.174,0,0,0,1.072-1.109c0-.552-.429-.844-1.072-.73l-1.768.312v1.839Z" transform="translate(-4111.318 -1359.754)"/>
      <path id="Path_903" data-name="Path 903" d="M4168.948,1366.356l-.521.092-3.354-3.486v4.077l-.605.107v-5.134l.521-.092,3.354,3.531v-4.123l.605-.107Z" transform="translate(-4115.19 -1358.82)"/>
      <path id="Path_904" data-name="Path 904" d="M4174.682,1365.86v-5.134l.605-.107v5.134Z" transform="translate(-4119.583 -1358.561)"/>
      <path id="Path_905" data-name="Path 905" d="M4181.516,1360.542l-.6.245a1.034,1.034,0,0,0-1.333-.784,1.256,1.256,0,0,0-1.164,1.133c0,.459.291.615.773.629l1.118.056c.712.028,1.295.286,1.295,1.105a2.023,2.023,0,0,1-1.907,1.861c-1.087.192-1.96-.214-2.083-1.165l.636-.243c.115.7.7,1,1.5.862.781-.138,1.249-.611,1.249-1.178,0-.484-.261-.629-.835-.658l-1.156-.049c-.659-.029-1.233-.273-1.233-1.093a1.957,1.957,0,0,1,1.822-1.793A1.493,1.493,0,0,1,4181.516,1360.542Z" transform="translate(-4120.842 -1358.05)"/>
      <path id="Path_906" data-name="Path 906" d="M4192.052,1362.142l-.582.1V1358.4l-2.022,4.2-.314.055-2.03-3.489v3.847l-.581.1v-5.134l.529-.093,2.236,3.836,2.235-4.625.529-.093Z" transform="translate(-4124.673 -1357.008)"/>
    </g>
  </g>
</svg>
