<svg xmlns="http://www.w3.org/2000/svg" width="152.211" height="44.223" viewBox="0 0 152.211 44.223">
  <g id="Group_62" data-name="Group 62" transform="translate(-22.339 -8.177)">
    <g id="Group_61" data-name="Group 61" transform="translate(22.339 27.27)">
      <path id="Path_131" data-name="Path 131" d="M26.94,53.716V40.954h-4.6V39.826A1.615,1.615,0,0,1,23.962,38.2H34.694v2.752H30.141V53.716Z" transform="translate(-22.339 -38.202)" fill="#515051"/>
      <path id="Path_132" data-name="Path 132" d="M51.023,45.1a2.157,2.157,0,0,0-1.85-.947,2.284,2.284,0,0,0-1.938.9,4.056,4.056,0,0,0-.676,2.481v6.179H43.492V38.2h1.533a1.54,1.54,0,0,1,1.534,1.532V43.3a3.579,3.579,0,0,1,2.3-1.713,4.589,4.589,0,0,1,2.842.179,5.057,5.057,0,0,1,2.117,1.714,5.42,5.42,0,0,1,.858,3.248v6.99h-3.02V47.492a6.261,6.261,0,0,0-.114-1.241A3.113,3.113,0,0,0,51.023,45.1Z" transform="translate(-30.041 -38.202)" fill="#515051"/>
      <path id="Path_133" data-name="Path 133" d="M62.731,55.73V49.912a7.412,7.412,0,0,1,.518-2.953,4.9,4.9,0,0,1,1.422-1.917,5.549,5.549,0,0,1,2.006-.992,8.955,8.955,0,0,1,2.367-.315h.451v3.2H68.457a2.639,2.639,0,0,0-1.939.633,2.706,2.706,0,0,0-.63,1.983V55.73Z" transform="translate(-37.046 -40.217)" fill="#515051"/>
      <path id="Path_134" data-name="Path 134" d="M82.85,51.876H85.1a4.922,4.922,0,0,1-1.892,2.887A5.738,5.738,0,0,1,79.695,55.8a5.03,5.03,0,0,1-4.015-1.667,6.772,6.772,0,0,1-1.442-4.646,6.681,6.681,0,0,1,1.4-4.51,5.028,5.028,0,0,1,4.014-1.668,5.4,5.4,0,0,1,4.192,1.623,6.872,6.872,0,0,1,1.442,4.645v.5a.769.769,0,0,1-.043.315h-7.8a3.088,3.088,0,0,0,.677,2.075,2.123,2.123,0,0,0,1.757.723,2.547,2.547,0,0,0,1.307-.316.638.638,0,0,0,.251-.158c.073-.074.155-.158.248-.249a.958.958,0,0,1,.336-.361A1.342,1.342,0,0,1,82.85,51.876ZM77.44,48.36h4.6a2.943,2.943,0,0,0-.633-1.8,2.165,2.165,0,0,0-1.669-.63,2.192,2.192,0,0,0-1.622.63A2.577,2.577,0,0,0,77.44,48.36Z" transform="translate(-41.236 -40.062)" fill="#515051"/>
      <path id="Path_135" data-name="Path 135" d="M101.38,51.876h2.253a4.906,4.906,0,0,1-1.894,2.887A5.736,5.736,0,0,1,98.222,55.8a5.024,5.024,0,0,1-4.014-1.667,6.766,6.766,0,0,1-1.444-4.646,6.678,6.678,0,0,1,1.4-4.51,5.016,5.016,0,0,1,4.012-1.668,5.4,5.4,0,0,1,4.192,1.623,6.863,6.863,0,0,1,1.443,4.645v.5a.816.816,0,0,1-.043.315h-7.8a3.1,3.1,0,0,0,.679,2.075,2.126,2.126,0,0,0,1.758.723,2.554,2.554,0,0,0,1.307-.316.612.612,0,0,0,.247-.158c.078-.074.158-.158.25-.249a.968.968,0,0,1,.338-.361A1.333,1.333,0,0,1,101.38,51.876ZM95.966,48.36h4.6a2.923,2.923,0,0,0-.633-1.8,2.16,2.16,0,0,0-1.666-.63,2.2,2.2,0,0,0-1.623.63A2.589,2.589,0,0,0,95.966,48.36Z" transform="translate(-47.982 -40.062)" fill="#515051"/>
      <path id="Path_136" data-name="Path 136" d="M118.738,48.168v5.547h-3.2V39.826a1.617,1.617,0,0,1,1.623-1.624h5.277a4.92,4.92,0,0,1,3.7,1.263,5.077,5.077,0,0,1,1.262,3.743,5.327,5.327,0,0,1-1.218,3.7,4.659,4.659,0,0,1-3.516,1.261Zm0-2.8h3.109a2.5,2.5,0,0,0,1.806-.541,2.148,2.148,0,0,0,.586-1.714,1.931,1.931,0,0,0-2.212-2.21h-3.29Z" transform="translate(-56.273 -38.202)" fill="#515051"/>
      <path id="Path_137" data-name="Path 137" d="M143.439,45.1a2.155,2.155,0,0,0-1.848-.947,2.287,2.287,0,0,0-1.941.9,4.065,4.065,0,0,0-.677,2.481v6.179h-3.066V38.2h1.534a1.54,1.54,0,0,1,1.532,1.532V43.3a3.583,3.583,0,0,1,2.3-1.713,4.575,4.575,0,0,1,2.838.179,5.052,5.052,0,0,1,2.121,1.714,5.411,5.411,0,0,1,.857,3.248v6.99H144.07V47.492a6.264,6.264,0,0,0-.113-1.241A3.1,3.1,0,0,0,143.439,45.1Z" transform="translate(-63.691 -38.202)" fill="#515051"/>
      <path id="Path_138" data-name="Path 138" d="M162.657,55.078a5.524,5.524,0,0,1-2.006.61,18.127,18.127,0,0,1-1.873.111,4.724,4.724,0,0,1-2.841-.878,3.34,3.34,0,0,1-1.218-2.909,3.138,3.138,0,0,1,1.105-2.708,6.4,6.4,0,0,1,2.819-1.079,2.573,2.573,0,0,0,.539-.069,7.213,7.213,0,0,1,.723-.113q1.987-.27,1.985-1.172a.854.854,0,0,0-.7-.88,4.67,4.67,0,0,0-1.286-.2,3.3,3.3,0,0,0-1.128.181,1.227,1.227,0,0,0-.72.675h-3.022a3.465,3.465,0,0,1,1.262-2.3,5.209,5.209,0,0,1,3.473-1.036,6.8,6.8,0,0,1,3.786.856,2.9,2.9,0,0,1,1.311,2.526v4.1a5.176,5.176,0,0,1-.655,2.818A4,4,0,0,1,162.657,55.078Zm-.723-5.546a8.406,8.406,0,0,1-1.757.586l-1.038.227a2.618,2.618,0,0,0-1.171.586,1.83,1.83,0,0,0-.316.991,1.469,1.469,0,0,0,.406,1.084,1.709,1.709,0,0,0,1.172.361,2.494,2.494,0,0,0,2.7-2.708Z" transform="translate(-70.541 -40.062)" fill="#515051"/>
      <path id="Path_139" data-name="Path 139" d="M172.187,55.73V49.912a7.434,7.434,0,0,1,.518-2.953,4.9,4.9,0,0,1,1.421-1.917,5.562,5.562,0,0,1,2.006-.992,8.967,8.967,0,0,1,2.366-.315h.453v3.2h-1.035a2.638,2.638,0,0,0-1.941.633,2.709,2.709,0,0,0-.631,1.983V55.73Z" transform="translate(-76.901 -40.217)" fill="#515051"/>
      <path id="Path_140" data-name="Path 140" d="M194.579,55.575H191.47V47.909a1.855,1.855,0,0,0-.654-1.578,2.363,2.363,0,0,0-1.466-.5,2.271,2.271,0,0,0-1.445.5,1.883,1.883,0,0,0-.628,1.578v7.666h-3.16V48.539q0-3.066,1.6-4.1a7,7,0,0,1,3.537-1.127,9.194,9.194,0,0,1,2.032.224,4.289,4.289,0,0,1,1.8.9,3.99,3.99,0,0,1,1.6-.834,8.976,8.976,0,0,1,1.917-.293,6.792,6.792,0,0,1,3.653,1.036q1.665,1.038,1.668,4.194v7.036h-1.577a1.467,1.467,0,0,1-1.532-1.534V47.909a1.858,1.858,0,0,0-.654-1.578,2.411,2.411,0,0,0-2.931,0,1.851,1.851,0,0,0-.657,1.578v7.666Z" transform="translate(-81.244 -40.062)" fill="#515051"/>
    </g>
    <path id="Path_141" data-name="Path 141" d="M243.361,54.931a5.967,5.967,0,0,0,1.952-7.237,5.715,5.715,0,0,0-.627-1,11.1,11.1,0,0,0-.995-1.118,5.039,5.039,0,0,1-2.768,2.106,17.764,17.764,0,0,1-4.95.728C240.031,51.048,242,52.481,243.361,54.931Zm-.4-1.231.005.007-.019.006A.071.071,0,0,0,242.964,53.7Z" transform="translate(-77.787 -13.617)" fill="#afb5d5"/>
    <path id="Path_142" data-name="Path 142" d="M245.282,25.2c-2.2-3.563-5.211-5.469-11.62-9.155a35.853,35.853,0,0,1-9.683-7.864S218,12.739,221.826,20.271c0,0,1.8,2.929,6.966,6.157,4.488,2.8,7.042,3.326,9.276,5.516a10.854,10.854,0,0,1,.992,1.116,5.572,5.572,0,0,1,.637,1.017,5.967,5.967,0,0,1-1.952,7.237.054.054,0,0,1,.006.014.106.106,0,0,1,.016.026C238.967,40.906,250.745,36.15,245.282,25.2Z" transform="translate(-72.169)" fill="#0d3692"/>
    <path id="Path_143" data-name="Path 143" d="M238,53.167l-.024-.041a.105.105,0,0,0-.016-.026.054.054,0,0,0-.006-.014c-1.362-2.45-3.33-3.883-7.388-6.523l-.324-.213a24.968,24.968,0,0,1-6.457-5.843,6.631,6.631,0,0,0-1.953,8.352,15.6,15.6,0,0,0,4.625,4.553c3.026,2.122,4.788,2.581,6.263,4.192a7.914,7.914,0,0,1,.649.815,4.1,4.1,0,0,1-1.284,5.751.005.005,0,0,1,.005,0C232.161,64.152,241.56,61.393,238,53.167Z" transform="translate(-72.374 -11.772)" fill="#0d3692"/>
  </g>
</svg>
