<svg xmlns="http://www.w3.org/2000/svg" width="64.867" height="64.863" viewBox="0 0 64.867 64.863">
  <g id="Group_59" data-name="Group 59" transform="translate(-772.047 -575.024)">
    <g id="Group_58" data-name="Group 58" transform="translate(772.047 575.024)">
      <rect id="Rectangle_72" data-name="Rectangle 72" width="64.867" height="64.863" transform="translate(0)"/>
      <path id="Path_89" data-name="Path 89" d="M785.467,672.97v14.288h4.742v-2.031h-2.766V672.97Z" transform="translate(-782.396 -650.557)" fill="#fff"/>
      <path id="Path_90" data-name="Path 90" d="M812.817,679.373l.854,3.91h-1.737Zm-.589-6.4-3.107,14.288,1.977-.008.505-2.014h2.489l.483,1.975h1.96l-3.083-14.241Z" transform="translate(-800.636 -650.557)" fill="#fff"/>
    </g>
    <path id="Path_91" data-name="Path 91" d="M864.714,681.917a7.563,7.563,0,0,1-1.952,5.184l-1.589-1.565a6.8,6.8,0,0,0,.973-1.62,5.45,5.45,0,0,0,.292-1.9,12.067,12.067,0,0,0-.735-3.308,12.341,12.341,0,0,1-.735-3.038,3.74,3.74,0,0,1-.039-.546,4.421,4.421,0,0,1,.229-1.351,3.8,3.8,0,0,1,.948-1.431l1.779.878a3.548,3.548,0,0,0-.83,2.449,13.506,13.506,0,0,0,.781,2.861,16.136,16.136,0,0,1,.878,3.383" transform="translate(-68.542 -75.051)" fill="#fff"/>
    <path id="Path_92" data-name="Path 92" d="M882.192,687.308V675.02H880.2v-1.984h5.959v1.984H884.19v12.289Z" transform="translate(-83.403 -75.583)" fill="#fff"/>
    <path id="Path_93" data-name="Path 93" d="M917.667,687.327l-2.386-.007-1.985-3.848V687.3h-1.944V673.071h1.115a4.564,4.564,0,0,1,3,1.707,5.81,5.81,0,0,1,1.28,2.568,8.674,8.674,0,0,1,.1,1.264,7.672,7.672,0,0,1-.1,1.21,5.515,5.515,0,0,1-1.73,2.758Zm-2.844-8.66a4.32,4.32,0,0,0-.31-1.778,3.069,3.069,0,0,0-1.217-1.3v5.437a1.567,1.567,0,0,0,1.178-.878,3.04,3.04,0,0,0,.349-1.477" transform="translate(-107.427 -75.61)" fill="#fff"/>
    <path id="Path_94" data-name="Path 94" d="M942.642,687.257l3.107-14.288h1.224l3.084,14.241H948.1l-.482-1.975h-2.489l-.506,2.014Zm2.814-3.975h1.736l-.854-3.909Z" transform="translate(-131.557 -75.532)" fill="#fff"/>
    <path id="Path_95" data-name="Path 95" d="M979.958,687.3H978.8V673.071h1.114a4.486,4.486,0,0,1,3.794,1.707,6.763,6.763,0,0,1,1.335,3.431,16.485,16.485,0,0,1-.016,3.943,7.026,7.026,0,0,1-1.359,3.414,4.356,4.356,0,0,1-3.715,1.738m3.343-7.057a8.052,8.052,0,0,0-.7-3.848,2.557,2.557,0,0,0-1.851-1.367v10.3a2.731,2.731,0,0,0,1.707-1.383,6.808,6.808,0,0,0,.846-3.7" transform="translate(-159.444 -75.61)" fill="#fff"/>
    <path id="Path_96" data-name="Path 96" d="M1009.372,687.257l3.1-14.288h1.225l3.082,14.241h-1.959l-.482-1.975h-2.49l-.506,2.014Zm2.813-3.975h1.737l-.855-3.909Z" transform="translate(-183.017 -75.532)" fill="#fff"/>
    <path id="Path_97" data-name="Path 97" d="M1034.745,673.4v-.417H1035l.092.01.082.034.058.061.024.1-.031.12-.078.063-.1.028-.116,0h-.183m.294-.556h-.437v1.235h.143v-.541h.2l.341.541h.161l-.339-.541.11-.036.09-.067.062-.1a.382.382,0,0,0,.023-.147.362.362,0,0,0-.081-.255.369.369,0,0,0-.276-.088m-.081,1.539a.765.765,0,0,1-.329-.07.887.887,0,0,1-.267-.2.945.945,0,0,1-.181-.292.974.974,0,0,1-.067-.357.985.985,0,0,1,.067-.359.963.963,0,0,1,.181-.291.916.916,0,0,1,.267-.2.754.754,0,0,1,.329-.069.763.763,0,0,1,.331.069.905.905,0,0,1,.268.2,1.04,1.04,0,0,1,.18.291.989.989,0,0,1,.065.359.978.978,0,0,1-.065.357,1.019,1.019,0,0,1-.18.292.877.877,0,0,1-.268.2.774.774,0,0,1-.331.07m0-1.991a.889.889,0,0,0-.383.087,1.013,1.013,0,0,0-.312.231,1.109,1.109,0,0,0-.213.34,1.178,1.178,0,0,0,0,.833,1.2,1.2,0,0,0,.213.342.988.988,0,0,0,.312.229.9.9,0,0,0,.768,0,1.041,1.041,0,0,0,.314-.229,1.177,1.177,0,0,0,.209-.342,1.112,1.112,0,0,0,0-.833,1.091,1.091,0,0,0-.209-.34,1.068,1.068,0,0,0-.314-.231.89.89,0,0,0-.385-.087" transform="translate(-201.989 -75.091)" fill="#fff"/>
    <path id="Path_98" data-name="Path 98" d="M788.238,750.941l.243.194a1.494,1.494,0,0,1-2.233.049,1.718,1.718,0,0,1,0-2.295,1.494,1.494,0,0,1,2.233.05l-.253.208a1.078,1.078,0,0,0-.879-.437,1.09,1.09,0,0,0-.859.4,1.4,1.4,0,0,0,0,1.847,1.092,1.092,0,0,0,.859.4,1.118,1.118,0,0,0,.889-.422" transform="translate(-10.613 -133.712)" fill="#fff"/>
    <path id="Path_99" data-name="Path 99" d="M803.119,751.184a1.5,1.5,0,0,1-2.2,0,1.717,1.717,0,0,1,0-2.295,1.505,1.505,0,0,1,2.2,0,1.724,1.724,0,0,1,0,2.295m-1.957-.223a1.116,1.116,0,0,0,1.716,0,1.408,1.408,0,0,0,0-1.848,1.116,1.116,0,0,0-1.716,0,1.4,1.4,0,0,0,0,1.848" transform="translate(-21.928 -133.712)" fill="#fff"/>
    <path id="Path_100" data-name="Path 100" d="M817.606,751.263V748l2.012,2.583v-2.414h.3v3.268l-2.011-2.583v2.409Z" transform="translate(-35.134 -133.393)" fill="#fff"/>
    <path id="Path_101" data-name="Path 101" d="M832,751.813V749h-.914v-.3h2.131v.3H832.3v2.817Z" transform="translate(-45.527 -133.928)" fill="#fff"/>
    <path id="Path_102" data-name="Path 102" d="M843.153,751.813v-3.119h2.121v.3h-1.818v1.118h1.465v.288h-1.465v1.108h1.818v.3Z" transform="translate(-54.834 -133.928)" fill="#fff"/>
    <path id="Path_103" data-name="Path 103" d="M856.219,751.412v-3.238l1.351,1.391,1.346-1.391v3.238h-.3v-2.488l-1.043,1.1-1.048-1.1v2.488Z" transform="translate(-64.911 -133.527)" fill="#fff"/>
    <path id="Path_104" data-name="Path 104" d="M872,751.813v-3.119h1.351a.937.937,0,0,1,.718.283,1.036,1.036,0,0,1,.266.74.988.988,0,0,1-.266.723.961.961,0,0,1-.718.27H872.3v1.1Zm.3-1.406h1a.729.729,0,0,0,.524-.191.682.682,0,0,0,.2-.519.67.67,0,0,0-.2-.514.738.738,0,0,0-.526-.187h-1Z" transform="translate(-77.079 -133.928)" fill="#fff"/>
    <path id="Path_105" data-name="Path 105" d="M887.268,751.184a1.5,1.5,0,0,1-2.2,0,1.717,1.717,0,0,1,0-2.295,1.505,1.505,0,0,1,2.2,0,1.724,1.724,0,0,1,0,2.295m-1.957-.223a1.116,1.116,0,0,0,1.716,0,1.408,1.408,0,0,0,0-1.848,1.116,1.116,0,0,0-1.716,0,1.4,1.4,0,0,0,0,1.848" transform="translate(-86.821 -133.712)" fill="#fff"/>
    <path id="Path_106" data-name="Path 106" d="M901.171,751.813v-3.119h1.351a.937.937,0,0,1,.718.283,1.037,1.037,0,0,1,.265.74.905.905,0,0,1-.224.618,1,1,0,0,1-.586.326l.735,1.152h-.387l-.651-1.078h-.919v1.078Zm.3-1.381h1a.722.722,0,0,0,.527-.194.694.694,0,0,0,.2-.521.7.7,0,0,0-.2-.524.716.716,0,0,0-.527-.2h-1Z" transform="translate(-99.576 -133.928)" fill="#fff"/>
    <path id="Path_107" data-name="Path 107" d="M914.972,751.6v-1.922a1.238,1.238,0,0,1,.35-.9,1.313,1.313,0,0,1,1.8,0,1.247,1.247,0,0,1,.347.9V751.6h-.3v-.705h-1.892v.705Zm.3-1h1.892v-.829a1.149,1.149,0,0,0-.243-.75.852.852,0,0,0-.7-.3.862.862,0,0,0-.7.3,1.131,1.131,0,0,0-.248.75Z" transform="translate(-110.219 -133.712)" fill="#fff"/>
    <path id="Path_108" data-name="Path 108" d="M929.864,751.813v-3.119h1.351a.937.937,0,0,1,.718.283,1.038,1.038,0,0,1,.266.74.906.906,0,0,1-.223.618,1,1,0,0,1-.586.326l.735,1.152h-.388l-.651-1.078h-.919v1.078Zm.3-1.381h1a.722.722,0,0,0,.527-.194.693.693,0,0,0,.2-.521.7.7,0,0,0-.2-.524.716.716,0,0,0-.527-.2h-1Z" transform="translate(-121.703 -133.928)" fill="#fff"/>
    <path id="Path_109" data-name="Path 109" d="M943.672,751.813v-1.4l-1-1.719h.343l.815,1.465.814-1.465h.343l-1.008,1.719v1.4Z" transform="translate(-131.577 -133.928)" fill="#fff"/>
    <path id="Path_110" data-name="Path 110" d="M963.346,750.186V749.9h1.117v1.147a1.79,1.79,0,0,1-.589.45,1.621,1.621,0,0,1-.713.167,1.507,1.507,0,0,1-1.128-.479,1.659,1.659,0,0,1-.007-2.29,1.478,1.478,0,0,1,1.115-.479,1.654,1.654,0,0,1,.66.139,1.506,1.506,0,0,1,.542.388l-.254.208a1.131,1.131,0,0,0-.422-.32,1.267,1.267,0,0,0-.527-.117,1.13,1.13,0,0,0-.877.4,1.348,1.348,0,0,0-.36.921,1.33,1.33,0,0,0,.37.922,1.161,1.161,0,0,0,.887.4,1.462,1.462,0,0,0,.546-.109,1.271,1.271,0,0,0,.457-.3v-.765Z" transform="translate(-146.156 -133.712)" fill="#fff"/>
    <path id="Path_111" data-name="Path 111" d="M977.441,751.813v-3.119h2.121v.3h-1.818v1.118h1.466v.288h-1.466v1.108h1.818v.3Z" transform="translate(-158.392 -133.928)" fill="#fff"/>
    <path id="Path_112" data-name="Path 112" d="M990.637,751.813v-3.119h.3v2.817h1.8v.3Z" transform="translate(-168.569 -133.928)" fill="#fff"/>
    <path id="Path_113" data-name="Path 113" d="M1002.791,751.6v-1.922a1.238,1.238,0,0,1,.35-.9,1.312,1.312,0,0,1,1.8,0,1.245,1.245,0,0,1,.347.9V751.6h-.3v-.705h-1.892v.705Zm.3-1h1.892v-.829a1.147,1.147,0,0,0-.243-.75.852.852,0,0,0-.7-.3.861.861,0,0,0-.7.3,1.132,1.132,0,0,0-.248.75Z" transform="translate(-177.942 -133.712)" fill="#fff"/>
    <path id="Path_114" data-name="Path 114" d="M1017.988,751.813V749h-.914v-.3h2.131v.3h-.914v2.817Z" transform="translate(-188.957 -133.928)" fill="#fff"/>
    <path id="Path_115" data-name="Path 115" d="M1031.518,751.184a1.5,1.5,0,0,1-2.2,0,1.717,1.717,0,0,1,0-2.295,1.505,1.505,0,0,1,2.2,0,1.724,1.724,0,0,1,0,2.295m-1.957-.223a1.117,1.117,0,0,0,1.716,0,1.408,1.408,0,0,0,0-1.848,1.116,1.116,0,0,0-1.716,0,1.4,1.4,0,0,0,0,1.848" transform="translate(-198.061 -133.712)" fill="#fff"/>
  </g>
</svg>
