<svg xmlns="http://www.w3.org/2000/svg" width="69.805" height="61.784" viewBox="0 0 69.805 61.784">
  <g id="Group_69" data-name="Group 69" transform="translate(-3.906 -6.596)">
    <path id="Path_157" data-name="Path 157" d="M20.216,6.6l3.463,2.976L14.158,39.046l-3.632-2.638Z" transform="translate(2.834 0.002)" fill="#b1222f"/>
    <path id="Path_158" data-name="Path 158" d="M40.443,6.6,36.956,9.577l9.521,29.471,3.632-2.639Z" transform="translate(14.147)" fill="#ec3635"/>
    <path id="Path_159" data-name="Path 159" d="M13.067,36.111,30.513,13.457l1.849,1.614-8.48,28.883Z" transform="translate(3.922 2.937)" fill="#ec3635"/>
    <path id="Path_160" data-name="Path 160" d="M23.58,35.788l-4.029-11.93,8.189-10.4,1.854,1.594Z" transform="translate(6.697 2.937)" fill="#c2c4c3"/>
    <path id="Path_161" data-name="Path 161" d="M22.59,8.684,13.069,38.153,30.514,15.5Z" transform="translate(3.922 0.894)" fill="#fff"/>
    <path id="Path_162" data-name="Path 162" d="M31.654,51.413V16.744l-2.532-2.157L20.641,43.47Z" transform="translate(7.163 3.421)" fill="#b1222f"/>
    <path id="Path_163" data-name="Path 163" d="M22.344,35.192l8.581.119,0-18.562L28.4,14.574Z" transform="translate(7.892 3.415)" fill="#fff"/>
    <path id="Path_164" data-name="Path 164" d="M26.582,14.574l2.529,15.907V16.749Z" transform="translate(9.707 3.415)" fill="#dcdedc"/>
    <path id="Path_165" data-name="Path 165" d="M49.422,36.111,31.977,13.457l-1.85,1.614,8.48,28.883Z" transform="translate(11.224 2.937)" fill="#b1222f"/>
    <path id="Path_166" data-name="Path 166" d="M36.137,35.788l4.029-11.93-8.188-10.4-1.854,1.594Z" transform="translate(11.222 2.937)" fill="#c2c4c3"/>
    <path id="Path_167" data-name="Path 167" d="M39.344,8.684l9.522,29.469L31.421,15.5Z" transform="translate(11.778 0.894)" fill="#fff"/>
    <path id="Path_168" data-name="Path 168" d="M28.353,51.413V16.744l2.529-2.157L39.367,43.47Z" transform="translate(10.464 3.421)" fill="#ec3635"/>
    <path id="Path_169" data-name="Path 169" d="M36.935,35.192l-8.583.119,0-18.562,2.528-2.175Z" transform="translate(10.464 3.415)" fill="#dcdedc"/>
    <path id="Path_170" data-name="Path 170" d="M30.882,14.574,28.353,30.481V16.749Z" transform="translate(10.465 3.415)" fill="#a8aaab"/>
    <path id="Path_171" data-name="Path 171" d="M33.077,6.6l0,13.562L17.312,6.6Z" transform="translate(5.738 0.002)" fill="#b1222f"/>
    <path id="Path_172" data-name="Path 172" d="M28.352,6.6l0,13.562L44.125,6.6Z" transform="translate(10.464 0.002)" fill="#ec3635"/>
    <path id="Path_173" data-name="Path 173" d="M3.906,51.288l1.527-1.824a5.126,5.126,0,0,0,3.21,1.188c.751,0,1.147-.254,1.147-.678v-.03c0-.423-.324-.635-1.684-.961C6,48.5,4.372,47.909,4.372,45.885v-.03c0-1.836,1.458-3.167,3.834-3.167A6.233,6.233,0,0,1,12.279,44l-1.372,1.938a4.848,4.848,0,0,0-2.772-.975c-.664,0-.99.268-.99.635v.03c0,.453.338.651,1.727.961,2.262.5,3.677,1.231,3.677,3.085v.029c0,2.022-1.6,3.225-4,3.225a6.938,6.938,0,0,1-4.638-1.641Z" transform="translate(0 15.449)" fill="#ec3635"/>
    <path id="Path_174" data-name="Path 174" d="M16.554,48.81l-1.1-2.8-1.118,2.8Zm-2.406-6.052H16.8l4.214,9.971H18.068l-.708-1.781H13.525l-.707,1.781H9.948Z" transform="translate(2.586 15.479)" fill="#ec3635"/>
    <path id="Path_175" data-name="Path 175" d="M18.119,42.807h2.9l2.363,3.834,2.362-3.834h2.9v9.9h-2.73V47.022L23.381,50.9h-.055l-2.519-3.861v5.672H18.119Z" transform="translate(6.084 15.5)" fill="#ec3635"/>
    <path id="Path_176" data-name="Path 176" d="M26.469,42.807h7.965v2.32H29.185v1.514h4.752V48.8H29.185v1.571H34.5v2.333H26.469Z" transform="translate(9.658 15.5)" fill="#ec3635"/>
    <path id="Path_177" data-name="Path 177" d="M35.583,45.226v5.05H36.7a2.433,2.433,0,0,0,2.745-2.5v-.029A2.45,2.45,0,0,0,36.7,45.226Zm-2.745-2.419h3.834c3.52,0,5.572,2.036,5.572,4.9v.027c0,2.858-2.079,4.98-5.629,4.98H32.838Z" transform="translate(12.384 15.5)" fill="#ec3635"/>
    <path id="Path_178" data-name="Path 178" d="M45.745,48.81l-1.105-2.8-1.117,2.8Zm-2.406-6.052h2.646L50.2,52.729H47.257l-.707-1.781H42.716l-.707,1.781H39.137Z" transform="translate(15.081 15.479)" fill="#ec3635"/>
    <path id="Path_179" data-name="Path 179" d="M49.363,49l-3.777-6.2h3.128l2.036,3.607L52.8,42.807h3.07l-3.763,6.152v3.75H49.363Z" transform="translate(17.841 15.5)" fill="#ec3635"/>
  </g>
</svg>
