<svg xmlns="http://www.w3.org/2000/svg" width="113.021" height="22.156" viewBox="0 0 113.021 22.156">
  <g id="Group_68" data-name="Group 68" transform="translate(-0.026)">
    <g id="Group_66" data-name="Group 66" transform="translate(0.026 7.65)">
      <path id="Path_147" data-name="Path 147" d="M7.639,29.854v-5.97H2.811v5.97H.026V15.589H2.811v5.83H7.639v-5.83h2.785V29.854Z" transform="translate(-0.026 -15.469)"/>
      <path id="Path_148" data-name="Path 148" d="M35.712,28.29a5.539,5.539,0,0,1-7.714,0c-1.442-1.442-1.4-3.225-1.4-5.689s-.04-4.247,1.4-5.69a5.541,5.541,0,0,1,7.714,0c1.442,1.443,1.422,3.225,1.422,5.69S37.154,26.848,35.712,28.29Zm-2.064-9.7a2.314,2.314,0,0,0-1.783-.761,2.362,2.362,0,0,0-1.8.761c-.54.6-.68,1.263-.68,4.007s.141,3.405.68,4.007a2.36,2.36,0,0,0,1.8.763,2.312,2.312,0,0,0,1.783-.763c.541-.6.7-1.262.7-4.007S34.188,19.2,33.647,18.593Z" transform="translate(-13.352 -15.348)"/>
      <path id="Path_149" data-name="Path 149" d="M56.231,18.073v3.506h5.63v2.484h-5.63v5.79H53.446V15.589h9.4v2.484Z" transform="translate(-26.819 -15.469)"/>
      <path id="Path_150" data-name="Path 150" d="M79.4,29.853a6.7,6.7,0,0,1-5.209-1.884l1.8-1.8a4.667,4.667,0,0,0,3.446,1.2c1.643,0,2.525-.622,2.525-1.765a1.591,1.591,0,0,0-.441-1.2,2.127,2.127,0,0,0-1.262-.5l-1.724-.24a4.847,4.847,0,0,1-2.764-1.182,3.769,3.769,0,0,1-1.021-2.8c0-2.546,1.883-4.328,4.969-4.328a6.113,6.113,0,0,1,4.608,1.663L82.56,18.754a3.969,3.969,0,0,0-2.925-.982c-1.482,0-2.2.821-2.2,1.8a1.374,1.374,0,0,0,.421,1.022,2.462,2.462,0,0,0,1.322.561l1.683.24a4.725,4.725,0,0,1,2.725,1.1,4,4,0,0,1,1.1,3.027C84.684,28.29,82.38,29.853,79.4,29.853Z" transform="translate(-37.221 -15.348)"/>
      <path id="Path_151" data-name="Path 151" d="M104.894,18.073v11.78H102.11V18.073H98.383V15.589h10.238v2.484Z" transform="translate(-49.357 -15.469)"/>
      <path id="Path_152" data-name="Path 152" d="M123.464,29.854V15.589h9.4v2.484h-6.612v3.346h5.631V23.9h-5.631v3.466h6.612v2.484Z" transform="translate(-61.936 -15.469)"/>
      <path id="Path_153" data-name="Path 153" d="M180.788,29.854V15.589h9.4v2.484h-6.611v3.346H189.2V23.9h-5.629v3.466h6.611v2.484Z" transform="translate(-90.687 -15.469)"/>
      <path id="Path_154" data-name="Path 154" d="M212.68,29.854,209.9,24.164h-2v5.689h-2.785V15.589H210.7a4.311,4.311,0,0,1,4.628,4.368,3.84,3.84,0,0,1-2.6,3.746l3.187,6.151Zm-2.164-11.78h-2.624V21.84h2.624a1.888,1.888,0,1,0,0-3.767Z" transform="translate(-102.885 -15.469)"/>
    </g>
    <g id="Group_67" data-name="Group 67" transform="translate(68.952)">
      <path id="Path_155" data-name="Path 155" d="M138.307,0V4.839h5.429V22.094H149.2V0Z" transform="translate(-138.307)" fill="#b80b0f"/>
    </g>
    <path id="Path_156" data-name="Path 156" d="M162.823,0V22.094h5.466V4.839h5.429V0Zm10.141,3.075h-1.209v1.21h-1.228V3.075h-1.209V1.849h1.209V.64h1.228V1.849h1.209Z" transform="translate(-81.651)" fill="#b80b0f"/>
  </g>
</svg>
