<svg xmlns="http://www.w3.org/2000/svg" width="85.444" height="76.758" viewBox="0 0 85.444 76.758">
  <g id="Group_123" data-name="Group 123" transform="translate(-4.002 -20.45)">
    <path id="Path_259" data-name="Path 259" d="M45.7,96.028c-2.061-2.066-4.941-3.553-7.989-5.127-4.1-2.116-8.707-4.5-12.462-8.842a74.253,74.253,0,0,0-10.93,4.314l-2.669,1.308.279-2.959c.219-2.316.535-4.663.941-6.991-1.924-1.21-3.921-2.356-5.952-3.416L4,72.793l2.956-1.448a90.926,90.926,0,0,1,11.519-4.693,62.65,62.65,0,0,1-.846-10.706V29.191l.583-.5c.394-.336,9.865-8.242,28.649-8.242s28.256,7.906,28.65,8.242l.584.5-.018,26.747a62.8,62.8,0,0,1-.845,10.709,90.985,90.985,0,0,1,11.536,4.7l2.676,1.311-2.52,1.591c-1.873,1.183-3.716,2.441-5.489,3.747.2,2.287.325,4.588.367,6.854l.05,2.724-2.446-1.2a74.192,74.192,0,0,0-10.936-4.316C64.724,86.4,60.121,88.786,56.031,90.9c-3.041,1.574-5.914,3.061-7.973,5.125l-1.178,1.18Z" fill="#f4e452"/>
    <g id="Group_122" data-name="Group 122" transform="translate(7.69 22.115)">
      <path id="Path_260" data-name="Path 260" d="M111.232,33.963s-9.184-7.843-27.569-7.843-27.568,7.843-27.568,7.843V59.952c0,32.035,19.086,30.39,27.584,38.905,8.5-8.516,27.535-6.881,27.535-38.915Z" transform="translate(-44.49 -26.12)" fill="#15163b"/>
      <path id="Path_261" data-name="Path 261" d="M115.7,46s-8.122-6.938-24.39-6.938S66.917,46,66.917,46V69c0,28.339,16.887,26.887,24.407,34.418,7.516-7.531,24.359-6.085,24.359-34.426Z" transform="translate(-52.135 -35.265)" fill="#f4e452"/>
      <g id="Group_117" data-name="Group 117" transform="translate(0 41.645)">
        <g id="Group_116" data-name="Group 116">
          <g id="Group_114" data-name="Group 114">
            <path id="Path_262" data-name="Path 262" d="M89.015,189.091a75.639,75.639,0,0,0-66.552,0q.374-3.952,1.121-7.95-3.363-2.179-7.018-4.089a89.042,89.042,0,0,1,78.347,0q-3.3,2.08-6.345,4.378Q88.945,185.284,89.015,189.091Z" transform="translate(-16.565 -167.972)" fill="#15163b"/>
          </g>
          <g id="Group_115" data-name="Group 115" transform="translate(27.411 4.462)">
            <path id="Path_263" data-name="Path 263" d="M109.935,185.823q.322-.045.644-.088l.508,3.827q1.008-.133,2.017-.242l.05.467q-1.311.14-2.617.324Z" transform="translate(-109.935 -184.982)" fill="#f4e452"/>
            <path id="Path_264" data-name="Path 264" d="M124.455,186.171q-.935.063-1.869.148.071.778.142,1.556,1.025-.093,2.052-.16.015.234.031.469-1.329.087-2.655.217l-.425-4.309q1.342-.132,2.687-.222.016.234.031.469-1.015.068-2.029.16.062.681.124,1.362.939-.085,1.879-.149Q124.44,185.941,124.455,186.171Z" transform="translate(-118.268 -183.664)" fill="#f4e452"/>
            <path id="Path_265" data-name="Path 265" d="M134.75,186.382q-.218.693-.428,1.386l-.63.035q.676-2.209,1.44-4.407.383-.015.767-.027.914,2.138,1.741,4.3-.325,0-.651.009-.266-.677-.539-1.352Q135.6,186.344,134.75,186.382Zm1.568-.493q-.256-.617-.52-1.231c-.118-.277-.2-.533-.28-.781H135.5c-.063.252-.128.524-.219.791q-.215.635-.423,1.272Q135.588,185.909,136.318,185.889Z" transform="translate(-126.717 -183.311)" fill="#f4e452"/>
            <path id="Path_266" data-name="Path 266" d="M152.039,187.4a4.907,4.907,0,0,1-1.465.19,2.655,2.655,0,0,1-1.761-.6,2.152,2.152,0,0,1-.673-1.611c-.015-1.29,1.005-2.251,2.679-2.211a3.364,3.364,0,0,1,1.24.24l-.181.45a2.67,2.67,0,0,0-1.087-.222,1.714,1.714,0,0,0-1.991,1.716,1.688,1.688,0,0,0,1.825,1.771,2.227,2.227,0,0,0,.821-.091q.022-.645.044-1.289-.486-.017-.972-.028.005-.226.01-.452.8.018,1.6.051Q152.083,186.356,152.039,187.4Z" transform="translate(-136.924 -183.169)" fill="#f4e452"/>
            <path id="Path_267" data-name="Path 267" d="M165.618,183.679q-.078,1.282-.156,2.564c-.057.964.389,1.4,1.021,1.449.694.052,1.185-.327,1.271-1.277l.228-2.559.648.06-.244,2.519a1.682,1.682,0,0,1-1.961,1.712c-.959-.071-1.658-.607-1.59-1.957l.136-2.548Z" transform="translate(-148.714 -183.503)" fill="#f4e452"/>
            <path id="Path_268" data-name="Path 268" d="M182.629,187.563q-.93-.131-1.862-.241-.092.776-.183,1.552,1.023.121,2.043.267l-.067.465q-1.319-.19-2.643-.336l.474-4.3q1.34.148,2.675.338l-.066.465q-1.008-.144-2.02-.263l-.16,1.358q.937.11,1.872.242Z" transform="translate(-159.372 -184.438)" fill="#f4e452"/>
          </g>
        </g>
      </g>
      <path id="Path_269" data-name="Path 269" d="M145.242,138.009l-1.976-1.979,1.976-1.975,1.976,1.975Z" transform="translate(-106.069 -102.367)" fill="#15163b"/>
      <g id="Group_119" data-name="Group 119" transform="translate(35.21 58.669)">
        <g id="Group_118" data-name="Group 118">
          <path id="Path_270" data-name="Path 270" d="M138.994,229.777v.626l-2.5-1.27v-.557l2.5-1.269v.624l-1.776.923Z" transform="translate(-136.497 -226.911)" fill="#15163b"/>
          <path id="Path_271" data-name="Path 271" d="M146.354,230.4l1.652-4.436h.486l-1.652,4.436Z" transform="translate(-143.46 -225.959)" fill="#15163b"/>
          <path id="Path_272" data-name="Path 272" d="M154.989,227.931v-.624l2.5,1.269v.556l-2.5,1.271v-.626l1.783-.923Z" transform="translate(-149.56 -226.911)" fill="#15163b"/>
        </g>
      </g>
      <g id="Group_121" data-name="Group 121" transform="translate(27.291 10.675)">
        <g id="Group_120" data-name="Group 120">
          <path id="Path_273" data-name="Path 273" d="M109.523,76.712l2.76-1.668c.531.944,1.015,1.742,2.176,1.742,1.114,0,1.816-.439,1.816-2.13V63.133h3.388V74.7c0,3.511-2.057,5.108-5.058,5.108A5.255,5.255,0,0,1,109.523,76.712Z" transform="translate(-109.523 -62.942)" fill="#15163b"/>
          <path id="Path_274" data-name="Path 274" d="M150.329,75.887l2.758-1.594a3.7,3.7,0,0,0,3.342,2.057c1.4,0,2.3-.7,2.3-1.67,0-1.161-.918-1.574-2.467-2.251l-.849-.361c-2.443-1.042-4.063-2.349-4.063-5.109,0-2.542,1.934-4.475,4.958-4.475a5.005,5.005,0,0,1,4.818,2.706l-2.637,1.7a2.31,2.31,0,0,0-2.181-1.452,1.474,1.474,0,0,0-1.621,1.452c0,1.015.632,1.427,2.081,2.058l.85.36c2.879,1.238,4.5,2.5,4.5,5.328,0,3.049-2.394,4.72-5.613,4.72A6.509,6.509,0,0,1,150.329,75.887Z" transform="translate(-138.349 -62.483)" fill="#15163b"/>
        </g>
      </g>
    </g>
  </g>
</svg>
