<svg xmlns="http://www.w3.org/2000/svg" width="117.931" height="28.192" viewBox="0 0 117.931 28.192">
  <g id="Foundation_logo_RGB" transform="translate(-36.48 -62.411)">
    <path id="Path_68" data-name="Path 68" d="M191.683,66.68v6.487a3.365,3.365,0,0,0,.706,2.355,2.533,2.533,0,0,0,1.947.759,2.44,2.44,0,0,0,1.918-.767,3.419,3.419,0,0,0,.688-2.346V66.68h1.388v6.487a4.545,4.545,0,0,1-1.1,3.319,4.415,4.415,0,0,1-5.858,0,4.545,4.545,0,0,1-1.1-3.319V66.68Z" transform="translate(-120.081 -3.333)" fill="#231f20"/>
    <path id="Path_69" data-name="Path 69" d="M237.784,62.65a1.118,1.118,0,0,1,1.381,0,.877.877,0,0,1,0,1.241,1.118,1.118,0,0,1-1.381,0,.877.877,0,0,1,0-1.241Zm1.381,3.089V74.16h-1.4V65.739Z" transform="translate(-156.969)" fill="#231f20"/>
    <path id="Path_70" data-name="Path 70" d="M258.627,73.137v4.356h-1.4V66.68h3.435a3.922,3.922,0,0,1,2.776.866,3.1,3.1,0,0,1,.921,2.37,3.015,3.015,0,0,1-.951,2.37,3.988,3.988,0,0,1-2.745.851Zm3.749-1.7a2.362,2.362,0,0,0,0-3.052,2.683,2.683,0,0,0-1.833-.535h-1.916V71.97h1.916A2.583,2.583,0,0,0,262.376,71.433Z" transform="translate(-172.353 -3.333)" fill="#231f20"/>
    <path id="Path_71" data-name="Path 71" d="M296.923,77.709a3.192,3.192,0,0,1,1.188,1.64V77.2h1.4v8.421h-1.4V83.475a3.19,3.19,0,0,1-1.188,1.642,3.468,3.468,0,0,1-2.078.612,3.828,3.828,0,0,1-1.993-.52,3.617,3.617,0,0,1-1.372-1.5,5.6,5.6,0,0,1,.011-4.593,3.6,3.6,0,0,1,1.372-1.5,3.828,3.828,0,0,1,1.993-.522A3.471,3.471,0,0,1,296.923,77.709Zm-3.738,1.449a3.694,3.694,0,0,0,0,4.525,2.712,2.712,0,0,0,2.063.82,2.85,2.85,0,0,0,1.48-.384,2.666,2.666,0,0,0,1.019-1.081,3.413,3.413,0,0,0,.368-1.618,3.468,3.468,0,0,0-.368-1.627,2.631,2.631,0,0,0-1.019-1.081,2.911,2.911,0,0,0-1.48-.375A2.712,2.712,0,0,0,293.185,79.158Z" transform="translate(-198.711 -11.464)" fill="#231f20"/>
    <path id="Path_72" data-name="Path 72" d="M342.447,77.3v1.228H341.4a2.681,2.681,0,0,1-1.925-.614,2.779,2.779,0,0,1-.636-2.056V71.315H337.58V70.1h1.258V68h1.41v2.1h2.177v1.212h-2.177v4.58a1.577,1.577,0,0,0,.3,1.112,1.45,1.45,0,0,0,1.037.3Z" transform="translate(-235.087 -4.364)" fill="#231f20"/>
    <path id="Path_73" data-name="Path 73" d="M374.973,69.215a3.77,3.77,0,0,1,.905,2.721v4.893h-1.4V72.059a2.689,2.689,0,0,0-.645-1.932,2.3,2.3,0,0,0-1.754-.675,2.394,2.394,0,0,0-1.842.743,3.085,3.085,0,0,0-.688,2.17v4.464h-1.4v-11h1.4V70.4a2.863,2.863,0,0,1,1.142-1.581,3.306,3.306,0,0,1,1.907-.544A3.144,3.144,0,0,1,374.973,69.215Z" transform="translate(-258.955 -2.669)" fill="#231f20"/>
    <path id="Path_74" data-name="Path 74" d="M196.729,134.67v2.085h-4.448v2.372h3.436v1.993h-3.436V145.5H189.65V134.67Z" transform="translate(-119.589 -56.417)" fill="#231f20"/>
    <path id="Path_75" data-name="Path 75" d="M226.564,145.119a3.874,3.874,0,0,1,1.579,1.535,5,5,0,0,1,0,4.663,3.874,3.874,0,0,1-1.579,1.535,5.189,5.189,0,0,1-4.562,0,3.869,3.869,0,0,1-1.587-1.535,5.018,5.018,0,0,1,0-4.663A3.869,3.869,0,0,1,222,145.119,5.189,5.189,0,0,1,226.564,145.119Zm-3.543,2.284a2.213,2.213,0,0,0-.515,1.574,2.186,2.186,0,0,0,.513,1.565,1.686,1.686,0,0,0,1.265.537,1.66,1.66,0,0,0,1.258-.537,2.195,2.195,0,0,0,.506-1.565,2.219,2.219,0,0,0-.506-1.572,1.651,1.651,0,0,0-1.258-.544,1.675,1.675,0,0,0-1.263.544Z" transform="translate(-143.16 -64.162)" fill="#231f20"/>
    <path id="Path_76" data-name="Path 76" d="M272.847,145.09v8.55h-2.631v-1.55a2.83,2.83,0,0,1-1.1,1.2,3.188,3.188,0,0,1-1.695.438,2.964,2.964,0,0,1-2.339-.982,3.949,3.949,0,0,1-.866-2.7V145.09h2.607v4.646a1.905,1.905,0,0,0,.454,1.357,1.589,1.589,0,0,0,1.219.485,1.609,1.609,0,0,0,1.256-.506,2.069,2.069,0,0,0,.46-1.443V145.09Z" transform="translate(-177.81 -64.553)" fill="#231f20"/>
    <path id="Path_77" data-name="Path 77" d="M317.761,145.689a3.989,3.989,0,0,1,.877,2.7v4.968h-2.631v-4.663a1.892,1.892,0,0,0-.452-1.342,1.581,1.581,0,0,0-1.2-.482,1.635,1.635,0,0,0-1.265.506,2.039,2.039,0,0,0-.469,1.44v4.54H310v-8.55h2.631v1.563a2.826,2.826,0,0,1,1.1-1.21,3.207,3.207,0,0,1,1.71-.438A2.958,2.958,0,0,1,317.761,145.689Z" transform="translate(-213.553 -64.261)" fill="#231f20"/>
    <path id="Path_78" data-name="Path 78" d="M358.84,135.489a2.576,2.576,0,0,1,1.028,1.21V132.36H362.5v11.348h-2.631v-1.55a2.569,2.569,0,0,1-1.028,1.212,3.1,3.1,0,0,1-1.686.438,3.482,3.482,0,0,1-1.894-.528,3.609,3.609,0,0,1-1.315-1.535,5.869,5.869,0,0,1,0-4.67,3.618,3.618,0,0,1,1.315-1.519,3.462,3.462,0,0,1,1.894-.528A3.1,3.1,0,0,1,358.84,135.489Zm-2.192,2.412a2.541,2.541,0,0,0,0,3.069,1.925,1.925,0,0,0,2.714-.015,2.458,2.458,0,0,0,0-3.045,1.785,1.785,0,0,0-1.357-.559,1.754,1.754,0,0,0-1.357.546Z" transform="translate(-247.486 -54.613)" fill="#231f20"/>
    <path id="Path_79" data-name="Path 79" d="M404.568,145.04a2.671,2.671,0,0,1,1.044,1.21V144.7h2.607v8.55h-2.607V151.7a2.664,2.664,0,0,1-1.044,1.212,3.1,3.1,0,0,1-1.686.438,3.481,3.481,0,0,1-1.894-.528,3.628,3.628,0,0,1-1.315-1.535,5.893,5.893,0,0,1,0-4.67,3.637,3.637,0,0,1,1.315-1.519,3.462,3.462,0,0,1,1.888-.506,3.1,3.1,0,0,1,1.693.445Zm-2.192,2.412a2.55,2.55,0,0,0,0,3.069,1.927,1.927,0,0,0,2.716-.015,2.458,2.458,0,0,0,0-3.045,1.938,1.938,0,0,0-2.716,0Z" transform="translate(-283.19 -64.165)" fill="#231f20"/>
    <path id="Path_80" data-name="Path 80" d="M449.38,143.906v2.254H448.2a3.4,3.4,0,0,1-2.339-.743,3.154,3.154,0,0,1-.835-2.462V139.81H443.87V137.6h1.151v-2.1h2.631v2.1h1.719v2.208h-1.719V143a.962.962,0,0,0,.208.706,1,1,0,0,0,.7.2Z" transform="translate(-318.074 -57.065)" fill="#231f20"/>
    <path id="Path_81" data-name="Path 81" d="M473.238,128.2a1.844,1.844,0,0,1,2.269,0,1.28,1.28,0,0,1,.439.991,1.261,1.261,0,0,1-.439.973,1.844,1.844,0,0,1-2.269,0,1.261,1.261,0,0,1-.438-.973A1.281,1.281,0,0,1,473.238,128.2Zm2.438,3.4v8.55h-2.613V131.6Z" transform="translate(-340.66 -51.06)" fill="#231f20"/>
    <path id="Path_82" data-name="Path 82" d="M496.807,145.119a3.887,3.887,0,0,1,1.579,1.535,5.018,5.018,0,0,1,0,4.663,3.887,3.887,0,0,1-1.579,1.535,5.194,5.194,0,0,1-4.565,0,3.863,3.863,0,0,1-1.585-1.535,5,5,0,0,1,0-4.663,3.863,3.863,0,0,1,1.585-1.535A5.194,5.194,0,0,1,496.807,145.119Zm-3.543,2.287a2.646,2.646,0,0,0,0,3.137,1.682,1.682,0,0,0,1.265.537,1.66,1.66,0,0,0,1.256-.537,2.195,2.195,0,0,0,.506-1.565,2.219,2.219,0,0,0-.506-1.572,1.651,1.651,0,0,0-1.256-.544A1.673,1.673,0,0,0,493.264,147.405Z" transform="translate(-354.153 -64.162)" fill="#231f20"/>
    <path id="Path_83" data-name="Path 83" d="M542.759,145.689a3.975,3.975,0,0,1,.877,2.7v4.968h-2.631v-4.663a1.892,1.892,0,0,0-.452-1.342,1.581,1.581,0,0,0-1.2-.482,1.635,1.635,0,0,0-1.265.506,2.039,2.039,0,0,0-.469,1.44v4.54H535v-8.55h2.631v1.563a2.826,2.826,0,0,1,1.1-1.21,3.207,3.207,0,0,1,1.71-.438A2.957,2.957,0,0,1,542.759,145.689Z" transform="translate(-389.224 -64.261)" fill="#231f20"/>
    <circle id="Ellipse_8" data-name="Ellipse 8" cx="1.745" cy="1.745" r="1.745" transform="translate(52.002 71.097)" fill="#ff4713"/>
    <path id="Path_84" data-name="Path 84" d="M40.836,67.307a3.205,3.205,0,0,0-1.03.745,3.918,3.918,0,0,0-.752,1.206,4.354,4.354,0,0,0-.294,1.649v5a4.071,4.071,0,0,1-.18,1.241,3.289,3.289,0,0,1-.469.956,2.1,2.1,0,0,1-.658.588,1.454,1.454,0,0,1-.726.2H36.48v2.381h.257a1.548,1.548,0,0,1,.73.189,2.028,2.028,0,0,1,.658.563,3.069,3.069,0,0,1,.467.938,4.179,4.179,0,0,1,.18,1.269v4.633a4.354,4.354,0,0,0,.294,1.649,3.918,3.918,0,0,0,.752,1.206,3.253,3.253,0,0,0,1.03.745A2.817,2.817,0,0,0,42,92.725h4.172V90.563H42.535a.748.748,0,0,1-.5-.147,1.223,1.223,0,0,1-.329-.456,2.554,2.554,0,0,1-.186-.7,6.276,6.276,0,0,1-.053-.8V83.8a4.793,4.793,0,0,0-.309-1.831,4.179,4.179,0,0,0-.719-1.186,2.9,2.9,0,0,0-.862-.677l-.116-.053.127-.068a3.288,3.288,0,0,0,.853-.715,4.286,4.286,0,0,0,1.026-2.918V71.319a6.486,6.486,0,0,1,.053-.833,2.368,2.368,0,0,1,.184-.682,1.254,1.254,0,0,1,.329-.438.756.756,0,0,1,.5-.147h3.633V67.05H41.985A2.817,2.817,0,0,0,40.836,67.307Z" transform="translate(0 -3.622)" fill="#ff4713"/>
    <path id="Path_85" data-name="Path 85" d="M116.191,78.9a1.5,1.5,0,0,1-.732-.191h0a1.923,1.923,0,0,1-.642-.572,3.164,3.164,0,0,1-.471-.956,4.212,4.212,0,0,1-.18-1.267v-5a4.354,4.354,0,0,0-.294-1.649,3.918,3.918,0,0,0-.752-1.206,3.205,3.205,0,0,0-1.03-.745,2.817,2.817,0,0,0-1.149-.257h-3.192v2.162H110.4a.748.748,0,0,1,.5.147,1.219,1.219,0,0,1,.327.456,2.5,2.5,0,0,1,.186.7,6.359,6.359,0,0,1,.055.859v4.975a4.779,4.779,0,0,0,.307,1.831,4.166,4.166,0,0,0,.719,1.186,2.909,2.909,0,0,0,.864.677l.114.053-.127.07a3.243,3.243,0,0,0-.853.715,4.288,4.288,0,0,0-1.024,2.916v4.661a6.183,6.183,0,0,1-.055.833,2.352,2.352,0,0,1-.184.68,1.245,1.245,0,0,1-.329.438.748.748,0,0,1-.5.147h-2.324v.015a2.9,2.9,0,0,0-.853.237,3.229,3.229,0,0,0-1.03.745,3.918,3.918,0,0,0-.752,1.206,3.85,3.85,0,0,0-.294,1.195v.272h2.734l.031-.219a2.331,2.331,0,0,1,.184-.682,1.226,1.226,0,0,1,.329-.438.734.734,0,0,1,.485-.145h2.028a2.835,2.835,0,0,0,1.151-.257,3.271,3.271,0,0,0,1.028-.745,3.918,3.918,0,0,0,.752-1.206,4.369,4.369,0,0,0,.294-1.649V84.236a3.99,3.99,0,0,1,.18-1.228,3.245,3.245,0,0,1,.471-.943,2.129,2.129,0,0,1,.647-.59,1.465,1.465,0,0,1,.728-.2h.254V78.9Z" transform="translate(-53.615 -3.622)" fill="#ff4713"/>
  </g>
</svg>
