<svg xmlns="http://www.w3.org/2000/svg" width="99.811" height="72.241" viewBox="0 0 99.811 72.241">
  <g id="Group_2531" data-name="Group 2531" transform="translate(-302.779 -276.667)">
    <path id="Path_799" data-name="Path 799" d="M1179.614,297.439a.515.515,0,0,1-.41-.824c9.994-13.152,20.241-19.867,30.455-19.949h.193c10.28,0,20.766,6.71,31.166,19.941a.511.511,0,0,1-.087.719.518.518,0,0,1-.72-.086c-10.258-13.054-20.55-19.617-30.543-19.544-9.882.082-19.857,6.652-29.646,19.537A.512.512,0,0,1,1179.614,297.439Z" transform="translate(-858.172)" fill="#ff4d01"/>
    <g id="Group_2527" data-name="Group 2527" transform="translate(330.01 292.771)">
      <path id="Path_800" data-name="Path 800" d="M2596.6,1073.09c.5-10.48.926-15.01,1.235-16.879.312,1.867.744,6.4,1.252,16.879h1.029c-.9-18.845-1.572-18.936-2.273-18.936h-.01c-.7,0-1.375.011-2.263,18.936Z" transform="translate(-2575.318 -1054.154)" fill="#ff4d01"/>
      <path id="Path_801" data-name="Path 801" d="M2254.27,1205.363c.381-7.586.7-11.485.937-13.445.214,1.963.479,5.862.76,13.445H2257c-.586-16.127-1.116-16.133-1.769-16.138-.68.01-1.189,0-1.986,16.138Z" transform="translate(-2240.073 -1186.427)" fill="#ff4d01"/>
      <path id="Path_802" data-name="Path 802" d="M1936.628,1511.443c.338-4.387.621-6.6.828-7.717.194,1.112.454,3.33.745,7.717h1.03c-.626-9.631-1.161-9.66-1.764-9.664s-1.14.024-1.869,9.664Z" transform="translate(-1929.009 -1492.508)" fill="#ff4d01"/>
      <path id="Path_803" data-name="Path 803" d="M2968.623,1283.624c.247-6.267.476-9.736.663-11.607.21,1.857.48,5.31.8,11.607h1.03c-.724-14.485-1.189-14.48-1.847-14.483-.611.006-1.118.017-1.679,14.483Z" transform="translate(-2939.627 -1264.688)" fill="#ff4d01"/>
      <path id="Path_804" data-name="Path 804" d="M3572.763,1874.629c-.363-1.986-.669-1.993-1.042-1.981s-.673.023-.945,1.981Z" transform="translate(-3530.318 -1855.693)" fill="#ff4d01"/>
      <path id="Path_805" data-name="Path 805" d="M3280.762,1508.827c.293-4.428.554-6.66.749-7.771.208,1.112.494,3.343.833,7.771h1.031c-.733-9.7-1.267-9.72-1.873-9.72s-1.143.032-1.77,9.72Z" transform="translate(-3245.304 -1489.891)" fill="#ff4d01"/>
      <path id="Path_806" data-name="Path 806" d="M1726.923,1877.856c-.27-1.89-.57-1.906-.936-1.913s-.669-.007-1.027,1.913Z" transform="translate(-1722.734 -1858.92)" fill="#ff4d01"/>
      <path id="Path_807" data-name="Path 807" d="M3116.163,2501.617c-.381,6.185-.7,9.247-.941,10.714-.225-1.467-.52-4.531-.848-10.714h-1.029c.672,12.821,1.231,12.836,1.867,12.842h.029c.626,0,1.182-.195,1.95-12.842Z" transform="translate(-3082.363 -2471.636)" fill="#ff4d01"/>
      <path id="Path_808" data-name="Path 808" d="M2791.716,2501.617c-.015.6-.032,1.195-.049,1.822-.252,9.542-.491,15.715-.755,19.432-.058.853-.119,1.53-.174,2.065-.064-.535-.135-1.215-.211-2.072-.347-4.12-.73-11.284-1.135-21.247h-1.027c.406,10,.79,17.2,1.139,21.335.406,4.575.691,4.821,1.241,4.821h.018c.561,0,.844-.212,1.173-4.829.264-3.739.5-9.924.755-19.477.019-.64.036-1.243.053-1.851Z" transform="translate(-2764.113 -2471.636)" fill="#ff4d01"/>
      <path id="Path_809" data-name="Path 809" d="M3688.052,2501.617c.3,1.136.578,1.136.894,1.136.333,0,.6-.107.857-1.136Z" transform="translate(-3645.166 -2471.636)" fill="#ff4d01"/>
      <path id="Path_810" data-name="Path 810" d="M3444.584,2501.617c-.148,1.911-.284,3.175-.4,3.979-.119-.8-.264-2.067-.425-3.979h-1.036c.521,6.27.927,6.261,1.468,6.277.531,0,.945-.011,1.424-6.277Z" transform="translate(-3404.921 -2471.636)" fill="#ff4d01"/>
      <path id="Path_811" data-name="Path 811" d="M1810.205,2501.617c-.165,1.952-.31,3.236-.431,4.05-.116-.814-.253-2.1-.405-4.05h-1.032c.481,6.337.893,6.344,1.429,6.349.561,0,.957,0,1.476-6.349Z" transform="translate(-1804.385 -2471.636)" fill="#ff4d01"/>
      <path id="Path_812" data-name="Path 812" d="M1617.511,2501.617c.257,1.1.533,1.2.874,1.209.324.005.607.005.912-1.209Z" transform="translate(-1617.511 -2471.636)" fill="#ff4d01"/>
      <path id="Path_813" data-name="Path 813" d="M2405.766,2501.617c-.394,9.971-.832,17.464-1.243,21.228-.027.22-.054.421-.079.6-.022-.179-.047-.379-.07-.6-.393-3.563-.771-10.7-1.126-21.232h-1.026c.356,10.579.735,17.754,1.131,21.344.269,2.394.479,2.98,1.08,2.982h0c.6,0,.814-.585,1.108-2.982.415-3.8.854-11.327,1.248-21.344Z" transform="translate(-2385.969 -2471.636)" fill="#ff4d01"/>
      <path id="Path_814" data-name="Path 814" d="M2094.482,2501.617c-.33,6.23-.624,9.311-.851,10.782-.242-1.471-.563-4.547-.947-10.782h-1.028c.784,12.9,1.343,12.933,1.983,12.906.639,0,1.2-.011,1.874-12.906Z" transform="translate(-2081.835 -2471.636)" fill="#ff4d01"/>
    </g>
    <g id="Group_2528" data-name="Group 2528" transform="translate(315.705 303.073)">
      <path id="Path_815" data-name="Path 815" d="M938.3,1560.2a29.644,29.644,0,0,0-.881-4.4c-.825-2.819-1.821-4.229-2.956-4.229q-1.75,0-2.993,4.229a29.773,29.773,0,0,0-.88,4.4Z" transform="translate(-930.513 -1551.564)" fill="#ff4d01"/>
      <path id="Path_816" data-name="Path 816" d="M926.831,2501.617a29.8,29.8,0,0,0,.958,5.033c.826,2.854,1.826,4.263,2.993,4.263,1.134,0,2.131-1.41,2.956-4.263a29.9,29.9,0,0,0,.958-5.033Z" transform="translate(-926.831 -2481.939)" fill="#ff4d01"/>
    </g>
    <g id="Group_2529" data-name="Group 2529" transform="translate(381.002 303.073)">
      <path id="Path_817" data-name="Path 817" d="M4090.87,1560.2a29.382,29.382,0,0,0-.881-4.4c-.826-2.819-1.822-4.229-2.957-4.229q-1.752,0-2.99,4.229a29.661,29.661,0,0,0-.881,4.4Z" transform="translate(-4083.083 -1551.564)" fill="#ff4d01"/>
      <path id="Path_818" data-name="Path 818" d="M4079.387,2501.617a29.859,29.859,0,0,0,.959,5.033c.825,2.854,1.823,4.263,2.99,4.263,1.135,0,2.131-1.41,2.957-4.263a29.788,29.788,0,0,0,.958-5.033Z" transform="translate(-4079.387 -2481.939)" fill="#ff4d01"/>
    </g>
    <g id="Group_2530" data-name="Group 2530" transform="translate(302.779 312.501)">
      <path id="Path_819" data-name="Path 819" d="M304.7,2010.22c-.021.35-.031.606-.031.764a6.219,6.219,0,0,0,.272,1.834,4.45,4.45,0,0,0,.747,1.491,3.492,3.492,0,0,0,2.7,1.3,3.15,3.15,0,0,0,1.1-.194,2.4,2.4,0,0,0,.866-.546,3.084,3.084,0,0,0,.665-1.216l.224.075a3.033,3.033,0,0,1-1.2,1.911,4.238,4.238,0,0,1-2.457.645,5.6,5.6,0,0,1-2.278-.423,4.038,4.038,0,0,1-1.608-1.3,4.862,4.862,0,0,1-.917-3.01,4.619,4.619,0,0,1,1.734-3.819,4.513,4.513,0,0,1,2.881-1.008,4.1,4.1,0,0,1,1.6.31,3.278,3.278,0,0,1,2.027,3.188Zm4.682-.419a4.252,4.252,0,0,0-.4-1.689,2.292,2.292,0,0,0-.769-.853,1.859,1.859,0,0,0-1.025-.311,2.061,2.061,0,0,0-1.611.812,3.64,3.64,0,0,0-.816,2.041Z" transform="translate(-302.779 -2006.722)" fill="#0b014a"/>
      <path id="Path_820" data-name="Path 820" d="M771.811,2023.894a6.289,6.289,0,0,1-.139-1.339,4.405,4.405,0,0,1-3.2,1.339,3.377,3.377,0,0,1-2.175-.661,2.237,2.237,0,0,1-.8-1.84v-3.768l-.012-.821a4.88,4.88,0,0,0-.084-1.074,1.231,1.231,0,0,0-.325-.575,2.227,2.227,0,0,0-1.118-.432v-.226h3.174v5.494a12.736,12.736,0,0,0,.082,1.714,2.409,2.409,0,0,0,.295.913,1.59,1.59,0,0,0,.678.581,2.247,2.247,0,0,0,.989.209,2.747,2.747,0,0,0,1.13-.235,2.043,2.043,0,0,0,.829-.652,2.343,2.343,0,0,0,.416-.973,11.246,11.246,0,0,0,.1-1.819V2017.6l-.013-.8a5.026,5.026,0,0,0-.081-1.073,1.148,1.148,0,0,0-.329-.575,2.164,2.164,0,0,0-1.116-.432v-.226h3.173v5.883a13.668,13.668,0,0,0,.059,1.562,1.919,1.919,0,0,0,.236.736,1.193,1.193,0,0,0,.459.436,1.906,1.906,0,0,0,.754.167v.226Z" transform="translate(-754.404 -2014.336)" fill="#0b014a"/>
      <path id="Path_821" data-name="Path 821" d="M1316.554,2008.389a3.04,3.04,0,0,1,.862-1.026,3.422,3.422,0,0,1,2.041-.64,1.6,1.6,0,0,1,1.069.315.872.872,0,0,1,.337.694.659.659,0,0,1-.2.5.693.693,0,0,1-.513.194.811.811,0,0,1-.637-.3l-.336-.361a1.244,1.244,0,0,0-.939-.425c-.491,0-.872.321-1.146.952a6.872,6.872,0,0,0-.411,2.649v2.023l.013.821a4.889,4.889,0,0,0,.084,1.074,1.081,1.081,0,0,0,.333.564,2.145,2.145,0,0,0,1.109.445v.227h-4.778v-.227a2.813,2.813,0,0,0,.933-.242,1.108,1.108,0,0,0,.456-.537,2.325,2.325,0,0,0,.168-.749c.03-.332.048-.814.048-1.449v-2.663a15.271,15.271,0,0,0-.055-1.558,1.644,1.644,0,0,0-.236-.725,1.15,1.15,0,0,0-.441-.438,1.972,1.972,0,0,0-.744-.167v-.223l2.784-.387A8.623,8.623,0,0,1,1316.554,2008.389Z" transform="translate(-1292.509 -2006.722)" fill="#0b014a"/>
      <path id="Path_822" data-name="Path 822" d="M1703.416,2011.516a4.444,4.444,0,0,1,1.292-3.128,5.07,5.07,0,0,1,7.514,0,4.491,4.491,0,0,1,1.291,3.14,4.441,4.441,0,0,1-1.228,3.082,5.2,5.2,0,0,1-7.641,0,4.641,4.641,0,0,1-.911-1.448A4.41,4.41,0,0,1,1703.416,2011.516Zm1.956-.121a5.787,5.787,0,0,0,.84,3.192,2.745,2.745,0,0,0,2.323,1.466,2.185,2.185,0,0,0,1.134-.326,3.015,3.015,0,0,0,.949-.909,5.1,5.1,0,0,0,.681-1.523,6.481,6.481,0,0,0,.259-1.776,6.177,6.177,0,0,0-.275-1.79,5.3,5.3,0,0,0-.739-1.554,2.6,2.6,0,0,0-2.172-1.226,2.54,2.54,0,0,0-2.105,1.287A5.4,5.4,0,0,0,1705.372,2011.395Z" transform="translate(-1674.405 -2006.722)" fill="#0b014a"/>
      <path id="Path_823" data-name="Path 823" d="M2263.466,2015.036l.182.107a1.671,1.671,0,0,1-1.782,1.136,2.1,2.1,0,0,1-1.279-.379,2.845,2.845,0,0,1-.7-.865,7.092,7.092,0,0,1-1.1.853,3.307,3.307,0,0,1-1.639.391,2.91,2.91,0,0,1-1.9-.573,1.9,1.9,0,0,1-.7-1.549,2.094,2.094,0,0,1,.574-1.5,2.552,2.552,0,0,1,.746-.534,7.073,7.073,0,0,1,1.223-.408c.627-.155,1.09-.292,1.391-.4a3.064,3.064,0,0,0,.751-.389,1.3,1.3,0,0,0,.477-.588,2.685,2.685,0,0,0,.127-.93,2.939,2.939,0,0,0-.476-1.859,1.551,1.551,0,0,0-.559-.436,1.631,1.631,0,0,0-.713-.162,1.4,1.4,0,0,0-1.314.866l-.27.638a.773.773,0,0,1-.774.511.837.837,0,0,1-.614-.241.825.825,0,0,1-.248-.616c0-.37.259-.68.781-.938a4.88,4.88,0,0,1,1.049-.319,6.29,6.29,0,0,1,1.223-.127,6.189,6.189,0,0,1,1.4.174,4.889,4.889,0,0,1,1.218.446,1.718,1.718,0,0,1,.878,1.04,4.642,4.642,0,0,1,.087,1.092v4.006a7.159,7.159,0,0,0,.088,1.387.867.867,0,0,0,.893.768.961.961,0,0,0,.522-.121A1.957,1.957,0,0,0,2263.466,2015.036Zm-3.589-4.266a7.2,7.2,0,0,1-1.281.855,10.086,10.086,0,0,0-1.09.642,2.716,2.716,0,0,0-.551.516,2.262,2.262,0,0,0-.507,1.462,1.76,1.76,0,0,0,.395,1.181,1.251,1.251,0,0,0,1,.467,1.694,1.694,0,0,0,1-.33,2.028,2.028,0,0,0,.706-.885,5.181,5.181,0,0,0,.332-2.1Z" transform="translate(-2214.131 -2006.722)" fill="#0b014a"/>
      <path id="Path_824" data-name="Path 824" d="M2696.4,2006.722a5.016,5.016,0,0,1,.153,1.169v.174a4.336,4.336,0,0,1,3.175-1.342,3.537,3.537,0,0,1,2.217.653,2.147,2.147,0,0,1,.828,1.815v4.588a4.751,4.751,0,0,0,.088,1.074,1.081,1.081,0,0,0,.335.564,2.146,2.146,0,0,0,1.116.445v.227h-4.777v-.227a2.781,2.781,0,0,0,.93-.242,1.133,1.133,0,0,0,.456-.537,2.356,2.356,0,0,0,.168-.754q.049-.5.049-1.444v-2.293a13.291,13.291,0,0,0-.081-1.731,2.177,2.177,0,0,0-.305-.89,1.65,1.65,0,0,0-.709-.586,2.4,2.4,0,0,0-1.019-.211,2.665,2.665,0,0,0-1.121.238,2,2,0,0,0-.822.652,2.309,2.309,0,0,0-.427.974,11.416,11.416,0,0,0-.1,1.813v2.121l.012.805a4.771,4.771,0,0,0,.086,1.074,1.08,1.08,0,0,0,.332.564,2.127,2.127,0,0,0,1.109.445v.227h-4.777v-.227a2.781,2.781,0,0,0,.93-.242,1.106,1.106,0,0,0,.457-.537,2.26,2.26,0,0,0,.167-.749q.048-.5.049-1.449v-2.663a14.8,14.8,0,0,0-.054-1.558,1.669,1.669,0,0,0-.236-.725,1.153,1.153,0,0,0-.441-.438,1.968,1.968,0,0,0-.742-.167v-.223Z" transform="translate(-2643.802 -2006.722)" fill="#0b014a"/>
      <path id="Path_825" data-name="Path 825" d="M3284.771,2016.088v-3.047h.16a5.967,5.967,0,0,0,.752,1.79,2.337,2.337,0,0,0,1.932,1.222,1.78,1.78,0,0,0,1.171-.41,1.6,1.6,0,0,0,.536-1.293,1.941,1.941,0,0,0-.386-1.2,2.483,2.483,0,0,0-.538-.5,11.794,11.794,0,0,0-1.1-.641,7.446,7.446,0,0,1-1.794-1.2,2.265,2.265,0,0,1-.641-1.593,2.435,2.435,0,0,1,.644-1.692,2.546,2.546,0,0,1,1.966-.809,2.52,2.52,0,0,1,1.018.21l.364.173a.78.78,0,0,0,.3.068c.137,0,.266-.1.386-.289h.225l.128,2.405h-.223a5.159,5.159,0,0,0-.253-.843,2.442,2.442,0,0,0-.38-.612,2.477,2.477,0,0,0-.771-.648,1.823,1.823,0,0,0-.869-.236,1.367,1.367,0,0,0-1.022.441,1.5,1.5,0,0,0-.424,1.078,1.417,1.417,0,0,0,.381.964,3.441,3.441,0,0,0,1.173.788l1.135.517a3.807,3.807,0,0,1,1.52,1.158,2.71,2.71,0,0,1,.5,1.635,2.583,2.583,0,0,1-.736,1.882,2.891,2.891,0,0,1-2.161.867,4.039,4.039,0,0,1-1.45-.282c-.315-.118-.508-.187-.572-.207a1.031,1.031,0,0,0-.249-.025.629.629,0,0,0-.573.322Z" transform="translate(-3223.007 -2006.722)" fill="#0b014a"/>
      <path id="Path_826" data-name="Path 826" d="M3603.437,2014.5h4.2v.226c-.814.044-1.219.358-1.219.939a7.908,7.908,0,0,0,.427,1.8l1.3,4.04,1.851-4.885a2.692,2.692,0,0,0,.218-.91c0-.623-.374-.949-1.122-.986v-.226h4.136v.226a1.805,1.805,0,0,0-.746.228.8.8,0,0,0-.345.71,4.138,4.138,0,0,0,.2,1.078l1.416,4.764,1.667-4.291a3.9,3.9,0,0,0,.321-1.267,1.081,1.081,0,0,0-.4-.9,2.077,2.077,0,0,0-.721-.323v-.226h3.173v.226a1.283,1.283,0,0,0-.839.306,1.858,1.858,0,0,0-.451.553,9.776,9.776,0,0,0-.506,1.125l-.226.552-2.562,6.443h-.384l-2.357-7.232-2.87,7.232h-.353l-2.144-6.56-.26-.8a2.9,2.9,0,0,0-.732-1.351,1.647,1.647,0,0,0-.679-.27Z" transform="translate(-3535.072 -2014.336)" fill="#0b014a"/>
      <path id="Path_827" data-name="Path 827" d="M4301.093,2010.22c-.022.35-.033.606-.033.764a6.267,6.267,0,0,0,.274,1.834,4.41,4.41,0,0,0,.749,1.491,3.481,3.481,0,0,0,2.694,1.3,3.141,3.141,0,0,0,1.1-.194,2.4,2.4,0,0,0,.865-.546,3.108,3.108,0,0,0,.668-1.216l.222.075a3.027,3.027,0,0,1-1.2,1.911,4.235,4.235,0,0,1-2.457.645,5.587,5.587,0,0,1-2.277-.423,4.031,4.031,0,0,1-1.61-1.3,4.867,4.867,0,0,1-.917-3.01,4.616,4.616,0,0,1,1.736-3.819,4.511,4.511,0,0,1,2.881-1.008,4.1,4.1,0,0,1,1.6.31,3.288,3.288,0,0,1,2.028,3.188Zm4.681-.419a4.2,4.2,0,0,0-.4-1.689,2.274,2.274,0,0,0-.768-.853,1.869,1.869,0,0,0-1.028-.311,2.059,2.059,0,0,0-1.607.812,3.665,3.665,0,0,0-.819,2.041Z" transform="translate(-4216.393 -2006.722)" fill="#0b014a"/>
      <path id="Path_828" data-name="Path 828" d="M4766.577,2008.389a3.048,3.048,0,0,1,.861-1.026,3.426,3.426,0,0,1,2.042-.64,1.612,1.612,0,0,1,1.07.315.873.873,0,0,1,.336.694.657.657,0,0,1-.2.5.688.688,0,0,1-.511.194.813.813,0,0,1-.638-.3l-.335-.361a1.248,1.248,0,0,0-.939-.425c-.492,0-.872.321-1.146.952a6.887,6.887,0,0,0-.41,2.649v2.023l.011.821a4.711,4.711,0,0,0,.087,1.074,1.086,1.086,0,0,0,.331.564,2.149,2.149,0,0,0,1.109.445v.227h-4.776v-.227a2.783,2.783,0,0,0,.93-.242,1.09,1.09,0,0,0,.456-.537,2.28,2.28,0,0,0,.168-.749c.031-.332.048-.814.048-1.449v-2.663a15.557,15.557,0,0,0-.053-1.558,1.657,1.657,0,0,0-.238-.725,1.151,1.151,0,0,0-.44-.438,1.98,1.98,0,0,0-.744-.167v-.223l2.783-.387A8.558,8.558,0,0,1,4766.577,2008.389Z" transform="translate(-4671.074 -2006.722)" fill="#0b014a"/>
    </g>
  </g>
</svg>
