<svg xmlns="http://www.w3.org/2000/svg" width="77.047" height="74.876" viewBox="0 0 77.047 74.876">
  <g id="Group_2533" data-name="Group 2533" transform="translate(-323.285 -32.55)">
    <g id="music" transform="translate(343.167 101.137)">
      <path id="Path_864" data-name="Path 864" d="M385.605,227.166v6.158h-1.237v-3.236l-1.519,1.918h-.405l-1.519-1.918v3.236h-1.237v-6.158h.4l2.556,3.282,2.559-3.282Z" transform="translate(-379.687 -227.151)" fill="#de2d26"/>
      <path id="Path_865" data-name="Path 865" d="M412.734,231.029a2.554,2.554,0,0,1-.7,1.9,2.763,2.763,0,0,1-3.694,0,2.557,2.557,0,0,1-.705-1.9v-3.553h1.237v3.638a1.354,1.354,0,0,0,.352,1.019,1.339,1.339,0,0,0,.959.352,1.325,1.325,0,0,0,.962-.352,1.363,1.363,0,0,0,.352-1.019v-3.638h1.237Z" transform="translate(-397.778 -227.352)" fill="#de2d26"/>
      <path id="Path_866" data-name="Path 866" d="M435.528,227.453a2.2,2.2,0,0,1,.793.835l-.842.649a1.375,1.375,0,0,0-1.156-.705.906.906,0,0,0-.536.152.539.539,0,0,0-.108.755.556.556,0,0,0,.051.059,2.32,2.32,0,0,0,.546.317l.7.3a3.258,3.258,0,0,1,1.128.747,1.468,1.468,0,0,1,.352,1.019,1.63,1.63,0,0,1-.6,1.322,2.3,2.3,0,0,1-1.523.493,2.623,2.623,0,0,1-2.337-1.336l.853-.642a1.816,1.816,0,0,0,1.484.878,1.03,1.03,0,0,0,.635-.176.6.6,0,0,0,.229-.494.53.53,0,0,0-.106-.324.761.761,0,0,0-.24-.215c-.088-.049-.229-.12-.427-.212l-.649-.293a3.337,3.337,0,0,1-1.086-.733,1.433,1.433,0,0,1-.381-1.008,1.524,1.524,0,0,1,.568-1.241,2.161,2.161,0,0,1,1.438-.472A2.256,2.256,0,0,1,435.528,227.453Z" transform="translate(-413.564 -227.128)" fill="#de2d26"/>
      <path id="Path_867" data-name="Path 867" d="M456.254,233.525h-1.237v-6.049h1.237Z" transform="translate(-428.463 -227.352)" fill="#de2d26"/>
      <path id="Path_868" data-name="Path 868" d="M473.488,227.537a2.919,2.919,0,0,1,1.107,1.1l-.938.659a1.96,1.96,0,0,0-1.731-1.015,1.894,1.894,0,0,0-1.41.557,1.972,1.972,0,0,0-.55,1.442,1.94,1.94,0,0,0,.55,1.41,1.888,1.888,0,0,0,1.41.553,1.959,1.959,0,0,0,1.731-1.015l.938.659a2.819,2.819,0,0,1-1.1,1.1,3.111,3.111,0,0,1-1.576.4,3.174,3.174,0,0,1-2.288-.9,3.141,3.141,0,0,1-.021-4.442l.021-.021a3.175,3.175,0,0,1,2.291-.9A3.075,3.075,0,0,1,473.488,227.537Z" transform="translate(-437.321 -227.124)" fill="#de2d26"/>
    </g>
    <g id="swanboy" transform="translate(323.285 78.613)">
      <path id="Path_869" data-name="Path 869" d="M366.684,163.385l-2.609-.028a.1.1,0,0,0-.1.085l-1.382,9.75c0,.021-.028.021-.032,0l-1.315-9.782a.1.1,0,0,0-.1-.085l-2.115-.025a.1.1,0,0,0-.1.085l-1.509,9.63a.035.035,0,0,1-.044.023.036.036,0,0,1-.023-.023l-1.149-9.673a.1.1,0,0,0-.1-.088l-2.6-.028a.1.1,0,0,0-.1.1.071.071,0,0,0,0,.015l2.3,17.047a.1.1,0,0,0,.1.088l2.524.028a.1.1,0,0,0,.1-.085l1.562-9.31a.018.018,0,0,1,.018-.017.017.017,0,0,1,.017.017l1.371,9.341a.1.1,0,0,0,.1.088l2.513.028a.1.1,0,0,0,.1-.085l2.675-16.994A.1.1,0,0,0,366.684,163.385Z" transform="translate(-342.787 -163.226)"/>
      <path id="Path_870" data-name="Path 870" d="M396.591,163.364,394,163.336a.17.17,0,0,0-.166.134l-3.444,16.952a.082.082,0,0,0,.062.1l.019,0,2.468.028a.169.169,0,0,0,.169-.137l.508-3a.085.085,0,0,1,.085-.07l2.757.032a.162.162,0,0,1,.162.141l.43,2.943a.166.166,0,0,0,.166.141l2.513.028a.085.085,0,0,0,.086-.083.076.076,0,0,0,0-.016L396.739,163.5A.169.169,0,0,0,396.591,163.364Zm-.444,11.583-2.006-.021a.081.081,0,0,1-.083-.079.073.073,0,0,1,0-.02l1.146-6.578m.032,0,.994,6.6a.084.084,0,0,1-.073.094h-.011Z" transform="translate(-366.736 -163.297)"/>
      <path id="Path_871" data-name="Path 871" d="M430.708,163.375l-2.376-.028a.169.169,0,0,0-.169.166l-.1,9.288m-.032,0c-.324-.867-3.173-8.4-3.525-9.391a.162.162,0,0,0-.155-.109l-2.14-.025a.169.169,0,0,0-.169.166l-.183,16.867a.166.166,0,0,0,.162.169h0l2.372.025a.169.169,0,0,0,.169-.166l.106-9.472m.032,0c.353.909,3.173,8.576,3.525,9.581a.169.169,0,0,0,.155.106l2.14.025a.165.165,0,0,0,.169-.162v0l.187-16.864a.165.165,0,0,0-.158-.172h-.011Z" transform="translate(-387.11 -163.258)"/>
      <path id="Path_872" data-name="Path 872" d="M462.193,172.473A13.115,13.115,0,0,0,461,171.69v-.021c1.089-.656,1.142-.705,1.167-.723a1.807,1.807,0,0,0,.6-1.41l.046-4.367a1.483,1.483,0,0,0-1.607-1.7l-6.765-.074a.085.085,0,0,0-.085.085h0l-.187,17.029a.085.085,0,0,0,.085.085h0l6.726.074a1.762,1.762,0,0,0,1.763-1.731l.056-4.956A1.877,1.877,0,0,0,462.193,172.473Zm-5.09-6.606a.081.081,0,0,1,.081-.081h0l2.767.028a.085.085,0,0,1,.085.085h0L460,169.776a.08.08,0,0,1-.039.07l-2.788,1.713a.088.088,0,0,1-.12-.035.089.089,0,0,1-.011-.039Zm2.866,12.338a.084.084,0,0,1-.085.085h0l-2.82-.032a.085.085,0,0,1-.085-.085h0l.046-3.983a.082.082,0,0,1,.039-.071l1.879-1.16a.085.085,0,0,1,.092,0l.962.649a.074.074,0,0,1,.035.07Z" transform="translate(-408.031 -163.336)"/>
      <path id="Path_873" data-name="Path 873" d="M492.494,163.439l-5.5-.063a1.484,1.484,0,0,0-1.643,1.66L485.2,178.89a1.476,1.476,0,0,0,1.607,1.685l5.506.06a1.489,1.489,0,0,0,1.674-1.65l.152-13.85A1.488,1.488,0,0,0,492.494,163.439Zm-1.273,14.6a.165.165,0,0,1-.165.166h0l-2.9-.032a.166.166,0,0,1-.166-.166v0l.13-12.034a.169.169,0,0,1,.169-.166l2.908.032a.173.173,0,0,1,.166.173Z" transform="translate(-428.123 -163.323)"/>
      <path id="Path_874" data-name="Path 874" d="M524.177,163.468l-2.644-.028a.169.169,0,0,0-.162.123l-1.949,6.835a.017.017,0,0,1-.018.018.018.018,0,0,1-.018-.018l-1.808-6.877a.177.177,0,0,0-.162-.127l-2.654-.028a.085.085,0,0,0-.085.085.082.082,0,0,0,0,.025l3.264,10.765a.107.107,0,0,1,0,.049l-.067,6.229a.081.081,0,0,0,.078.085h0l2.619.028a.081.081,0,0,0,.085-.078v0l.067-6.229a.25.25,0,0,1,0-.046c.472-1.586,3.172-9.666,3.525-10.7a.084.084,0,0,0-.056-.105A.087.087,0,0,0,524.177,163.468Z" transform="translate(-447.211 -163.317)"/>
      <path id="Path_875" data-name="Path 875" d="M330.039,163.456h-5.108a1.5,1.5,0,0,0-1.646,1.681v3.772a1.922,1.922,0,0,0,.589,1.442l4.995,4.727a.157.157,0,0,1,.053.123v3a.084.084,0,0,1-.085.085h-2.693a.085.085,0,0,1-.085-.085h0v-2.087a.165.165,0,0,0-.053-.123l-2.577-2.439a.088.088,0,0,0-.124.011.089.089,0,0,0-.02.052V179a1.483,1.483,0,0,0,1.646,1.667h5.108A1.487,1.487,0,0,0,331.7,179v-4.054a1.921,1.921,0,0,0-.589-1.463l-5-4.706a.166.166,0,0,1-.053-.123v-2.742a.081.081,0,0,1,.081-.081h2.7a.081.081,0,0,1,.085.078v1.812a.166.166,0,0,0,.053.123l2.58,2.443a.084.084,0,0,0,.119-.007.082.082,0,0,0,.022-.057v-5.108A1.66,1.66,0,0,0,330.039,163.456Z" transform="translate(-323.285 -163.375)"/>
    </g>
    <path id="Path_876" data-name="Path 876" d="M395.325,116.575l-15.644-15.637a.49.49,0,0,0-.687,0l-1.614,1.618a3.878,3.878,0,0,0,0,5.464L386.357,117a1.439,1.439,0,0,0,1.015.419h7.611a.486.486,0,0,0,.342-.842Z" transform="translate(-34.297 -44.19)"/>
    <path id="Path_877" data-name="Path 877" d="M415.149,72.24V58.2a1.971,1.971,0,0,0-.578-1.41L402.4,44.625a.5.5,0,0,1,0-.7l0,0,1.844-1.851a.5.5,0,0,1,.7,0l0,0,4.17,4.167a.49.49,0,0,0,.693.007.431.431,0,0,0,.03-.032h0a6.518,6.518,0,0,0-.286-8.918l-4.611-4.6a.5.5,0,0,0-.7,0l0,0L393.016,43.924a.5.5,0,0,0,0,.7l0,0L408.37,59.984a.5.5,0,0,1,.145.353v3.687a.494.494,0,0,1-.846.353l-19.68-19.684a.5.5,0,0,0-.7,0l0,0-1.248,1.255a4.361,4.361,0,0,0-.006,6.167l.006.006,20.53,20.533a1.966,1.966,0,0,0,1.41.575h6.2A.987.987,0,0,0,415.149,72.24Z" transform="translate(-39.803)"/>
    <path id="Path_878" data-name="Path 878" d="M463.063,71.967a10.443,10.443,0,0,0-.557-1c-.352-.649-.74-1.287-1.036-1.97-.649-1.484-.969-3.137-1.537-4.657-.3-.8-1.012,2.6-1.956,3.525a.278.278,0,0,0,0,.394h0l4.7,4.692a.278.278,0,0,0,.451-.085A1.138,1.138,0,0,0,463.063,71.967Z" transform="translate(-87.16 -20.504)" fill="#de2d26"/>
  </g>
</svg>
