<svg xmlns="http://www.w3.org/2000/svg" width="113.022" height="30.457" viewBox="0 0 113.022 30.457">
  <g id="Group_125" data-name="Group 125" transform="translate(-28.346 -171.598)">
    <rect id="Rectangle_89" data-name="Rectangle 89" width="113.022" height="30.457" transform="translate(28.346 171.598)" fill="#ffc400"/>
    <g id="Group_124" data-name="Group 124" transform="translate(34.09 175.119)">
      <path id="Path_275" data-name="Path 275" d="M97.272,221.223a3.563,3.563,0,0,1-.7,1.247,2.821,2.821,0,0,1-1.034.74,3.163,3.163,0,0,1-1.217.242,3.625,3.625,0,0,1-1.611-.331,2.6,2.6,0,0,1-1.107-1.069,5.9,5.9,0,0,1-.646-1.935,17.407,17.407,0,0,1-.212-2.969,18.756,18.756,0,0,1,.2-2.961,6.449,6.449,0,0,1,.586-1.95,2.464,2.464,0,0,1,1-1.062,3.09,3.09,0,0,1,1.481-.33,3.8,3.8,0,0,1,1.174.175,2.312,2.312,0,0,1,.945.587,2.945,2.945,0,0,1,.645,1.07,4.826,4.826,0,0,1,.241,1.642h5.131V206.33H97.31v1.055a8.432,8.432,0,0,0-2.053-1.063,10,10,0,0,0-3.4-.579,12.979,12.979,0,0,0-4.076.646,9.686,9.686,0,0,0-3.5,2.022,9.994,9.994,0,0,0-2.463,3.54,13.08,13.08,0,0,0-.931,5.178v.038a13.278,13.278,0,0,0,.916,5.178,9.565,9.565,0,0,0,2.492,3.539,9.91,9.91,0,0,0,3.7,2.023,15.327,15.327,0,0,0,4.492.646,12.8,12.8,0,0,0,4.56-.733,8.888,8.888,0,0,0,3.164-1.979,7.659,7.659,0,0,0,1.834-2.9,10.466,10.466,0,0,0,.587-3.518h-5.1a5.563,5.563,0,0,1-.257,1.8" transform="translate(-80.286 -205.139)" fill="#987a66"/>
      <path id="Path_276" data-name="Path 276" d="M286.942,255.077a7.4,7.4,0,0,0-2.133-2.719,9.5,9.5,0,0,0-3.328-1.649,17.295,17.295,0,0,0-8.708,0,9.584,9.584,0,0,0-3.336,1.649,7.28,7.28,0,0,0-2.132,2.719,9.912,9.912,0,0,0,0,7.551,7.368,7.368,0,0,0,2.132,2.748,9.4,9.4,0,0,0,3.336,1.664,17.287,17.287,0,0,0,8.708,0,9.324,9.324,0,0,0,3.328-1.664,7.487,7.487,0,0,0,2.133-2.748,9.825,9.825,0,0,0,0-7.551m-7.7,5.872a4.338,4.338,0,0,1-.359,1.378,1.741,1.741,0,0,1-.675.763,2.141,2.141,0,0,1-1.077.241,2.183,2.183,0,0,1-1.085-.241,1.675,1.675,0,0,1-.675-.763,4.613,4.613,0,0,1-.359-1.378,19.983,19.983,0,0,1,0-4.178,4.611,4.611,0,0,1,.359-1.378,1.584,1.584,0,0,1,.675-.747,2.28,2.28,0,0,1,1.085-.227,1.748,1.748,0,0,1,1.752.989,9.008,9.008,0,0,1,.462,3.452A18.168,18.168,0,0,1,279.239,260.949Z" transform="translate(-243.521 -244.182)" fill="#987a66"/>
      <path id="Path_277" data-name="Path 277" d="M610.6,257.791a8.739,8.739,0,0,0-2.207-.946q-1.187-.33-2.206-.564a9.31,9.31,0,0,1-1.693-.537.965.965,0,0,1-.675-.9.8.8,0,0,1,.388-.725,1.977,1.977,0,0,1,1.049-.242,3.24,3.24,0,0,1,1.861.616,3.629,3.629,0,0,1,1.32,1.672h4.03V250.4h-3.884l-.146,1.04a7.7,7.7,0,0,0-2.163-.886,12.061,12.061,0,0,0-3.246-.4,11.489,11.489,0,0,0-2.962.359,7.678,7.678,0,0,0-2.346,1.034,4.711,4.711,0,0,0-1.532,1.656,4.466,4.466,0,0,0-.536,2.169,4.76,4.76,0,0,0,.675,2.676,5.249,5.249,0,0,0,1.664,1.62,8.187,8.187,0,0,0,2.177.916q1.188.315,2.177.572a9.017,9.017,0,0,1,1.663.586,1.021,1.021,0,0,1,.672.932.872.872,0,0,1-.343.666,1.746,1.746,0,0,1-1.151.3,3.165,3.165,0,0,1-1.927-.646,4.827,4.827,0,0,1-1.443-1.817H595.8v5.879h3.871l.147-1.011a9.348,9.348,0,0,0,2.644,1.018,13.864,13.864,0,0,0,2.94.3,13.406,13.406,0,0,0,2.976-.314,7.851,7.851,0,0,0,2.4-.947,4.736,4.736,0,0,0,1.606-1.612,4.41,4.41,0,0,0,.586-2.3,4.971,4.971,0,0,0-.675-2.742,5.216,5.216,0,0,0-1.693-1.656" transform="translate(-532.856 -244.183)" fill="#987a66"/>
      <path id="Path_278" data-name="Path 278" d="M762.415,258.893v-.067a8.888,8.888,0,0,0-.756-3.749,7.4,7.4,0,0,0-2.132-2.719,9.5,9.5,0,0,0-3.33-1.649,17.292,17.292,0,0,0-8.707,0,9.588,9.588,0,0,0-3.334,1.649,7.274,7.274,0,0,0-2.132,2.719,9.9,9.9,0,0,0,0,7.551,7.362,7.362,0,0,0,2.132,2.748,9.407,9.407,0,0,0,3.334,1.664,17.284,17.284,0,0,0,8.707,0,9.327,9.327,0,0,0,3.33-1.664,7.484,7.484,0,0,0,2.132-2.748,8.9,8.9,0,0,0,.756-3.735m-8.459,2.056a4.336,4.336,0,0,1-.359,1.378,1.738,1.738,0,0,1-.674.763,2.151,2.151,0,0,1-1.079.241,2.175,2.175,0,0,1-1.083-.241,1.678,1.678,0,0,1-.675-.763,4.59,4.59,0,0,1-.359-1.378,19.8,19.8,0,0,1,0-4.178,4.588,4.588,0,0,1,.359-1.378,1.586,1.586,0,0,1,.675-.747,2.271,2.271,0,0,1,1.083-.227,1.75,1.75,0,0,1,1.753.989,9.012,9.012,0,0,1,.461,3.452A17.979,17.979,0,0,1,753.955,260.949Z" transform="translate(-660.88 -244.182)" fill="#987a66"/>
      <path id="Path_279" data-name="Path 279" d="M464.011,251.471a3.525,3.525,0,0,0-1.312-.96,4.8,4.8,0,0,0-1.943-.359,4.208,4.208,0,0,0-3.1,1.188,6.943,6.943,0,0,0-1.708,3.5H455.7l.249-4.031H447.24v5.438h.777a1.748,1.748,0,0,1,.917.242,1,1,0,0,1,.4.931v2.785a1.43,1.43,0,0,1-.315.931,1.115,1.115,0,0,1-.917.388h-.865v5.438h12.343v-5.438H458.7a1.317,1.317,0,0,1-1.049-.33,1.755,1.755,0,0,1-.27-1.106v-3.356a5.126,5.126,0,0,1,.359-2.214q.358-.705.667-.7c.1,0,.132.034.1.1s-.084.178-.168.33a3.443,3.443,0,0,0-.241.587,2.82,2.82,0,0,0-.117.872,2.324,2.324,0,0,0,.843,1.8,3.355,3.355,0,0,0,2.308.747,4.233,4.233,0,0,0,1.774-.33,3.292,3.292,0,0,0,1.173-.872,3.413,3.413,0,0,0,.659-1.216,4.6,4.6,0,0,0,.207-1.364,5.974,5.974,0,0,0-.221-1.62,3.712,3.712,0,0,0-.718-1.385" transform="translate(-402.372 -244.182)" fill="#987a66"/>
      <path id="Path_280" data-name="Path 280" d="M92.268,216.22a3.585,3.585,0,0,1-.7,1.247,2.817,2.817,0,0,1-1.033.739,3.162,3.162,0,0,1-1.217.243,3.626,3.626,0,0,1-1.612-.331,2.6,2.6,0,0,1-1.107-1.07,5.88,5.88,0,0,1-.646-1.936,17.378,17.378,0,0,1-.213-2.968,18.729,18.729,0,0,1,.2-2.961,6.44,6.44,0,0,1,.585-1.951,2.466,2.466,0,0,1,1.005-1.062,3.085,3.085,0,0,1,1.48-.33,3.758,3.758,0,0,1,1.172.176,2.3,2.3,0,0,1,.946.586,2.954,2.954,0,0,1,.645,1.071,4.822,4.822,0,0,1,.241,1.642h5.131v-7.99H92.3v1.056a8.471,8.471,0,0,0-2.052-1.063,9.846,9.846,0,0,0-1.561-.417,9.946,9.946,0,0,0-1.84-.162,12.952,12.952,0,0,0-4.075.646,9.673,9.673,0,0,0-3.5,2.022,9.993,9.993,0,0,0-2.463,3.54,13.087,13.087,0,0,0-.931,5.2,13.292,13.292,0,0,0,.916,5.2,9.58,9.58,0,0,0,2.491,3.539,9.916,9.916,0,0,0,3.7,2.023,15.318,15.318,0,0,0,4.492.646,12.766,12.766,0,0,0,4.559-.733,8.9,8.9,0,0,0,3.166-1.979,7.689,7.689,0,0,0,1.833-2.9,10.489,10.489,0,0,0,.585-3.519h-5.1a5.568,5.568,0,0,1-.257,1.8" transform="translate(-75.886 -200.74)" fill="#fff"/>
      <path id="Path_281" data-name="Path 281" d="M281.932,250.072a7.394,7.394,0,0,0-2.132-2.719,9.508,9.508,0,0,0-3.328-1.649,17.3,17.3,0,0,0-8.708,0,9.6,9.6,0,0,0-3.335,1.649,7.282,7.282,0,0,0-2.132,2.719,9.9,9.9,0,0,0,0,7.55,7.365,7.365,0,0,0,2.132,2.749,9.429,9.429,0,0,0,3.335,1.664,17.3,17.3,0,0,0,8.708,0,9.342,9.342,0,0,0,3.328-1.664,7.479,7.479,0,0,0,2.132-2.749,9.81,9.81,0,0,0,0-7.55m-7.7,5.872a4.321,4.321,0,0,1-.359,1.379,1.744,1.744,0,0,1-.674.762,2.14,2.14,0,0,1-1.077.241,2.182,2.182,0,0,1-1.085-.241,1.686,1.686,0,0,1-.675-.762,4.583,4.583,0,0,1-.359-1.379,19.782,19.782,0,0,1,0-4.178,4.583,4.583,0,0,1,.359-1.378,1.592,1.592,0,0,1,.675-.747,2.283,2.283,0,0,1,1.085-.227,1.749,1.749,0,0,1,1.752.989,9.014,9.014,0,0,1,.461,3.453A17.781,17.781,0,0,1,274.228,255.944Z" transform="translate(-239.116 -239.782)" fill="#fff"/>
      <path id="Path_282" data-name="Path 282" d="M605.6,252.785a8.728,8.728,0,0,0-2.206-.946q-1.187-.331-2.206-.565a9.266,9.266,0,0,1-1.694-.536.965.965,0,0,1-.675-.9.8.8,0,0,1,.389-.725,1.971,1.971,0,0,1,1.048-.243,3.235,3.235,0,0,1,1.861.617,3.6,3.6,0,0,1,1.319,1.671h4.031V245.4h-3.884l-.148,1.04a7.688,7.688,0,0,0-2.162-.887,12.084,12.084,0,0,0-3.246-.4,11.487,11.487,0,0,0-2.962.359,7.682,7.682,0,0,0-2.345,1.034,4.706,4.706,0,0,0-1.531,1.657,4.437,4.437,0,0,0-.537,2.169,4.76,4.76,0,0,0,.675,2.676,5.258,5.258,0,0,0,1.664,1.619,8.183,8.183,0,0,0,2.177.916q1.188.315,2.178.572a8.952,8.952,0,0,1,1.662.586,1.021,1.021,0,0,1,.674.931.877.877,0,0,1-.345.667,1.747,1.747,0,0,1-1.151.3,3.169,3.169,0,0,1-1.928-.646,4.828,4.828,0,0,1-1.443-1.817H590.8v5.879h3.871l.147-1.012a9.309,9.309,0,0,0,2.646,1.019,13.824,13.824,0,0,0,2.939.3,13.429,13.429,0,0,0,2.976-.314,7.861,7.861,0,0,0,2.4-.947,4.736,4.736,0,0,0,1.605-1.612,4.4,4.4,0,0,0,.586-2.3,4.981,4.981,0,0,0-.674-2.742,5.221,5.221,0,0,0-1.693-1.655" transform="translate(-528.454 -239.782)" fill="#fff"/>
      <path id="Path_283" data-name="Path 283" d="M756.66,250.072a7.417,7.417,0,0,0-2.132-2.719,9.525,9.525,0,0,0-3.33-1.649,17.3,17.3,0,0,0-8.708,0,9.593,9.593,0,0,0-3.334,1.649,7.271,7.271,0,0,0-2.132,2.719,9.9,9.9,0,0,0,0,7.55,7.353,7.353,0,0,0,2.132,2.749,9.425,9.425,0,0,0,3.334,1.664,17.3,17.3,0,0,0,8.708,0,9.359,9.359,0,0,0,3.33-1.664,7.5,7.5,0,0,0,2.132-2.749,9.826,9.826,0,0,0,0-7.55m-7.7,5.872a4.305,4.305,0,0,1-.36,1.379,1.723,1.723,0,0,1-.674.762,2.14,2.14,0,0,1-1.078.241,2.175,2.175,0,0,1-1.083-.241,1.673,1.673,0,0,1-.674-.762,4.577,4.577,0,0,1-.36-1.379,19.8,19.8,0,0,1,0-4.178,4.576,4.576,0,0,1,.36-1.378,1.581,1.581,0,0,1,.674-.747,2.276,2.276,0,0,1,1.083-.227,1.746,1.746,0,0,1,1.752.989,8.954,8.954,0,0,1,.462,3.453A18.121,18.121,0,0,1,748.956,255.944Z" transform="translate(-656.485 -239.782)" fill="#fff"/>
      <path id="Path_284" data-name="Path 284" d="M459.008,246.466a3.529,3.529,0,0,0-1.312-.96,4.793,4.793,0,0,0-1.942-.359,4.209,4.209,0,0,0-3.1,1.188,6.936,6.936,0,0,0-1.707,3.5h-.25l.25-4.031h-8.708v5.438h.777a1.751,1.751,0,0,1,.917.242,1,1,0,0,1,.4.931V255.2a1.425,1.425,0,0,1-.316.931,1.111,1.111,0,0,1-.915.388h-.865v5.438h12.342v-5.438H453.7a1.317,1.317,0,0,1-1.049-.33,1.757,1.757,0,0,1-.27-1.106v-3.357a5.118,5.118,0,0,1,.359-2.213c.239-.47.461-.7.667-.7q.146,0,.1.1c-.03.069-.085.178-.169.33a3.635,3.635,0,0,0-.242.587,2.852,2.852,0,0,0-.116.872,2.328,2.328,0,0,0,.842,1.8,3.356,3.356,0,0,0,2.309.748,4.238,4.238,0,0,0,1.773-.33,3.293,3.293,0,0,0,1.173-.872,3.463,3.463,0,0,0,.66-1.216,4.671,4.671,0,0,0,.2-1.364,5.966,5.966,0,0,0-.22-1.62,3.705,3.705,0,0,0-.718-1.386" transform="translate(-397.973 -239.782)" fill="#fff"/>
      <path id="Path_285" data-name="Path 285" d="M649.566,355c-.876.256,1.8-1,3.474-.452,1.019.337.916,1.02.824,1.215-.057.122-.4-.486-1.107-.74a5.344,5.344,0,0,0-3.191-.023" transform="translate(-580.101 -335.844)" fill="#fff"/>
      <path id="Path_286" data-name="Path 286" d="M849.139,363.71c.727-.281,3.632-.719,3.425.154-.133.564-.727-.654-3.425-.154" transform="translate(-755.712 -343.702)" fill="#fff"/>
    </g>
  </g>
</svg>
