<svg xmlns="http://www.w3.org/2000/svg" width="67.664" height="70.81" viewBox="0 0 67.664 70.81">
  <g id="Group_2548" data-name="Group 2548" transform="translate(-143.507 570.658) rotate(-135)">
    <path id="Path_35" data-name="Path 35" d="M13.114,14.544C11.6,13.383,1.094,15.039.3,14.7-.351,14.236.183,5.64.7,4.358c.18-.458.413-.535.969-.345.883.366,11.994-.734,11.994-.734.162.262.554-.647.654-.326.3.745,18.314-.817,19.853-.907.933-.055.222.485,1.31.242,2.323-.481,7.452-.238,9.2-.763a4.68,4.68,0,0,1,3.087-.18c1.41.237,8.8-.388,9.616-1.011.2-.171.359-.117.37.075,0,.04,5.235.023,5.266.171.051.188.214.274.355.139.261-.206,5.784-1.093,5.9-.538a37.025,37.025,0,0,1-.592,10c-.564,1.772-4.3-.087-7.164,1.06l-13.581.508-2.877.744c-.363-.562-1.57.913-2.4-.083a4.121,4.121,0,0,0-3.154.057c-.426.346-12.309-.137-13.46,1.044C23.834,12.618,15.135,14.25,13.114,14.544Z" transform="translate(259.345 462.295) rotate(90)" fill="#59a8d9"/>
    <path id="Path_36" data-name="Path 36" d="M3.74,11.788C4.255,10.412-.05,6.506,0,5.943.2,5.368,7.319.61,8.5.1c.423-.182.551-.12.552.249-.047.622,3.977,5.13,3.977,5.13-.167.228.676-.125.449.113-.267.28,1.191,2.292,2.78,4.3,2.6,3.292,5.319,6.681,5.738,7.218.6.766-.479.179.413,1.063a14.767,14.767,0,0,1,1.054,1.2c-1.819,1.761-4.926,4.141-5.762,5.382a5,5,0,0,1-1.564,1.686c-.126.056-.282.1-.476.166-.778.252-3.609,3.1-3.564,3.835.025.193-.081.2-.21.061-.014-.014-1.163.791-1.179.8a5.314,5.314,0,0,1-1.242.747c-.142-.13-.272-.141-.246.008.019.24-1.83,2.675-2.242,2.292a69.064,69.064,0,0,1-6.216-7.8c-.893-1.532,1.944-1.306,2.457-3.091l5.629-4.717.119-.23a1.087,1.087,0,0,0-.3-.385c.247.169.087.038-.043-.043s-.23-.118.3.115c.412.181.73.074.242-.047-.088-.022-.058-.038.036-.067.163-.158.076-.473-.131-.473,0,.017-.047-.031-.09-.068s-.082-.069-.121-.1a1.686,1.686,0,0,0-.232-.156.69.69,0,0,0-.409-.108C8.324,15.634,4.548,12.554,3.74,11.788Z" transform="translate(271.391 512.175) rotate(90)" fill="#59a8d9"/>
  </g>
</svg>
