<svg xmlns="http://www.w3.org/2000/svg" width="209.519" height="183.192" viewBox="0 0 209.519 183.192">
  <g id="Group_38" data-name="Group 38" transform="translate(-224.207 -355.099)">
    <path id="Path_49" data-name="Path 49" d="M269.437,502.813c-5.3,1.1-21.868,26.812-24.077,27.89-2.221.54-19.152-16.59-20.85-20.08-.611-1.241-.329-1.887,1.13-2.728,2.444-1.222,21.316-27.2,21.316-27.2.855.135-.3-2.4.566-2.015,2.124.744,33.187-40.97,35.929-44.451,1.665-2.112,1.435.424,3-2.373,3.422-5.9,13.7-16.5,15.939-21.236,1.762-3.822,2.306-4.516,5.5-6.988,3.183-2.6,15.958-19.678,16.211-22.59.019-.746.44-.992.86-.661.088.069,10.021-11.233,10.391-11.025.49.242.983.05.966-.507.069-.945,8.74-14.492,10.125-13.718,3.978,2.157,17.35,15.588,19.763,19.877,2.624,4.509-8.38,9.1-11.44,17.4l-24.814,30.2-3.928,7.577c-1.864-.26-1.085,5.079-4.745,5.015-1.492.019-5.887,5.022-5.891,6.9-.09,1.558-23.739,26.258-23.464,30.935C285.842,476.138,272.676,497.911,269.437,502.813Z" transform="translate(0 0)" fill="#feef27" opacity="0.7"/>
    <path id="Path_50" data-name="Path 50" d="M282.211,398.051c1.584-4.681-12.373-26.533-12.238-28.685.594-1.987,23.161-10.256,26.926-10.511,1.343-.1,1.757.343,1.781,1.807-.123,2.389,12.962,26.206,12.962,26.206-.521.654,2.174.535,1.442,1.115-1.639,1.492,19.012,40.355,20.665,43.722,1,2.041-1.04,1.032.587,3.22,3.379,4.7,7.492,16.524,10.454,19.886,2.408,2.676,2.735,3.344,3.318,6.756.694,3.436,9.124,19.4,11.475,20.544.623.258.632.682.152.916-.1.05,4.776,11.816,4.426,12.053-.438.322-.509.784-.031.952.77.36,8.151,11.826,6.834,12.706-3.715,2.548-21.454,9.112-26.237,9.692-5.07.68-3.748-9.789-9.334-14.973l-13.848-30.033-4.565-5.659c1.1-1.437-3.8-2.531-2-5.5.689-1.224-1.468-6.431-3.059-7.045-1.281-.578-11.016-27.878-15.115-29.171C297.058,420.08,284.832,402.283,282.211,398.051Z" transform="translate(62.605 5.119)" fill="#feef27" opacity="0.7"/>
    <path id="Path_51" data-name="Path 51" d="M265.731,451.174c-3.467-3.644-33.272-4.137-35.747-5.683-1.549-1.62,4.516-24.942,6.531-28.2.722-1.167,1.385-1.262,2.773-.455,2.456,1.632,29.422,3.313,32.543,3.4.334.789,1.75-1.577,1.892-.646.249,1.092,12.683,2.295,25.593,2.91,8.868.424,19.9.481,28.373.578,2.546.028.5,1.369,3.514.935,6.386-.921,20.319.651,25.145-.675,3.857-1.061,4.665-.978,8.423-.173,4.018.86,23.888-.429,26.2-2.408.549-.469.978-.332,1.009.2,0,.038,2.19.057,2.231.057.294,0,12.043,0,12.114.277.135.53.6.76.976.372.715-.521,15.636-3.5,16.036-1.961,1.146,4.378.843,23.279-.528,27.991-.727,2.493-3.748,2.557-7.6,2.4s-8.513-.6-12.526,1.089c-48.557,2.162-31.626-.372-46.533,2.839-.954-1.6-4.509,2.347-6.763-.54-.914-1.17-7.45-1.48-8.9-.313-.63.414-9.3-.194-18.221-.729-4.461-.268-8.991-.492-12.626-.5s-6.382.282-7.277,1C297.516,450.307,278.918,451.039,265.731,451.174Z" transform="translate(7.561 83.725)" fill="#feef27" opacity="0.7"/>
  </g>
</svg>
