<svg xmlns="http://www.w3.org/2000/svg" width="109.202" height="48.38" viewBox="0 0 109.202 48.38">
  <path id="Path_33" data-name="Path 33" d="M108.359,417.393c2.239.051,5.9-5.251,7.082-7.193,1.047-1.72.7-1.182,1.585-2.772.212-.382.911-1.753,1.132-2.178l.2-.393c-4.3-2.452,5.493,3.106,4.928,2.788-.06-.034-.142-.078-.212-.114-1.063-.525-.665-.225.254-.078.894.143,2.633.225,3.326-.339.044-.042.023-.018.041-.041a.228.228,0,0,0,.031.108c.08.036-.155.137-.24.183l.108-.059.161-.086a1.055,1.055,0,0,1,.173-.483,5.04,5.04,0,0,1,4.445-2.358c2.276-.029,5.309,1.525,6.284,3.238,1.331,2.338.082,4.419-1.259,6.751-.075.129-.173.31-.254.419-.158.217-.205.293-.39.564,0,0-2.534,4.171-3.581,5.8a89.319,89.319,0,0,1-9.689,12.694c-.572-.15-.021,1.7-.6,1.378-.686-.378-7.514,6.371-16.617,11.021a56.3,56.3,0,0,1-21.519,6.351c-2.05.155-.47-.882-2.857-.473a32.572,32.572,0,0,1-10.6-.708c-1.433-.3-12.079-3.144-13.066-3.607-.523-.282-8.618-6.555-11.505-9.169-3.483-3.152-6.454-6.548-7.419-7.01-.51-.2-.61-.556-.307-.765-.647-1.314-1.11-1.684-2.677-5.019a28.451,28.451,0,0,1-2.035-5.286.449.449,0,0,0-.007-.8c-.7-.492-2.593-5.012-2.9-5.812-1.1-2.881-1.663-5.89-1.168-6.08,1.451-.561,5.441-1.055,9.469-1.435,11.067-1.042,11.352-1.562,11.941,2.863.269,2.02.925,4.559,2.581,5.749,2.7,5.759,9.515,14.4,15.928,14.419-.016.592.615.409,1.236.351.651-.106,1.28-.083,1.485,1.029.235.985,3.229,1.761,4,1.019a17.083,17.083,0,0,1,2.836.2c8.632.66,14.758-1.807,15.13-3.437,1.741.352,5.286-1.479,8.295-4.111A44.142,44.142,0,0,0,108.359,417.393Z" transform="translate(-29.027 -404.231)" fill="#65d07d"/>
</svg>
