<svg xmlns="http://www.w3.org/2000/svg" width="204.447" height="53.632" viewBox="0 0 204.447 53.632">
  <g id="Group_33" data-name="Group 33" transform="translate(-225.153 -1695)">
    <path id="Path_27" data-name="Path 27" d="M15.836,211.021c.937-1.476-1.7-12.288-.906-13.955.562-.688,11.318.7,12.169.961.529.161.6.339.363.808-.246.353-.07,2.926.405,5.509s1.165,5.067,1.165,5.067c-.283.2.822.375.462.532-.543.283,1.27,7.642,1.714,7.981.135-.07.258-.133.373-.2l.128-.039c.265-.062.087.582.423.29-.143-.257,4.211-.932,4.5-.976a26.752,26.752,0,0,0,4.522-.844,4.3,4.3,0,0,1,3.213-.363,12.369,12.369,0,0,0,2.073-.007c.9-.048,7.28-.46,8.01-1,.218-.188.385-.111.384.115l2.738.279a13.742,13.742,0,0,1,2.737.449c.025.228.187.349.35.207a12.6,12.6,0,0,1,2.763-.213L61.849,228.19c-1.541-.108-3.186-.343-3.175-.709a53.406,53.406,0,0,1,3.046-11.407c.416-.8,1.2-.743,2.195-.452l-1.59,12.692c-1.166-.237-3.067-.963-4.662-.328a92.9,92.9,0,0,0-12.517.07c-1.489.556-1.936.714-2.586.984-.4-.638-1.317,1.133-2.21.049-.391-.474-2.5-.216-2.884.337a2.688,2.688,0,0,1-.962.248,117.645,117.645,0,0,0-13.348,3.084c-1.148-3.291-2.143-5.871-2.748-6.314C20.178,222.528,16.305,212.526,15.836,211.021Z" transform="translate(211.982 1515.689)" fill="#59a8d9"/>
    <path id="Path_28" data-name="Path 28" d="M27.861,200.466c-1.918-1.379-12.067,2.116-13.068,1.8-.765-.444-1.882-10.524-1.567-12.106.112-.562.345-.691.976-.558.507.142,3.689-.535,6.764-1.168s6.04-1.241,6.04-1.241c.206.29.52-.818.667-.451.208.425,5.124-.273,10.227-.89,4.927-.6,6.271-.759,8.655-.984,2.558-.241,1.59-.162,4.608-.372,1.863-.129.2.564,2.432.241,1.193-.173,2.72-.293,4.388-.38,2.55-.133,2.313-.115,3.31-.156,0,0-.386,8.472-.147,10.594a20.49,20.49,0,0,1,.2,3.161c0,.079-.023.527-.04.6a8.91,8.91,0,0,1-.335,1.261c-.448,1.453-.471,9.3.176,10.224.18.226.1.39-.127.382,0,0-.61,5.508-.755,5.526-.228.029-.346.2-.2.359.214.3.675,6.2.01,6.27a49.751,49.751,0,0,1-11.7-1.648c-2.018-.788.556-4.52-.49-7.649.035-.6,1.043-15.688.649-15.237a.781.781,0,0,0-.461-.073c.348-.1.1-.074-.072,0-.489.162.647-.257.805-.747.021-.064.011-.1-.037-.1a1.092,1.092,0,0,0-.3.241c-.1.1-.144.086-.216.033a1,1,0,0,0-.651-.2c-1.126.058-5.872.257-6.562,1.147C38.479,197.278,28.969,200.174,27.861,200.466Z" transform="translate(211.982 1515.689)" fill="#59a8d9"/>
    <path id="Path_29" data-name="Path 29" d="M79.141,226.622c-1.033-1.547-11.343-9.686-10.521-23.966a16.633,16.633,0,0,1,1.051-5.315c.509-.711,2.956.446,5.5,1.7.49.243,5.446,2.658,5.875,2.994.506.4.45.763.155,1.331a8.294,8.294,0,0,0-.129,3,13.147,13.147,0,0,0,7.044,10.281c.029.381,1.016-.313.932.083-.029.221,1.311,1.1,3.672,1.538,8.316,1.547,15.008-4.893,15.613-12.148.1-1.161.685-.343.407-1.641-.653-4.408-2.72-9.491-6.909-10.829A12.342,12.342,0,0,1,99.4,192.3a10.8,10.8,0,0,0-6.633-.579c-2.244.458-4.849,1.816-5.214,2.824-.1.288-.29.34-.429.166a2.453,2.453,0,0,0-.232.147,16.113,16.113,0,0,0-4.213,4.922.29.29,0,0,0-.352.37A23.765,23.765,0,0,0,82,206.739c.054.676.093,1.129-.073,1.2a19.663,19.663,0,0,1-5.808.839c-2.514.033-5.064-.457-6.121-1.167-1.1-.739-1.238-3.6-.439-6.933a34.566,34.566,0,0,1,1.748-5.182c1.9-4.554,2.773-6.322,5.865-9.3a25.963,25.963,0,0,1,10.308-5.864,27.732,27.732,0,0,1,13.7-.3,36.245,36.245,0,0,1,9.922,4.018c.116.546,1.084,1,2.068,1.7a4.511,4.511,0,0,1,2.1,2.795c.066.423,3.569,6.6,3.864,6.9a7.723,7.723,0,0,1,.631,1.535c2.487,7.082,1.086,16.829-5.013,24.426-2.008,2.5-3.878,4.1-4.3,4.835-2.024.9-12.487,7.558-25.3,3.24A26.345,26.345,0,0,1,79.141,226.622Z" transform="translate(211.982 1515.689)" fill="#59a8d9"/>
    <path id="Path_30" data-name="Path 30" d="M131.28,198.24c.618-1.67-4.559-7.394-4.453-8.394.286-.685,9.413-5.085,10.876-5.5.525-.15.67-.051.628.393-.145.821,3.6,5.782,4.137,6.444l.2.249c-.206.263.815-.1.534.171-.33.318,1.374,2.861,3.346,5.328,1.376,1.72,3.3,3.783,4.58,5.2.418.459-.346.477.3.889,1.352.865,3.218,3.8,4.432,4.26.966.368,1.1.511,1.467,1.439.459.962,4.211,4.094,5.107,3.9.228-.05.258.07.112.242,0,0,2.391,2.553,2.329,2.648-.123.192-.108.348.063.291.27-.033,3.608,1.656,3.263,2.225a70.32,70.32,0,0,1-7.665,8.933c-1.631,1.332-2.313-2.244-4.655-2.68-2.35-2.1-3.535-3.132-7.274-6.908l-2.009-1.027c.312-.654-1.529-.157-1.058-1.443.188-.514-.888-1.843-1.508-1.781a24.542,24.542,0,0,1-3.045-3.672c-.582-.758-2.772-3.723-3.726-3.662C137.239,204.158,133.843,200.926,131.28,198.24Z" transform="translate(211.982 1515.689)" fill="#59a8d9"/>
    <path id="Path_31" data-name="Path 31" d="M151.21,189.615c1.878.069,6.056-6.965,7.056-7.2.765.031,7.781,7.34,8.6,8.639.295.465.234.647-.231.778-.831.151-5.27,6.167-5.749,6.863-.317-.116.291.791-.051.6-1-.549-8.525,10.674-9.187,11.6-.4.567-.551-.218-.862.572-.656,1.668-3.365,4.44-3.666,5.832a2.351,2.351,0,0,1-1.267,1.925c-.9.647-3.669,5.476-3.372,6.373.076.231-.044.291-.237.174,0,0-2.366,3.123-2.481,3.073-.209-.092-.367-.043-.293.128.075.284-1.382,4.215-1.993,3.952a66.029,66.029,0,0,1-9.814-6.515c-1.524-1.477,2-2.726,2.168-5.276,2.288-3.556,2.824-4.392,5.908-8.876l.693-2.282c.712.164-.105-1.585,1.263-1.415.55.068,1.692-1.35,1.515-1.962-.049-.246,1.526-2.087,3.085-4.024s3.11-3.965,2.867-4.748C146.952,197.284,149.8,191.946,151.21,189.615Z" transform="translate(211.982 1515.689)" fill="#59a8d9"/>
    <path id="Path_32" data-name="Path 32" d="M176.438,216.014c.285-1.979-6.952-8.914-7.06-9.76.091-.832,8.528-6.454,10.02-6.961.532-.181.731-.057.849.505.13.937,7.165,8.726,7.165,8.726-.08.154.148.152.365.14.105-.006.222,0,.268,0,.031-.024.027-.018-.047.043-.357.3-.121.691.2,1.022a4.216,4.216,0,0,0,.4-.85c.212-.312.127-.2.431-.626.506-.718.574.19,1.014-.77.936-2.037,4.278-5.553,4.837-7.2a3.665,3.665,0,0,1,1.692-2.362c1.083-.828,4.943-6.641,4.857-7.685-.04-.268.108-.345.292-.213,0,0,3.2-3.746,3.33-3.679.2.1.384.047.343-.154-.033-.34,2.471-4.975,3.059-4.658a55.757,55.757,0,0,1,8.908,7.741c1.29,1.71-2.674,3.044-3.336,5.948L206.315,205.4l-1.044,2.621c-.738-.148-.1,1.782-1.523,1.673-.575-.044-1.964,1.642-1.847,2.32.027.243-3.989,5.236-4.146,5.443-3.363,4.456-6.6,8.941-7.154,10.847a8.161,8.161,0,0,0-1.764,1.748,103.149,103.149,0,0,0-7.15-8.506C176.863,216.276,178.186,217.691,176.438,216.014Z" transform="translate(211.982 1515.689)" fill="#59a8d9"/>
  </g>
</svg>
