<svg xmlns="http://www.w3.org/2000/svg" width="161.115" height="34.732" viewBox="0 0 161.115 34.732">
  <path id="Path_20" data-name="Path 20" d="M146.965,376.494c-4.123-2.616-26.769,3.906-28.692,3.35-1.615-.871-2.916-20.353-2.065-23.4.3-1.083.819-1.327,2.167-1.058,1.208.319,13.5-1.967,14.733-2.189,6.708-1.2,13.183-2.29,13.183-2.29.421.565,1.2-1.56,1.483-.848.206.417,2.985.29,7.1-.071,0,0,38.635-3.535,39.54-3.592,2.194-.14.506,1.09,3.075.587,5.479-1.077,17.528-.135,21.68-1.106,6.966-1.631,1.542.56,19.107.371,5.021-.054,9.895-.339,10.924-.917.5-.34.869-.179.852.256,0,.031,1.883.242,1.914.246.348.04,10.318,1.144,10.36,1.49.056.442.419.675.788.413.658-.467,13.826-.679,13.926.61.281,3.658-2.9,18.724-4.641,22.3-.927,1.9-3.3,1.51-6.325.869s-6.677-1.458-10.031-.562c-5.893-.406-10.46-.708-15.306-.942-17.509-.854-15.233-.587-21.907.785-.765-1.319-3.592,1.858-5.4-.427-.739-.933-5.991-1.085-7.12-.115a21.713,21.713,0,0,1-4.791.237c-2.823,0-23.388-.292-25.57,2.144C170.52,370.671,152.487,375.2,146.965,376.494Z" transform="translate(-115.939 -345.146)" fill="#65d07d"/>
</svg>
