<svg xmlns="http://www.w3.org/2000/svg" width="263.543" height="24.408" viewBox="0 0 263.543 24.408">
  <g id="Group_27" data-name="Group 27" transform="translate(-789.346 -1425.5)">
    <path id="Path_21" data-name="Path 21" d="M26.862,260.785c-.777-1.861-5.6,0-5.988-.561-.334-.751-.6-13.8-.436-15.724.057-.686.162-.79.433-.464.434.611,5.569-.367,5.569-.367.092.408.221-.951.287-.455.185,1.153,8.524-.1,9.238-.14.434-.025.133.751.628.451,1.059-.587,3.475.1,4.261-.586.63-.571.772-.58,1.435-.081.673.449,4.1-.04,4.44-.937.081-.248.16-.155.177.136,0,.061,2.451.362,2.476.591.035.29.116.432.175.233.11-.3,2.642-1.3,2.731-.449.262,2.423.483,12.7.323,15.2-.158,2.662-2.019-.4-3.29,1.163l-6.326-.076-1.3.951c-.2-.876-.68,1.291-1.129-.277-.187-.623-1.271-.756-1.472-.11-.18.5-5.771-.98-6.239.747C31.764,258.524,27.79,260.464,26.862,260.785Z" transform="translate(768.958 1189.124)" fill="#59a8d9"/>
    <path id="Path_22" data-name="Path 22" d="M68.133,258.779c-.588-1.891-4.611-.229-4.916-.807-.255-.765-.11-13.818.078-15.729.067-.683.156-.781.371-.445.341.628,4.6-.137,4.6-.137.065.411.209-.941.249-.443.12,1.16,7.026.253,7.615.243.358-.008.088.756.505.477.888-.543,2.858.247,3.526-.41.534-.546.652-.548,1.184-.022.543.476,3.375.129,3.684-.754.075-.244.137-.149.142.143,0,.061,2.01.463,2.023.692.021.292.084.437.137.24.1-.292,2.213-1.191,2.264-.336.149,2.433.044,12.708-.158,15.2-.2,2.653-1.652-.486-2.742,1.026l-5.211-.337-1.1.9c-.143-.884-.6,1.263-.923-.323-.137-.63-1.025-.808-1.21-.171-.162.49-4.726-1.218-5.16.489C72.236,256.722,68.907,258.5,68.133,258.779Z" transform="translate(781.454 1188.783)" fill="#59a8d9"/>
    <path id="Path_23" data-name="Path 23" d="M106.235,258.874c-.737-1.867-5.319-.036-5.689-.6-.317-.754-.555-13.807-.4-15.726.056-.685.155-.787.412-.46.412.614,5.294-.331,5.294-.331.087.41.211-.949.273-.452.175,1.154,8.1-.041,8.779-.078.412-.022.125.752.6.455,1.006-.579,3.3.128,4.05-.556.6-.569.733-.577,1.363-.074.64.454,3.892-.012,4.221-.906.079-.248.153-.155.169.137,0,.061,2.328.379,2.35.606.034.291.111.432.165.234.106-.3,2.513-1.284,2.6-.43.247,2.425.445,12.7.288,15.2-.153,2.66-1.918-.416-3.127,1.141l-6.011-.119-1.238.944c-.194-.879-.649,1.286-1.073-.284-.177-.624-1.206-.765-1.4-.121-.169.5-5.481-1.017-5.928.706C110.9,256.645,107.117,258.56,106.235,258.874Z" transform="translate(792.289 1188.604)" fill="#59a8d9"/>
    <path id="Path_24" data-name="Path 24" d="M140.09,257.739c-.535-1.907-4.6-.359-4.892-.946-.233-.772.282-13.815.524-15.719.087-.681.177-.778.383-.436.323.639,4.6-.006,4.6-.006.052.414.235-.935.261-.436.087,1.162,7.014.452,7.6.458.358,0,.067.759.491.491.9-.517,2.85.328,3.537-.309.549-.53.667-.529,1.184.012.529.491,3.37.225,3.7-.649.081-.242.141-.145.138.147,0,.062,2,.52,2,.748.013.292.071.44.131.244.107-.288,2.245-1.127,2.271-.27.08,2.434-.315,12.7-.588,15.183-.279,2.647-1.638-.531-2.77.949l-5.2-.485-1.123.866c-.119-.888-.632,1.245-.913-.349-.119-.635-1-.836-1.2-.206-.176.486-4.69-1.351-5.172.343C144.247,255.8,140.871,257.479,140.09,257.739Z" transform="translate(802.545 1188.621)" fill="#59a8d9"/>
    <path id="Path_25" data-name="Path 25" d="M174.1,257.211c-.635-1.9-5.164-.271-5.5-.852-.275-.767.05-13.818.286-15.727.083-.683.184-.781.42-.442.375.632,5.155-.1,5.155-.1.067.414.246-.939.284-.44.12,1.161,7.87.318,8.532.312.4,0,.089.758.56.482,1-.535,3.2.273,3.957-.377.606-.54.737-.542,1.328-.012.6.481,3.781.16,4.138-.719.087-.244.155-.149.158.143,0,.062,2.247.482,2.258.71.019.292.089.438.151.243.114-.291,2.495-1.171,2.54-.315.137,2.433-.11,12.707-.367,15.192-.261,2.653-1.845-.5-3.086,1l-5.835-.385-1.242.888c-.15-.886-.685,1.256-1.029-.331-.146-.632-1.14-.817-1.355-.182-.187.489-5.282-1.26-5.789.442C178.723,255.192,174.972,256.937,174.1,257.211Z" transform="translate(812.308 1188.37)" fill="#59a8d9"/>
    <path id="Path_26" data-name="Path 26" d="M206.324,256.8c-.782-1.852-5.456.057-5.844-.5-.336-.748-.767-13.8-.632-15.718.047-.686.147-.791.416-.468.433.606,5.425-.424,5.425-.424.1.408.2-.953.274-.458.2,1.152,8.308-.184,9-.231.423-.028.14.751.618.446,1.024-.6,3.388.07,4.147-.628.606-.578.745-.588,1.4-.1.663.442,3.993-.08,4.316-.981.078-.249.155-.158.176.134,0,.061,2.394.337,2.42.565.039.29.12.43.173.231.1-.3,2.56-1.328,2.658-.476.288,2.42.637,12.692.513,15.189-.119,2.663-1.974-.383-3.192,1.2l-6.169-.013-1.257.966c-.211-.875-.646,1.3-1.1-.266-.191-.62-1.249-.743-1.437-.1-.168.5-5.639-.922-6.072.809C211.075,254.493,207.225,256.472,206.324,256.8Z" transform="translate(821.477 1187.901)" fill="#59a8d9"/>
  </g>
</svg>
