<svg xmlns="http://www.w3.org/2000/svg" width="52.321" height="273.514" viewBox="0 0 52.321 273.514">
  <g id="Group_37" data-name="Group 37" transform="translate(-362.842 -3886.781)">
    <path id="Path_43" data-name="Path 43" d="M303.636,57.421c-2.242-2.933-15.912-7.244-16.067-28.772a17.7,17.7,0,0,1,.359-4.91c1.085-1.276,17.928,2.028,20.357,3.167.875.41.977.844.514,1.748a10.567,10.567,0,0,0,.169,5.371c.44,1.328,1.3,2.491,4.557,3.26.008.587.993-1,.927-.346-.037.378,1.33,1.006,4.058,1.274A38.041,38.041,0,0,0,326.571,38c1.094-.11,2.206-.256,3.324-.4,4.5-.576,9.207-1.551,13.037-2.334,3.888-.8,6.767-1.4,7.551-1.546,1.938-.376.555.875,2.806.137,5.739-1.881,16.763-2.051,20.238-2.88,3.246-.775,3.838-.765,7.232-.012.676.15,8.208,1.015,11.933,1.652,5.055.863,9.871,2.132,11.038,1.96.581-.121.9.135.763.49,0,0,3.364,1.566,5.656,2.835a32.053,32.053,0,0,1,5.329,3.44.512.512,0,0,0,.551.691c1.519.034,12.384,6.868,11.639,8.1-1.527,2.523-12.526,12.005-14.791,13.384-3.091,1.883-5.5-5.25-11.191-5.757-1.34-.7-2.474-1.225-3.3-1.589a53.849,53.849,0,0,0-19.244-4.544c-2.479.492-1.743.329-5.206,1.18-.322-.575-1.053-.1-1.869.244-2.7,1.149-1.156-1.126-5.449-.807a5.538,5.538,0,0,0-3.071.905,20.014,20.014,0,0,1-4.1.679c-3.15.388-21.395,2.644-23.213,4.61-1.969-.536-6.253-.046-10.094.361C318.978,59.559,310.719,59.994,303.636,57.421Z" transform="translate(426.679 3599.214) rotate(90)" fill="#65d07d"/>
    <path id="Path_44" data-name="Path 44" d="M484.391,34.328c1.955.873,5.528-3.384,5.54-13.35a22.619,22.619,0,0,1,.094-4.021c.971-1.262,17.453-.369,20.565,1.546.892.549,1.074,1.205.568,2.681-.2.587-.344,2.929-.794,6.216-1.513,11.053-5.887,20.643-15.373,26.69-.683-.212-1.148,2.071-1.711,1.611,0,0-17.707,7.684-51.248,4.463-2.211-.212-.369-1-2.993-.93-5.631.16-17.156-2.381-21.145-1.911a12.318,12.318,0,0,1-6.8-.608c-3.957-1.195-18.519-.951-20.481.738-.4.347-.726.256-.76-.123,0,0-.169-.013-.462-.01-1.687.02-3.888.169-4.851.249a50.141,50.141,0,0,1-5.272.44c-.158-.359-.521-.475-.743-.148-.194.229-5.2,2.287-5.478,2.4-2.557,1.065-4.927,2.25-5.26,1.765-.915-1.331-4.574-3.669-5.818-7.657-3.169-10.153-2.038-11.254.024-12.27a18.721,18.721,0,0,1,4.512-1.374c5.938-1.333,13.633-7.868,47.176-4.566l7.043-.5c.646,1.234,3.929-1.18,5.523,1.053.654.919,5.939,1.773,7.19,1.085.556-.266,7.458.993,14.373,1.795,6.942.8,13.879.819,15.106-.349C466.443,40.718,479.982,39.4,484.391,34.328Z" transform="translate(431.533 3648.858) rotate(90)" fill="#65d07d"/>
  </g>
</svg>
