<svg xmlns="http://www.w3.org/2000/svg" width="243.772" height="137.094" viewBox="0 0 243.772 137.094">
  <path id="Path_42" data-name="Path 42" d="M317.01,280.71c2.774-.78,5.43-1.429,7.924-1.989a90.893,90.893,0,0,1,19.111-2.528c4.867.69-.506,17.021-2.293,21.65-1.042,2.7-2.066,4.867-3.036,5.8-1.367,1.319-3.027,1.695-7.065,1.939-22.925,1.376-58.8,24.149-64.9,46.742-.846.534.925,2.873.251,3.073-.473.2-.991,3.383.591,6.6,10.457,21.228,73.184,24.681,97.1,24.235a262.66,262.66,0,0,0,28.922-2.014c7.175-.892,2.02,1.141,9.861-.684,16.708-3.891,47.362-13.6,49.661-29.913a33.044,33.044,0,0,0-2.906-13.884,32.04,32.04,0,0,0-7.568-9.336c-7.59-6.788-21.371-13.433-38.075-14.987-5.988-.556-10.525-.31-12.057.062-1.5.363-2.633.224-2.642-.262-15.172-.536-30.706,3.6-36.831,4.981a12.991,12.991,0,0,1-1.745.363c-.435-.383-1.673-.246-2.658.415-.934.53-11.413,4.605-21.665,9.428-10.228,4.81-20.366,9.978-21.028,9.485-3.755-2.79-5.9-21.171-2.8-27.438,1.594-3.212,9.843-7.065,20.867-11.064,11.039-4,24.785-7.891,37.349-11.7,0,0,.468-.084,1.343-.264s2.165-.393,3.814-.673c3.273-.558,8.094-1.222,13.862-1.66,60.318-4.592,110.281,34.852,99.479,76.49-1.864,2.35-5.711,17.619-15.48,21.881,0,0-8.114,5.724-16.783,10.534-5.9,3.269-20.9,14.418-65.6,16.8-13.589.721-27.374.552-38.411.077s-19.329-1.167-22.024-.75c-4.8-1.312-13.809-2.829-22.461-4.7-4.994-1.081-10.5-2.394-16.273-4.218-2.884-.912-5.825-1.948-8.784-3.135-25.8-10.347-41.922-30.706-34.784-56.544C244.773,323.658,276.944,291.969,317.01,280.71Z" transform="translate(-237.589 -276.184)" fill="#feef27" opacity="0.7"/>
</svg>
